<?xml version="1.0" encoding="UTF-8"?> <svg xmlns="http://www.w3.org/2000/svg" viewBox="0 0 72.03 104.07"> <defs> <style>.cls-1{fill:#f281c1;}.cls-2{fill:#009540;}.cls-3{fill:#3c3c3b;}</style> </defs> <g id="Слой_2" data-name="Слой 2"> <g id="Objects"> <path class="cls-1" d="M48.21,24.05a3.65,3.65,0,0,0,1.07-4.41c-.76-1.64-1.42-3.32-2-5a3.92,3.92,0,0,0,2-1.39c.58.49,1.15,1,1.71,1.52,2.43,2.28,7.12.07,5.9-3.43-.47-1.34-1-2.67-1.48-4a11,11,0,0,0-2.45-5.63c-1.65-2.1-4.79-.92-5.77,1.16A3.59,3.59,0,0,0,43.5,4.22a8.85,8.85,0,0,0-1.23-.39,3.6,3.6,0,0,0-4.43,3.06,3.55,3.55,0,0,0-3.91,3.45,3.79,3.79,0,0,0-4.42.88c-1.24-1.51-2.52-3-3.87-4.45-2.25-2.43-7.12.09-5.81,3.39.77,1.92,1.61,3.81,2.48,5.68a62.46,62.46,0,0,0-4.81-5c-2.29-2.1-6.91-.08-5.63,3.28,2.55,6.73,6,13,9.28,19.43-1.4-1.08-2.84-2.1-4.34-3.05a3,3,0,0,0-2.18-.42l-.77-1.33c-1.8-3.1-7.07-1-5.87,2.47.24.71.48,1.41.71,2.12-.26-.27-.53-.53-.8-.79C6.39,31.15,3.16,32,3.42,34.44a13.17,13.17,0,0,0,2.93,7.05A2.24,2.24,0,0,0,9,42.18a41,41,0,0,1,4.54,7.88c1.15,2.7,4.34,1.54,5.25-.62,1.29,1.87,2.64,3.7,4.07,5.48,2.12,2.63,6.44-.2,5.51-3.2a50.63,50.63,0,0,0-1.82-4.92l1.32,1.1c2.3,1.87,6.9.21,5.59-3.25-1.13-3-2.43-5.86-3.81-8.71A73.83,73.83,0,0,0,37,43.87c2.6,2.42,5.9,0,5.58-2.9,1.43,2,2.9,4,4.44,6,1.9,2.39,5.41.51,5.82-2,2.54.51,4.85-2.35,3.64-5.18A120.7,120.7,0,0,0,48.21,24.05Z"></path> <path class="cls-2" d="M50.65,77.2a3.76,3.76,0,0,0,.07-4.75c-2.26-2.57-3.26-6.06-6.64-7.36a2.45,2.45,0,0,0-3.18,1.69,47.65,47.65,0,0,0-6-3.83c-3.64-2-6.68,3.28-3.22,5.51,1.38.89,2.72,1.81,4.05,2.73a39.31,39.31,0,0,0-8-2.18c-2.15-.31-3.18,2.63-1.17,3.39a200.87,200.87,0,0,0,21.13,9.08c2.31.8,4.39-2.08,3.13-4.07Z"></path> <path class="cls-2" d="M66.19,49.21c-5.53,5.62-11.14,11.3-15.49,17.92C48.92,69.84,52.38,73,55,71.46a32.94,32.94,0,0,0,5.52-3.68,3.35,3.35,0,0,0,.6-.75,27.2,27.2,0,0,0,7.35-7.94,2.73,2.73,0,0,0,1.62-1.75,5.6,5.6,0,0,0,.18-1.55c.53-1.08,1-2.18,1.49-3.31C73.11,49.24,68.4,47,66.19,49.21Z"></path> <path class="cls-3" d="M36.4,24.22c-1.06-4.08-5.76-3.9-7.95-.93a10,10,0,0,0-6.18,7C21.3,36,28.94,37.53,32.69,35,36,32.8,37.37,28,36.4,24.22Zm-4.34,8.17c-1.93,2-7.5,2.24-7.52-1.46,0-2.4,2-4.53,4.36-5.56a1.09,1.09,0,0,0,.58-.11l.44-.26a5.76,5.76,0,0,1,3.41,0,.51.51,0,0,0,.64-.22,2.89,2.89,0,0,1,.11.35A8.23,8.23,0,0,1,32.06,32.39Z"></path> <path class="cls-3" d="M70.36,102.37a10.21,10.21,0,0,0-1.66-4.05c-.56-1-2.27-.32-1.87.79a1.17,1.17,0,0,1,0,.11c-6.54-5.75-11.41-13-15.36-20.88a.55.55,0,0,0,0-.53c-.2-.34-.43-.71-.68-1.1,0-.12.07-.25.11-.37,4.74-1.59,10-6.12,13.24-9.18C68,63.55,69.5,58.9,67,54.15a1.34,1.34,0,0,0-1.79-.47C56.79,57.34,52,65,49.19,73.35h0c-4-9-7-18.44-10.09-27.27,6.62,2,14,1,18.25-5.11C62.1,34.09,56.19,25.12,49,23.05c5.88-4.69,10.83-11.78,6.39-18.76-6.38-10-17-.3-21.25,7C25.21-2.54,10.81,14.58,14.74,24.22,7.34,22.38.29,24.8,0,34.65c-.27,9.22,7,14.89,15.08,12.4-1.95,18,18.63,6.55,19.83-2.63a22,22,0,0,0,2.27,1,.72.72,0,0,0,0,.54h0a230.93,230.93,0,0,0,7.28,22.61c-5.31-5.6-12.17-10.15-17-4.94-7.42,8,16,17,20.3,18.82a1.31,1.31,0,0,0,1.89-.77c.07-.36.15-.72.23-1.08,4.7,9,10.67,17.19,18.59,23.23C69.41,104.57,70.62,103.37,70.36,102.37ZM34.79,42.22c-.44-1.66-1.72-3.15-4.17-4.22-.83-.37-1.56.8-.72,1.24a5.85,5.85,0,0,1,2.22,1.87.77.77,0,0,0-.3,1.4c.32.24.67.46,1,.69.55,7.72-18.09,18.92-15,2.23A1.29,1.29,0,0,0,16,44C8.41,47.72,2.78,42.42,2.56,34.65c-.3-10.52,9.92-9.62,16.69-5.93v0c.1,0,.19.1.3.14,1.36.56,2.24-1.66,1-2.34-.42-.22-.84-.42-1.26-.62C11,20.55,24.63-2.22,33,14.66c.56,1.13,2,.62,2.36-.3a25.17,25.17,0,0,1,5.28-7.82c5.07-5.32,15.5-4.09,13.69,5.18-1,5.22-7,9.44-11.13,12.23a1.24,1.24,0,0,0,1.25,2.14c.72-.41,1.46-.87,2.2-1.37,3.39,2.29,6.94,3.21,9,7.13a8.12,8.12,0,0,1-.87,8.32C50.29,46.93,41.26,45,34.79,42.22Zm30,14.48c1.84-1-.83,6.8-1.35,7.46a27.32,27.32,0,0,1-6,5.13c-1.58,1.1-3.39,2.33-5.25,3.37C54.57,66.12,58.4,60.24,64.75,56.7ZM47.46,79.59C41.05,77,32.91,73.88,29.17,68.1c-4.08-6.29,6.6-3.32,7.64-2.76a33.82,33.82,0,0,1,6.72,5.4c1.1,1.05,2.15,2.15,3.17,3.28.21.48.43.94.65,1.41a1.18,1.18,0,0,0,.47,1l.26.57C47.86,77.89,47.65,78.74,47.46,79.59Z"></path> </g> </g> </svg> 