<?xml version="1.0" encoding="UTF-8"?> <svg xmlns="http://www.w3.org/2000/svg" viewBox="0 0 104.68 94.34"> <defs> <style>.cls-1{fill:#7d4e24;}.cls-2{fill:#3c3c3b;}</style> </defs> <g id="Слой_2" data-name="Слой 2"> <g id="Objects"> <path class="cls-1" d="M101,44c-3.4-4.69-7-9.22-10.63-13.77a2.63,2.63,0,0,0-2.76-1q-2.64-2.89-5.22-5.83A2.9,2.9,0,0,0,83,21.47a16.07,16.07,0,0,0-.18-2.21,4.14,4.14,0,0,0,1-4.58c-.37-.81-.71-1.64-1.06-2.45a3.62,3.62,0,0,0,.52-.41,3.55,3.55,0,0,0,0-4.9c-1.76-2.2-5.35-3-7.5-.9-1.43,1.43-2.06,4.35-1,6.14l.47.84-.11.11h0a2.54,2.54,0,0,0-3.56.85,39.56,39.56,0,0,0-8.23-7.43c-2.27-1.52-4.75.55-5,2.85a31.79,31.79,0,0,0,.7,10.22,3.27,3.27,0,0,0-1.33,4.6c.9,1.59,1.83,3.16,2.78,4.73-.8-.62-1.61-1.23-2.48-1.79-2.29-1.49-5.41,1.51-3.82,3.82,1,1.38,1.91,2.77,2.88,4.15a4.28,4.28,0,0,0-2.74.74q-1.86-2.54-3.69-5.1a3.79,3.79,0,0,0-6.36.23c-2.13-.51-4.31,1.83-4.11,4.22-2.36-2.78-4.79-5.49-7.34-8.1s-7.77.95-5.43,4.19l.2.27c-.5-.33-1-.67-1.51-1-3.05-1.87-6.41,1.78-4.76,4.76.45.81.93,1.61,1.4,2.41a79.76,79.76,0,0,0-8.78-6.1C11,29.8,8.45,33,9.32,35.79c-2.57-.63-5.69,1.69-3.74,4.42,1.84,2.58,3.72,5.13,5.61,7.68C10,47.08,8.77,46.32,7.5,45.63c-1.94-1.06-4.77,1.22-3.27,3.26,4.24,5.77,8.48,11.53,13.16,17,1.05,1.21,3.17-.41,2.23-1.73-1.41-2-2.76-4-4.09-6,4.4,4.16,8.5,8.67,13,12.8A3,3,0,0,0,33.41,69a100.14,100.14,0,0,0,7.89,7.23c2.81,2.27,6.94-.53,5.11-3.95-1.3-2.43-2.74-4.76-4.26-7,1.35,1.36,2.7,2.72,4.07,4,2.32,2.25,5.31.44,5.72-2a3.56,3.56,0,0,0,3.89-2.55l.45.53c2.2,2.51,7.1-.14,5.79-3.38-.49-1.23-1-2.44-1.59-3.63A3.54,3.54,0,0,0,63,57.31c2.41.43,5.39-1.92,4.3-4.53-.39-1-.82-1.88-1.25-2.81a4.07,4.07,0,0,0,1.4-2.08c.36.37.72.75,1.09,1.12a1.74,1.74,0,0,0,1.79.46c1.08,1.54,2.19,3,3.36,4.48,1.35,1.66,3.62,1,4.73-.44,1.19,2,2.4,4,3.67,6a3.36,3.36,0,0,0,5.8-3.39c-.75-1.46-1.58-2.92-2.48-4.36.56.91,1.13,1.81,1.73,2.7,2.39,3.54,7.18.69,5.89-3.05,2,1.8,5,0,5.36-2.34C100.53,48.67,102.52,46.13,101,44Zm-18.75,3c-4.25-7.23-8.36-14.58-13.65-21a37.57,37.57,0,0,1-3-9c3.89,4.25,6.72,9.58,9.34,14.6,3.51,6.73,6.53,13.73,10.49,20.2C84.36,50.08,83.3,48.5,82.21,46.92Z"></path> <path class="cls-2" d="M102,34.51C97.86,28.64,91,24.28,83.6,21.57c.21-5.35-.28-10.76-.48-16.11,0-.93-1.17-1.77-2-1A91.1,91.1,0,0,0,70.63,17.93,122,122,0,0,1,64.9.88,1.14,1.14,0,0,0,62.66,1a171.76,171.76,0,0,0-2.54,20.34s0,0,0,0a28.38,28.38,0,0,0-2.6,9.5c-11.57-8-31.12-8.08-42.26-.61C4.85,22.2,15.73,9.76,24.69,5.2a.92.92,0,0,0-.59-1.72c-11,1.8-22,21.28-10.14,27.79C7.28,36.45,4.32,44.72,9.4,56a25.39,25.39,0,0,0,2.36,4.13C7.82,64.33,4.85,69.26,1.13,73.63a11.09,11.09,0,0,0-.9,1.07c-.67.9.27,1.86,1.15,1.76-.39,6,10.51,5.35,11.44-.79s-2.9-7-6.79-5.38c2.07-3.09,4.17-6.16,6.53-9a30.42,30.42,0,0,0,7.09,6.58C18.45,73,16,77.67,13.79,82.52c-.52,1.16,1.33,2,2,1C16.93,81.65,19,78.1,21.69,79c1.71.56,2.42,3,2.68,4.55.31,1.77,0,4-1.76,4.88-1.15.59-2.69.12-3.82-.25-2.53-.81-1.75-1.68-.91-3.56.39-.9-.82-1.49-1.48-1a5,5,0,0,0-2.23,4.21,1.18,1.18,0,0,0,.54,1.09c3.06,1.68,6.73,3.21,9.93,1.08,2.29-1.53,2.43-5,2-7.39s-2-5.17-4.56-6a4.43,4.43,0,0,0-3.85.6,42.39,42.39,0,0,0,2.86-8.44,39.91,39.91,0,0,0,20.63,5.55,31.31,31.31,0,0,0-.52,4.6c-.32,3.36-.4,6.74-.78,10.09a.81.81,0,0,0-.75,1c2.27,7.73,16.88,4.27,13.95-3.92-.92-2.58-4.31-4-6.86-3.8a6.22,6.22,0,0,0-4.12,2c0-1.42.1-2.85.14-4.28,0-1.82.37-3.82.31-5.71a35.58,35.58,0,0,0,6.41-.85,36.79,36.79,0,0,0,5.39-1.76c1.75,3.9,2.48,8.11,3.43,12.25a1.19,1.19,0,0,0,.85.82.83.83,0,0,0,.07.65c3,5.62,15.76,3.68,13.82-3.92-1.7-6.67-9.86-4.65-13.39-.36-1-3.4-1.65-6.87-3.33-10C64,67.74,73.05,61.6,71.11,54.45,77,57.58,83.7,59.33,88.66,59,100.18,58.11,109.43,45,102,34.51Zm-91.32,39c.19,4.91-5.71,6.77-7.65,2.2a.74.74,0,0,0-.3-.33C4.78,73.45,10.55,69.24,10.71,73.47ZM50.69,86c1.84,1.71.5,3.7-.95,5.09-2.31,2.21-5.08.42-7.29-1.08,0,0,0,0,0,0C43.23,86,47,82.53,50.69,86ZM70.12,80.8c3,2.89-2.37,5.48-4.65,5.3-1.93-.16-3.3-1.46-5-2C62.16,80.92,66.81,77.58,70.12,80.8ZM93.66,30.06a.33.33,0,0,0,.14,0c6.36,4.75,10,12.53,6.78,18.88a.82.82,0,0,0-.68-.9c-1.19-.28-2.3-.43-3.35-.67.29-.71.57-1.42.85-2.13a1.23,1.23,0,0,0,0,.25,1.17,1.17,0,0,0,.46.57,1,1,0,0,0,1,.07c2.08-1.27.72-6.49.89-8.54.11-1.29-2-1.73-2.25-.43A44.93,44.93,0,0,1,96.15,42c-.06-3.08.13-6.18-.13-9.25v0h0c0-.09,0-.19,0-.29-.13-1.29-2.2-1.1-2.24.16-.06,1.83,0,3.67,0,5.5-.43-2.27-.65-4.59-.92-6.88-.13-1.15-1.86-.94-2,.14-.27,3.3,0,6.84-.57,10.09,0,.33.4.41.56.19a5.67,5.67,0,0,0,.9-2.71,27.28,27.28,0,0,0,1.65,5.53A1,1,0,0,0,94,45c0,.54.11,1.08.19,1.61a7.29,7.29,0,0,1-1.84-1.28,12.06,12.06,0,0,1-3.18-6.51C88.67,36.07,88.9,28.11,93.66,30.06ZM80.83,8.3c.13,4.16.25,8.33.49,12.49a53.24,53.24,0,0,0-8.46-2A95.09,95.09,0,0,1,80.83,8.3ZM61,20C62.2,15.38,63,10.67,63.94,6a96.77,96.77,0,0,0,4.32,12.4l-1.14-.06a1.18,1.18,0,0,0-.72.21C64.14,17.51,62.38,18.28,61,20ZM46.2,71.51c-14,2.79-29.55-5.61-35.31-18.41C4.94,39.89,15.2,30.26,27.23,27.91c10.11-2,21,.24,30.11,4.93a28.72,28.72,0,0,0,.06,6.3c.91,5.22,5.1,9.87,10.4,13.36a1.17,1.17,0,0,0,.11.88C73,62.86,52.83,70.19,46.2,71.51ZM64.33,45.8c-3.62-3.5-4.86-7.23-5-12,.55.13,1.17-.54.66-1-.22-.2-.45-.39-.68-.58.1-5,1.44-12.27,6.82-11.75a1.17,1.17,0,0,0,.84.38c.33,0,.67.05,1,.08s.34.1.53.18A.42.42,0,0,0,69,21l.67.08a1.18,1.18,0,0,0,1.44.18,55.59,55.59,0,0,1,20.28,7.16c-3.23.31-4.53,5.7-4.44,8.85a16,16,0,0,0,4.41,10.16,16.15,16.15,0,0,1-13.06,1.12c-2.29-.67-11.07-4.17-8.89-8a.6.6,0,0,0-1-.67c-6.09,7.54,18.91,17.46,24.74,9A8,8,0,0,0,99.78,50a.82.82,0,0,0,.25-.12,15.22,15.22,0,0,1-5.7,5.1C84.75,60.26,71.14,52.37,64.33,45.8Z"></path> <path class="cls-2" d="M73.6,31.51a5,5,0,0,0,1.83-2.09A1.26,1.26,0,0,0,75,27.94c0-.84-.36-1.46-1.56-1.35a2.25,2.25,0,0,0-1.18.74,6.57,6.57,0,0,0-1.69,1.91,1.63,1.63,0,0,0,0,1.43A4.28,4.28,0,0,0,70.42,32a1,1,0,0,0,1.36.68l.52-.31A2.24,2.24,0,0,0,73.6,31.51Z"></path> </g> </g> </svg> 