<?xml version="1.0" encoding="UTF-8"?> <svg xmlns="http://www.w3.org/2000/svg" viewBox="0 0 80.62 210.33"> <defs> <style>.cls-1{fill:#00973a;}.cls-2{fill:#7d4e24;}.cls-3{fill:#3c3c3b;}</style> </defs> <g id="Слой_2" data-name="Слой 2"> <g id="Objects"> <path class="cls-1" d="M78.08,80.19c-10.73-12-21.63-23.8-32.21-35.91C53.52,52.34,60.74,61,69.17,67.93c2.76,2.29,7.82-.79,5.36-4.14C65.9,52,55.16,41.69,45.92,30.34,54.78,39.41,63.17,49,73.2,56.84c2.83,2.2,7.68-.61,5.37-4.15-3.92-6-8.24-11.68-12.71-17.25l.27.23c3,2.4,7.25-.54,5.39-4.16-4.28-8.31-9.71-15.95-14.11-24.2-1.81-3.39-7.8-1-6.28,2.65.9,2.15,1.46,4.18,2.45,6.11Q47.12,10.37,40.73,4.6c-2.74-2.47-7.84.91-5.38,4.16q3.36,4.44,6.89,8.75A122.77,122.77,0,0,0,31,8.1c-3.08-2.26-6,1.93-4.69,4.69a81.47,81.47,0,0,0,5.56,10.09,67.14,67.14,0,0,0-7.91-4.72c-2.78-1.39-7,1.72-4.73,4.73L20.84,25c-1.65-1.29-3.32-2.56-5-3.78-2.9-2.06-6.1,1.85-4.6,4.61,1.84,3.39,3.86,6.67,6,9.89-.58-.61-1.16-1.21-1.75-1.81-2.25-2.28-6.53,0-5.49,3.19A65.6,65.6,0,0,0,14.39,47.4c-.35-.43-.7-.86-1.06-1.28-2.36-2.74-7,.86-5,3.85q2.75,4.17,5.41,8.36c-2.16-.5-4.3,2.34-3.29,4.69,3.5,8.22,8.28,15.82,12.36,23.74C17,80.62,11.45,74.12,5.17,68.39A3.07,3.07,0,0,0,.38,72.1C3.49,78.19,7.05,84,10.73,89.78c-2.1-.48-4.33,2.15-3.18,4.43,5.14,10.19,10.91,20,16.52,30A110.54,110.54,0,0,0,16,116.07c-2.2-1.94-5.82.53-4.18,3.22,2.31,3.78,4.69,7.52,7.09,11.25a1.72,1.72,0,0,0-2.45,2C18.6,139.8,26,147.1,32,151.34c2.13,1.51,4.49-1.35,3.38-3.38-1.9-3.48-3.9-6.89-5.95-10.27,1.25,1.17,2.52,2.32,3.88,3.38,2.43,1.91,5.8-.4,4.33-3.34-3.56-7.12-7.41-14.09-11.29-21,.94,1.1,1.87,2.21,2.83,3.31,2.26,2.6,6-.71,4.55-3.52-4.52-8.88-9.94-17.24-15.27-25.64A133.41,133.41,0,0,0,29.14,100.9c2.13,1.76,6,.18,5-2.9a83.59,83.59,0,0,0-4.25-10.57c.4.49.8,1,1.21,1.45,2.44,2.87,6.23-.78,4.86-3.76q-2.5-5.41-5.32-10.68l.42.35C33.79,76.94,37.7,74.33,36,71c-2.16-4.2-4.69-8.22-7.26-12.23A115,115,0,0,0,40,69.86a3.35,3.35,0,0,0,5.61-2.68c1.61,2.93,3.31,5.82,5.05,8.68-.6-.58-1.2-1.17-1.82-1.73a3.51,3.51,0,0,0-5.5,4.24c.79,1.45,1.59,2.88,2.39,4.32a3.26,3.26,0,0,0-1.42,4.78c2.56,4.4,5.13,8.8,7.6,13.25L48.87,97.3c-2.74-3.1-7.42.86-5.54,4.28,1.23,2.26,2.48,4.52,3.73,6.78a3.38,3.38,0,0,0-.73,4.32c1.5,2.93,3.16,5.78,4.8,8.65-2.73-.57-5.53,3.32-3.24,6.2a138.26,138.26,0,0,1,9.58,13.36c2.39,3.85,8.07.47,6-3.53l-.18-.34a3.35,3.35,0,0,0,1.58-1.55c2.61.36,5.47-2.52,3.63-5.16q-1.44-2.09-2.82-4.19c2.46.54,5.37-1.06,4.2-4.06Q69,119.7,68,117.4c2-.49,3.81-3,2.52-5.22q-2.82-4.83-5.62-9.67c1.07,1.26,2.15,2.52,3.24,3.75,2.79,3.17,6.88-.85,5.41-4.17-1.17-2.63-2.45-5.2-3.81-7.73,1.21,1.21,2.45,2.4,3.74,3.54,2.43,2.15,6.9-.77,4.74-3.66C74.66,89.46,71,84.76,67.34,80c1.9,1.74,3.83,3.44,5.81,5.08C76.58,88,81.13,83.58,78.08,80.19ZM20.25,132.65l3.13,4.91A20.77,20.77,0,0,1,20.25,132.65Zm8.18-92.33c6,5.68,11.73,11.74,17.4,17.82a3.67,3.67,0,0,0-2.62,4.21C38.74,54.71,33.51,47.57,28.43,40.32Z"></path> <path class="cls-2" d="M64.07,197.11a55.28,55.28,0,0,0-7.61-12.44,2.77,2.77,0,0,0,0-2,100.9,100.9,0,0,0-7.05-14.85l.39.29c2.63,2,6-1.79,4.37-4.37-3.73-5.92-7.81-11.69-11-17.93l1.31.44c3.2,1.06,5.14-3.11,3.1-5.34a17.63,17.63,0,0,1-2.89-4.39c1.39.71,2.77,1.46,4.09,2.3,2.93,1.86,5.44-1.66,4.3-4.3a90.43,90.43,0,0,0-4.95-9.59,3.21,3.21,0,0,0,4-4.55c-1.91-3.18-3.89-6.31-5.87-9.45a3.31,3.31,0,0,0,1.91-4.71c-2-4.37-5.14-8-7.72-12a3.07,3.07,0,0,0,1.06-3.39A30.32,30.32,0,0,1,40.24,83h.08a3.3,3.3,0,0,0,2.93-1.68c1.42-3.23,2-6.65-2-8-2.37-.82-4,1-4.18,3h-.77A3.42,3.42,0,0,0,33,80.53c.72,2.59.76,5.37,1.12,8.06a3.47,3.47,0,0,0-1.74,4.82,55.49,55.49,0,0,0,5.93,9.25,3.45,3.45,0,0,0-1.83,4.83c1.34,2.2,2.73,4.38,4.11,6.55-2.61-1.19-5.79,1.9-4.06,4.51,2.18,3.27,4.31,6.56,6.3,9.93-.66-.37-1.32-.75-2-1.15-2.43-1.53-5.26,1-4.63,3.56a52.62,52.62,0,0,0,1.87,6.23c-2.22-.43-4.88,1.25-3.95,3.87a74.63,74.63,0,0,0,6.24,12.95c-2.19-.16-3.83,2.84-2.86,4.94,1.45,3.15,3.13,6.2,4.83,9.23-2.86-2.71-6.67,1.45-4.27,4.46,5.35,6.71,11.73,12.82,16.55,20-4.94-3.31-9.09-8.33-13.4-12a2.81,2.81,0,0,0-4.39,3.39c2.86,5.43,6.18,10.6,9.22,15.93-1.75-.8-3.48-1.65-5.16-2.57a5.49,5.49,0,0,0-3.61-1.84c-2-.16-2.18,2.38-.9,3.31,4.29,3.14,9.15,5.38,13.77,8,1.65.93,4.29-.63,3.48-2.67a79.82,79.82,0,0,0-3.61-7.66,24.76,24.76,0,0,0,10.62,5.11C63.45,202,65.11,199.57,64.07,197.11Z"></path> <path class="cls-3" d="M70.56,28.86C64,11.65,45.45-8.87,25.65,4.08,8.5,15.31,6.89,44.26,6,62.47c-.93,18-1,37.06,1.8,54.82,1.6,10.17,5.54,19.91,13.32,26.86,4.69,4.19,10.47,5.77,16.53,6.25-.52,12.11-1.56,24-3.28,36a67.67,67.67,0,0,0-.68,15.7c.2,2.22-.76,5.75.13,7.85a.69.69,0,0,0,.61.35,4.67,4.67,0,0,0,2-.71.38.38,0,0,0-.2-.71c-1.16.12-.37-5.18-.56-6.78-.81-6.5.52-13.34,1.56-19.72a266.64,266.64,0,0,0,2.86-31.87c3.92.14,7.9-.09,11.75-.3l.12,0c3.09,17.41,5.85,34.78,6.28,52.54a1.3,1.3,0,0,0,2.6,0c-.43-17.8-3.22-35.09-6.27-52.53a17.32,17.32,0,0,0,1.8-.27l1.23,0a.82.82,0,0,0,.78-.52c16.45-5.64,20.1-36.16,21.52-50A160.3,160.3,0,0,0,70.56,28.86ZM40.17,148.16c0-1.13.09-2.25.13-3.38.88-24.55-.26-49.12-.68-73.69,1.48,9.49,2.45,19,3.57,28.61,1.6,13.65,4.52,27.06,7,40.57.47,2.61,1,5.21,1.41,7.81a1,1,0,0,0-.16.19C47.64,148.35,43.88,148.43,40.17,148.16ZM74.44,117c-2.34,10.54-7.29,29.43-20.34,30.68l-1-5.42c-2.66-15.1-5.87-30-7.66-45.28-1.61-13.7-2.93-27.39-6.06-40.85a1.31,1.31,0,0,0-2.56.34c0,29.44,1.83,58.87,1,88.3,0,1.05-.08,2.09-.12,3.14a34.59,34.59,0,0,1-11.07-3.1C17.45,140.36,13.2,129.7,11,120.44c-3.31-14-2.57-29.2-2.74-43.52C8,55.62,8.24,26.84,23,9.85,31.62-.06,45.82,1.59,55.14,9.5c10.21,8.65,14.68,23.14,17.7,35.66C78.45,68.44,79.64,93.57,74.44,117Z"></path> </g> </g> </svg> 