<?xml version="1.0" encoding="UTF-8"?> <svg xmlns="http://www.w3.org/2000/svg" viewBox="0 0 147.9 185.25"> <defs> <style>.cls-1{fill:#e20613;}.cls-2{fill:#3c3c3b;}</style> </defs> <g id="Слой_2" data-name="Слой 2"> <g id="Objects"> <path class="cls-1" d="M121.84,57.44c-1.08-1.19-2.18-2.38-3.29-3.55a3.55,3.55,0,0,0-.78-2.45,127.58,127.58,0,0,0-16-16.67c1.7.45,3.15-1.07,3.44-2.67a3.69,3.69,0,0,0,4.47-4.37c0-.25-.12-.49-.18-.74l.22.24a3.81,3.81,0,0,0,5.58-.46l.15.12c3.21,2.29,6.93-2.07,5.16-5.16-1.11-1.94-2.14-3.93-3.18-5.91a3.68,3.68,0,0,0,.78-2.27v-.18a2.3,2.3,0,0,0,1.2-.8c3.37-4.1,1.53-7.29-3.12-9.43-2.45-1.14-5.38,0-5.79,2.74a4.09,4.09,0,0,0-3.88,1l-.76-1c-2.18-2.75-5.53-.64-6,2.14-2.12.26-4.08,2.13-3.13,4.47.31.77.62,1.54.94,2.31-1.65-1.62-3.33-3.19-5.1-4.69A3.42,3.42,0,0,0,87.69,15a94.8,94.8,0,0,1,7.85,10.37c-3.51-1.9-7-3.93-10.82-5.1-2.21-.67-3.73,1.79-2.8,3.65a8.92,8.92,0,0,0,3.24,3.33A1.6,1.6,0,0,0,87.24,27l.49.27A3.33,3.33,0,0,0,86.6,30c-8.94-8-17.92-15.94-28-22.47-3.28-2.11-6.2,2-4.59,4.87a69.25,69.25,0,0,0-6.57-3.74,3.35,3.35,0,0,0-4.55,4.55,108,108,0,0,0,8.26,13,69.09,69.09,0,0,0-9.82-6.32c-2.74-1.44-6.15,1.53-4.39,4.38A97.12,97.12,0,0,0,44,34.15c-2.86-2.46-5.78-4.85-8.78-7.14-2.76-2.11-5.36,1.78-4.24,4.24,3.31,7.28,8.24,13.47,13.29,19.57A143.6,143.6,0,0,0,28.12,37.13c-2.62-1.85-5.58,1.67-4.18,4.18,3.2,5.72,6.83,11.17,10.55,16.57-4.55-4.21-9.1-8.42-14.52-11.52-2-1.16-5.18.78-4.23,3.25,3.12,8.06,8.08,15,12.74,22.16-3.79-2.72-7.39-5.71-11-8.81-2.37-2.05-6.18.55-4.47,3.45a75.43,75.43,0,0,1,4.55,8.79c-1.59-.81-3.18-1.63-4.7-2.57A2.83,2.83,0,0,0,9,76.48a37.18,37.18,0,0,1,2.14,4.4,15.44,15.44,0,0,1-2.41-1A2.66,2.66,0,0,0,5.55,84c.13.14.25.3.38.45a2.36,2.36,0,0,0,.32,3.7c1.6,1.09,4.08,2,5.7.42A3,3,0,0,0,12.82,87c1,.27,2,.53,2.95.82,2.84.84,4.26-2.57,2.66-4.55a11.37,11.37,0,0,1-1.16-1.81c1.3.68,2.59,1.38,3.84,2.16,2.22,1.38,4.73-.88,4.19-3.22a43.91,43.91,0,0,0-1.58-5.16,85.14,85.14,0,0,0,11.55,7.29,2.78,2.78,0,0,0,3.78-3.77C35.34,71.49,30.35,65,26.21,58c6.58,5.65,12.49,12.16,20.07,16.6,2.49,1.45,5.6-1.49,4-4C47,65.28,43.4,60.18,39.88,55,46.7,61.57,53.26,68.4,60.69,74.23a3.12,3.12,0,0,0,4.88-3.76c-4.1-9.13-10.79-16.56-17.11-24.24,9.85,9,19.35,18.4,30,26.5,2.49,1.91,6.09-1.81,4.3-4.3C75.15,57.84,65.68,48.86,56.91,39.29c11,10.38,20.6,22.52,33.56,30.55,3.36,2.08,6.27-2.44,4-5.18C82.34,50.19,67.8,37.53,56.6,22.32c16.68,12.88,29,31.35,47.93,41.55,2.76,1.48,6.78-1.73,4.64-4.64-.91-1.24-1.85-2.45-2.8-3.64A124.66,124.66,0,0,0,117.58,63C121.13,65,124.49,60.37,121.84,57.44Z"></path> <path class="cls-2" d="M145.68,151.76a16.11,16.11,0,0,1-5,3.08,34.43,34.43,0,0,0-3.75-8.8.6.6,0,0,0-.81-.21l-2.33,1c-1.22-5.39-2.6-8.57-8.47-7.74-11.11,1.56-22.4,3.88-32.59,8.71a.59.59,0,0,0-.27.67,65.38,65.38,0,0,0,2.8,9.12l.06.07c-1.62.19-3.24.35-4.87.45a.57.57,0,0,0-.55.71,50.72,50.72,0,0,0,3.53,9.07c.18.34.65,0,.51-.3-.05-.09-4.61-8.29-1-8.48,2.56-.14,5.1-.54,7.64-.92a124.68,124.68,0,0,0,19.91-5.06c4.77-1.55,9.47-3.37,14.09-5.32,3.19-1.35,3.93,4.81,5.13,7.46-3.15,1.21-6.6,2.07-9.16,3a231.77,231.77,0,0,1-24.16,7.61c-10,2.53-20.24,4.1-30.16,7.11s-19.57,6.58-29.65,9a74.82,74.82,0,0,1-17.12,2c-3.69,0-5.3-13-6-15.58-2.74-10.67-5.5-21.33-8.63-31.9-4-13.62-13-29.46-11.42-44,6.43-3.69,14.5-5.58,21.29-7.81,13.41-4.41,27-8.32,40.62-12,13.26-3.58,26.6-6.92,40.06-9.69,4.83-1,9.7-1.91,14.6-2.51,1.48-.19,6.45-1.26,7.61.14.39.47,1.15-.07,1-.59a4.25,4.25,0,0,1,.31.43.5.5,0,0,0,.85-.51c-3-5-10.34-9.18-14.74-12.81q-5.2-4.3-10.43-8.56l.06-.06c3.52-5.06,8.67-9,12.86-13.53,2-2.17,6.08-6.25,5.33-9.64C120.9,7,107.6,2.06,100.29,0a.69.69,0,0,0-.74.3c-5.06,7.52-10.7,14.79-15,22.75-4.61-3.22-9.36-6.22-14.17-9.17q-6.57-4-13.27-7.83c-.79-.46-3.2-2.36-4.31-1.71a.21.21,0,0,0,0,.38c1.59.31,4.21,2.61,5.64,3.44,4.24,2.48,8.43,5.05,12.61,7.63A217.12,217.12,0,0,1,90.47,29.05c7.57,5.88,15,12,22.37,18.07q5.22,4.29,10.4,8.65c1.17,1,3.27,2.25,4.63,3.56-3.1-2.26-12.52.49-15.24,1-14.06,2.42-27.95,6-41.75,9.57-15.23,4-30.37,8.33-45.33,13.22-7.07,2.31-15.7,4.5-22.42,8.48a.55.55,0,0,0-.22,0l2.12-2a.19.19,0,0,0-.19-.33c-1.79,1.24-2.1,1.18-.93-.2,1-2.45,2-4.93,2.91-7.41,1.57-4.1,3-8.24,4.58-12.36C14.66,60.45,18,51.51,23,43.53c8.71-14,20.72-25.79,29-40,.37-.62-.55-1.13-1-.56-9.57,13.41-20.22,26.1-29.19,39.92C12.48,57.36,8.17,75.25,1.81,91.16c-.18.44.4.85.78.66v0a.17.17,0,0,0,0,.07c-.83.51-1.64,1-2.4,1.61-.43.33,0,1.08.44.75s1.21-.8,1.83-1.18C1.24,104.83,7,117.18,10.71,128c6.39,18.53,10.56,37.81,15.61,56.73a.67.67,0,0,0,.63.47c12,.51,23.47-2.58,34.85-6.18,12.38-3.92,24.47-7.37,37.17-10.1a235.5,235.5,0,0,0,31.86-9.38c4.33-1.59,12.46-3.32,15.67-6.95C147,152,146.22,151.22,145.68,151.76ZM96,157.56a.33.33,0,0,0,0-.32c-.75-1.9-3.68-8-.84-9.31A77.66,77.66,0,0,1,110,143.18c4.2-1,8.48-1.6,12.73-2.36a39.17,39.17,0,0,1,5.05-.75c3.54-.2,4.26,4.83,4.76,7.09a.54.54,0,0,0,.06.11C120.77,152.08,108.6,156,96,157.56ZM90.44,27.4Q88,25.53,85.5,23.76l1.06-1a.07.07,0,0,0-.07-.12c1.4-.61,5-8.3,6.18-10,.85-1.24,6.82-11.48,8.18-11.1A53.09,53.09,0,0,1,116.09,9c8.58,5.85,3.57,11.86-2,17.65-3.53,3.65-7.61,7-10.55,11.12C99.19,34.27,94.85,30.8,90.44,27.4Z"></path> <path class="cls-2" d="M144.78,134c-2.46-9.8-5.35-19.49-8.24-29.17-2.79-9.38-5.67-18.74-8.38-28.15-.73-2.5-5.23-13-3.6-15.48a.57.57,0,0,0-.88-.69c-1.75,1.83.92,8.15,1.41,10,2.4,9.09,5.22,18.06,7.92,27.06,3.14,10.43,6.26,20.88,9.12,31.4,2,7.47,4.56,15.42,4.8,23.22a.46.46,0,0,0,.91,0C148.28,146.17,146.21,139.69,144.78,134Z"></path> <path class="cls-2" d="M64.49,101.49a.66.66,0,0,0-.81-.45c-13.52,2.9-26,10.46-40,11a.61.61,0,0,0-.49.26c-.12-.56-.23-1.12-.35-1.68s-1-.33-.9.25c1.26,7.19,2.47,14.37,4.16,21.46-.49.16-.3.89.2.89.05.19.09.38.13.57,1.56,6.25,3.63,14,8.76,18.37,4,3.36,10.8,1.76,15.27.7,8.64-2,16.61-6.24,25.2-8.46a.64.64,0,0,0,.47-.63C74.5,129,66.83,116,64.49,101.49Zm-.39,5.05a96.37,96.37,0,0,0,4.33,13.94.8.8,0,0,0-.37,0A141.69,141.69,0,0,1,48.89,127c-1.65-6.22-3-12.55-4.57-18.45,3.38-1.21,6.73-2.48,10.12-3.65C58.48,103.51,62.93,100.92,64.1,106.54Zm-40.69,6.72a.7.7,0,0,0,.3.07c6.56-.25,12.65-2,18.82-4.14l1-.35q2.05,9.24,4.59,18.38c-6.94,1.84-14,3.35-21,4.86C25.6,125.87,24.63,119.44,23.41,113.26ZM74,143.46c-2.63.69-5.2,1.7-7.75,2.64-11.12,4.11-27.7,12.86-34.69-1.25A61,61,0,0,1,27.35,133c7-1.33,14.13-2.77,21.1-4.59.25.9.5,1.8.76,2.69,1.45,5,3,13.24,7.16,16.88.42.38,1.16-.11.81-.63-3.73-5.69-6.09-12.33-8-19.15a142.77,142.77,0,0,0,19.5-6.57,1.05,1.05,0,0,0,.11-.07c1,2.66,2,5.31,2.89,8C72.19,131,76.07,142.94,74,143.46Z"></path> </g> </g> </svg> 