<?xml version="1.0" encoding="UTF-8"?> <svg xmlns="http://www.w3.org/2000/svg" viewBox="0 0 105.06 139.79"> <defs> <style>.cls-1{fill:#e95b0c;}.cls-2{fill:#009540;}.cls-3{fill:#e20613;}.cls-4{fill:#3c3c3b;}</style> </defs> <g id="Слой_2" data-name="Слой 2"> <g id="Objects"> <path class="cls-1" d="M51.28,16.82c-5.58-1.55-11.64-1.24-17.16-2.91a13.15,13.15,0,0,1,7-6.33c2.88-1,1.71-5.5-1.27-4.61-5.52,1.67-9.4,5.9-11.77,11a3.47,3.47,0,0,0-.28,1,2.16,2.16,0,0,0-1.87,3c.09.23.17.46.25.69L25,18.2a1.79,1.79,0,0,0-1.57.05A2.31,2.31,0,0,0,21.28,21c-1.1-.25-2.48-.56-2.79-.59A81.06,81.06,0,0,0,10.24,20,2.44,2.44,0,0,0,9,24.51C11.14,25.72,13,27.42,15,28.8a8.42,8.42,0,0,0,1.35,1.62c-2.43,1-4.69,2.66-5.7,5.07s.16,4.14,2.42,4.95c.93.34,1.44-.89.89-1.52-1.37-1.58.56-2.94,2.78-3.89a16,16,0,0,0,.25,8.21A2.5,2.5,0,0,0,20,45a19.43,19.43,0,0,0,5.86-2.45c1.92,1.93,4.79-.91,3.59-3.25a11.15,11.15,0,0,0,1.22-2,39.9,39.9,0,0,1,2.51,5.47,26.23,26.23,0,0,0,1.38,4c1.1,2.3,4.86.67,4.08-1.72-.45-1.4-1-2.8-1.55-4.18-.63-2-1.15-4-1.77-6.05a2.37,2.37,0,0,0,.43-1.91c-.17-.83-.37-1.67-.56-2.5.72,1,1.45,2,2.18,2.93,2,2.68,3,2.59,6.18,2.63a2.45,2.45,0,0,0,1.71-4.14,18.37,18.37,0,0,1-2-2.91,2.64,2.64,0,0,0,1.49-3.75c-.16-.31-.31-.61-.46-.92a9.3,9.3,0,0,0,3.27-.89A3.44,3.44,0,0,0,49,21.78l.18,0,.69.15C53.19,22.52,54.66,17.76,51.28,16.82ZM21.41,36.47c.51.81,1.05,1.6,1.61,2.39a15.55,15.55,0,0,1-1.76.67A8.72,8.72,0,0,1,21.41,36.47ZM33.89,20.69,32.67,19c.69.2,1.39.37,2.09.53A2.56,2.56,0,0,0,33.89,20.69ZM27,34.31c-.36-.89-.67-1.8-.95-2.72l.4-.2c.17.18.33.37.49.55A7,7,0,0,1,27,34.31Z"></path> <path class="cls-2" d="M55,86.32c1.08-2-.69-4.75-3.1-4-5.85,1.75-7.17,9.4-6.94,15.21A3.65,3.65,0,0,0,42.79,99a5.49,5.49,0,0,0-.85,2.36C35.2,95,29,88,21.05,83c-3.47-2.16-6.63,2.56-4.16,5.4l2.75,3.12L19,91.11c-3.3-1.91-6.79,2.58-4.07,5.28l1.83,1.77c-1.32-.36-2.91,1-2.36,2.43.91,2.29,2.3,3.19,4.35,4.5a1,1,0,0,0,1.62-.72c6,3.26,11.69,6.94,17.62,10.36,2.88,1.67,5.36-1.76,4-4.1.37.32.74.63,1.13.94,2.22,1.78,5.86.81,5.85-2.43v-3.39c0-.3.07-1.07.1-1.8a4.07,4.07,0,0,0,2.81-3c.63-2.28-.22-5.21.19-7.65S53.78,88.57,55,86.32Z"></path> <path class="cls-2" d="M104.06,103c-.39-1.8-2-2.79-3.54-3.58a3.26,3.26,0,0,0-1.82-.38h0c-1.27-.76-2.52-1.55-3.84-2.24a3.64,3.64,0,0,0-5.51,3.06c-2.28-.85-5.27.27-5.09,3.22q.06.89.18,1.74c-1.2-.4-2.42-.79-3.64-1.17-3.08-1-4.84,1.94-4.24,4.45-3.67-1.58-6.87,2.36-4.24,5.54.19.23.36.48.53.73l-.35-.13c-2.84-1.24-6.8,1.51-4.69,4.69.3.45.59.92.88,1.38-.86-.47-1.72-1-2.56-1.49-2.18-1.4-4.6.89-4.1,3.15.32,1.5.88,3.78,2.64,4.24a2.52,2.52,0,0,0,2.23-.33c2.72,1.46,5.58,2.61,8.32,4.14s6-1.56,4.34-4.34c-.47-.77-.92-1.55-1.36-2.34l.72.23c3.61,1.17,5.4-3.33,3.38-5.8-.12-.15-.22-.31-.33-.47l1,.31c2.83.91,4.5-1.48,4.29-3.81l.88.49c3.25,2,6.05-1.51,5.13-4.53l2.77.93c2.52.83,4.13-.88,4.42-2.91a3.88,3.88,0,0,0,1.07-.19A3.81,3.81,0,0,0,104.06,103Z"></path> <path class="cls-3" d="M104,66c-.76-2.92-1.71-5.78-2.73-8.62a3,3,0,0,0,1.38-4.2c-.27-.51-.55-1-.84-1.51a29.78,29.78,0,0,1-1.85-4.5,4.41,4.41,0,0,0,.71-1C102.11,43.45,99.3,41,97,41.64a3,3,0,0,0-1.54-.07c-.32-.51-.63-1-.93-1.54a3.11,3.11,0,0,0-4.65-.71c-.47-.77-.94-1.54-1.43-2.29C86.65,34.23,81.94,36,83,39.36c.41,1.37.85,2.74,1.3,4.09a35.67,35.67,0,0,0-4.32-5c-2.11-2-6,0-5,2.93q.73,2.35,1.45,4.71a35,35,0,0,0-4.63-4.47c-2-1.61-5.63-.21-4.7,2.73A102.09,102.09,0,0,0,72.73,57.9a2.31,2.31,0,0,0-.61,2.56,31.58,31.58,0,0,1,1.28,5.11l-3.72-6a2.28,2.28,0,0,0-4.15,1.75c.41,2,1.18,3.88,1.6,5.89a1.57,1.57,0,0,0,2.29,1q2.58,4.45,5.11,9a2.64,2.64,0,0,0,4.88-1.33c0-.69,0-1.38,0-2.07.38.8.76,1.6,1.1,2.41,1.2,2.84,5.71.79,4.89-2-.25-.87-.53-1.73-.81-2.58,1.83.81,4.49-1.17,4-3.53-.55-2.87-1.21-5.74-1.93-8.59a117,117,0,0,0,5.64,10.86c1.45,2.34,5.9,1.61,5.57-1.5-.06-.54-.13-1.07-.2-1.61l.6,1.15C100,71.48,104.84,69.31,104,66Z"></path> <path class="cls-4" d="M102.76,56.37a4.6,4.6,0,0,0-3-1.51c4-4.63,5.46-10.56-.77-15.33C93.06,35,85.74,37.29,83,43.3c-1.87-3-4.44-6.2-7.92-6.47-3.08-.23-5.29,1.92-6.56,4.52-2.33,4.75-1.5,11.13,2.67,13.72-5.37,2.35-9.83,7-7.49,13.35,1.87,5.13,6.51,5.33,10.07,2.93,0,.1,0,.19,0,.29a.89.89,0,0,0-.87.37c-13.41,18.47-16,44.41-18,66.48-.12,1.25,1.93,1.84,2.43.66,1.06-2.51,2.15-5,3.29-7.46a203.77,203.77,0,0,0,25.11-10.27c5.83-2.85,16.85-7.35,13.61-15.47-3.46-8.67-16.93-4.48-22.35-1-8.33,5.33-13.71,14.61-18,23.82a1.25,1.25,0,0,0-.51-.33c2.07-18.84,5.57-38.62,15.4-54.67.62,3.44,3.39,6.18,7.81,6.67,6.4.71,10.41-3.29,10.85-8.82,2.14,1.67,4.73,2.82,7.37,1.67,3.14-1.36,4.53-4.94,5-8.11S104.91,58.71,102.76,56.37Zm-31,56.9c3.55-4.31,8.37-8.21,13.92-9.41,5-1.08,16.36,2.18,10,8.38-6,5.81-15.5,9.1-23,12.19-3.45,1.42-6.94,2.73-10.44,4A78,78,0,0,1,71.73,113.27ZM102.34,65c-.29,2.1-1.13,4.46-3,5.68-2.58,1.73-5.68-1.34-7.29-3-1-1-2.38.07-2.18,1.27,2.25,13.2-18.24,10.2-12.53-.35a1.28,1.28,0,0,0-2.21-1.29,12.62,12.62,0,0,0-.61,1.22c-3.17,3.08-7.49,3.32-8.84-1.76C64.08,60.54,71.19,57.22,76,56.19a1.28,1.28,0,0,0-.34-2.5c-5.73,0-6.53-5.91-5.12-10.32C73.27,34.75,80,43,82.28,47.2a1.3,1.3,0,0,0,2.37-.31c1.14-6.58,6.88-8.87,12.49-5.46,7.52,4.57,1.65,11.85-3.5,15.3l-.54.35c-1.37.93-.12,3.14,1.31,2.24q.41-.24.78-.51c1.9-1.19,4.26-2.21,6-.3C102.65,60.09,102.61,63,102.34,65Z"></path> <path class="cls-4" d="M88.73,60.36A7,7,0,0,0,85.88,55c-1.28-1-3.94-2.7-5.68-1.82-1.4.72-.92,2.41-.4,3.52l.28.53A4,4,0,0,0,79,60.73c.32,2.46,2.53,5.43,5.25,5.28a4.62,4.62,0,0,0,3.65-2.56,1.84,1.84,0,0,0,.88-1.16A4.09,4.09,0,0,0,88.73,60.36Zm-5.26,3.26c-1.33-.37-2.36-2.46-2.44-3.69a2.06,2.06,0,0,1,.16-.9,15.42,15.42,0,0,0,1,1.31c.16.27.5.82.54.6l0,0A1.27,1.27,0,0,0,84,62.12,9.79,9.79,0,0,0,85.3,63,1.78,1.78,0,0,1,83.47,63.62Z"></path> <path class="cls-4" d="M34.24,23.3c-3-3.87-9-.32-10,3.57a1,1,0,0,0,1.11,1.19c0,.12,0,.25,0,.37.18,4.41,4.77,7.53,8.53,4.49C36.57,30.73,36.2,25.82,34.24,23.3ZM33,30.37c-1.34,2.73-4.7,1.39-5.4-1.06a6.79,6.79,0,0,1,.07-3.37c1-1.07,2.17-2.09,3.31-2a4.92,4.92,0,0,1,.46.29.3.3,0,0,0,.37,0,2.2,2.2,0,0,1,.4.3A5.43,5.43,0,0,1,33,30.37Z"></path> <path class="cls-4" d="M60.6,84.75a1.17,1.17,0,0,0-2-.82C52.9,88.77,48.14,94.88,43.86,101c-.46.65-1.25,1.72-2.09,3,.81-7.78,1.92-15.51,2.66-23.31.85-9,1.12-18.27-.33-27.19-.27-1.64-4.65-17.2-4.65-17.62,4.82,1,9,3.09,11.17,8.07a1.22,1.22,0,0,0,2.27-.61c-.84-6.58-2.86-13-8.31-16.7,5-2.22,10.09-4.1,14.83-6.85a1.23,1.23,0,0,0-.29-2.23,32,32,0,0,0-22.3-.19A79.37,79.37,0,0,1,44.93,1.82,1.2,1.2,0,0,0,43.58.07c-7.85,3.06-15,8-17.39,16.43-.06.22-10.64.38-12.08.69C8.9,18.33,4.3,21.6.34,25a1.18,1.18,0,0,0,.83,2c4.3-.46,8.59-.6,12.9-.64A46.82,46.82,0,0,0,3.93,44.94c-.3,1.08,1.16,2,1.94,1.13,3.84-4.39,8.73-6.89,13.7-9.54-3,6.36-3.38,13.13-3.35,20.37,0,1.24,2,1.6,2.22.31.81-5.9,4.31-14.46,10-17.92a1.1,1.1,0,0,0,.17.76c3.34,5.25,4.86,12.38,5.71,18.48a1.23,1.23,0,0,0,2.24.29,29.62,29.62,0,0,0,3.11-14.6c.41,1.17.79,2.24,1,3.09,2.87,10.71,2.12,22.43,1.2,33.35-.76,9-2.09,18-3,27-1.35-5.77-5.34-11.11-9.1-15.37C27,89.11,20.38,82.05,15.44,84.86,10,88,15.13,96.8,17.6,99.86a72.12,72.12,0,0,0,11.53,10.83c2.37,1.87,5.57,5,8.67,5.49a1,1,0,0,0,.34,0l-.31.44a.89.89,0,0,0,.16,1.23c-.57,4.29-1.78,10.55.14,13.54a1.12,1.12,0,0,0,1.5.39l.27-.12c1.17-.54.29-2.15-.81-1.94,1.56-.3,1.78-7.77,1.84-12.74,4.68-3.28,8.94-9.21,12.11-13.47C57,98.22,61.5,91.68,60.6,84.75ZM36,53.75c-1-5.2-2.53-10.63-5.28-15a1.26,1.26,0,0,0-.42-.41c.27-.1.54-.21.82-.29a.64.64,0,0,0-.34-1.24c-5.33,1-9.42,6-11.92,11.41a30.22,30.22,0,0,1,4.67-14.09c.66-1-.61-2.13-1.58-1.58C17,35.41,12,37.67,7.66,41.17A45.8,45.8,0,0,1,17.53,26a1.17,1.17,0,0,0-.82-2c-3.94,0-7.84.06-11.75.32,6.42-4.58,13.77-6.88,21.79-4.5A1.17,1.17,0,0,0,28.2,19c1-7.37,6.37-12.09,12.64-15.16A73.16,73.16,0,0,0,33.67,19c-.26.81.63,1.83,1.49,1.48A31.19,31.19,0,0,1,55.75,19c-4.69,2.4-9.64,4.2-14.41,6.46a1.23,1.23,0,0,0,0,2.11c4.43,2.2,6.77,6,8,10.42-3-2.84-7.17-4.22-11.63-4.88a1.24,1.24,0,0,0-1.5,1.5C37.28,41.31,38,47.51,36,53.75Zm-11.22,50c-3.28-3-12.68-11.45-8.19-16.71,2.6-3,10.93,6,12.32,7.52,4.24,4.65,8.63,10.94,9.16,17.4a.66.66,0,0,0,.39.56l-.12,1.56C34.06,110.4,29,107.59,24.78,103.73ZM41,112.63c0-.86.12-1.71.19-2.57A74.26,74.26,0,0,1,58.38,87.21C58,97.73,47.9,105,41,112.63Z"></path> </g> </g> </svg> 