<?xml version="1.0" encoding="UTF-8"?> <svg xmlns="http://www.w3.org/2000/svg" viewBox="0 0 137.33 147.6"> <defs> <style>.cls-1{fill:#e95b0c;}.cls-2{fill:#3c3c3b;}</style> </defs> <g id="Слой_2" data-name="Слой 2"> <g id="Objects"> <path class="cls-1" d="M92.81,72c2.38,0,4.86-2,3.83-4.64a76,76,0,0,0-4.42-9,3.41,3.41,0,0,0-5.12-1.18c-3.09-3-6.23-5.92-9.47-8.77-2.53-2.22-6.7-.26-6.83,2.56-1-.73-2-1.45-3-2.13-3.13-2-7.59,2.13-5.29,5.29L67,60.41c-1.79-1.46-3.59-2.9-5.45-4.27-2.86-2.1-7.07,2.08-4.94,4.93S60.8,66.39,63,69c-1.62-1.37-3.24-2.72-4.89-4-2.83-2.28-7.47.6-5.32,4.11,3.66,6,7.64,11.76,11.49,17.61-4.64-3.37-9.2-6.87-13.93-10.12C47,74.2,44,79.05,46.28,81.79c1.51,1.85,3.06,3.67,4.63,5.48a35.38,35.38,0,0,0-3.61-1.18c-2.65-.7-4.58,3.39-1.92,4.56,6.15,2.89,11.87,6.37,17.83,9.62a3.18,3.18,0,0,0,4.66-3.17c1.75,1.15,3.52,2.27,5.34,3.31a3.31,3.31,0,0,0,4.5-4.5c-2.17-3.94-4.53-7.75-7-11.52A152.48,152.48,0,0,0,84.24,94.46c2.86,1.87,6.49-1.81,4.67-4.66-.59-.93-1.21-1.84-1.83-2.75l1.3,1h0c.26.19.5.39.75.58,3.67,2.75,6.81-2.81,4.48-5.81q-3.2-4.11-6.35-8.26C89.64,75.59,92.43,74.24,92.81,72Z"></path> <path class="cls-1" d="M78,23.45c-.23-6.55-.25-13.1-.21-19.66,0-5.26-7.54-4.85-7.8,0h-.09c.08,6.56.55,13.12,1,19.66.42,5.47.32,12.08,2.51,17.18.88,2.06,4.5,1.54,4.85-.63C79.2,34.71,78.21,28.79,78,23.45Z"></path> <path class="cls-1" d="M103.63,25.5a3,3,0,0,0-3.32-1.35c-3.87.68-4.52,6.43-5.38,9.43-1.34,4.67-3.42,9.72-3.82,14.58-.25,3,4,3.77,5.44,1.47,2.39-3.82,3.48-8.91,5-13.13C102.71,33.38,105.61,28.79,103.63,25.5Z"></path> <path class="cls-1" d="M134.24,39.91A3.48,3.48,0,0,0,130.17,42l-.51.41a24.24,24.24,0,0,1-3,1.84c-2.9,1.66-5.95,3.06-9,4.46-5.08,2.36-11.88,4.11-16,8-2.19,2,.1,5.57,2.84,4.88,7.56-1.92,15.15-5.6,22.29-8.71,3.08-1.33,7.63-2.9,9.56-5.86C138.13,44.38,137.48,41,134.24,39.91Z"></path> <path class="cls-1" d="M126.67,73c-2.15-3.25-7.58-2.43-11-2.65l-8.18-.49c-1-.07-3.68.4-4.22.33l-.14,0a1.06,1.06,0,0,0-.25,0,1.28,1.28,0,0,0-1.1.63v0a1.3,1.3,0,0,0,.46,1.74c2.73,1.82,7.39,2.57,11.15,3.32,3.58.71,9.81,3.32,12.87.52A2.76,2.76,0,0,0,126.67,73Z"></path> <path class="cls-1" d="M117.25,96.89c-5.55-3.58-11-8.58-17.14-11.18a2.07,2.07,0,0,0-2.49,3.23c2.71,3.26,7,5.76,10.27,8.41,2,1.61,4,3.2,5.91,5,.58.54,1.06,1.35,1.64,1.84a13.65,13.65,0,0,0,1.28,1c.4.26.41.27.27.15,2.18,1.25,5.56.55,5.35-2.62S119.57,98.39,117.25,96.89Z"></path> <path class="cls-1" d="M114.88,132.18c-4.13-4.6-7.87-9.59-11.71-14.43-3.63-4.58-7-10-11.34-14a2.82,2.82,0,0,0-4.41,3.41c2.59,5.25,6.91,10,10.36,14.72q4.57,6.25,9.26,12.44a28.79,28.79,0,0,0,2.45,3.22C112.68,141.29,118.17,135.84,114.88,132.18Z"></path> <path class="cls-1" d="M73.21,108.26a1.44,1.44,0,0,0-2.37-.61c.65-.63-.73.61-.89,1.08a21.45,21.45,0,0,0-.63,2.48c-.62,3-1.12,6-1.73,9s-1.26,6.26-1.92,9.39c-.22,1-.63,1.91-.9,2.88a4.79,4.79,0,0,0,0,2.35l0,.06a3.58,3.58,0,0,0,.89,2.3c1.17,1.4,3.24,1,4.46,0,2.72-2.3,1.95-9.53,2.18-13.52.18-3.27.39-6.53.7-9.79.12-1.28.28-2.56.41-3.83A8.77,8.77,0,0,0,73.21,108.26Z"></path> <path class="cls-1" d="M73.21,108.26s0,0,0,0C73.16,108,73.17,108.07,73.21,108.26Z"></path> <path class="cls-1" d="M48.63,102.85C34.65,110,30.2,125.36,24,138.57a9.5,9.5,0,0,0-2.1,4.4c-.88,4.67,6.31,6.62,7.11,2,2.63-15.33,11.23-28.23,22.1-38.85C52.85,104.39,50.66,101.81,48.63,102.85Z"></path> <path class="cls-1" d="M34.12,82.93c1.29-.51-.95-.41-1.55-.37-1,.06-2,.19-3,.31-2.9.35-5.82.58-8.72.85-3.61.32-8.73-.16-11.65,2.43a3.2,3.2,0,0,0,3.14,5.35v0c-1.46.22.18.15.57.19A12.23,12.23,0,0,0,16,91.44c2.47-.39,4.95-.77,7.42-1.18s5.12-.94,7.65-1.59a7,7,0,0,0,4.88-3.41A1.59,1.59,0,0,0,34.12,82.93Z"></path> <path class="cls-1" d="M35.48,63.69c-4.45-3-11.31-4-16.33-5.85-3.21-1.16-6.39-2.39-9.49-3.83a26.7,26.7,0,0,1-3.23-1.78,3.71,3.71,0,0,0-.82-.47,2.51,2.51,0,0,0-3-1.87c-2.81.48-3.12,3.37-2.12,5.54,1.32,2.86,5.74,3.94,8.39,4.92,4.55,1.68,9.25,3,13.93,4.21,3.55,1,8,2.75,11.7,2.6A1.88,1.88,0,0,0,35.48,63.69Z"></path> <path class="cls-1" d="M52.28,46.21c-3-5.45-6.68-10.46-9.68-15.91a86.49,86.49,0,0,1-4.79-10.17c-1.05-2.66-1.49-5-3.3-7.24s-4.56-.13-4.8,2c-.62,5.52,4.17,12.35,6.92,16.88,3.57,5.86,7.72,12,12.72,16.71A1.87,1.87,0,0,0,52.28,46.21Z"></path> <path class="cls-2" d="M93.27,62.55A16.63,16.63,0,0,0,83.2,55a1.37,1.37,0,0,0,0-1.7C67.43,33.13,45.49,61.07,45.05,78c-.63,24,31.24,27.21,45.41,14.13C98.79,84.4,98.89,71.8,93.27,62.55ZM84.65,93.37c-14.42,9.57-37.46,2.4-37-16.81.39-14.69,19.69-38,33.16-22a21,21,0,0,0-17,5.73C57.53,66.31,55.06,78,60.73,85.08c5.92,7.41,19,3.13,22.28-4.64,3-7.22-.5-17.72-10.13-16.23C65,65.43,62.06,74.37,71,76.63a1.11,1.11,0,0,0,.59-2.14c-.82-2-1.65-4-2.47-6a7.06,7.06,0,0,1,7-1.4c3.82.82,5.53,4.19,5.64,7.75C82,81.44,76.11,85.63,70.18,86c-12.29.82-11-13.75-6.86-20.9,7.59-13.23,25.18-9.28,30.09,3.62C97,78.27,92.77,88,84.65,93.37Z"></path> <path class="cls-2" d="M78.56,9.81A1.17,1.17,0,0,0,77.43,9c-1.06.09-1.23.47-1.76,1.4a1,1,0,0,0,.6,1.37L76,14.14c-.21,2.19-.08,4.45-.18,6.65-.28,5.53-1,11-.85,16.57a.81.81,0,0,0,1.62,0c.29-5.54.88-11,1.33-16.57C78.21,17.56,79.32,13,78.56,9.81Z"></path> <path class="cls-2" d="M39.65,32.12a31,31,0,0,1-3.55-5.53c-.52-1.08-.87-2.34-2.07-2.8a1.12,1.12,0,0,0-1.37.78,3.69,3.69,0,0,0,.2,2,.84.84,0,0,0,1.14.57c.36.69.67,1.43,1,2a28,28,0,0,0,3.16,4.12c4.34,5.21,8.58,10.37,11.43,16.57.18.39.82.11.69-.29C48.08,43,43.81,37.55,39.65,32.12Z"></path> <path class="cls-2" d="M38.5,61.7c-2.43-.45-5-.2-7.5-.64-2.72-.48-5.38-1.24-8.07-1.84a.83.83,0,0,0-.44,1.6c1.16.42,2.26,1.4,3.37,1.94.2.09.37-.19.17-.29a10.38,10.38,0,0,1-1.79-1.08,70.68,70.68,0,0,0,7.15,1.83c2.25.46,5.18,1.19,7.34.21A1,1,0,0,0,38.5,61.7Z"></path> <path class="cls-2" d="M37.22,85.61c-2.34-.51-5.3.34-7.64.68-1.21.17-2.42.35-3.63.56a7.32,7.32,0,0,0-1.44.49c-.65.11-.44,1,.14,1.07a4.13,4.13,0,0,0,1.15.18c1.15-.06,2.3-.22,3.44-.34,2.57-.28,5.49-.1,8-.72A1,1,0,0,0,37.22,85.61Z"></path> <path class="cls-2" d="M52.27,100c-2.44.79-4.1,3.64-5.67,5.57-3,3.63-5.76,7.4-8.44,11.23-1.41,2-9.79,12.39-6,14.92a.55.55,0,0,0,.81-.46c0-5.12,5.9-11.55,8.7-15.4,3.43-4.74,9-9.43,11.58-14.6C53.55,100.62,53,99.74,52.27,100Z"></path> <path class="cls-2" d="M71.44,107.11c-2.41,1.1-2.3,9.52-2.59,11.6-.93,6.48-1.88,13-3,19.42-.19,1.12,1.44,1.62,1.73.48,1.38-5.45,2-11.16,2.86-16.7.7-4.29.82-9.63,2.38-13.72C73.18,107.32,72.11,106.8,71.44,107.11Z"></path> <path class="cls-2" d="M109.33,129.1c-5.41-3-9.24-7.74-13-12.59-3.23-4.19-6.11-10.36-10.29-13.64a.75.75,0,0,0-1.18.91c2.37,5.61,7.49,11.18,11.19,16,2.89,3.75,7.34,10.41,12.51,11.15C109.61,131.05,110.38,129.69,109.33,129.1Z"></path> <path class="cls-2" d="M119.58,98.19A17.84,17.84,0,0,0,115.75,97a39.35,39.35,0,0,1-5.37-2c-1-.46-3.84-2.83-5-1.93-.4.3-.11.88.26,1l.5.2c.83.43,1.94,1.45,2.58,1.82a31.1,31.1,0,0,0,3.34,1.61c2.09.85,4.81,2.22,7.12,1.91C119.89,99.56,120.34,98.61,119.58,98.19Z"></path> <path class="cls-2" d="M122,72.77c-1.06-.37-2.41.07-3.51.16-1.75.15-3.52.23-5.28.31-2.32.11-4.74.49-7,.57-.58,0-.59.93,0,.91,2.51.07,5.1.39,7.68.37,2.25,0,6.64.67,8.5-.85C123,73.79,122.58,73,122,72.77Z"></path> <path class="cls-2" d="M133.87,46.83c-.23.86-3.56,2.12-4.27,2.48A108.37,108.37,0,0,1,119,53.67c-5.48,2-11.45,4.38-17.31,4.92a.78.78,0,0,0,0,1.56c7.24.05,15.19-3.46,21.87-5.88,2.36-.85,12.53-3.48,12-7.2C135.5,46.14,134.15,45.78,133.87,46.83Z"></path> <path class="cls-2" d="M103.9,32.8c-2.29,1.18-4,4.35-5.58,6.35-.81,1.05-4.34,4.59-3.46,6.19.27.49,1,.06.74-.43a27,27,0,0,0,2-2.22c1.14-1.36,2.28-2.7,3.46-4,1.36-1.53,3.27-3,4-5C105.31,33,104.46,32.51,103.9,32.8Z"></path> </g> </g> </svg> 