<?xml version="1.0" encoding="UTF-8"?> <svg xmlns="http://www.w3.org/2000/svg" viewBox="0 0 74.7 75.84"> <defs> <style>.cls-1{fill:#e95b0c;}.cls-2{fill:#3c3c3b;}</style> </defs> <g id="Слой_2" data-name="Слой 2"> <g id="Objects"> <path class="cls-1" d="M50.47,59.84c-3.47-9-8.24-19-17.61-23-2.13-.92-5.72.63-4.55,3.5l.52,1.24C27.4,39.78,26,38,24.47,36.25c-2-2.39-6.4.15-5.31,3.09.33.88.63,1.76.91,2.65-2.25-2.9-4.5-5.8-6.84-8.62-2.07-2.5-5.47.25-5,2.89.23,1.19.43,2.38.61,3.58-1.37-1.36-2.78-2.68-4.24-3.92A2.22,2.22,0,0,0,1.16,38.6c1.18,2.31,1.56,4.93,2.4,7.37a1.58,1.58,0,0,0,3.05-.84c0-.12,0-.24-.07-.36C8,46.44,9.46,48.14,10.79,50a2.74,2.74,0,0,0,5-2.11c-.15-.74-.27-1.48-.38-2.22,2.88,3.73,5.74,7.48,8.71,11.15,2.1,2.6,5.57-.29,5.08-3l-.42-2.28q3,3.83,6.11,7.6c.28,1,.55,2,.82,3a2.9,2.9,0,0,0-1.35,1.77,6.23,6.23,0,0,0-.12,1.87,3.22,3.22,0,0,0-3.9,3.82,4.85,4.85,0,0,0,5,3.84c.42.13.84.25,1.24.35a3.13,3.13,0,0,0,3.81-2.13A3.1,3.1,0,0,0,44,67.21a21.42,21.42,0,0,1-2.19-5.52,25.23,25.23,0,0,1,4,1.7C48.06,64.64,51.51,62.56,50.47,59.84ZM41.16,55c-.33-.94-.67-1.87-1-2.8.57,1,1.1,2,1.59,3Q41.45,55.13,41.16,55Z"></path> <path class="cls-1" d="M67.91,42.3c2.56.3-.91-.35-1.52-.12l-.36.16a15.48,15.48,0,0,1-1.77-2.4c-1.67-2.87-5.37-1.36-5.75,1.23a2.44,2.44,0,0,0-.07-.46A43.49,43.49,0,0,0,56,33.37a3.26,3.26,0,0,0,2.39-2.71c1.89,1.64,5.33.67,5.25-2.25a40.47,40.47,0,0,0-.43-4.94,3.16,3.16,0,0,0,3.48-4c-.47-2-.94-4-1.47-5.9C67.31,13.1,69,10.9,67.53,8.8l-.13-.19a3.33,3.33,0,0,0-2.16-1.44,15,15,0,0,1-3.34-2.3,3.29,3.29,0,0,0-4.5-.08l-.12-.2C55.07.92,50.12,4.13,51.7,7.86c.6,1.4,1.18,2.82,1.74,4.24-1.22-1.71-2.48-3.4-3.8-5-2.18-2.72-6.14.45-5.09,3.34-2.15-.83-4.95,1.2-4.14,3.72a50.25,50.25,0,0,0,2,5.2,3.22,3.22,0,0,0-2.9,3.84c3.38,12,12.23,21.46,14.63,33.87.31,1.58,2.79,1.19,2.77-.38a32.81,32.81,0,0,0-.54-5.29c.25.69.51,1.38.8,2,.77,1.74,3.14.41,2.86-1.2-.06-.34-.11-.67-.16-1a59.82,59.82,0,0,1,4.69,4.45c2.27,2.47,6-.68,4.51-3.48-.32-.59-.61-1.2-.88-1.82a3.45,3.45,0,0,0,.76-.61l.14.06a1.67,1.67,0,0,0,.16.12,3,3,0,0,0,1.92.56,3.23,3.23,0,0,0,3-2.25C75.5,44.76,70.5,42.6,67.91,42.3Z"></path> <path class="cls-2" d="M58.71,40.32c7.81-9.13,17-30.32,5.36-37.95C48.9-7.56,30.53,16.07,39.45,29.59A13.45,13.45,0,0,0,36,27.82h0A32.34,32.34,0,0,1,33.3,11.9c.07-.9-1.34-1.07-1.56-.21-1.4,5.57.36,11.88,3.1,17a.91.91,0,0,0,.44.8c.26.45.52.89.78,1.31-1.31,1-1.68,2.82-1.38,5.09-10.45-.12-28-11.77-33.93,3-4.23,10.46,10.5,14.61,17.87,16.2a53.28,53.28,0,0,0,15.15,1.31c-2,.15-2.08,12.72-1,15.29,1.72,3.94,5.59,5.44,9.21,2.84,4.27-3.05,5.06-10.38,6.36-15,1.79,1.72,3.43,2.87,4.66,3.12,3.34.67,3.46-2.82,2.69-6.57,7.54,1.07,17.94.83,19-8.62C75.33,41.16,64.82,40.15,58.71,40.32ZM46.41,58.9c-1.33,4.16-2,8.37-4.2,12.24q-7.17,4.22-7.86-1.6a19.58,19.58,0,0,1-.1-6c.19-2.67.78-5.32,1.2-8,.09-.59-.26-1.41-1-1.31-9.31,1.16-22.61-1.06-30-7.13-2.85-2.34-2.89-5.42-1.23-8.48,3-5.58,9.12-5.69,14.57-4.59s11.44,4.59,17.08,3.09c1.39,6.43,7.17,15.66,12.23,21.09A1,1,0,0,0,46.41,58.9ZM53,61.11c-5.12-1-20.49-24.57-16.5-29.53l0,0a.57.57,0,0,0,1-.57l-.14-.29a.39.39,0,0,0-.09-.29c4.5,2.56,8.32,8.89,10.83,12.62a82,82,0,0,1,5,10.83,1,1,0,0,0,.44,1.8l.18,0C54.78,59,55,61.48,53,61.11Zm17.56-9.94c-2,2.61-4.65,2.94-7.74,3.14a34,34,0,0,1-7.71-.59,42.84,42.84,0,0,0-2-5.66C50.64,43,46,34.76,40.53,30.39a.36.36,0,0,0,.18-.48c-2.79-7.28-.61-14.81,3.56-21.12C49,1.62,60.36-1.14,65.4,7.29c5.71,9.57-3.21,27-10.4,33.58-1,.86.09,2.08,1.13,1.93a24.38,24.38,0,0,1,14.08,1.85Q74.29,46.8,70.59,51.17Z"></path> <path class="cls-2" d="M34.73,32.34c-4.19-5.25-11.53-9.76-18.22-10.75-.71-.1-1.32.93-.54,1.27,3.15,1.35,6.45,2.15,9.55,3.69a35.29,35.29,0,0,1,8.65,6.35C34.55,33.26,35,32.73,34.73,32.34Z"></path> </g> </g> </svg> 