<?xml version="1.0" encoding="UTF-8"?> <svg xmlns="http://www.w3.org/2000/svg" viewBox="0 0 189.6 151.08"> <defs> <style>.cls-1{fill:#009ee2;}.cls-2{fill:#e20613;}.cls-3{fill:#868686;}.cls-4{fill:#3c3c3b;}</style> </defs> <g id="Слой_2" data-name="Слой 2"> <g id="Objects"> <path class="cls-1" d="M92.41,47.71a57.37,57.37,0,0,0-5.93-2.39,3.83,3.83,0,0,0-4.33,1.94c-1.4-1.65-2.76-3.33-4.12-5-2-2.48-5.33-.77-6.1,1.72-.65-.58-1.31-1.16-2-1.71A3.73,3.73,0,0,0,63.71,45c-2.72-1.06-6.35,1.68-4.28,4.59C61.18,52,63,54.44,64.89,56.88c-.44-.4-.86-.81-1.31-1.2-2.87-2.52-6.53.59-5.06,3.9,1.14,2.59,2.41,5.13,3.66,7.66-1.82-1.9-3.68-3.76-5.68-5.49-2.88-2.49-6.41.58-5,3.87,1.23,2.9,2.49,5.89,3.51,8.95A93.56,93.56,0,0,0,46.4,65.8c-2.83-2.45-6.43.57-5,3.84.38.85.77,1.69,1.16,2.53A91.18,91.18,0,0,0,29.23,57.76a3.81,3.81,0,0,0-4.3-.11c-.24-.31-.48-.61-.73-.91-2.12-2.49-6,.18-5.26,3.06.62,2.3,1.53,4.61,2.42,6.94a68.3,68.3,0,0,0-4.22-6c-2.07-2.58-6,.22-5.26,3,.82,3.15,1.74,6.27,2.63,9.39-2.14-.37-4.61,1.24-3.6,3.71Q14,84.49,17.08,92c1.44,3.45,7.09,2.08,5.75-1.59-.08-.23-.17-.47-.25-.71A3.47,3.47,0,0,0,24,86.37c-.21-1.46-.48-2.91-.78-4.35.36.58.71,1.16,1.08,1.74,1.38,2.12,5.23,2.09,5.79-.76a22.18,22.18,0,0,0,.3-6.36,153.86,153.86,0,0,0,9.08,14.15c2,2.61,6.87,1.23,5.69-2.4a50.33,50.33,0,0,0-2.27-5.69A122.14,122.14,0,0,0,52,93.46a3.17,3.17,0,0,0,5.27-3.07,57.19,57.19,0,0,0-2-5.92c.9,1,1.82,2,2.76,3a3.2,3.2,0,0,0,5.43-2.25,40.19,40.19,0,0,0-1.31-8.61,95.59,95.59,0,0,0,7,6.85c2.35,2,6.26.13,5.37-3.12a56.69,56.69,0,0,0-2.11-6.21c2.22,2.48,4.46,5,6.8,7.34a3.27,3.27,0,0,0,5.44-3.16,53.52,53.52,0,0,0-5.08-11.52,4.43,4.43,0,0,0,1.29-3.5,4.15,4.15,0,0,0,5.1-1.67c2.47,2.06,7.76.18,6.17-3.6A24,24,0,0,1,91,54.44C94.06,53.93,95.9,49.4,92.41,47.71Z"></path> <path class="cls-2" d="M172.64,74.67c-.3-.17-.59-.36-.88-.55a2.71,2.71,0,0,0-1.13-3.49,61.42,61.42,0,0,1-5.29-3.2c1.26-.17,2.53-.34,3.86-.42,2.35-.14,4.3-3.32,2.12-5.12-3.62-3-7.33-5.83-10.94-8.8,1.59-.19,3-1.67,1.8-3.39-.53-.78-1.05-1.57-1.56-2.35l0,0c1.88.87,4.9-.45,4.45-2.76A3.16,3.16,0,0,0,169,43.06l.81-.16a2.18,2.18,0,0,0,.52-3.95c-2.31-1.26-3.83-3.49-6.66-1.77l-.26.19c-.92-.38-1.83-.76-2.73-1.18a3,3,0,0,0-4.28,3.65l-2.55-.74c-2.75-.83-4.7,2.74-2.75,4.72a3,3,0,0,1,.24.26,1.81,1.81,0,0,0,.08,1.77A3.27,3.27,0,0,0,148,49.41a48.52,48.52,0,0,0-5.24-1.36,3,3,0,0,0-3.65,3.29l-.43-.07a3.41,3.41,0,0,0-3.56,2.35c-1.94-1.06-3.91-2.07-5.93-3a2.74,2.74,0,0,0-3.84,3.15,7.22,7.22,0,0,0-4,.68,2.89,2.89,0,0,0,0,5c5.76,2.86,12,4.5,18.07,6.39a3.07,3.07,0,0,0,1.77,4,32.19,32.19,0,0,1,5.57,3,14.11,14.11,0,0,1-2-.58c-2.95-1.13-4.82,3-2.91,5,.76.8,1.5,1.6,2.24,2.4a2.72,2.72,0,0,0-1.05,4.48,39.32,39.32,0,0,1,3.11,3.33,1.76,1.76,0,0,0,.26.71,7.79,7.79,0,0,0,1.12,1.6A2,2,0,0,0,151,88.32a7.48,7.48,0,0,0-.68-2.63c.34.08.67.16,1,.26,3.4,1,4.65-3.42,2.23-5.28-.49-.38-.95-.79-1.41-1.2a18.78,18.78,0,0,1,2.21.44,3,3,0,0,0,3.7-2.63c1.63.87,2.36,2.19,4.37,2.63a2.86,2.86,0,0,0,2.61-.6c2.07.25,4.13.58,6.22.64A2.85,2.85,0,0,0,172.64,74.67Zm-18.35-9.33c-.84-.42-1.68-.81-2.54-1.18a2.15,2.15,0,0,0-.86-2c-.77-.65-1.52-1.33-2.25-2,2.12,1,4.2,2,6.26,3.19A2.73,2.73,0,0,0,154.29,65.34Zm7,7.94a6.76,6.76,0,0,0-1.51-.54,2.67,2.67,0,0,0-3,1.81,25.27,25.27,0,0,0-2.21-2.67,3,3,0,0,0,3-1.58,2.58,2.58,0,0,0,1.1,1.2,24.9,24.9,0,0,1,2.66,1.75Z"></path> <path class="cls-3" d="M62.3,53.93c-1-1-2-2-3-3-1.4-1.39-4.43-.94-4.79,1.26,0,.28-.1.54-.15.81a3.63,3.63,0,0,0-2.55.54,3.5,3.5,0,0,0-1.38,1.38,18.52,18.52,0,0,0-3.24-.74,2.77,2.77,0,0,0-2.71,2.06,2.21,2.21,0,0,1-.21.63,7,7,0,0,0-1.36-.61,2.91,2.91,0,0,0-3.27,1.43l-.29-.14A2.06,2.06,0,0,0,37.1,56a2,2,0,0,0-2.28,2.19l0,.76a2.3,2.3,0,0,0,1,1.89C37,62.72,38.85,64.3,40.18,66a1.37,1.37,0,0,0,2.19-.37A2.76,2.76,0,0,0,45.85,63a.17.17,0,0,1,0-.07,3.84,3.84,0,0,0,1.55-1.25c-.83,1.09,1.33-1.06,1.16-.85a5.53,5.53,0,0,0,.48-.71,11.15,11.15,0,0,1,2.83,1.2,3.2,3.2,0,0,0,3.51-.58c1.5.51,3.16-.74,3.61-2.29C61.56,59.82,64.63,56.36,62.3,53.93Z"></path> <path class="cls-4" d="M53.51,31.6a.54.54,0,0,0-1,.29c1.22,7.39-3.39,11.68-10.12,13.77-5.72,1.78-10.38.74-15.14-2.48a.26.26,0,0,0-.37.29C29,49.39,39.18,48,43.64,46.61,49.83,44.69,56.43,38.65,53.51,31.6Z"></path> <path class="cls-4" d="M24.72,25.25A1.65,1.65,0,0,0,23,24.52h0a.63.63,0,0,0-.26-.51.45.45,0,0,0-.51,0l-.13-.06a2.39,2.39,0,0,1-.22-.67.59.59,0,0,0-1.17,0c0,.11,0,.21,0,.31a6.4,6.4,0,0,0-1.1,2,3.79,3.79,0,0,0-.32.82c-.44.51,0,1,.79,1.43a.73.73,0,0,0,0,.22,2.49,2.49,0,0,0,.09.59.44.44,0,0,0,.43.33,8.94,8.94,0,0,0,1.69-.35h.11a.74.74,0,0,0,.67-.3C24.45,27.74,25.56,26.75,24.72,25.25Z"></path> <path class="cls-4" d="M46.26,15.22a10.44,10.44,0,0,0,.2-1.6.6.6,0,0,0-1-.42l-.32.24a.59.59,0,0,0-1-.24l-.07.09a.38.38,0,0,0-.51.42,1.37,1.37,0,0,1,0,.19l-2,2.54c-.33.41,0,1.21.58,1,.17-.06.32-.14.48-.21,0,.34.06.67.07.94,0,.47.66.83,1,.41l.15-.16L44,19a.58.58,0,0,0,1.1,0c0-.14.09-.27.14-.41a7.12,7.12,0,0,0,1.25.12c.25,0,.55-.24.51-.51A10.12,10.12,0,0,0,46.26,15.22Z"></path> <path class="cls-4" d="M83.79,79.81c-7.78,4.08-15.9,7-24.18,9.89-6.32,2.19-14.53,4.17-19.72,8.58a.22.22,0,0,0,.21.37c7.37-2.41,14.52-5.86,21.89-8.41,7.56-2.62,15.6-5.08,22.38-9.43A.58.58,0,0,0,83.79,79.81Z"></path> <path class="cls-4" d="M147.28,30.22c-.22-.36-.9-.25-.85.23.24,2.48,1.34,4.84-.4,7.08-1.25,1.61-3.54,2.13-5.46,2.36a21.87,21.87,0,0,1-5.77-.17c-.24,0-3.23-.82-3.27-.75.15-.23-.21-.42-.37-.21-1.34,1.81,8.35,2.4,9,2.36C145.68,40.79,150.92,36,147.28,30.22Z"></path> <path class="cls-4" d="M129.82,27.4l.06-.46a.86.86,0,0,1,0-.13.06.06,0,0,0,0,0s0,0,0,0a.65.65,0,0,0,0-.2,1.23,1.23,0,0,0,0-.2l0-.05a.85.85,0,0,0,0-.22.54.54,0,0,0-.63-.26c-.49.19-.58.92-.62,1.51h-.1l0,0-.07,0a.49.49,0,0,0-.77,0l-.14,0h-.91a.5.5,0,0,0-.52.53,1.92,1.92,0,0,0-.46,1.3.55.55,0,0,0,.54.55l.77,0a7,7,0,0,0-.2,1.2,1.69,1.69,0,0,0,0,.45c.14,1,1.39,1,2.14.84a.44.44,0,0,0,.31-.41,7.16,7.16,0,0,1,.12-.93c.46-.29.48-.87.34-1.45a9.4,9.4,0,0,0,.19-1.06.47.47,0,0,0,.26-.45A.49.49,0,0,0,129.82,27.4Z"></path> <path class="cls-4" d="M143.14,22.15a12.22,12.22,0,0,0-1.53-.31.54.54,0,0,0-.55-.44H141a.41.41,0,0,0-.22,0,2,2,0,0,0-.09-.22c-.16-.33-.73-.1-.6.25a3.82,3.82,0,0,1,.09.44.57.57,0,0,0-.25.08.81.81,0,0,0-.35.69l-.15.15c-.17.18-.34.35-.5.53s-.39.57-.13.3a.45.45,0,0,0,.63.63c-.23.23.07,0,.18,0s0,0,.07-.05a3.36,3.36,0,0,0,.58,1.57.8.8,0,0,0,.5.31c.27.5.73.89,1.28.37h0c.62-.2.84-1.15,1-1.68a15.93,15.93,0,0,0,.46-1.93A.57.57,0,0,0,143.14,22.15Z"></path> <path class="cls-4" d="M185.9,34.46c-2.83-2-6.18,0-7,3.07a2.66,2.66,0,0,0-.38,2l0,.11c-1.42.41-2.83.94-4.17,1.33-1.82.52-3.67,1-5.49,1.58-.6-2.7-1.65-5.4-2-7.08a.66.66,0,0,0-.8-.46c-4,.73-7.9,1.65-11.85,2.49a24.53,24.53,0,0,0-1.6-14.67c-3.55-8.71-15-19-23.59-10.32-12.28,2.85-12.65,32.39,2.47,37.51a34.16,34.16,0,0,1-8.16,4.46.62.62,0,0,0-.36.89c.46.86.93,1.79,1.42,2.72-.65.21-1.29.51-1.93.75l-2.37.88c-.31-2.79-4.82-3.58-7.3-2.29a7,7,0,0,0-2.23-2.93,4.32,4.32,0,0,0-3-1,.33.33,0,0,0-.47-.11l-.25.22a5.54,5.54,0,0,0-3.81,4,21,21,0,0,0-5.81-1.18,11.18,11.18,0,0,0-4.39.09c.32-3.3.51-6.61.84-9.91a.64.64,0,0,0-.47-.62A223.4,223.4,0,0,0,66.6,38a32,32,0,0,0-.66-19.6C60.29,3.08,41.73-2,26.92.68c-.63.12-.57.89-.13,1.17C11.89,4.13,4.59,27.24,10.64,39.53c4.39,8.94,13.13,15,22.68,17,1.73,5.1,6.22,8.51,10.22,11.86a.56.56,0,0,0,.88-.11,68.68,68.68,0,0,1,3.43-7.86c1.78-3,7.73-.3,10.17.38a.6.6,0,0,0,.73-.42,17.16,17.16,0,0,0,.15-9.82,26,26,0,0,0,7.31-11.3,243.89,243.89,0,0,1,25.15,7.38c2.47.89-.06,13.69-.36,15.54-.36,2.18-11.64-1.17-13.31-1.64-.31-.09-.46.21-.38.44a.55.55,0,0,0-.27.87c4.74,6.48,6.89,13.61,10.36,20.72C91,89.88,96,96.38,99.05,103.92a9.26,9.26,0,0,1-1.22,9.56c-.12,0-.26.07-.38.12a.41.41,0,0,0-.17.53c-3.85,4.26-11.22,5.94-16.27,2.69-5.41-3.49-9.51-9.1-14-13.66-.51-.52-1.18,0-1.1.63.94,6.61,3,13,3.8,19.63.5,4.29-.78,7.28-3.92,9.18a5.3,5.3,0,0,0-.28-.65.31.31,0,0,0-.56.24,6.06,6.06,0,0,1,.21.76,13.68,13.68,0,0,1-2.47,1,20,20,0,0,1-3.78.73l.28-.23c.53-.43-.15-1.26-.71-.93a14.8,14.8,0,0,0-1.73,1.26c-2.88,0-5.75-.72-7.21-2.75-4-5.53-3.64-14.57-5.31-21-2.6-10.06-8.14-20-12-29.63a.66.66,0,0,0-1.19-.15c-3.4,4.88-8.25,14.24-15.9,8a.42.42,0,0,0-.35-.3c-4.8-4.21-4.48-10.34-1.4-15.28,4-6.41,10.07-11.3,12.71-18.53.14-.37-.47-.62-.62-.27C21.69,63.67,7.69,72.11,10,82.74a13.07,13.07,0,0,0,4,7.15,22.7,22.7,0,0,0-.9,2.72c-.59,1.65-1.14,3.33-1.58,5a5.76,5.76,0,0,0-2.18-.47.21.21,0,0,0-.07-.23c-3.58-2.83-7.49-.69-8.8,3.31-1.54,4.71,2,9,6.69,9.3,4.18.26,7.4-3.45,7.39-7.44A4.69,4.69,0,0,0,12.07,98c.48-1.57,1-3.11,1.61-4.64.28-.74.88-1.69,1.24-2.6,3.89,2.67,9.12,2.21,13-2.8,2.64-3.42,3-6.27,5.21-.89,2.09,5.15,4.24,10.28,6.36,15.42a102.51,102.51,0,0,1,5.87,20.64c.59,3.08,1.46,9.78,4.8,11.45a14.49,14.49,0,0,0,5.41,1.4c-4.81,4.66-10.11,13.39-1.42,15,7.19,1.36,13.11-10,12.07-16.85,7.07-3.61,4.83-12.6,3.26-19.94-.59-2.77-1.27-5.53-1.85-8.31-.07-.35-.13-.58-.18-.76a4.28,4.28,0,0,0,.8,1.18c1.24,1.32,2.46,2.65,3.69,4,3.82,4.09,8.27,8.93,14,10.16A10.6,10.6,0,0,0,93,119.2c1.49,7,15.68,11,19.55,4.59,2.27-3.75,1.32-7.22-2.64-9.07a21.19,21.19,0,0,0-10.51-1.65,10.49,10.49,0,0,0,1.5-7.68C99.17,98.26,94,91.88,90.43,85.63c-4.55-7.91-6.65-16.56-12-24.09,4.07,1.48,8.49,2,12.65,3.16a.6.6,0,0,0,.74-.42,62.92,62.92,0,0,0,1.1-7.09c1.48-.35,3.53.11,4.93.33,1.85.28,3.63.94,5.46,1.2a.44.44,0,0,0,.67-.17c.16-.3.31-.6.48-.89a11.34,11.34,0,0,0-.4,4.88c.58,3.69,4.33,3,6.73,1.37a4.34,4.34,0,0,0,3.59,1.56,6.48,6.48,0,0,0,5.72-4.63l2.77-1c.72-.25,1.49-.46,2.2-.78,2,3.44,4.44,6.53,8.79,5.57a4.78,4.78,0,0,0,2-1.09c1.44-1.24,3.71,6.94,4,7.71,2.4,6.45,4.78,12.73,5.85,19.57a.62.62,0,0,0,.62.47,18.47,18.47,0,0,0,5-1.11,117,117,0,0,0,4.06,11.26c-5-2.63-11.39-1.1-13.6,4.58a.62.62,0,0,0,.29.72c4.93,2.86,10.15.19,13.93-3.49a3.78,3.78,0,0,1,.33.22c.51.39,1.11-.34.83-.82-.07-.13-.13-.27-.2-.39.47-.51.91-1,1.32-1.55a.5.5,0,0,0-.7-.7c-.43.33-.83.69-1.24,1A72.47,72.47,0,0,1,152,89.9a8.17,8.17,0,0,0,4.11-4.65c.84-2.16.64-4.89.62-7.14,0-.75-1-4.19.35-2.53,2,2.47,4,4.84,6.21,7.13a.66.66,0,0,0,.79.1,101.23,101.23,0,0,0,12.43-8.52.64.64,0,0,0,.1-.78c-3-4.91-6.69-9.32-10.13-13.93-.47-.63-5.56-7.07-3-7.47a9.26,9.26,0,0,0,4.17-1.91c1.91-1.44,2-4,1.53-6.72,1.85-.53,3.7-1.06,5.56-1.57,1.3-.36,2.79-.63,4.21-1a7.7,7.7,0,0,0,1.28,2.48c2.27,2.89,6.18,1.82,8-1.08C189.78,39.63,188.22,36.14,185.9,34.46ZM53.54,58.4c-1.79-.43-3.76-.83-5.45.12s-2.25,3.37-2.89,4.94c-.26.67-.53,1.34-.8,2-1,2.52-2.36.32-3.49-.59a22.39,22.39,0,0,1-6.85-8.19,30.73,30.73,0,0,0,21.25-3.47,23.39,23.39,0,0,0,2.44-1.68,24,24,0,0,1,.53,3.95C58.48,60,57,59.23,53.54,58.4ZM65.36,37.72l-.54-.13c-.81-.19-1.16,1.07-.34,1.26l.45.11a28.2,28.2,0,0,1-5.66,9.44c-.28.31-.57.61-.87.89a10.38,10.38,0,0,0-.48-.94.46.46,0,0,0-.83.35c.13.5.25,1,.36,1.47-11,9.63-29.06,6.4-39.46-2.62A25.6,25.6,0,0,1,10.39,22C12.71,13.4,20.45,2.09,30.33,2.23c.36,0,.35-.52,0-.54s-.81,0-1.21,0C42.47-.15,57.23,4.33,63.78,16.71A27.49,27.49,0,0,1,65.36,37.72ZM13.25,102.11a6.09,6.09,0,0,1-5.36,6.23,6,6,0,0,1-6.59-7.06c.61-3.67,3.87-5.73,7.19-4.06A5.66,5.66,0,0,0,6.15,98a.46.46,0,0,0,.23.86c1.69-.13,3.22-.83,4.9-.12A3.65,3.65,0,0,1,13.25,102.11Zm42.83,47.57c-2.27.6-5.18-.79-5.42-3.25-.19-1.86,1.09-3.77,2.06-5.24A25.77,25.77,0,0,1,57.44,136a28.76,28.76,0,0,0,5.64-.74,14,14,0,0,0,2.39-.77C65.94,140.37,61.42,148.27,56.08,149.68Zm55.7-27c-1.61,3.71-7.43,3.08-10.5,2.31-3.25-.81-6.59-2.87-7.61-6.15a16.45,16.45,0,0,0,4.75-4.28C103.81,115.16,115.53,114,111.78,122.65ZM111,62.15l-.27.28a2.08,2.08,0,0,1,0-.25c0-.16-.23-.18-.27,0a3.11,3.11,0,0,0-.06.59,5.14,5.14,0,0,1-3.78,1.35c-1.36-.19-1.57-1.87-1.6-2.95A10.57,10.57,0,0,1,106.91,55a3.1,3.1,0,0,1,2.86.42,4.73,4.73,0,0,1,2.1,2.82,2.1,2.1,0,0,0-.34.5c-.16.33.15.78.5.65A4.19,4.19,0,0,1,111,62.15Zm7.49-.8.4-.13a7.56,7.56,0,0,1-3.32,3c-1.17.47-3.44.39-4.4-.67a5.71,5.71,0,0,0,.68-.6,4.8,4.8,0,0,0,1.35-4.29c1.87-.87,4.67-1.21,5.73.65a1.57,1.57,0,0,1,.21.72l-.9.34C117.69,60.63,117.92,61.53,118.52,61.35Zm33.26,43.56a13.49,13.49,0,0,1-3.25,1.61c-.64.22-6.15.83-5-1.47,2.13-4.09,7.38-4.37,11.12-2.54A30.66,30.66,0,0,1,151.78,104.91Zm-23.43-91a.42.42,0,0,0,.66.17c.4-.3.8-.54,1.2-.79a9.49,9.49,0,0,1,3.65,0c.34.06.49-.43.15-.52a10.59,10.59,0,0,0-2.13-.37C140,8.48,146.84,14,151,22.22c5.56,11,2.54,23.55-10.21,26.73a16.09,16.09,0,0,1-7,.29.48.48,0,0,0-.79-.33l-.13.1C118.68,45.15,117.82,18.81,128.35,13.88ZM161,51.19c-.45.07-.55.62-.39,1,3.09,6.62,7.91,12,12.2,17.89,3.58,4.87-3.61,8.15-7.16,10.35-3.22,2-7.71-5.8-9.2-7.66-.37-.45-1.11-.07-1.11.46,0,2.64.15,5.29.1,7.94a13.78,13.78,0,0,1-.56,3.78c-.48,2-7.61,8-8.39,3-1.43-9.18-6.1-17.69-8.67-26.57a.64.64,0,0,0-1.05-.28c-9.18,7.89-12.22-5.78-10.86-6.39a28.3,28.3,0,0,0,6.81-4.35,16.53,16.53,0,0,0,7.11.11c7.7-1.44,12.33-5.86,14.14-11.6a.53.53,0,0,0,.25,0c3.21-.67,11.12-4.27,12.17,0a40.38,40.38,0,0,1,.88,4.22c-.56.19-1.12.38-1.67.59a.38.38,0,0,0,.2.73l1.56-.43C167.62,47.6,166.45,50.32,161,51.19Zm26.41-10c-.85,2.54-4.24,3.75-6.15,1.77a6.66,6.66,0,0,1-1.37-2.34,9.86,9.86,0,0,0,1.58-.71c.36-.21.23-.88-.23-.83a13.23,13.23,0,0,0-1.74.31,4.53,4.53,0,0,1-.16-.71.41.41,0,0,0,.36-.21c.72-1.24,1.15-2.59,2.44-3.36a3,3,0,0,1,3,.26A5.17,5.17,0,0,1,187.37,41.18Z"></path> <path class="cls-4" d="M189.14,82.3c-5.84-1-10.44,2.27-10.57,7.78a89.94,89.94,0,0,1-6.8-9.94.33.33,0,0,0-.56.33c2.07,4.21,5.11,7.8,7.55,11.79a.57.57,0,0,0,1.06-.26c5.13,1.24,10-4.19,9.77-9.1A.64.64,0,0,0,189.14,82.3ZM186,88.8c-1.7,1.73-3.94,2.11-6.22,2-.2-4.45,2.73-7.53,7.43-7.55C190.34,83.26,186.77,88,186,88.8Z"></path> </g> </g> </svg> 