<?xml version="1.0" encoding="UTF-8"?> <svg xmlns="http://www.w3.org/2000/svg" viewBox="0 0 301.91 174.09"> <defs> <style>.cls-1{fill:#009ee2;}.cls-2{fill:#f281c1;}.cls-3{fill:#f8b133;}.cls-4{fill:#fbe910;}.cls-5{fill:#868686;}.cls-6{fill:#3c3c3b;}</style> </defs> <g id="Слой_2" data-name="Слой 2"> <g id="Objects"> <path class="cls-1" d="M272,137.1c-1-2.12-2-4.16-3.17-6.17a3,3,0,0,0,.55-3.11l-.28-.81a3.47,3.47,0,0,0,2.44-3.69,3.9,3.9,0,0,0,.84-5.11,3,3,0,0,0-3.11-2.11c-.78-.33-1.57-.61-2.31-.92a3,3,0,0,0-3.73,1.29,3.93,3.93,0,0,0-3.91.92,3.36,3.36,0,0,0-3.72,4.11,3.3,3.3,0,0,0-3.14,3.55c-1.72-1.94-3.47-3.85-5.29-5.7-2.24-2.26-5.64-.21-5.62,2.42-.07-.19-.15-.39-.21-.58s-.11-.36-.16-.53a3.34,3.34,0,0,0-.78-4.77c-3-2.17-6.35,0-6.27,3.43l-2-2c-2.07-2.07-5.42-.42-5.82,1.93a67.25,67.25,0,0,0-7.34-7.94,3.34,3.34,0,0,0-5.22,4c.16.35.33.7.5,1-.66-.51-1.34-1-2.06-1.45-2.95-1.85-5.62,1.66-4.38,4.37.95,2.08,2,4.12,3,6.15-1-1.32-2-2.63-3.1-3.91-1.94-2.31-6.31.15-5.18,3,.8,2,1.71,4,2.65,5.95-2.82-1.68-6.33,1.75-3.73,4.36a39.13,39.13,0,0,1,4,4.89,2.49,2.49,0,0,0-.14,4.18c1.52,1.08,3.21,1.47,4.92,2.23a2.88,2.88,0,0,0,1.39.21c.46.68.91,1.37,1.34,2.08,1.79,2.93,6.46,1,5.55-2.34q-.16-.61-.36-1.23c1,1.12,2.12,2.22,3.28,3.26,2.22,2,6.25.1,5.25-3.06-.5-1.61-1.08-3.18-1.69-4.73.46.62.92,1.23,1.4,1.81,2.07,2.52,6.48-.17,5.44-3.16-.61-1.78-1.31-3.52-2-5.25.82.85,1.67,1.67,2.56,2.45a3.44,3.44,0,0,0,5.56-1.33,4.73,4.73,0,0,0,.28.46c3.09,4.24,6.35,8.52,9,13.1q-1.62-1.44-3.21-2.89c-1.73-1.6-4.32,1-2.59,2.59a132.62,132.62,0,0,0,10.7,10.64,2.52,2.52,0,0,0,4.19-2.43,39.57,39.57,0,0,0-1.71-5.34l3.16,3.14a3,3,0,0,0,1.78.94c.55.85,1.11,1.7,1.67,2.53,2,2.86,7,1.16,5.85-2.46-.62-1.92-1.35-3.77-2.14-5.58.24.24.47.5.71.74,2.23,2.29,6.88,0,5.63-3.28-.6-1.56-1.25-3.09-1.92-4.6A4,4,0,0,0,272,137.1Z"></path> <path class="cls-2" d="M163.13,132.77c-1.1-1.4-2.18-2.82-3.26-4.23,1.69-.58,3-2.57,1.77-4.31-1.12-1.58-2.28-3.12-3.46-4.65a3,3,0,0,0,2-5.07c-1.17-1.5-2.31-3-3.43-4.57a2.77,2.77,0,0,0,.87-3.89,46.9,46.9,0,0,1-2.43-4.59,3.08,3.08,0,0,0,.51-.58,2.75,2.75,0,0,0,1.65-5.07,6.4,6.4,0,0,0-1-.6,2.59,2.59,0,0,0-.78-.27,9.3,9.3,0,0,0-2.78-1.34A3,3,0,0,0,149,96.48c0,.27,0,.51,0,.76a5.48,5.48,0,0,0-.65.75,2,2,0,0,0-.23.39l-.7-.48a3,3,0,0,0-3.66.54,35.73,35.73,0,0,0-6.42-4.57c-2.48-1.35-6,1.53-4.14,4.14.84,1.17,1.7,2.32,2.57,3.47a3.14,3.14,0,0,0-.62.79c-.62-.42-1.26-.83-1.92-1.21-2.39-1.4-5.6,1.47-3.94,3.93.59.87,1.19,1.73,1.79,2.59-1-.8-1.95-1.59-3-2.33-2.29-1.66-4.94,1.48-3.69,3.68,2.7,4.76,5.69,9.34,8.36,14.09-2.42-2.73-4.8-5.48-7.31-8.12-1.62-1.7-5.06,0-4.13,2.41,1,2.56,2.15,5.09,3.42,7.54-1.32-.68-2.65-1.33-4-1.95a2.12,2.12,0,0,0-2.88,2.88c1.69,3.16,3.09,6.5,4.61,9.75.7,1.5,3.08.43,2.63-1.11-.49-1.72-1-3.43-1.54-5.13a71.07,71.07,0,0,1,7,4.51c1.51,1.12,3.51-.42,3.55-2.05,1.58,1.67,3.21,3.29,4.94,4.81s5,.1,4.17-2.42a72.35,72.35,0,0,0-4.89-11.56c3.5,4.09,6.87,8.3,10.61,12.16,2.32,2.39,5.61-.63,4.35-3.35-.29-.62-.59-1.23-.89-1.84a70.36,70.36,0,0,0,6.55,7.28C161.83,139.44,165.37,135.61,163.13,132.77Z"></path> <path class="cls-3" d="M88.82,119.73Q83.63,113,78.34,106.21c-1.91-2.75-3.81-5.57-5.74-8.37,3,3.3,6,6.54,9.09,9.48,3.75,3.51,8.74-1.7,5.55-5.54q-4.11-4.95-8.18-9.91a3.66,3.66,0,0,0,1.78-5.46c-1.26-2.06-2.61-4.06-4-6a4,4,0,0,0,1-5.07l-1.32-2.64a4.72,4.72,0,0,0,1.58-4.74,3.72,3.72,0,0,0,.18-1.68c-.43-4.36-2.63-6.47-6.94-7-2.16-.27-3.46,1.39-3.77,3.23-2.52.53-4.49,3.08-2.75,5.81.32.5.62,1,.92,1.51a4.47,4.47,0,0,0-1.41.92Q61.19,67.58,58,64.43c-2.75-2.75-7.53.15-6.83,3.46-1.33-.73-2.68-1.41-4.09-2-2.68-1.15-6.59,1-6,3.85a4,4,0,0,0-2.76,2.51c-.2-.2-.4-.41-.61-.61-3.3-3.15-7.53.8-5.92,4.57S35.17,83.65,37,87.28a47.7,47.7,0,0,0-5.18-4c-2.55-1.71-6.47,1.13-5.34,4.11,3.26,8.61,8.81,16.39,13.36,24.53A201.4,201.4,0,0,0,26.44,96c-2.29-2.32-7.26,0-5.85,3.4a125.39,125.39,0,0,0,6.78,13.2,39.52,39.52,0,0,0-8.87-6.78c-2.73-1.45-6,1.51-4.33,4.33.6,1,1.18,2,1.75,3-.64-.48-1.29-1-2-1.4-1.79-1.22-4.1,1.17-3,2.95,2.12,3.29,2.84,7.28,4.56,10.79.77,1.56,3.46.44,2.83-1.2a30.66,30.66,0,0,1-1-3.25,57.29,57.29,0,0,1,4.18,5.08A2.81,2.81,0,0,0,26.66,124a39,39,0,0,0-1.12-4.28c3.78,3.85,7.4,7.91,11.88,10.9,2.27,1.52,5.95-1,4.85-3.73-.3-.74-.64-1.46-1-2.19a89.79,89.79,0,0,0,6.36,6.59c2.76,2.55,6.51,0,5.93-3.45-1.08-6.46-3.74-12.27-6.86-17.9,5,7.18,9.74,14.54,15.95,20.45,3,2.87,8-.8,5.81-4.49-2.39-4.05-4.85-8.07-7.32-12.08,3.34,4.67,6.78,9.27,10.5,13.62,2.9,3.4,8-.94,6-4.62-4.17-7.51-8.73-14.78-13.39-22l6.31,8a161.87,161.87,0,0,0,12.13,15.59C85.66,127.65,91.52,123.25,88.82,119.73Z"></path> <path class="cls-4" d="M136.45,61.49c-.4-2.66-3.91-4.07-5.95-5.16a3.33,3.33,0,0,0-5,2.84v.21A5.16,5.16,0,0,0,121.9,59a3.39,3.39,0,0,0-2.39,2.55,3.26,3.26,0,0,0-6,1.65c0,1.09-.12,2.16-.22,3.23l-1.42-1.38c-2.62-2.52-6.37.65-4.86,3.75,1.42,2.89,2.4,6,3.57,9,.81,2.09,1.7,5.91,4.54,6a2.44,2.44,0,0,0,2.36-3s0-.2-.15-.91a13.83,13.83,0,0,0-.5-1.54c-.13-.36-.25-.71-.37-1.07a3.3,3.3,0,0,0,2.46-3c.06-1.42.21-2.83.38-4.23a8.69,8.69,0,0,1,.66.84,3.32,3.32,0,0,0,6-.78,21.89,21.89,0,0,0,.65-2.91,2.59,2.59,0,0,0,.35.19,3.31,3.31,0,0,0,3.73-1.53,8.4,8.4,0,0,0,.7-1.45,4.85,4.85,0,0,0,3.21.34A2.72,2.72,0,0,0,136.45,61.49Z"></path> <path class="cls-4" d="M189.67,85.47c-.6-1.73-1.27-3.43-2-5.07-1-3-1.84-6.1-3-9.06A3.71,3.71,0,0,0,180.62,69c-.62-.73-1.26-1.46-1.94-2.16a3.48,3.48,0,0,0-5.63,1.13,3.53,3.53,0,0,0-2.94,2.22,36.61,36.61,0,0,1-3.74-4.23c-1.63-2.24-5.72-1-4.75,2a10,10,0,0,0,2.55,4.18c2.13,2.58,4.79,4.78,6.38,7.77,1.5,2.81,5.61,1.37,5.72-1.55a1.93,1.93,0,0,0,0-.24A15.48,15.48,0,0,1,178.37,81a3.21,3.21,0,0,0,2,1.51,3.12,3.12,0,0,0,1.17,1.34c.53,1.45,1.11,2.88,1.77,4.27C185,91.73,191,89.18,189.67,85.47Z"></path> <path class="cls-5" d="M245,95.17a44.41,44.41,0,0,1-2.59-4.29A2.68,2.68,0,0,0,244,87.1c-.22-.48-.44-.94-.66-1.4,2.16-.64,2.74-4.17.08-4.7,1.32.26-.49-.28-.58-.3-1.46-.33-2.94-.59-4.41-.87A2.66,2.66,0,0,0,235.21,82c-1.58.38-2.83,2.09-1.71,3.72a61.69,61.69,0,0,1,3.69,6.4,2.33,2.33,0,0,0-2.1,2.12,2,2,0,0,0-1.79,2.28,18.75,18.75,0,0,0,1.36,5.48c-.5,1.63,0,2.37,2.08,3.28a2.27,2.27,0,0,0,2.17-.17c1.68,1.74,5.17.58,4.27-2.2-.42-1.3-.85-2.61-1.27-3.92q.42.08.87.12C244.69,99.3,246.07,96.69,245,95.17Z"></path> <path class="cls-6" d="M71.91,42.16c-1.52,4-2.53,6.85-6.81,8.51-3.18,1.24-6.9.95-10.18.34-5.21-1-15.54-5.25-12.44-12.27.1-.24-.2-.54-.41-.31-5.46,6.38,5.68,12,10.51,13.49,7.27,2.23,21,.87,20.32-9.63A.51.51,0,0,0,71.91,42.16Z"></path> <path class="cls-6" d="M54,22.44a31.08,31.08,0,0,1-.21,3.21.43.43,0,0,0-.3.32c0,.08,0,.15,0,.23-.1-1-.18-2-.2-3a.74.74,0,0,0-1.47,0c0,.27,0,.55-.05.83a.66.66,0,0,0-.62.64c-.1,2.44,0,4.9,0,7.35a.7.7,0,0,0,1,.65,1.74,1.74,0,0,0,.2.41.3.3,0,0,0,.41.07.82.82,0,0,0,.6.32v0a.74.74,0,0,0,1.48,0c.05-3.69.68-7.34.73-11A.74.74,0,0,0,54,22.44Z"></path> <path class="cls-6" d="M69.46,26.12c0-.81-1.28-1-1.45-.2,0,.22-.09.43-.13.65a.7.7,0,0,0-1.29.1,11.81,11.81,0,0,0-.26,4.74c0,.23,0,.68,0,1.17A36.18,36.18,0,0,1,65.81,37c-.17.91,1.22,1.31,1.41.39L68,33.57c0,.21,0,.42,0,.63a.75.75,0,0,0,1.46.2C70,31.61,69.52,28.93,69.46,26.12Z"></path> <path class="cls-6" d="M184.18,70.53c-4.49-7.61-14.15-9.94-18.82-1.27a.46.46,0,0,0,.8.46c5-7.63,12.43-5.42,16.84,1.49,4.85,7.6,2,15.75-5.76,19.12a15.1,15.1,0,0,0-12-19.16C164,65.3,160.42,60.61,155,60.37c-7.64-4-14.88.22-19.11,7,0,0,0,0,0,0-10.43-2.72-16.46,5.85-17.7,15.12C114.22,81,111,78.33,111,73.81c0-3.85,2.56-7.45,5.18-10.06s6.4-4.75,10.28-4.8a7.93,7.93,0,0,1,5.12,1.87c1.76,1.43,2.22,3.78,3.82,5.19a.27.27,0,0,0,.46-.19c.44-4-4.89-7.92-8.48-8.24-4.64-.42-9,2.05-12.24,5.13s-5.79,7.46-5.6,12c.2,5,4.59,8,9,9.43a.73.73,0,0,0,.92-.7c.83-8.66,6-16.92,15.65-14.81-3.9,7.15-4.52,16.51.93,22.09-10,12.37-12.92,28.35-17.28,43.25a.73.73,0,0,0,.51.9c9.6,2.43,19.43,3,29.28,2.82,0,0-.06.08-.07.15-.4,5.54-3.45,13.09-.84,18.45,1.59,3.28,6.42,6.36,10.16,4.76a4.54,4.54,0,0,0,2.22-6.38c-1.79-3.86-8-3.95-11.28-2.6-.48.2-.47,1,.13,1,3.29-.09,7.34-1.17,9.68,1.93,2,2.61-.54,5.11-3.22,5-11.25-.37-6-15.63-6.06-22.15a.59.59,0,0,0-.07-.16c5-.08,10.09-.33,15.11-.57a.75.75,0,0,0,.74-.74c.27-14.2-10.43-29.27-6.71-43.2a.64.64,0,0,0,0-.48c6.11-4.29,8.31-12.82,7.24-20,8,2.18,13.58,10.27,9.94,18.53-.23.51.14,1.25.79,1C186.17,88.86,189.48,79.53,184.18,70.53Zm-25.3,41.93c1.3,5,2.71,9.85,3.78,14.86a45.79,45.79,0,0,1,.92,7.39c.09,1.75-9.58,1.39-10.64,1.43q-8.69.29-17.37-.18a97.92,97.92,0,0,1-10.8-1.3c-5.19-.88-3.56-3.89-2.5-7.78,3.43-12.51,6.61-25,14.22-35.7,2.44,2.27,5.95,3.84,10.79,4.24a16.94,16.94,0,0,0,9.48-1.77C154.93,99.57,157.39,106.77,158.88,112.46Zm5.79-35c0,9.53-6.38,16.81-16.08,16.59-25.25-.56-15.1-37.6,4.1-33.5a10.81,10.81,0,0,0-1.08.21c-.87.22-.49,1.45.37,1.31,6.66-1.06,10.34,3.6,11.86,9.14-.32.33-.28,1,.27,1.14h0A24.23,24.23,0,0,1,164.67,77.45Z"></path> <path class="cls-6" d="M156.59,83.11c-2.65,2.74-4.1,5.17-8.12,6.11a7.77,7.77,0,0,1-5.2-.6c-2.1-1.07-2.32-3.25-2.88-5.26-.1-.33-.64-.37-.71,0-2.06,10.42,16.39,8.75,17.74.23C157.5,83.13,157,82.71,156.59,83.11Z"></path> <path class="cls-6" d="M153.61,78c-.65-.83-.56-2.33-.5-3.33a.5.5,0,0,0-.6-.55v-.92a.72.72,0,0,0-1.44,0c0,.92-.16,1.85-.24,2.78-.06.64-.29,1.65.2,2.18l.06.05c0,.53,0,1.07,0,1.6a.7.7,0,0,0,1.39,0,10.43,10.43,0,0,1,.15-1.58,3.14,3.14,0,0,0,.28.46C153.34,79.15,154,78.45,153.61,78Z"></path> <path class="cls-6" d="M145.81,74.74a.71.71,0,0,0-.76-.47V73.9a.61.61,0,0,0-1.21,0c0,2-.6,3.9-.61,5.88a.44.44,0,0,0,.53.44c0,.1,0,.2,0,.3a.69.69,0,0,0,1.38,0c0-.91.17-1.82.27-2.72.07-.54.13-1.09.21-1.63l.09-.58A.93.93,0,0,0,145.81,74.74Z"></path> <path class="cls-6" d="M258.49,55.88c-2.78,5.63-9,7-14.79,6.7-2.44-.12-11.12-1.42-10.14-5.54a.17.17,0,0,0-.31-.13c-2.42,4.37,5.45,6.34,8.39,6.84,6.75,1.15,14.85-.53,18.12-7.12C260.19,55.78,258.91,55,258.49,55.88Z"></path> <path class="cls-6" d="M255.82,42.4c.09-.46.2-.92.34-1.39.27-.9-1.12-1.27-1.41-.38-.12.35-.24.71-.35,1.07a.55.55,0,0,0-.26.26s0,.1,0,.16h0a.2.2,0,0,0,0,.07,9.24,9.24,0,0,0-.67,2.51h0a.56.56,0,0,0-.29,1.08c-.32-.12-.15.27-.17.61s0,.64-.05,1a1.18,1.18,0,0,0,.47,1.08.66.66,0,0,0,.2.06c0,.14,0,.28,0,.43a.43.43,0,0,0,.85,0c0-.26,0-.51,0-.77l0,0a.73.73,0,0,0,1-.67c.07-1.51.63-2.92.74-4.41A.66.66,0,0,0,255.82,42.4Z"></path> <path class="cls-6" d="M242.21,38.61a.73.73,0,0,0-1.45,0c0,.29,0,.57-.07.86a.57.57,0,0,0-.59.61c0,1.72,0,3.44-.06,5.15a.67.67,0,0,0,.22.52c0,.32,0,.63,0,1a.46.46,0,0,0,.92,0c0-.32,0-.65,0-1a.69.69,0,0,0,.22-.49c0-.14,0-.28,0-.42a.57.57,0,0,0,.68-.5A38.71,38.71,0,0,0,242.21,38.61Z"></path> <path class="cls-6" d="M237.18,17.63c-.09-1-.3-2-.37-3a.52.52,0,0,0,.08-.23c0-.55.1-1.47-.57-1.69a.68.68,0,0,0-.84.48c-.2,1.29.32,2.92.49,4.2.22,1.69.52,3.4.61,5.1a.49.49,0,0,0,1,0A40.84,40.84,0,0,0,237.18,17.63Z"></path> <path class="cls-6" d="M268.43,18.34a9.49,9.49,0,0,0-2.08,2.9,44.93,44.93,0,0,0-2.49,4.64c-.25.54.52,1,.82.48.78-1.39,1.58-2.77,2.44-4.11.67-1.05,1.75-2.13,2-3.35C269.25,18.51,268.81,18.06,268.43,18.34Z"></path> <path class="cls-6" d="M275.48,23.76a7.22,7.22,0,0,1-.74,1.08A23.87,23.87,0,0,1,273,27.12a19.77,19.77,0,0,1-2,2.11c-.29.27-1.13,1.14-1.55,1s-.5.37-.21.51c1.48.73,3.17-1.25,4.06-2.16a31.84,31.84,0,0,0,2.32-2.73,3.48,3.48,0,0,0,.95-2A.58.58,0,0,0,275.48,23.76Z"></path> <path class="cls-6" d="M287.59,91C279.92,83.41,272,75.26,262.72,69.5c10.73-7.72,15.11-21,9-33.76A23.33,23.33,0,0,0,256.21,23a26.66,26.66,0,0,1,.72-2.76c.48-1.52,1.37-2.8,1.9-4.26.15-.41-.34-.68-.67-.52-1.36.66-1.8,2.65-2.21,4a21.58,21.58,0,0,0-.74,3.32,32.82,32.82,0,0,0-8.93-.78.44.44,0,0,0,.1-.23c.07-2.16.4-4.29.65-6.43.05-.43.1-.86.14-1.29a3.16,3.16,0,0,0-.35-2,14.28,14.28,0,0,0,.8,1.89.56.56,0,0,0,1-.43c-.28-.83-.3-2.34-1.16-2.83a.64.64,0,0,0-.68,0c-1.15.87-.81,2.73-.9,4-.15,2.36-.49,4.7-.49,7.08a.45.45,0,0,0,.12.26,39.23,39.23,0,0,0-14.89,4,23.56,23.56,0,0,0-2.42,1.4h0c-.75-2.35-1.06-5.38-2.42-7.45a.56.56,0,0,0-1,.29c0,.11,0,.23,0,.35-.13-.23-.24-.46-.38-.68-.46-.69-1.56-.07-1.12.65,1.42,2.36,2.16,5.05,3.61,7.39a.61.61,0,0,0,.27.24c-10.31,7.7-11,22-4.72,33.06a28.58,28.58,0,0,0,9.76,10.22,50.46,50.46,0,0,0,1.29,13.64.67.67,0,0,0,1.22.16A18.1,18.1,0,0,1,236,83.43a11.12,11.12,0,0,0,.46,6.09.66.66,0,0,0,.64.48,40.51,40.51,0,0,0,6.24-.36.58.58,0,0,0-.14.74c.88,1.79,2.06,3.22,2.65,5.18a10.58,10.58,0,0,1,.2,5,8.44,8.44,0,0,1-5,6.39c-3.22,1.17-5.45-1.67-6.45-4.35a9.61,9.61,0,0,1,.4-7.42,8.53,8.53,0,0,1,2-2.55c.75-.7,1.79-.91,2.5-1.64a.22.22,0,0,0-.09-.36c-1.9-.6-3.89,1.55-4.91,2.89a10.08,10.08,0,0,0-1.72,7.8c.9,3.57,3,7.57,7.28,7.32,3.37-.2,5.84-3.21,7-6.11,1.58-4,.54-10.07-2.88-12.85a.62.62,0,0,0-.19-.11c2.5-.49,4.77-1.47,5.37-3.5.68.59,1.37,1.18,2.12,1.72a.73.73,0,0,0,1-.26c2.11-3.78,3.25-7.92,5-11.85.24-.54-.39-1.14-.85-.66-1.79,1.83-2.39,5.13-3.31,7.43q-.69,1.72-1.53,3.36c-.3.62-3.83-3-4.1-3.24A89,89,0,0,1,242,75.61a.7.7,0,0,0-1,0c-2.13,2.65-4.69,4.93-6.63,7.72A48.47,48.47,0,0,1,233.14,72c8.4,4.76,19,5,28.43.85.49-.22.13-1.06-.36-.87-13.75,5.47-28.12,2.08-36.73-10.25-7.37-10.56-6.22-24.38,3.72-32.31a.36.36,0,0,0,.37-.28c.45-.34.88-.68,1.35-1a30.65,30.65,0,0,1,25.14-3.89c0,.38,0,.76,0,1.14a.42.42,0,0,0,.84,0c0-.29.06-.57.09-.86a25.24,25.24,0,0,1,13.85,10.72c7.53,12.2,2,26.1-8.7,33.54a.8.8,0,0,0-.28.2,30.53,30.53,0,0,1-3.55,2.08c-.85.42-.1,1.69.75,1.27a33.19,33.19,0,0,0,3.35-1.93c7.1,4.33,13.25,10.28,19.28,15.95,1.54,1.45,3.06,2.94,4.57,4.42,1.33,1.3-4.73,6-5.31,6.5-5.83,5.36-8.63,5.06-15.27,1-.51-.32-1.35.21-1.09.83a108.11,108.11,0,0,1,7.63,50c-.57,6.43-2.47,5.74-7.87,6.19a102.41,102.41,0,0,1-10.94.45c-11.34-.28-9.84-15.37-11.66-23.18a.74.74,0,0,0-1.34-.18c-3.75,5.88-5.33,14.21-11.14,18.52-2.11,1.56-5.14,1.49-8.35.66.38-.43,0-1.25-.63-1l-1.42.42c-4.72-1.6-9.51-4.37-12.23-5.7-1.94-.95,4-23.57,4.6-26.26s1.17-5.34,1.84-8c5.25,5.72,18.17,5.08,25.11,5.32,10,.36,21,.8,31-.63.73-.11.44-1.1-.16-1.18-18.67-2.43-37.71,4-55.76-4h0a144.57,144.57,0,0,1,5.75-18c.22-.55-.41-1-.9-.91-7.53,1.9-12.44,2.23-15.32-3.87a.52.52,0,0,0,.58-.27c.44-.84-.43-1.15-1.1-1h0c-.25-.66-.48-1.35-.7-2.13-1.92-7,20.76-13.65,25.69-15.08a.51.51,0,0,0-.27-1c-9.67,2.6-18.53,7.15-27.43,11.63a.73.73,0,0,0-.34.82,64.48,64.48,0,0,0,1.68,6.35c-.78.44-1.55,1-2.25,1.43-1.5.94-3,1.89-4.48,2.87a8.3,8.3,0,0,0-1.4.93c-.05,0,0,.09-.06.13a1.28,1.28,0,0,0-.23.24,6.25,6.25,0,0,0-.24-.6c-1.15-2.35-3.78-2.74-5.94-1.84a.38.38,0,0,0-.45-.53,6.63,6.63,0,0,0-4.52,8.51,4.59,4.59,0,0,0,.47.94s-.06-.06-.1-.07c-3.1-.5-6.61.3-9.7.65-4.18.47-8.34,1-12.51,1.53-.74.09-.76,1.25,0,1.18,7.27-.77,15.06-.83,22.21-2.24a.55.55,0,0,0,.4-.63c1.95,2.46,6.21,3.12,8.65,1.11a7.1,7.1,0,0,0,1.91-7.56c1,.46,3.57-1.69,4.23-2.09,1.21-.74,2.43-1.47,3.66-2.18.28-.17.57-.32.85-.48,1.75,4.18,4.6,6.76,10.9,6,4.18-.52,4.87-1.38,3.05,3.63a133.16,133.16,0,0,0-4.18,14.7c-2.59,10.71-4.23,21.63-6.81,32.35a.75.75,0,0,0,.34.83,118.64,118.64,0,0,0,12.1,5.67c-7.09,2.12-20.37,6.57-17.8,12.36,5,11.24,22.76-4.21,26.3-9.62.33-.49-.43-.89-.77-.45a40,40,0,0,1-11,9.27,19.75,19.75,0,0,1-7.88,3c-2.47.3-6.61-1.73-5-4.73,1.9-3.58,8.39-5.41,11.83-6.69,2.18-.81,4.72-1.36,6.91-2.34a22.77,22.77,0,0,0,7,.94c7.7-.28,10.54-11.12,13.19-16.56,2.45-5.05,2.41,6.55,2.82,9.22.45,3,1.52,7.21,4.18,9.12,4.29,3.07,10.38,2.76,16.21,2.09a20.9,20.9,0,0,1,8.94,7.3c1.27,1.95,2.86,5.86.43,7.6-2.89,2.07-7.83-1.21-10.16-2.72-2.68-1.73-4.6-4.56-6.23-7.24-.81-1.33-1.4-3.84-2.9-4.47a.07.07,0,0,0-.08.05c-.83,2,2.11,5.64,3.16,7.22a21.32,21.32,0,0,0,6.7,6.5c2.67,1.65,7.68,4.13,10.61,1.61,2.38-2.05,1.57-5.54.4-8-1.68-3.55-4.88-6.25-8.35-8.13,2.36-.29,4.63-.57,6.66-.63a.72.72,0,0,0,.71-.54,86.43,86.43,0,0,0,.55-29,141.19,141.19,0,0,0-3.45-17.3c-.79-3-1.82-5.87-2.9-8.75.4,1.07,6.5,3.29,7.66,4a.73.73,0,0,0,.89-.11c4.35-4.24,8.89-8.26,13.24-12.5A.75.75,0,0,0,287.59,91Zm-50.26-9.23c.56-.64,1.14-1.26,1.73-1.89,1.29-1.35,1.9-3.34,3.7-1a53.6,53.6,0,0,0,5.69,6.4h0A10.33,10.33,0,0,1,243.81,88a25.84,25.84,0,0,1-6.27.65C236.84,86.62,236.44,83.89,237.33,81.79ZM189.31,99c-2,2.42-6.25,1.51-7.65-1-1.1-2-.25-4.48,1.3-6.12a.6.6,0,0,0,.75.91c2.16-1,4.56-2.91,6.2,0A5.93,5.93,0,0,1,189.31,99Z"></path> <path class="cls-6" d="M300.07,109.66c-2.14-2.8-5.92-2.21-7.93.37a.6.6,0,0,0-.32-.7c-2.35-1.31-4.34-3.42-6.37-5.16-1.61-1.39-3.5-3.34-5.61-3.93a.6.6,0,0,0-.61.16c-.45.56-.65.69-.51,1.51a.27.27,0,0,0,.52-.07c-.06-.78-.47-.81.12-.47.37.22.79.34,1.17.58a32.66,32.66,0,0,1,4,3.16c2.08,1.81,4.15,4.12,6.61,5.41a.65.65,0,0,0,.69,0,.44.44,0,0,0,.63.55c2.14-1.31,4.32-3.1,6.43-.71a8.14,8.14,0,0,1,1.49,6.58c-.53,2.69-2.69,3.29-5,2.26-2-.87-4.31-1.88-3.76-4.47a5.21,5.21,0,0,1,4.32-3.72.33.33,0,0,0,0-.66c-4.39-.12-8.17,5.72-3.83,8.73,2.78,1.91,7.44,3.42,9.21-.49A9.34,9.34,0,0,0,300.07,109.66Z"></path> <path class="cls-6" d="M133.74,137.75c-1,3.21-.68,7.75-1.4,11.48a.55.55,0,0,0-.11-.1c-3.24-1.89-7.58-1.9-10.35.8-1.63,1.59-2.14,4.67-.15,6.19,3.1,2.38,8.11.83,10.35-2,3.19-4,1.48-11.47,2.48-16.16A.42.42,0,0,0,133.74,137.75Zm-7.86,18c-3.16.31-5.2-2.15-3-4.79s6-1.59,8.9-.77a.55.55,0,0,0,.36,0C131.39,153.09,129.77,155.35,125.88,155.73Z"></path> <path class="cls-6" d="M129.25,96.56c-.39,1-4.16,1.49-5.06,1.68a49.5,49.5,0,0,1-7.48.94,3.19,3.19,0,0,0-.08-2c-.93-2.34-4.61-2.8-6.74-2.56l0,0c-1.67-2.34-4.55-4-7.17-3.58a9,9,0,0,1,1.5-1.41.36.36,0,0,0-.36-.62,8.71,8.71,0,0,0-3.09,2.83,7,7,0,0,0-2.38,3.07.63.63,0,0,0,.61.88,10.77,10.77,0,0,0-.23,4.32c.67,3.9,5.43,4.76,8.78,3.47.72,3.36,5.94.1,7.47-1.54a8.21,8.21,0,0,0,1.41-2,48.89,48.89,0,0,0,9.43-1c1.31-.25,4.24-.61,4.41-2.38C130.3,96.09,129.44,96.07,129.25,96.56Zm-26.44,6.08c-2-.33-2.84-2.13-3-4a10,10,0,0,1,.91-4.56c1.91-1.73,4-2.53,6.56-.41,2.14,1.79,3.57,5.45,1.31,7.68C107.26,102.72,104.6,102.94,102.81,102.64Zm11.36-1.4c-.93,1.07-5.14,4.36-6,2.1a6.25,6.25,0,0,0,1.17-.73,5.24,5.24,0,0,0,1.32-6.73c1.68.11,4.19.11,4.88,1.75C116,98.89,114.94,100.36,114.17,101.24Z"></path> <path class="cls-6" d="M102.1,88.83c-4.66-2.44-9.29-4.88-13.86-7.48-2.91-1.65-5.82-3.3-8.77-4.88-.28-.15-.59-.34-.91-.53q-2.27-7.39-4.72-14.73a.68.68,0,0,0-.23-.33c.71-.35,1.41-.72,2.09-1.13,24.78-15,10.4-71.95-20.35-57.39-.28.14-.08.56.21.49a30.86,30.86,0,0,1,3.38-.6C50.48,5,41.59,8.27,34.73,14c-7.65,6.43-8.32,16.28-6.8,25.48A28,28,0,0,0,41.26,58.76a.4.4,0,0,0-.17.19c-1,2-2,4.14-2.84,6.24a.57.57,0,0,0-.6-.07c-9.22,3.73-17.37,9.45-25.73,14.75a5.54,5.54,0,0,0-1.38-2.08c-3.31-3-8.46,1.88-10,4.59A2,2,0,0,0,.34,84C-.35,85.62-.07,87.43,2,89c3.35,2.55,8,1.73,9.67-2.16a9.89,9.89,0,0,0,.59-6C20.66,76,28.6,70.41,37.62,66.69c-2.93,7.14-5.38,14.49-8.5,21.54C24.05,99.73,16.45,110.38,14.34,123a.76.76,0,0,0,.52.91c7.35,2.82,15.11,3.51,22.9,4a.35.35,0,0,0-.35.4,72.67,72.67,0,0,1,.37,8.86c-3.76-1.83-9.42-.16-12.71,1.9-3,1.89-3.06,4.79.1,6.44,3.86,2,9.63,2.4,12.26-1.62,2.75-4.21,1.41-11,.85-15.58a.45.45,0,0,0-.41-.39l2,.13c8.08.51,16,1.57,23.92,2.82-.68,4.07-1.21,8.18-1.85,12.26-.56,3.52-.94,3.95,2,6a8.17,8.17,0,0,0,9.32.41c1.94-1.34,3.23-4,2.27-6.24-1.44-3.42-6.32-3-9.22-2.5-.94.15-.54,1.57.39,1.42,2.32-.38,6.7-.92,7.62,2.06.59,2-1.29,3.81-2.83,4.6-2.89,1.47-6.16-.32-8.32-2.21-1.07-.93.44-6.79.6-8.1.31-2.54.63-5.07.91-7.61l1.14.18c7.73,1.24,19.5,3.94,21.54-6.07s-1.58-22-3.94-31.63c-1.31-5.33-2.79-10.62-4.37-15.88,2.86,1.61,5.67,3.27,8.5,4.92,4.29,2.5,9.17,6.28,14.09,7.4C102.28,90.05,102.72,89.15,102.1,88.83ZM11,84.09c-.27,2.71-2,5.22-4.95,5.07C3.8,89,.66,87.33,1.34,84.69h0a16.39,16.39,0,0,1,1.83,0,.47.47,0,0,0,.36-.86,2.77,2.77,0,0,0-1.15-.4,2.19,2.19,0,0,0-.36,0A7.14,7.14,0,0,1,7.7,80.89c.42,0,.52-.67.1-.73a7.23,7.23,0,0,0-4.37.8l.88-.78c1.05-1,2.61-2.17,4.15-2a3,3,0,0,1,2.29,2.38l-.35.22a.49.49,0,0,0,.49.84l.08,0A10.3,10.3,0,0,1,11,84.09Zm19.77,61.37a10.94,10.94,0,0,1-6.21-2.08c-1.66-1.41,1.3-3.12,2.27-3.66,3.44-1.9,7.09-1.85,10.82-1.26C37.2,142.39,35.54,145.62,30.79,145.46ZM29.36,39.12C23.67,16,44.09,10.63,60.21,3.13a.61.61,0,0,0,.07-1c26-1.86,35.94,36.52,18,53.79C62,71.62,34.32,59.23,29.36,39.12ZM82.87,97.46a117.12,117.12,0,0,1,3.37,21.29,25.08,25.08,0,0,1-.76,7.91c-1.45,5.24-8.61,4.2-12.79,3.9-8.4-.6-16.63-2.74-25-3.48-5.24-.47-10.5-.66-15.74-1.1s-17-.09-15.11-7.66c2.71-11,10.05-20.82,14.4-31.23C35,78,37.88,68.44,42,59.45a.56.56,0,0,0,0-.25c9,5.3,20.79,6.45,30.4,2.25a.77.77,0,0,0,0,.15q2.22,6.65,4.25,13.33a4.38,4.38,0,0,0-2.07-.46c-.11,0-.22.14-.14.25a7.35,7.35,0,0,0,2.74,1.92C79.28,83.53,81.21,90.46,82.87,97.46Z"></path> </g> </g> </svg> 