<?xml version="1.0" encoding="UTF-8"?> <svg xmlns="http://www.w3.org/2000/svg" viewBox="0 0 85.07 69.49"> <defs> <style>.cls-1{fill:#57c1ec;}.cls-2{fill:#3c3c3b;}</style> </defs> <g id="Слой_2" data-name="Слой 2"> <g id="Objects"> <path class="cls-1" d="M37.58,33.4c-.08-.14-.17-.27-.25-.4a2.37,2.37,0,0,0-2-1.16c-1.61.1-2.16.78-3.44,1.63-2.34,1.57-6.46.39-8.84-.29a3.14,3.14,0,0,0-3.81,2.12,31.91,31.91,0,0,1-2.95-2.25c-2.19-1.93-5.93-.12-5.06,2.94.15.55.29,1.09.42,1.64l-.5-.44a2.92,2.92,0,0,0-4.07,0,5,5,0,0,0-1.25,1.69l-.09,0A2.49,2.49,0,0,0,3.3,43c.57.56,1.11,1.09,1.66,1.57.26.38.49.78.7,1.12A2.66,2.66,0,0,0,8.55,47c1.33.59,2.85-.74,2.28-2a3.74,3.74,0,0,0,.07-.75,12.83,12.83,0,0,0,4.47,1.82c2,.34,4.36-1.27,3.61-3.53.35.29.7.58,1,.88a3.12,3.12,0,0,0,5.28-2.18c0-.38,0-.76,0-1.14,4.26.68,9,.39,11.8-3A3.15,3.15,0,0,0,37.58,33.4Z"></path> <path class="cls-1" d="M39.53,41.21C36.82,39.25,35,41,34,43.35a4.26,4.26,0,0,0-4.24.79c-2.14-.5-4.16,2-3.53,4,.25.8.46,1.61.64,2.42-1.52-1.2-4.14-.43-4.05,1.78a54.74,54.74,0,0,0,1.89,13.54c.61,2,3.36,1.13,3.09-.85a44.9,44.9,0,0,1-.33-7.12,11.94,11.94,0,0,1,1.4,1.9c1.66,2.88,5.73.87,5.13-2.16-.33-1.72-.52-3.46-.71-5.2a3.58,3.58,0,0,0,2-2.06l.17,0a3.31,3.31,0,0,0,4.11-3.13,7.34,7.34,0,0,1,.2-2.14l.25-.22C41.32,43.91,40.63,42,39.53,41.21Z"></path> <path class="cls-1" d="M85,32.54a32.76,32.76,0,0,0-4.33-10.21,3.52,3.52,0,0,0-5.79-.28c-.52-.31-1-.62-1.56-.9-2.07-1.11-5.41.22-5.13,3,0,.49.1,1,.16,1.47a3.48,3.48,0,0,0-1.24.4,3.59,3.59,0,0,0-1.54,1.81c-1.31-.92-2.6-1.86-3.82-2.91A3.21,3.21,0,0,0,56.44,28c.2.81.37,1.63.52,2.45-.81-.8-1.59-1.63-2.33-2.49a3.08,3.08,0,0,0,.72-1.82c.11-1.87.14-3.75.16-5.62a3,3,0,0,0,2-.93A8,8,0,0,0,59,15.19a3.7,3.7,0,0,0,2.57-2.34c.4-1,.71-2,1-3.08.61.43,1.23.91,1.32,1a3.23,3.23,0,0,0,4.15-.82c.09.05.16.12.26.17A2.49,2.49,0,0,0,72,8.62c.67-3.31-1-5.76-3.78-7.47A3.25,3.25,0,0,0,63.48,3a6,6,0,0,0-3.82-.18c-1.94.49-2.75,2.74-3.32,4.92a3.36,3.36,0,0,0-2.94,2.37A17.28,17.28,0,0,0,53.09,13a3.13,3.13,0,0,0-3.75,3c0,1.34,0,2.68,0,4-.58-.37-1.16-.74-1.72-1.14-1.46-1-4,.33-3.76,2.16a31.43,31.43,0,0,0,2.51,9.66c.52,1.17,2.06.43,2.16-.58.13-1.31.17-2.63.2-3.95A6.4,6.4,0,0,1,50,27.58a3.59,3.59,0,0,0,.37.48,2.22,2.22,0,0,0-.21,1.72,39.18,39.18,0,0,0,1.77,3.83A1.86,1.86,0,0,0,54,34.69c1.83,1.85,3.77,3.59,5.49,5.56,2,2.28,5.48-.15,4.82-2.8-.25-1-.44-2-.6-3,.88.67,1.73,1.35,2.54,2.1a3.34,3.34,0,0,0,5.64-2.34c0-.48,0-1,0-1.45a3.29,3.29,0,0,0,1.19-.4,4.15,4.15,0,0,0,1.75-2c.47.38.93.79,1.39,1.21a3.56,3.56,0,0,0,2.49.91A13.83,13.83,0,0,0,81,34.86,2.41,2.41,0,0,0,85,32.54Z"></path> <path class="cls-2" d="M62.88,1.73c-8.6,3.73-15.42,14.92-18.57,23.83-3.47-3.48-8-6.87-9.74-2.93a1.11,1.11,0,0,0-.08.35.57.57,0,0,0-.47.46,19.59,19.59,0,0,0,.59,10.11c-6-2.69-14.74,0-20.47,1.85C8.67,37.15.82,40.4.07,46.93c-1.35,11.76,17.31,4.51,28.26-1.21-4.55,6.48-6.84,14.17-8.53,22.16a1.31,1.31,0,0,0,1.58,1.59C32.66,68,37.57,55.37,41.51,45.34c3.57,4.44,7.65,8.61,10.72,12.82,1.63,2.23,5.11,7.53,8.67,6.57,2.84-.76,3.78-4.83,3.31-7.36-1.47-7.74-6.37-15.21-11.41-21.74a55,55,0,0,0,8.24,1c6.11.59,15.5,1,20.52-3.39,3.44-3,3.83-8.34-1.06-10.11-6.33-2.3-15.28-1.47-21.79.42,1.64-1.64,3.19-3.3,4.6-4.78C67.11,14.79,73.15,9,73.53,3.15,73.89-2.3,65.08.77,62.88,1.73ZM22.74,66.53C24.9,57,28.1,48.05,35.62,41.33c1.22-1.09-.54-2.85-1.75-1.8-4,3.48-9.28,5.83-14.12,7.95C16.65,48.83-1.35,54.66,3,45c3.75-8.23,24-13,31.83-10a.64.64,0,0,0,.3,0A36.31,36.31,0,0,0,39.73,43C36.25,51.91,32.06,63.81,22.74,66.53Zm21-25.71c-.34.54-.77,1.26-.42,1.9s1.71.27,2.27.08a18.18,18.18,0,0,0,3.76-1.9,10.06,10.06,0,0,0,2.26-1.6c1.83,2.67,3.55,5.29,4.95,7.52a10.6,10.6,0,0,1-3.28,2.39c-1.44.52-3.11.23-3.49-1.45-.08-.36-.69-.29-.65.09.43,4.41,5.92,3,8.4.54,1.34,2.16,2.27,3.78,2.56,4.41a29.13,29.13,0,0,1,1.34,3.58c.23.75,1.52,8.82-3.54,4.69-2.82-2.3-4.78-5.73-7-8.59-2.63-3.45-5.69-6.55-8.4-9.78.26-.66.53-1.3.79-1.92.55-1.31-1.75-2.29-2.31-1l-.27.66c-3.49-4.58-6-9.58-5.46-16.24a.79.79,0,0,0,.89-.31c1.26-1.56,4.46,1.23,8.12,5.62-.45.49-.7,1.13-1.14,1.67A6.47,6.47,0,0,1,41,32.89c-.81.42-2.74,1.12-3.6.57A.31.31,0,0,0,37,34c1.06,1,2.72.83,4,.45a8.21,8.21,0,0,0,2.85-1.57A6.32,6.32,0,0,0,45.51,31c1.71,2.14,3.48,4.55,5.18,7a14,14,0,0,0-1.17,1,20.16,20.16,0,0,1-2.66,1.82,12.06,12.06,0,0,1-2.28,1.12c-1,.33-.79,0-.34-.83A.28.28,0,0,0,43.76,40.82ZM58.52,26c4.91-.44,9.66-1.52,14.63-1.56,2.42,0,9.34.05,8.65,4.28-.48,3-4.24,4.22-6.66,4.92-8.41,2.41-16.32.16-24.54-.81l-1.55-1.91a33.27,33.27,0,0,0,8.34-6.14A1,1,0,0,0,58.52,26ZM69.14,7.68A67.79,67.79,0,0,1,47.8,29.41c-.39-.47-.88-1.05-1.46-1.7A49.73,49.73,0,0,1,59.66,7.15a16.68,16.68,0,0,1,9.89-4.64C72.58,2.25,69.8,6.58,69.14,7.68Z"></path> </g> </g> </svg> 