<?xml version="1.0" encoding="UTF-8"?> <svg xmlns="http://www.w3.org/2000/svg" viewBox="0 0 81.28 78.41"> <defs> <style>.cls-1{fill:#f281c1;}.cls-2{fill:#3c3c3b;}</style> </defs> <g id="Слой_2" data-name="Слой 2"> <g id="Objects"> <path class="cls-1" d="M33.06,40.07c-1.43-.46-2.52-1.65-4-2.13a3.17,3.17,0,0,0-3.87,3.87c.16.57.29,1.16.42,1.74a22.86,22.86,0,0,1-4.18-2.85c-2.05-1.85-5.52-.48-5.54,2.14a3,3,0,0,0-3.2,1.2,27.77,27.77,0,0,0-5.11-3.69A3.08,3.08,0,0,0,3.4,44.53l.68,1.4A2.27,2.27,0,0,0,3,49.21C4.1,50.82,4.77,52.58,6.1,54a1.27,1.27,0,0,0,1.31.3c1.24,1.24,2.51,2.45,3.68,3.78,1.62,1.82,4.4.42,4.83-1.52l1.58,2.07a3.05,3.05,0,0,0,5.55-2.37A3.26,3.26,0,0,0,26,51.45c-.21-.35-.4-.71-.59-1.07A19.63,19.63,0,0,1,28,52.27c2.3,2,6.15.14,5.27-3.06-.3-1.06-.53-2.13-.75-3.21A3.05,3.05,0,0,0,33.06,40.07Z"></path> <path class="cls-1" d="M45.07,58.54c-.84-1.83-1.59-3.66-2.43-5.43a3.25,3.25,0,0,0-.06-.45l.08,0c-.81-2.4-2.43-4-4.16-5.8-2.87-3-6.87,1.35-4.42,4.42.15.18.29.38.43.58-2.38-.27-4.09,2.69-2.9,4.93a2.63,2.63,0,0,0-1.18,3.14,99.57,99.57,0,0,0,8.12,16.39c1.05,2.17,4.26.6,3.75-1.58a38.46,38.46,0,0,0-1.81-5.5A3.12,3.12,0,0,0,43,64.6l-.63-1.35A3.23,3.23,0,0,0,45.07,58.54Z"></path> <path class="cls-1" d="M57.57,25A74.19,74.19,0,0,0,55,14.57a2.94,2.94,0,0,0,1.61-3.73c-1-2.5-.86-5.35-1.25-8-.43-2.9-3.54-2.66-5.13-1-2.26-1.5-6,.62-5.11,3.71.47,1.55,1,3.08,1.47,4.62-1-1.28-2-2.55-3-3.8-2.49-3.06-6.68.84-5.15,4,.9,1.86,1.76,3.72,2.57,5.6-.83-.82-1.69-1.62-2.59-2.38-2.12-1.79-6.39-.17-5.18,3,1.3,3.36,2.67,6.71,4,10.1a2.31,2.31,0,0,0-4.19,1.78,20.81,20.81,0,0,0,5.46,11.28,1,1,0,0,0,1.61-.11c.61.91,1.2,1.83,1.76,2.77,1.34,2.25,5.7,1.52,5.32-1.44A66.23,66.23,0,0,0,44.72,30c1,1.47,2,3,3,4.46a3.16,3.16,0,0,0,5.75-2.42c-.27-1.17-.58-2.33-.9-3.49C54.79,30.66,58,27.59,57.57,25Z"></path> <path class="cls-1" d="M80.64,34.17c-1.06-1.5-1.58-3.05-3-4.26a2.73,2.73,0,0,0-.66-.42c-.93-1-1.89-2.07-2.9-3.08a3.51,3.51,0,0,0-5.94,2.46c0,.37-.06.74-.09,1.12-.18-.27-.36-.55-.53-.83-1.72-2.9-6.43-1.72-6.39,1.73h0a10.28,10.28,0,0,1-1.33-1.31c-2.08-2.46-6.53.16-5.44,3.17a32,32,0,0,1,1.38,8.42q-2.13-1.5-4.23-3c-1.85-1.36-3.81,1.18-2.91,2.91a12.1,12.1,0,0,0,3.48,3.65c1.91,1.69,4,3.22,6,4.76,1.66,1.27,4.39-.44,4.23-2.43-.21-2.55-.23-5.12-.38-7.68.42.31.83.63,1.24,1A4,4,0,0,0,68,40.25l.12.12A3.46,3.46,0,0,0,74,38c0-.32.07-.64.1-1,.17.24.35.46.52.7C77.2,41.31,83.25,37.85,80.64,34.17Z"></path> <path class="cls-2" d="M74.79,30.31c-5.15-4.84-14.11-.25-20.19,4.24a63.76,63.76,0,0,0,3.16-17.78C58,12,58,2.17,52,.38,45.1-1.67,38.11,5,35.73,10.84s-5.5,18.2.19,23.43c-2.24-.86-4.52-1.65-6.81-2.37a24.9,24.9,0,0,1-3.47-7.64c-.78-2.87-.77-5.87-1.54-8.72a.82.82,0,0,0-1.6.22,27.19,27.19,0,0,0,4.23,15.43c-.82-.24-1.64-.49-2.46-.72-3.75-1-8.92-3-12.87-2a1,1,0,0,0,0,1.88c5.27,1.57,10.47,2.82,15.58,4.24a89.06,89.06,0,0,0,9.62,13,1.12,1.12,0,0,0-.32.14c-7.1,4.73-24.06,12.7-31.83,6.14-3.76-3.18-1.72-9,1.84-11.14,2.8-1.7,6.61-1.76,9.76-1.79a50,50,0,0,1,9.29.91c.88.16,1.75.37,2.62.61a.76.76,0,0,0,.33,1.26,7.42,7.42,0,0,0,1.93.25.9.9,0,0,0,.86-.65l.21-.75a.9.9,0,0,0-.62-1.09C21.4,38-4.17,35,.58,52.3c3.47,12.6,25,4.32,34.32-.85-2.53,9-7.26,25,4.82,26.89C48,79.63,47.55,63.27,48.25,57a22.62,22.62,0,0,0,11.32,2.76,1.23,1.23,0,0,0,1.19-.91c1.89-10.88-9.76-17.56-18-21.6-1.32-.65-2.67-1.24-4-1.82a.43.43,0,0,0-.1-.61c-6.13-4.95-3.53-15.63-1.25-21.91,1.89-5.21,12-15.74,16.47-7.41,4.58,8.51.71,25-3.78,33a1.3,1.3,0,0,0,2,1.56,38.81,38.81,0,0,1,15-8.62c7.26-2.18,8.4,6,2.77,9.56a20.4,20.4,0,0,1-9.63,2.68c-1.66.07-1.67,2.67,0,2.59a23.25,23.25,0,0,0,13.53-4.88C76.69,39,77.76,33.11,74.79,30.31ZM42.51,74.43c-2.72,4.77-7.3-2.09-7.83-4.13-.72-2.71-.12-6.07.32-8.75.7-4.21,2.11-8.26,3.11-12.4a44.34,44.34,0,0,0,7.83,6.49C44.63,61.86,45.77,68.71,42.51,74.43ZM48,43a29.71,29.71,0,0,1,8.31,7.15,12.52,12.52,0,0,1,2.12,4.54c1,3.95-2.69,2.52-5.07,1.86C43.31,53.77,34.7,43.4,28.65,35A78.68,78.68,0,0,1,48,43Z"></path> </g> </g> </svg> 