<?xml version="1.0" encoding="UTF-8"?> <svg xmlns="http://www.w3.org/2000/svg" viewBox="0 0 84.86 52.83"> <defs> <style>.cls-1{fill:#3c3c3b;}</style> </defs> <g id="Слой_2" data-name="Слой 2"> <g id="Objects"> <path class="cls-1" d="M84.6,20.92C82,8.06,64.92,11.35,57.07,18.63,57.54,8.32,53.23-1.52,40.72.2,29.8,1.7,23.47,12,25.14,22c-5.29-3.84-11.54-6.26-18-3.35C1,21.42-.81,29,.31,35.06,2,43.88,10.75,48.73,18.68,50.71c14.72,3.68,33.23,2.59,47.18-3.46.48-.21.12-.87-.33-.79-11.8,2.13-23.16,4-35.21,3.35-9.24-.53-20-2.47-25.56-10.68a13.43,13.43,0,0,1,1-16.24c6-6.7,15.57-1,20.76,3.54.89.79,2.7.05,2.18-1.27-3.73-9.65,1-19,10.89-22,13-4,16.21,9.57,14.44,19.45-.25,1.39,1.64,2.39,2.39,1,5.06-9.43,24.71-13.71,26.05.64.66,7.1-16.61,20.13-23.3,19.61-1.25-.09-1.48,1.87-.29,2.17,5.46,1.36,12.4-4.85,16.27-7.87C80.66,33.84,86.13,28.33,84.6,20.92Z"></path> </g> </g> </svg> 