<?xml version="1.0" encoding="UTF-8"?> <svg xmlns="http://www.w3.org/2000/svg" viewBox="0 0 173.37 141.13"> <defs> <style>.cls-1{fill:#e95b0c;}.cls-2{fill:#009ee2;}.cls-3{fill:#3c3c3b;}</style> </defs> <g id="Слой_2" data-name="Слой 2"> <g id="Objects"> <path class="cls-1" d="M144.08,106.45c-2.21-4.38-4.55-8.69-7-13a3.48,3.48,0,0,0,2.29-4.33c-.54-1.45-1.1-2.87-1.7-4.28,2.5,0,4.95-3,3.44-5.71-1.14-2-2.24-4-3.34-6.08a3.66,3.66,0,0,0,1.62-4.48A3.81,3.81,0,0,0,142.22,63c-.13-.25-.28-.5-.42-.75a3.86,3.86,0,0,0,.81-1.37l.18-.5a3.64,3.64,0,0,0-1-3.69c-.47-.37-2.22-2-1.79-1.11l-.13-.07a3.52,3.52,0,0,0-3.69-1.25l-.27-.06a4,4,0,0,0-3.62,1,4.11,4.11,0,0,0-3.48,1.43c-.11-.14-.23-.27-.34-.42-1.84-2.36-4.88-1-6,1.2l-.14-.14a4,4,0,0,0-5.26.16,64.25,64.25,0,0,0-7.93-8.15c-2.92-2.49-8,.74-5.61,4.33l3,4.56a4,4,0,0,0-3.49,4.13c-2.27-.2-4.76,2.07-4,4.57.59,1.81,1.22,3.59,1.89,5.36A29.58,29.58,0,0,0,97.36,70a3.54,3.54,0,0,0-5.15,4,70.7,70.7,0,0,0,3,10.26c-2.37-1.27-6.08.91-4.91,3.82,2.07,5.14,4.18,10.32,5.88,15.62a51.83,51.83,0,0,0-6.39-6.7c-2.22-1.9-6.63-.16-5.4,3.15a30.79,30.79,0,0,1,1.48,5.53,44.6,44.6,0,0,1-3.19-3.67c-1.38-1.8-5.06-1.57-4.82,1.31.47,5.65,2.82,9,7.56,11.94a1.88,1.88,0,0,0,1.91.15l.09.1a3,3,0,0,0,5.08-2.11c0-1.29,0-2.57,0-3.84,2.64,3.37,5.11,6.87,7.82,10.21,1.74,2.16,6,.45,5.64-2.33-.29-2.52-.73-5-1.26-7.43,1.65,3.09,3.29,6.18,5,9.17,2,3.39,7.38,1.14,6.32-2.66C112.88,105,106.92,94.6,102.62,83.6a73.68,73.68,0,0,1,6.48,10.76c3.74,7.16,6.68,14.72,10.68,21.74,2,3.44,7.68,1.13,6.44-2.72-.22-.67-.45-1.34-.69-2,1.36,2.31,2.76,4.58,4.26,6.8a3.62,3.62,0,0,0,6.59-2.78c-.13-.75-.27-1.5-.43-2.24.47.58.94,1.17,1.43,1.75,2.63,3.1,7.4-.62,5.92-4A3.52,3.52,0,0,0,144.08,106.45Z"></path> <path class="cls-2" d="M54.8,67.28c-2-1.41-3.77-3-5.89-4.29a3.41,3.41,0,0,0-4.65,1.22,7.27,7.27,0,0,0-.76,2.42q-.68-.1-1.35-.18a2.74,2.74,0,0,0-1.07.13c-1.35-2.48-2.69-5-4-7.42-1.84-3.31-7.75-1-6.23,2.63.49,1.16,1,2.33,1.46,3.5-.46-.68-.91-1.37-1.38-2a3.3,3.3,0,0,0-5.7,3.33c2,4,3.82,8.08,5.43,12.22a57.81,57.81,0,0,0-4.33-5.08c-2.17-2.23-6.49,0-5.39,3.14.07.2.14.4.2.59-.39-.53-.77-1.07-1.17-1.59-1.19-1.55-4.54-1.39-4.25,1.15a35.17,35.17,0,0,0,2.88,11c.66,1.35,2.51.82,2.93-.38l0-.07a1.22,1.22,0,0,0,.06-.26c2,3.13,4,6.23,6,9.36,1.73,2.76,6.14,1,5.27-2.22-.19-.72-.39-1.44-.59-2.15,1.46,2.12,3,4.22,4.58,6.23,2.24,2.78,6-.31,5.45-3.18-.09-.47-.2-.93-.3-1.4q1.16,2,2.34,4c1.93,3.24,7.13,1.1,6.1-2.58-.56-2-1.17-4-1.8-6,2-.23,3.76-1.88,2.88-4.15-1.25-3.23-2.41-6.49-3.59-9.75a3.77,3.77,0,0,0,3.68-2.86l.1.05A3.09,3.09,0,0,0,54.8,67.28Z"></path> <path class="cls-3" d="M48.31,29.71c-.79-.29-1.13,1-.34,1.25,9.18,3.33,15.17,10.93,11.9,20.84A16,16,0,0,1,40.44,62.27c-25.08-7.12.05-40.91,10.89-31.88a.07.07,0,0,0,.11-.09C48,22.47,35.69,33.61,33.09,36.79c-7.21,8.86-5.81,20.37,4.64,25.79,9.05,4.7,19-.73,23-9.35C65.58,42.54,58.2,33.29,48.31,29.71Z"></path> <path class="cls-3" d="M52.44,54.18a.44.44,0,0,0-.79-.1c-1,2.19-5.45,1.6-7.31,1.3-3.89-.64-7.48-2.89-8-7-.08-.53-1-.41-.94.13.43,5,4.65,7.47,9.21,8.23C46.12,57,53.16,57.44,52.44,54.18Z"></path> <path class="cls-3" d="M42.64,43a5.65,5.65,0,0,0-.87,1.6,32.14,32.14,0,0,0-1.19,3.14c-.17.56.67.77.87.24.4-1,.86-2.06,1.34-3.06a6.26,6.26,0,0,0,.61-1.47C43.48,43,43,42.6,42.64,43Z"></path> <path class="cls-3" d="M49.31,42.82c-.51.09-.42.8,0,.93.63.21-1.25,2.83-1.48,3.11a.44.44,0,0,0,.62.62,6.84,6.84,0,0,0,2-3.08C50.73,43.51,50.32,42.65,49.31,42.82Z"></path> <path class="cls-3" d="M54.21,62.3,53.83,62a.55.55,0,0,0-.54,0C50.65,63.55,51.91,70.85,52,73.2c.08,4.72-.32,9.4-.47,14.12-.08,2.59-.09,5.18-.1,7.77,0,4.58-1.36,4.66-5.43,4.5a64,64,0,0,1-23.33-5.51c-.07-.24-.17-.4-.34-.45s-.21.08-.2.19a59,59,0,0,1-6.34-3.38c-2.29-1.41,13.16-30.59,14.6-34,.19-.45-.45-.85-.67-.39C24.31,67.28,18.6,78.34,13.26,89.58a.67.67,0,0,0,.23.89A53.26,53.26,0,0,0,22,95.26C21.38,97.7,19.36,103,17.81,107c-3.32-2.17-9-3.58-10.71,1-2.1,5.53,6.47,5.82,9.48,5.17a.63.63,0,0,0,.45-.44c.16-.56.78-2.2,1.56-4.29a.48.48,0,0,0,.24-.64c1.5-4,3.42-9.44,3.79-12.28A68.23,68.23,0,0,0,52,100.92a.66.66,0,0,0,.66-.65c0-7.78.07-15.55.64-23.31.09-1.19.11-13.93.52-13.78S54.64,62.58,54.21,62.3ZM15.94,111.93c-.41,1.26-5.25.14-6.06-.26a2.87,2.87,0,0,1-1.54-3.32c1-4,6.46-1.52,9.05-.23C16.65,110,16.08,111.49,15.94,111.93Z"></path> <path class="cls-3" d="M137,41.22c-4.46,11.14-24.39,2.91-26.32-6.46-.1-.47-.9-.37-.84.11.91,7.24,8.44,11,14.88,12.32,4.38.89,13.26.44,13.22-5.85A.48.48,0,0,0,137,41.22Z"></path> <path class="cls-3" d="M120.74,16.41l-.26.54.15-.69c.17-.69-.84-1.17-1.18-.49l-.18.39c0-.56-.79-1-1-.36l-.06.14h0v0a40.08,40.08,0,0,0-2.39,7.79c-.07.15-.12.29-.19.44-.37.73.73,1.38,1.1.64.44-.9.86-1.8,1.27-2.71-.17.74-.33,1.48-.51,2.22a.65.65,0,0,0,1.21.45.66.66,0,0,0,.54.35.67.67,0,0,0,.8-.46c0-.17.09-.34.13-.52s.09-.12.13-.19a2.53,2.53,0,0,0,.28-1.4h0l1.42-5.65C122.11,16.22,121.08,15.73,120.74,16.41Z"></path> <path class="cls-3" d="M138.81,21.75c-.09.34-.21.67-.31,1a.61.61,0,0,0-.93.31c-.68,1.93-1.33,3.87-2,5.81-.24.72.79,1.08,1.17.5.09-.15.17-.3.26-.44l-.15.59a.7.7,0,0,0,.82.81l0,.66a.43.43,0,0,0,.86,0c0-.63,0-1.25-.06-1.87a13.09,13.09,0,0,0,1.48-4c0-.39-.26-.55-.57-.52.21-.85.43-1.7.64-2.55A.65.65,0,0,0,138.81,21.75Z"></path> <path class="cls-3" d="M102.4,57.07c-8.48,2.68-15.5,8.23-24.29,10.06a5.31,5.31,0,0,0-6.94-.36.63.63,0,0,0-.2.65,5.73,5.73,0,0,0-2.34,2.29c-1.85-.79-4-1.25-5.75-1.86C60,66.84,57,65.91,54.06,65a.35.35,0,0,0-.27.63,39,39,0,0,0,7.45,3c2.26.79,4.51,1.72,6.8,2.47a6.69,6.69,0,0,0-.32,2.21c.13,4.13,4.61,4.23,7.62,3.38a5.91,5.91,0,0,0,3.92-7.72,4.7,4.7,0,0,0-.51-1c8.4-1.42,16.78-5.91,24-10A.48.48,0,0,0,102.4,57.07ZM75,75.45c-2.45.85-6,.84-6.14-2.44a4.81,4.81,0,0,1,.21-1.64c.31.09.62.2.93.28a.54.54,0,0,0,.42-1c-.27-.18-.55-.34-.84-.5a5.24,5.24,0,0,1,3.25-2.57.32.32,0,0,0,.23-.31,4.68,4.68,0,0,1,3.45.13c-.18,0-.36.07-.54.09-.48.07-.51.82,0,.78s.91-.09,1.37-.15A4,4,0,0,1,78,69.25,4.68,4.68,0,0,1,75,75.45Z"></path> <path class="cls-3" d="M26.89,57.75c-1.06-.43-2.49-.12-3.61-.08q-3.24.12-6.47.27c-1.51.08-5.17-.39-6.76.5a5.31,5.31,0,0,0-.84-1.94c-1.75-2.42-4.8-.93-5.47,1.58a.39.39,0,0,0,.64.37c1.18-1.21,2.64-3.17,4-1a4.08,4.08,0,0,1-.65,5.07c-1.69,1.61-5.24,1.92-6.41-.4C.26,60,1.87,57.63,3.62,56.51a.32.32,0,0,0-.24-.58,5.07,5.07,0,0,0-3,6.72c1.43,3,5.7,2.7,8,.84a5.12,5.12,0,0,0,1.76-4.55l0,0c.27.17.6.35.59.34a7.09,7.09,0,0,0,1.84,0l5.57-.17c2.57-.08,6.45.53,8.84-.49C27.39,58.39,27.19,57.88,26.89,57.75Z"></path> <path class="cls-3" d="M32.29,112c.89-2.16,1.75-4.35,2.58-6.54.61-1.6,1.72-3.79,1.42-5.57a.15.15,0,0,0-.09-.1c-.25-.05-.37.29-.46.45a.11.11,0,0,0,.19.11c.46-.65-.64,1.16-.8,1.57-.69,1.73-1.36,3.47-2.06,5.2s-1.36,3.45-2.08,5.17a.49.49,0,0,0-.13.33,49.85,49.85,0,0,1-2.69,5.49.62.62,0,0,0,.1.76c2.75,2.23,8.26,4.28,10.05-.32C39.87,114.51,35.93,111.76,32.29,112Zm4,7.27c-1.64,1.63-4.22.62-5.86-.36-1.21-.73-1-.38-.45-1.51.32-.66.62-1.33.91-2s.63-1.51.95-2.27c1.87.27,3.81.28,5.07,2A3.22,3.22,0,0,1,36.26,119.24Z"></path> <path class="cls-3" d="M120.48,132.79c.24-1.61.48-3.22.71-4.83a21,21,0,0,0,.44-6c0-.15-.23-.2-.35-.14s-.16.27-.19.41a.22.22,0,0,0,.19.27,3.37,3.37,0,0,0-.56,1.16c-.26,1.8-.54,3.59-.83,5.39-.55,3.52-1.07,7.06-1.77,10.56a.64.64,0,0,0,.43.76c3.66,1.26,9.38,1.52,9.78-3.59C128.67,132.47,123.6,131.17,120.48,132.79Zm6.51,4.57c-.32,1.84-2.18,2.53-3.82,2.64a10.56,10.56,0,0,1-3.43-.54c-.51-.14-.32-.12-.16-1,.27-1.58.52-3.17.76-4.75a.52.52,0,0,0,.46.11C123.58,133.11,127.71,133.31,127,137.36Z"></path> <path class="cls-3" d="M171,87.54a5.72,5.72,0,0,0-7-1.15,3.22,3.22,0,0,0-1,.38c-6.55-4.92-13.16-9.61-19-15.32,0-6.72-.46-17.13-3.09-17.73-.75-.18-1.07,1-.32,1.15,1.23.28,1.88,7.75,2.27,15.45-.64-.66-1.28-1.31-1.89-2-.27-.29-.68.14-.43.44.76.94,1.56,1.86,2.38,2.75.34,7,.48,13.92.66,15.49.89,7.75,1.87,15.48,1.7,23.3,0,1.89.2,10.21-3.38,9.79-4.35-.5-8.74-.72-13.1-1-9.08-.51-18.13-1-27.11-2.38a84.7,84.7,0,0,1-10.9-2.6c-5.33-1.6-12.37-3-9.2-9.5C90.49,86.34,100,68.25,107.91,49.5a31.1,31.1,0,0,0,13.92,6.19c15.92,3,28.52-9.65,32.83-23.83,3.6-11.86.23-27.46-13.82-28.59-15.47-8.22-33-.18-39.6,15.66-4.95,12-2.07,23.14,6.12,30.12C97.63,69.06,87.73,89,78,109a.67.67,0,0,0,.23.89,66.55,66.55,0,0,0,21.34,7.75,0,0,0,0,0,0,0c-.86,3.59-1.71,7.18-2.68,10.74-4-1.18-9.49-2.87-11.5,1.44-1.94,4.13,7.69,5.95,10,6a.65.65,0,0,0,.61-.47c.55-1.84,1-3.69,1.53-5.54a6.68,6.68,0,0,0,1.09,0c.55,0,.71-.85.14-1l-.93-.25c.91-3.58,1.71-7.19,2.45-10.82,0,0,0,0,0-.08,14.26,2.68,29.34,2.21,43.68,3.87a.65.65,0,0,0,.63-.48c5.17-14.29-.48-29.83-.64-44.43,0-.67,0-2.18,0-4.12,5.43,5.62,11.77,10.23,18.05,14.89a7.44,7.44,0,0,0-1.54,2.41l-.19.35a.7.7,0,0,0-.06.3,8.89,8.89,0,0,0-.51,3.82c.75,5.42,7.07,5.58,11,3.32S173.79,90.35,171,87.54ZM101.55,21.71c5.2-16,22-24.77,37.37-18.19a.62.62,0,0,0,.52.86c14.47,1.22,17.22,15.1,14,27.13-3.55,13.11-14.63,23.78-28.69,23.21C106.88,54,96.18,38.28,101.55,21.71ZM96,131.34c-.54,1.79-.32,3.4-2.3,3.07a22.87,22.87,0,0,1-3.81-1c-1.1-.4-4.05-1.56-3.22-3.33,1-2,3.66-1.69,5.42-1.44,1.44.21,2.91.78,4.39,1.1C96.36,130.24,96.21,130.79,96,131.34Zm74-34.7c-3.23,2.17-8.78,1.85-9.25-2.74a6.62,6.62,0,0,1,.35-2.9.67.67,0,0,0,.14-.15c2.09-3.35,5.38-5.53,8.79-2.43C172.58,90.68,173.07,94.63,170.07,96.64Z"></path> </g> </g> </svg> 