<?xml version="1.0" encoding="UTF-8"?> <svg xmlns="http://www.w3.org/2000/svg" viewBox="0 0 88.87 110.67"> <defs> <style>.cls-1{fill:#e20613;}.cls-2{fill:#009540;}.cls-3{fill:#3c3c3b;}</style> </defs> <g id="Слой_2" data-name="Слой 2"> <g id="Objects"> <path class="cls-1" d="M84.24,26.53Z"></path> <path class="cls-1" d="M84.24,26.53l-.17-.19.17.19a2.66,2.66,0,0,0-.34-.4L83.8,26a2,2,0,0,0-2.17-.8c-1-.21-2.85-.53-2.8-.52a3.44,3.44,0,0,0-2.8.68,3.26,3.26,0,0,0-5.31,2.57c-.18-.14-.37-.26-.54-.41a3.43,3.43,0,0,0-5.52,1.72L62,26.61a2.9,2.9,0,0,0-1.47-.83c0-1.48,0-2.94-.11-4.4a2.7,2.7,0,0,0,3.06-1.92l.39-1.18.24.07a2.8,2.8,0,0,0,3.49-2.65c.58-1.12.68-1.79.31-2A2.55,2.55,0,0,0,69.17,11l-.06-.32A2.39,2.39,0,0,0,67.42,9c-2.73-.9-4.13,1.39-4.8,3.76a3.81,3.81,0,0,0-2.87,1.72c-.34-.24-.67-.5-1-.76-2-1.68-5.43-.17-4.63,2.7A26.26,26.26,0,0,1,55,21.9a3.71,3.71,0,0,0-1.92.24l-.12.06.06-.09a3,3,0,0,0,1.19-3.79,59.84,59.84,0,0,1-2.68-8,6.61,6.61,0,0,0,.89-.15,2.27,2.27,0,0,0,2.15-1.91s0,0,0-.08a2,2,0,0,0,.05-.34,1.77,1.77,0,0,0,0-.23,1.62,1.62,0,0,0,0-.22,2.11,2.11,0,0,0-.05-.35s0,0,0-.08a2.27,2.27,0,0,0-2.15-1.91,26.05,26.05,0,0,0-4.67-.21A2.57,2.57,0,0,0,45.52,6a2.75,2.75,0,0,0-2.16,4c1.43,3,2.54,6,3.79,9.08a4.14,4.14,0,0,0-.08.64c0,.55,0,1.09,0,1.64a12.2,12.2,0,0,1-3-3,2.8,2.8,0,0,0-4.89.34,3.3,3.3,0,0,1-.22-.3,2.9,2.9,0,0,0-4.64-.09c-.36-.39-.72-.79-1.06-1.2-1.68-2-5,.61-3.62,2.79,2,3,4.68,5.2,7.22,7.72a2.46,2.46,0,0,0,4-.74l.44.25a2.91,2.91,0,0,0,3.55-.77c.79.59,1.57,1.2,2.31,1.83a2.87,2.87,0,0,0-3.1,2.12c-.36-.24-.71-.49-1.09-.71-1.56-.91-4.11.22-3.9,2.24a.88.88,0,0,0,0,.17c-1.25-.95-2.52-1.88-3.72-2.95a2.53,2.53,0,0,0-4.28,1.77c-.08,1.45-.27,2.87-.45,4.3-1.18-.94-2.36-1.88-3.5-2.88a2.27,2.27,0,0,0-3.62,2.59,1.47,1.47,0,0,0,1.4,2.48c-1.24.3.44,2,1.4,2.23a1.91,1.91,0,0,0,1.78-.38c.94.8,1.88,1.6,2.77,2.46A2.46,2.46,0,0,0,35,39.9c.1-1.47.32-2.92.53-4.37a19.92,19.92,0,0,1,3.92,3.64,2.77,2.77,0,0,0,3.74.74,13.46,13.46,0,0,1,.44,1.59L42,40.66c-1.6-.79-4.17.14-3.94,2.26a20.32,20.32,0,0,0,.36,2.23,12.14,12.14,0,0,0-1.78-.24,2,2,0,0,0-2,2.05c.26,3.26.25,6.81,2.19,9.58.5.72,2,.58,1.86-.51a38.37,38.37,0,0,1-.14-6.16c.63.36,1.24.78,1.94,1.22A2.46,2.46,0,0,0,44.12,49q0-.73-.15-1.47l1.42.72a2.85,2.85,0,0,0,2.19.15,52.22,52.22,0,0,0,3,10A1.27,1.27,0,0,0,53,57.71c-.17-1.12-.32-2.22-.46-3.33,1.57,2.79,5.22.68,4.82-2.08-.43-2.94-.61-5.91-.9-8.87,1.67,1,3.34,1.94,5,3a2.89,2.89,0,0,0,1,.39c2.07,2.58,4.26,5,6.36,7.34,2.29,2.51,5.44-.24,5.07-3a30.74,30.74,0,0,0-2.08-7.49c2.56.88,5.55-1.49,3.88-4.38-.3-.52-.57-1.06-.83-1.6,2.31.68,5.41-.91,4.26-3.72,0,0,0-.09,0-.13a2.55,2.55,0,0,0,.58-.27,5,5,0,0,0,2-2.35,4,4,0,0,0,2.8-1.85A2.71,2.71,0,0,0,84.24,26.53Zm-32.41,2c.08.4.15.81.22,1.21l-1.2-.51A2.75,2.75,0,0,0,51.83,28.55Zm-1,14.8L51,45a2.55,2.55,0,0,0-1.67-.29c0-.39,0-.78,0-1.15A2.7,2.7,0,0,0,50.78,43.35Z"></path> <path class="cls-2" d="M33.5,78.53C32,76,30.68,73.46,29.35,70.88A2.85,2.85,0,0,0,29,69.72C28.5,68.83,28,68,27.4,67.07c-1-1.91-1.93-3.82-2.91-5.72-1.52-2.92-4.94-1.84-6,.5a79.93,79.93,0,0,0-8.42-6.68c-2.61-1.79-5,.77-4.83,3.27-.41-.35-.82-.71-1.24-1A2.36,2.36,0,0,0,.68,60.72,62,62,0,0,0,7,67c4.46,4.45,8.85,9,13.35,13.39a3,3,0,0,0,5-1.36c.78,1,1.54,2,2.28,3C30.21,85.33,35.75,82.4,33.5,78.53Z"></path> <path class="cls-2" d="M79.52,76.23c-.64-2.13-2.07-2.76-3.24-4.42a2.86,2.86,0,0,0-3.35-1.09c-.38-.25-.76-.5-1.16-.73a3.65,3.65,0,0,0-5.41,2.41A15.42,15.42,0,0,1,62.68,71a3.66,3.66,0,0,0-5.23,4.45,33.91,33.91,0,0,1-3.88-1.38c-4.15-1.81-7.69,3.74-3.63,6.22h0c-2.43-.87-4.86-1.73-7.33-2.46-3.33-1-5,2.4-3.91,4.9-2.14.55-2.16,3.8-.39,4.83a59.53,59.53,0,0,0,14.61,5.82,3.17,3.17,0,0,0,4-3.38c1,.26,2,.5,3,.7,2.69.53,5.53-2.42,4.39-4.81,2.77.58,5-2.85,3.73-5.5h0c1.65.44,3.41.78,4.78,0,.23-.14.43-.28.62-.42.23.14.45.3.69.43C76.84,82,80.48,79.38,79.52,76.23Z"></path> <path class="cls-3" d="M58.32,27.18a1.4,1.4,0,0,0-.15-.6,1,1,0,0,0-.85-.52,15,15,0,0,0-3.68-.85,4.34,4.34,0,0,0-2.3.39,1.74,1.74,0,0,0-1,1.28,3,3,0,0,0-.65.42c-2.06,1.83.21,4.52,2.08,5.3a1,1,0,0,0,.32.07,2.51,2.51,0,0,0,.49.25,1.93,1.93,0,0,0,1.06.08,9.52,9.52,0,0,0,.87.74h0s.05,0,0,0,0,0,.08.06a1.2,1.2,0,0,0,1.69,0,4.48,4.48,0,0,0,.88-2c.26-.89.46-1.8.67-2.71l.24-1.1c.09-.42.25-.59.09-.39A.92.92,0,0,0,58.32,27.18Zm-4.9,2.26c-.17-.23-.32-.47-.46-.7a7.46,7.46,0,0,1,2,.74,7.09,7.09,0,0,1-.78.85C53.89,30,53.64,29.74,53.42,29.44Z"></path> <path class="cls-3" d="M88.6,29.72c-1.38-5-6.36-6.86-11-7.35A67.21,67.21,0,0,0,68,21.83c3.42-5,6.53-11.72.45-14.63C63.51,4.84,59,8.38,56.17,12.65c.16-5.76-.42-13-5.54-12.64C42.71.51,42,9.65,43.16,16.29c-4.57-2.62-9.25-4-14.73-3.18a1.15,1.15,0,0,0-.8,1.42c1.83,5.48,6.05,8.62,10.72,11.53-6.7.58-20,3.23-19.68,10.56.37,8.66,10.16,7.69,17.17,5.13-3.68,4.93-6.28,10.47-3,16.49a1.25,1.25,0,0,0,1.43.58,20.18,20.18,0,0,0,6.18-3.88c-1,3.92-1.54,8.22-2.09,10.35-1.69,6.45-3.58,12.85-5.46,19.25l-.58-.37C30,75.32,26.26,66.74,19.12,60.75c-2.56-2.14-10.53-9-13.83-4.45-3.93,5.44,1.26,12.5,5.08,16.2,5.89,5.71,13.74,10.29,21.13,14,.15.45.29.9.44,1.35-2.06,7-4.07,14.11-5.73,21.26-.38,1.63,2.21,2.29,2.47.68,1.74-7.31,3.82-14.51,5.89-21.73a.69.69,0,0,0,.48-.15l.34-.24c4.16,4.74,15.61,2.61,20.75,2,8.22-1,16.87-2.63,22.61-9,6-6.68-5.11-7.87-9.22-7.92-12.36-.14-25,5.55-34.39,13.36,1.55-5.44,3.07-10.89,4.41-16.39,1.51-6.25,4-13,5.13-19.41.49-.66,1-1.32,1.43-2-.72,6.42-.71,14.8,5.2,15.13,8.22.45,6.2-11.08,5.63-18.51,1.38,6.11,9.47,10.3,15.3,10.43,2.87.06,6.16-1.35,6.48-4.56.47-4.81-3.54-9.51-7.21-13.14C78.93,38.44,90.84,37.89,88.6,29.72Zm-68.92,47c-5-3.25-12.21-8.08-13.06-14.54-1.37-10.33,10.72-.33,13.67,2.36,5.32,4.88,7.9,11.69,10.09,18.46C26.83,80.84,23.14,78.94,19.68,76.68Zm52-1.7c5.16.14,5.63,4.57,1.71,7.28A17.41,17.41,0,0,1,69.68,84c-9.92,3.72-22.12,5.32-32.35,2.23a64.43,64.43,0,0,1,21.44-10A46.1,46.1,0,0,1,71.7,75ZM67.93,34.36a1.28,1.28,0,0,0-1.24,2.13C69.76,39.4,83.24,53.55,71.1,53,64,52.6,58.26,47.23,58.5,40.13c0-.75-1-.81-1.22-.17a8.53,8.53,0,0,0-.47,2,6.75,6.75,0,0,1,.33-2.35c.24-.58-.58-.91-1-.56-2.56,2.32-.49,11.77-.73,14.94-.12,1.65-2.5,10.42-5.73,6-1.17-1.59-1.1-4.27-1.18-6.1a53.69,53.69,0,0,1,.83-10.89,1.25,1.25,0,0,0-2.27-1A65.44,65.44,0,0,1,39.36,52.7c-5,5.24-5.74-2-4-5.58,1.42-3,3.83-5.57,6-8,.89-1-.27-2.8-1.53-2A27.35,27.35,0,0,1,32,40.45a19.42,19.42,0,0,1-4.49.61c-4.52.24-7.71-4.76-3.69-7.87,4.29-3.31,11.3-4.6,16.61-4.77A1.26,1.26,0,0,0,40.8,26c-2.5-2-5.09-3.85-7.44-6-4.42-4.11.14-5,3.65-4.06a25.5,25.5,0,0,1,7.33,3.86,1.18,1.18,0,0,0,1.72-1.32,27.21,27.21,0,0,1-.94-5.66,25,25,0,0,1,0-3c.14-.87.27-1.74.41-2.61.52-3.56,3-4.32,7.38-2.26,1.63,4.14.58,9.5.48,13.84a1.22,1.22,0,0,0,2.39.32c1.31-4.7,4.32-9.39,9.62-9.91,3.27-.32,4.11,2.62,3.58,5.26a42.81,42.81,0,0,1-3.76,7.64,12.59,12.59,0,0,0-4.7,1.55,1.13,1.13,0,0,0,.86,2.05l.68-.15a1.27,1.27,0,0,0,.87.86l.41.09a1.29,1.29,0,0,0,1.24-.33c.32-.37.68-.79,1.06-1.27,6.3-.95,15.06-1.3,18.48,2.58C92.09,36.47,72.73,35.66,67.93,34.36Z"></path> </g> </g> </svg> 