<?xml version="1.0" encoding="UTF-8"?> <svg xmlns="http://www.w3.org/2000/svg" viewBox="0 0 85.71 70.23"> <defs> <style>.cls-1{fill:#e20613;}.cls-2{fill:#3c3c3b;}</style> </defs> <g id="Слой_2" data-name="Слой 2"> <g id="Objects"> <path class="cls-1" d="M82.89,30A5.39,5.39,0,0,0,83.52,28c.43-3.24-3.53-5.73-5.76-7.2a3.35,3.35,0,0,0-4.85.91c-.49-.42-1-.84-1.44-1.28-2-1.82-5-.92-6.23.91a3.3,3.3,0,0,0-1.8.21l-.88-.63c-2.15-1.48-4.15-.36-5,1.45q-1.68-1.91-3.34-3.84c-3.18-3.7-8.16,1.58-5.27,5.27,3.33,4.24,6.86,8.43,10.1,12.8C49,27.29,40.29,16.54,31,6.47c-3.29-3.56-8.16,1.61-5.22,5.22,1.41,1.75,2.84,3.48,4.27,5.2A127.9,127.9,0,0,0,16.08,6c-2.21-1.47-5,.35-5.39,2.6C9.13,7.73,7.53,6.92,5.87,6.2,3.06,5-.66,7.65,1.3,10.77,2.47,12.62,3.71,14.39,5,16.14,2.37,15.67-.57,18,1.32,20.84c6.49,9.74,14.25,18.62,21,28.19a36.53,36.53,0,0,0-5.5-3.17,3,3,0,0,0-4,4A39.41,39.41,0,0,0,28.47,67.13a1.91,1.91,0,0,0,2.67-2.3l1.07.94a3.17,3.17,0,0,0,4.95-3.83,96.75,96.75,0,0,0-6.83-12.49A124.3,124.3,0,0,0,46.88,64.39c2.55,1.85,5.79-1.36,4.82-4L53.15,62c2.71,2.82,7.66-.89,5.47-4.22-1.95-3-4-5.81-6.2-8.59,3.77,3.78,7.64,7.46,11.71,10.9,3,2.54,8.12-.74,5.72-4.41-.42-.65-.85-1.28-1.28-1.92.44.3.87.61,1.31.9,2.58,1.71,6.6-1.14,5.43-4.18-.71-1.85-1.53-3.65-2.4-5.4a4.42,4.42,0,0,0,2.38-3.2c2.6,1.16,5.52-1.33,5.28-4a3.13,3.13,0,0,0,1.34-2.41A4,4,0,0,0,82.89,30Z"></path> <path class="cls-2" d="M73.71,18c-9.48-4.13-19.88-.61-27.38,5.7C37.86,13.33,9.93-13.6,1.73,8.43c-4.51,12.12.61,24.89,6.13,35.82C12.3,53,19.2,64.27,28.72,68.82a1.41,1.41,0,0,0,1.6,1.3l1.23-.19c.28.09.55.19.83.27a.65.65,0,0,0,.85-.55C52.81,66.42,81,59.55,85.4,37.45,87.12,28.77,81.31,21.28,73.71,18Zm5,28.44c-9.5,14.43-32.86,18.68-48.81,21.17C21.79,63.27,16,53.76,11.74,46.22c-5-8.86-9.68-19.69-9.26-30.09C2.69,10.75,5.36,4.37,11,3c4.5-1.14,9.73,1.9,13.4,4.09,7.89,4.71,15.12,11.8,20.7,19.09a1.31,1.31,0,0,0,2,.26c7.79-7.06,18.31-10,28-4.92C85.1,26.76,84.16,38.16,78.73,46.4Z"></path> </g> </g> </svg> 