<?xml version="1.0" encoding="UTF-8"?> <svg xmlns="http://www.w3.org/2000/svg" width="480" height="550" viewBox="0 0 480 550" fill="none"> <g clip-path="url(#clip0)"> <rect width="480" height="550" fill="#F3F3F3"></rect> <path d="M103.888 95.584H118.716C121.62 95.584 124.011 96.3907 125.888 98.004C127.765 99.588 128.704 101.803 128.704 104.648C128.704 109.224 126.783 112.48 122.94 114.416L125.228 127H117.22L115.24 115.956H108.508L106.572 127H98.388L103.888 95.584ZM117.264 102.668H110.84L109.696 108.96H116.34C117.572 108.96 118.555 108.667 119.288 108.08C120.021 107.464 120.388 106.54 120.388 105.308C120.388 104.457 120.095 103.812 119.508 103.372C118.921 102.903 118.173 102.668 117.264 102.668ZM153.269 114.504H141.213L140.245 119.784H156.437L155.205 127H130.829L136.329 95.584H160.309L159.033 102.8H143.237L142.445 107.464H154.501L153.269 114.504ZM186.528 95.584H193.876L188.376 127H178.828L172.184 108.74H170.952L167.74 127H160.392L165.892 95.584H175.44L182.084 113.844H183.316L186.528 95.584ZM224.81 95.584L223.534 102.8H214.162L209.938 127H201.798L206.022 102.8H196.694L197.97 95.584H224.81ZM246.088 95.584L249.916 127H241.82L240.984 118.86H230.468L226.816 127H218.896L233.768 95.584H246.088ZM237.464 103.328L233.372 112.436H240.324L239.4 103.328H237.464ZM265.548 108.168H277.736L276.504 115.208H264.316L262.248 127H254.064L259.564 95.584H283.456L282.18 102.8H266.472L265.548 108.168ZM301.639 95.012C305.833 95.012 309.251 96.2293 311.891 98.664C314.531 101.099 315.851 104.501 315.851 108.872C315.851 114.357 314.281 118.845 311.143 122.336C308.004 125.827 303.795 127.572 298.515 127.572C294.349 127.572 290.932 126.34 288.263 123.876C285.623 121.412 284.303 118.009 284.303 113.668C284.303 108.212 285.872 103.739 289.011 100.248C292.149 96.7573 296.359 95.012 301.639 95.012ZM299.043 120.356C301.624 120.356 303.677 119.271 305.203 117.1C306.728 114.9 307.491 112.275 307.491 109.224C307.491 106.965 306.933 105.235 305.819 104.032C304.704 102.829 303.135 102.228 301.111 102.228C298.529 102.228 296.476 103.313 294.951 105.484C293.425 107.625 292.663 110.236 292.663 113.316C292.663 115.575 293.22 117.32 294.335 118.552C295.449 119.755 297.019 120.356 299.043 120.356ZM344.524 95.584H351.872L346.372 127H336.824L330.18 108.74H328.948L325.736 127H318.388L323.888 95.584H333.436L340.08 113.844H341.312L344.524 95.584ZM382.806 95.584L381.53 102.8H372.158L367.934 127H359.794L364.018 102.8H354.69L355.966 95.584H382.806ZM122.368 180H103.844V187.7H95.924V172.784H99.18C101.468 169.176 102.612 164.307 102.612 158.176V148.584H125.844V172.784H130.288V187.7H122.368V180ZM117.924 172.784V155.8H109.96V158.176C109.96 164.864 109.036 169.733 107.188 172.784H117.924ZM155.025 167.504H142.881V172.784H159.205V180H134.697V148.584H158.809V155.8H142.881V160.464H155.025V167.504ZM199.514 163.192V164.424C200.57 164.952 201.479 165.788 202.242 166.932C203.034 168.047 203.43 169.323 203.43 170.76C203.43 173.547 202.521 175.791 200.702 177.492C198.883 179.164 196.155 180 192.518 180H176.634V148.584H192.034C195.466 148.584 198.077 149.391 199.866 151.004C201.685 152.617 202.594 154.671 202.594 157.164C202.594 158.513 202.301 159.731 201.714 160.816C201.157 161.872 200.423 162.664 199.514 163.192ZM184.818 155.184V160.596H190.934C193.105 160.596 194.19 159.701 194.19 157.912C194.19 156.093 193.075 155.184 190.846 155.184H184.818ZM184.818 173.268H191.198C192.283 173.268 193.193 173.033 193.926 172.564C194.659 172.095 195.026 171.347 195.026 170.32C195.026 168.237 193.794 167.196 191.33 167.196H184.818V173.268ZM110.4 214.124H111.632L117.572 201.584H125.712L110.664 233H102.612L107.1 223.584L95.44 201.584H103.888L110.4 214.124ZM129.841 233V201.584H138.025V213.156H144.361L149.773 201.584H158.001L150.961 216.852L158.397 233H150.169L144.405 220.504H138.025V233H129.841ZM162.583 201.584H177.631C181.357 201.584 184.246 202.493 186.299 204.312C188.353 206.101 189.379 208.639 189.379 211.924C189.379 215.239 188.353 217.82 186.299 219.668C184.246 221.516 181.357 222.44 177.631 222.44H170.767V233H162.583V201.584ZM170.767 215.444H176.575C178.159 215.444 179.289 215.165 179.963 214.608C180.667 214.051 181.019 213.2 181.019 212.056C181.019 210.912 180.667 210.076 179.963 209.548C179.289 208.991 178.159 208.712 176.575 208.712H170.767V215.444ZM211.329 201.584L220.745 233H212.605L210.317 224.86H199.757L197.513 233H189.549L198.965 201.584H211.329ZM204.069 209.328L201.517 218.436H208.513L206.005 209.328H204.069ZM233.292 201.584V233H225.108V201.584H233.292ZM221.632 193.576H227.748V199.252H221.632V193.576ZM230.696 193.576H236.812V199.252H230.696V193.576ZM260.115 201.584H268.299V233H260.115V220.548H248.455V233H240.271V201.584H248.455V213.2H260.115V201.584ZM283.48 201.584V233H275.296V201.584H283.48ZM96.144 286V278.08H97.376C98.5787 278.08 99.444 277.919 99.972 277.596C100.529 277.244 100.955 276.379 101.248 275C101.571 273.621 101.732 271.465 101.732 268.532V254.584H126.064V286H117.88V261.8H109.3V268.752C109.3 272.448 109.065 275.455 108.596 277.772C108.156 280.06 107.393 281.805 106.308 283.008C105.252 284.211 104.049 285.017 102.7 285.428C101.351 285.809 99.5907 286 97.42 286H96.144ZM153.177 273.504H141.033V278.784H157.357V286H132.849V254.584H156.961V261.8H141.033V266.464H153.177V273.504ZM170.724 261.8V286H162.54V254.584H185.992V261.8H170.724ZM206.645 254.584L216.061 286H207.921L205.633 277.86H195.073L192.829 286H184.865L194.281 254.584H206.645ZM199.385 262.328L196.833 271.436H203.829L201.321 262.328H199.385ZM217.96 286V278.08H219.192C220.395 278.08 221.26 277.919 221.788 277.596C222.346 277.244 222.771 276.379 223.064 275C223.387 273.621 223.548 271.465 223.548 268.532V254.584H247.88V286H239.696V261.8H231.116V268.752C231.116 272.448 230.882 275.455 230.412 277.772C229.972 280.06 229.21 281.805 228.124 283.008C227.068 284.211 225.866 285.017 224.516 285.428C223.167 285.809 221.407 286 219.236 286H217.96ZM262.849 264.484H269.493C273.336 264.484 276.313 265.423 278.425 267.3C280.537 269.148 281.593 271.759 281.593 275.132C281.593 278.564 280.537 281.233 278.425 283.14C276.313 285.047 273.336 286 269.493 286H254.665V254.584H262.849V264.484ZM262.849 279.004H268.261C270.051 279.004 271.327 278.696 272.089 278.08C272.852 277.435 273.233 276.481 273.233 275.22C273.233 273.959 272.852 273.02 272.089 272.404C271.327 271.788 270.051 271.48 268.261 271.48H262.849V279.004ZM306.865 254.584H315.049V286H306.865V273.548H295.205V286H287.021V254.584H295.205V266.2H306.865V254.584ZM324.598 258.544C327.355 255.523 331.212 254.012 336.17 254.012C341.127 254.012 344.984 255.523 347.742 258.544C350.499 261.565 351.878 265.481 351.878 270.292C351.878 275.103 350.499 279.019 347.742 282.04C344.984 285.061 341.127 286.572 336.17 286.572C331.212 286.572 327.355 285.061 324.598 282.04C321.84 279.019 320.462 275.103 320.462 270.292C320.462 265.481 321.84 261.565 324.598 258.544ZM330.714 276.892C331.975 278.535 333.794 279.356 336.17 279.356C338.546 279.356 340.364 278.535 341.626 276.892C342.887 275.22 343.518 273.02 343.518 270.292C343.518 267.564 342.887 265.379 341.626 263.736C340.364 262.064 338.546 261.228 336.17 261.228C333.794 261.228 331.975 262.049 330.714 263.692C329.452 265.335 328.822 267.535 328.822 270.292C328.822 273.02 329.452 275.22 330.714 276.892ZM98.388 339V307.584H106.572V319.156H112.908L118.32 307.584H126.548L119.508 322.852L126.944 339H118.716L112.952 326.504H106.572V339H98.388ZM143.142 320.124H144.374L150.314 307.584H158.454L143.406 339H135.354L139.842 329.584L128.182 307.584H136.63L143.142 320.124ZM162.583 307.584H190.259V339H182.075V314.8H170.767V339H162.583V307.584ZM209.056 320.124H210.288L216.228 307.584H224.368L209.32 339H201.268L205.756 329.584L194.096 307.584H202.544L209.056 320.124ZM251.377 322.192V323.424C252.433 323.952 253.343 324.788 254.105 325.932C254.897 327.047 255.293 328.323 255.293 329.76C255.293 332.547 254.384 334.791 252.565 336.492C250.747 338.164 248.019 339 244.381 339H228.497V307.584H243.897C247.329 307.584 249.94 308.391 251.729 310.004C253.548 311.617 254.457 313.671 254.457 316.164C254.457 317.513 254.164 318.731 253.577 319.816C253.02 320.872 252.287 321.664 251.377 322.192ZM236.681 314.184V319.596H242.797C244.968 319.596 246.053 318.701 246.053 316.912C246.053 315.093 244.939 314.184 242.709 314.184H236.681ZM236.681 332.268H243.061C244.147 332.268 245.056 332.033 245.789 331.564C246.523 331.095 246.889 330.347 246.889 329.32C246.889 327.237 245.657 326.196 243.193 326.196H236.681V332.268ZM280.122 307.584L289.538 339H281.398L279.11 330.86H268.55L266.306 339H258.342L267.758 307.584H280.122ZM272.862 315.328L270.31 324.436H277.306L274.798 315.328H272.862ZM315.734 307.584V314.8H306.318V339H298.134V314.8H288.762V307.584H315.734ZM319.763 307.584H327.243V327.428H328.475L337.759 307.584H348.275V339H340.795V319.156H339.563L330.279 339H319.763V307.584ZM139.132 392H98.388V360.584H106.308V384.784H114.8V360.584H122.72V384.784H131.212V360.584H139.132V392ZM145.911 360.584H160.959C164.685 360.584 167.574 361.493 169.627 363.312C171.681 365.101 172.707 367.639 172.707 370.924C172.707 374.239 171.681 376.82 169.627 378.668C167.574 380.516 164.685 381.44 160.959 381.44H154.095V392H145.911V360.584ZM154.095 374.444H159.903C161.487 374.444 162.617 374.165 163.291 373.608C163.995 373.051 164.347 372.2 164.347 371.056C164.347 369.912 163.995 369.076 163.291 368.548C162.617 367.991 161.487 367.712 159.903 367.712H154.095V374.444ZM178.138 360.584H185.618V380.428H186.85L196.134 360.584H206.65V392H199.17V372.156H197.938L188.654 392H178.138V360.584ZM234.227 363.312H234.535C238.877 363.312 242.338 364.397 244.919 366.568C247.53 368.739 248.835 371.833 248.835 375.852C248.835 379.959 247.545 383.083 244.963 385.224C242.382 387.336 238.906 388.392 234.535 388.392H234.227V392.572H226.483V388.392H226.175C221.775 388.392 218.285 387.336 215.703 385.224C213.151 383.083 211.875 379.959 211.875 375.852C211.875 371.833 213.166 368.739 215.747 366.568C218.358 364.397 221.834 363.312 226.175 363.312H226.483V359.572H234.227V363.312ZM234.227 381.572H234.535C236.442 381.572 237.938 381.103 239.023 380.164C240.138 379.196 240.695 377.759 240.695 375.852C240.695 373.887 240.153 372.435 239.067 371.496C237.982 370.557 236.471 370.088 234.535 370.088H234.227V381.572ZM226.175 381.572H226.483V370.088H226.175C224.239 370.088 222.729 370.557 221.643 371.496C220.558 372.435 220.015 373.887 220.015 375.852C220.015 377.759 220.558 379.196 221.643 380.164C222.758 381.103 224.269 381.572 226.175 381.572ZM277.878 360.584V367.8H268.462V392H260.278V367.8H250.906V360.584H277.878ZM281.908 360.584H289.388V380.428H290.62L299.904 360.584H310.42V392H302.94V372.156H301.708L292.424 392H281.908V360.584ZM337.835 360.584V392H329.651V360.584H337.835ZM118.232 413.584H126.416V445H118.232V432.548H106.572V445H98.388V413.584H106.572V425.2H118.232V413.584ZM152.333 413.584L161.749 445H153.609L151.321 436.86H140.761L138.517 445H130.553L139.969 413.584H152.333ZM145.073 421.328L142.521 430.436H149.517L147.009 421.328H145.073ZM188.772 428.192V429.424C189.828 429.952 190.737 430.788 191.5 431.932C192.292 433.047 192.688 434.323 192.688 435.76C192.688 438.547 191.779 440.791 189.96 442.492C188.141 444.164 185.413 445 181.776 445H165.892V413.584H181.292C184.724 413.584 187.335 414.391 189.124 416.004C190.943 417.617 191.852 419.671 191.852 422.164C191.852 423.513 191.559 424.731 190.972 425.816C190.415 426.872 189.681 427.664 188.772 428.192ZM174.076 420.184V425.596H180.192C182.363 425.596 183.448 424.701 183.448 422.912C183.448 421.093 182.333 420.184 180.104 420.184H174.076ZM174.076 438.268H180.456C181.541 438.268 182.451 438.033 183.184 437.564C183.917 437.095 184.284 436.347 184.284 435.32C184.284 433.237 183.052 432.196 180.588 432.196H174.076V438.268ZM206.78 413.584V445H198.596V413.584H206.78ZM251.027 452.7V445H213.759V413.584H221.679V437.784H230.171V413.584H238.091V437.784H246.583V413.584H254.503V437.784H258.947V452.7H251.027ZM266.117 417.544C268.874 414.523 272.732 413.012 277.689 413.012C282.646 413.012 286.504 414.523 289.261 417.544C292.018 420.565 293.397 424.481 293.397 429.292C293.397 434.103 292.018 438.019 289.261 441.04C286.504 444.061 282.646 445.572 277.689 445.572C272.732 445.572 268.874 444.061 266.117 441.04C263.36 438.019 261.981 434.103 261.981 429.292C261.981 424.481 263.36 420.565 266.117 417.544ZM272.233 435.892C273.494 437.535 275.313 438.356 277.689 438.356C280.065 438.356 281.884 437.535 283.145 435.892C284.406 434.22 285.037 432.02 285.037 429.292C285.037 426.564 284.406 424.379 283.145 422.736C281.884 421.064 280.065 420.228 277.689 420.228C275.313 420.228 273.494 421.049 272.233 422.692C270.972 424.335 270.341 426.535 270.341 429.292C270.341 432.02 270.972 434.22 272.233 435.892ZM335.108 452.7V445H311.04V413.584H319.224V437.784H330.4V413.584H338.584V437.784H343.028V452.7H335.108ZM367.763 432.504H355.619V437.784H371.943V445H347.435V413.584H371.547V420.8H355.619V425.464H367.763V432.504ZM98.388 466.584H113.436C117.161 466.584 120.051 467.493 122.104 469.312C124.157 471.101 125.184 473.639 125.184 476.924C125.184 480.239 124.157 482.82 122.104 484.668C120.051 486.516 117.161 487.44 113.436 487.44H106.572V498H98.388V466.584ZM106.572 480.444H112.38C113.964 480.444 115.093 480.165 115.768 479.608C116.472 479.051 116.824 478.2 116.824 477.056C116.824 475.912 116.472 475.076 115.768 474.548C115.093 473.991 113.964 473.712 112.38 473.712H106.572V480.444ZM133.387 470.544C136.144 467.523 140.001 466.012 144.959 466.012C149.916 466.012 153.773 467.523 156.531 470.544C159.288 473.565 160.667 477.481 160.667 482.292C160.667 487.103 159.288 491.019 156.531 494.04C153.773 497.061 149.916 498.572 144.959 498.572C140.001 498.572 136.144 497.061 133.387 494.04C130.629 491.019 129.251 487.103 129.251 482.292C129.251 477.481 130.629 473.565 133.387 470.544ZM139.503 488.892C140.764 490.535 142.583 491.356 144.959 491.356C147.335 491.356 149.153 490.535 150.415 488.892C151.676 487.22 152.307 485.02 152.307 482.292C152.307 479.564 151.676 477.379 150.415 475.736C149.153 474.064 147.335 473.228 144.959 473.228C142.583 473.228 140.764 474.049 139.503 475.692C138.241 477.335 137.611 479.535 137.611 482.292C137.611 485.02 138.241 487.22 139.503 488.892ZM174.248 473.8V478.024H181.728C185.306 478.024 188.078 478.904 190.044 480.664C192.009 482.395 192.992 484.815 192.992 487.924C192.992 491.092 192.009 493.571 190.044 495.36C188.078 497.12 185.306 498 181.728 498H166.064V466.584H190.044V473.8H174.248ZM174.248 491.004H180.276C181.83 491.004 182.945 490.74 183.62 490.212C184.294 489.655 184.632 488.819 184.632 487.704C184.632 485.533 183.18 484.448 180.276 484.448H174.248V491.004ZM198.419 466.584H205.899V486.428H207.131L216.415 466.584H226.931V498H219.451V478.156H218.219L208.935 498H198.419V466.584ZM257.941 466.584V473.8H248.525V498H240.341V473.8H230.969V466.584H257.941ZM261.97 466.584H269.45V486.428H270.682L279.966 466.584H290.482V498H283.002V478.156H281.77L272.486 498H261.97V466.584Z" fill="black"></path> <path d="M272.62 151.24C271.62 151.24 270.82 151.067 270.22 150.72C269.62 150.36 269.133 149.86 268.76 149.22L269.62 148.56C269.913 149.093 270.307 149.507 270.8 149.8C271.293 150.08 271.9 150.22 272.62 150.22C273.5 150.22 274.18 150.047 274.66 149.7C275.14 149.353 275.38 148.9 275.38 148.34V148.02C275.38 147.433 275.173 146.987 274.76 146.68C274.347 146.36 273.773 146.2 273.04 146.2H270.92V145.24H272.92C273.6 145.24 274.14 145.08 274.54 144.76C274.953 144.44 275.16 144.02 275.16 143.5V143.22C275.16 142.713 274.953 142.307 274.54 142C274.127 141.693 273.507 141.54 272.68 141.54C271.933 141.54 271.327 141.687 270.86 141.98C270.407 142.26 270.033 142.653 269.74 143.16L268.96 142.54C269.28 141.94 269.733 141.453 270.32 141.08C270.92 140.707 271.72 140.52 272.72 140.52C273.933 140.52 274.84 140.76 275.44 141.24C276.053 141.72 276.36 142.38 276.36 143.22C276.36 143.9 276.18 144.433 275.82 144.82C275.473 145.207 274.98 145.467 274.34 145.6V145.68C275.06 145.787 275.613 146.047 276 146.46C276.4 146.873 276.6 147.433 276.6 148.14C276.6 149.1 276.247 149.86 275.54 150.42C274.833 150.967 273.86 151.24 272.62 151.24ZM286.724 151C286.284 151 285.964 150.887 285.764 150.66C285.564 150.433 285.451 150.127 285.424 149.74V149.38H285.324C285.098 149.953 284.724 150.407 284.204 150.74C283.684 151.073 283.024 151.24 282.224 151.24C281.144 151.24 280.311 150.98 279.724 150.46C279.138 149.927 278.844 149.18 278.844 148.22C278.844 147.313 279.164 146.593 279.804 146.06C280.458 145.527 281.524 145.26 283.004 145.26H285.364V144.06C285.364 142.367 284.491 141.52 282.744 141.52C282.064 141.52 281.498 141.667 281.044 141.96C280.591 142.24 280.224 142.647 279.944 143.18L279.224 142.58C279.504 141.98 279.931 141.487 280.504 141.1C281.091 140.713 281.851 140.52 282.784 140.52C283.984 140.52 284.904 140.82 285.544 141.42C286.184 142.02 286.504 142.86 286.504 143.94V150H287.884V151H286.724ZM282.384 150.26C282.798 150.26 283.184 150.207 283.544 150.1C283.904 149.993 284.218 149.847 284.484 149.66C284.764 149.46 284.978 149.227 285.124 148.96C285.284 148.68 285.364 148.367 285.364 148.02V146.12H282.964C281.938 146.12 281.191 146.287 280.724 146.62C280.271 146.94 280.044 147.387 280.044 147.96V148.44C280.044 149.04 280.258 149.493 280.684 149.8C281.111 150.107 281.678 150.26 282.384 150.26ZM294.958 140.76H302.658V151H301.518V141.76H296.098V151H294.958V140.76ZM306.943 137.98C306.677 137.98 306.477 137.913 306.343 137.78C306.223 137.647 306.163 137.473 306.163 137.26V137.06C306.163 136.847 306.223 136.673 306.343 136.54C306.477 136.407 306.677 136.34 306.943 136.34C307.21 136.34 307.403 136.407 307.523 136.54C307.657 136.673 307.723 136.847 307.723 137.06V137.26C307.723 137.473 307.657 137.647 307.523 137.78C307.403 137.913 307.21 137.98 306.943 137.98ZM306.383 140.76H307.523V151H306.383V140.76ZM309.527 150H310.647C311.113 149.28 311.48 148.393 311.747 147.34C312.013 146.287 312.147 145.093 312.147 143.76V140.76H318.647V150H320.267V153.8H319.207V151H310.587V153.8H309.527V150ZM317.507 150V141.76H313.247V143.8C313.247 145.213 313.113 146.44 312.847 147.48C312.58 148.52 312.253 149.36 311.867 150H317.507ZM324.543 141.76H320.883V140.76H329.343V141.76H325.683V151H324.543V141.76ZM331.715 140.76H332.855V142.4H332.915C333.169 141.827 333.555 141.373 334.075 141.04C334.595 140.693 335.249 140.52 336.035 140.52C337.355 140.52 338.389 140.987 339.135 141.92C339.882 142.853 340.255 144.173 340.255 145.88C340.255 147.587 339.882 148.907 339.135 149.84C338.389 150.773 337.355 151.24 336.035 151.24C335.249 151.24 334.602 151.073 334.095 150.74C333.589 150.393 333.195 149.933 332.915 149.36H332.855V155H331.715V140.76ZM335.775 150.22C336.802 150.22 337.602 149.893 338.175 149.24C338.749 148.587 339.035 147.707 339.035 146.6V145.16C339.035 144.053 338.749 143.173 338.175 142.52C337.602 141.867 336.802 141.54 335.775 141.54C335.375 141.54 334.995 141.6 334.635 141.72C334.289 141.827 333.982 141.98 333.715 142.18C333.449 142.38 333.235 142.62 333.075 142.9C332.929 143.18 332.855 143.487 332.855 143.82V147.88C332.855 148.24 332.929 148.567 333.075 148.86C333.235 149.14 333.449 149.387 333.715 149.6C333.982 149.8 334.289 149.953 334.635 150.06C334.995 150.167 335.375 150.22 335.775 150.22ZM343.2 140.76H344.32V147.4L344.2 149.46H344.28L345.34 147.64L350.1 140.76H351.16V151H350.04V144.36L350.16 142.3H350.08L349 144.12L344.24 151H343.2V140.76ZM354.88 140.76H356.42L359.9 146.62H359.98L363.44 140.76H364.96V151H363.84V142.14H363.74L363.1 143.28L359.92 148.6L356.74 143.28L356.1 142.14H356V151H354.88V140.76ZM368.688 140.76H369.828V145.18H372.028L374.368 141.6C374.595 141.253 374.795 141.027 374.968 140.92C375.155 140.813 375.388 140.76 375.668 140.76H376.608V141.76H375.428L373.468 144.76C373.281 145.053 373.121 145.253 372.988 145.36C372.868 145.467 372.701 145.553 372.488 145.62V145.7C372.715 145.74 372.908 145.827 373.068 145.96C373.241 146.08 373.435 146.32 373.648 146.68L375.608 150H376.788V151H375.648C375.395 151 375.168 150.94 374.968 150.82C374.768 150.7 374.568 150.467 374.368 150.12L372.028 146.16H369.828V151H368.688V140.76ZM379.45 140.76H380.57V147.4L380.45 149.46H380.53L381.59 147.64L386.35 140.76H387.41V151H386.29V144.36L386.41 142.3H386.33L385.25 144.12L380.49 151H379.45V140.76Z" fill="black"></path> <circle cx="381" cy="124" r="6" fill="#FF7136"></circle> <rect x="305" y="466" width="246" height="33" fill="#FF7136"></rect> <path d="M367.911 181.566C366.502 177.567 362.707 177.521 360.525 178.067L360.752 171.772C369.501 170.794 369.797 159 369.797 159H366.82C366.82 167.681 362.207 169.431 360.889 169.431L361.161 159.023L358.093 159L357.252 189.293H360.343L360.525 180.294C367.002 178.158 366.274 189.248 366.274 189.248H369.206C369.183 189.27 369.683 186.566 367.911 181.566Z" fill="#1A1A1A"></path> <path d="M347.367 180.93C345.731 181.362 344.254 182.475 344.254 184.907C344.254 188.657 347.276 189.657 349.14 189.929C349.799 190.02 349.958 189.997 350.003 189.997C350.322 189.929 350.64 189.929 350.935 189.838C352.412 189.338 353.662 188.27 353.662 186.066C353.662 180.612 347.367 180.93 347.367 180.93ZM349.844 187.202C349.776 187.225 349.708 187.248 349.64 187.27C349.435 187.316 349.231 187.316 349.049 187.293C347.754 187.202 346.89 186.816 346.89 185.157C346.89 184.316 347.413 183.703 348.095 183.566C349.776 183.566 351.003 183.748 351.003 185.725C351.026 186.566 350.481 186.975 349.844 187.202Z" fill="#1A1A1A"></path> <path d="M352.162 159.068L352.344 166.204C352.344 168.386 352.298 169.84 352.162 171.476C351.912 174.294 351.571 177.567 349.049 177.567C346.526 177.567 346.162 173.499 345.913 171.499C345.822 170.704 345.64 169.499 345.64 166.181C345.64 162.863 345.89 159.136 345.89 159.136H342.958C342.958 159.136 342.731 163.636 342.731 166.113C342.731 168.59 342.89 170.295 342.981 171.476C343.39 176.817 344.617 179.771 349.049 179.771C353.139 179.771 354.639 176.885 355.094 171.431C355.253 169.59 355.253 168.227 355.253 166.204L355.071 159.159L352.162 159.068Z" fill="#1A1A1A"></path> <path d="M380.274 189.679H377.342L377.729 159.091H380.797L380.274 189.679Z" fill="#1A1A1A"></path> <path d="M373.274 174.544C373.274 172.908 372.547 161.227 379.069 163.295L379.024 160.977C376.774 160.454 373.365 160.636 371.593 164.59C370.115 167.886 370.138 172.408 370.138 174.567C370.138 176.726 370.184 180.657 371.593 183.771C373.365 187.725 376.774 187.907 379.024 187.384L379.069 185.066C372.82 187.02 373.274 176.18 373.274 174.544Z" fill="#1A1A1A"></path> <path d="M384.864 174.544C384.864 172.908 385.592 161.227 379.069 163.295L379.115 160.977C381.365 160.454 384.773 160.636 386.546 164.59C388.023 167.886 388 172.408 388 174.567C388 176.726 387.955 180.657 386.546 183.771C384.773 187.725 381.365 187.907 379.115 187.384L379.069 185.066C385.319 187.02 384.864 176.18 384.864 174.544Z" fill="#1A1A1A"></path> </g> <defs> <clipPath id="clip0"> <rect width="480" height="550" fill="white"></rect> </clipPath> </defs> </svg> 