<?xml version="1.0" encoding="UTF-8"?> <svg xmlns="http://www.w3.org/2000/svg" width="274" height="88" viewBox="0 0 274 88" fill="none"> <path fill-rule="evenodd" clip-rule="evenodd" d="M9.94384 26.0019H0V87.2702H19.8877V57.4003V26.0019H9.94384ZM9.97195 0H0V20.1164H19.9439V10.313V0H9.97195ZM194.597 86.8713V47.1696C194.597 36.2205 198.465 26.8663 206.202 19.1069C213.961 11.3475 223.327 7.46784 234.298 7.46784C245.247 7.46784 254.602 11.3475 262.361 19.1069C270.12 26.8663 274 36.2205 274 47.1696V61.1839H254.149V47.1696C254.149 41.695 252.204 37.0236 248.313 33.1552C244.444 29.2642 239.773 27.3187 234.298 27.3187C228.824 27.3187 224.152 29.2642 220.284 33.1552C216.393 37.0236 214.447 41.695 214.447 47.1696V86.8713H194.597ZM64.8734 67.5262C70.3479 67.5262 75.0194 65.5807 78.8878 61.6897C82.7788 57.8214 84.7243 53.1499 84.7243 47.6754C84.7243 44.046 83.8692 40.7696 82.1591 37.8462L97.5962 25.1118C102.248 31.6771 104.575 39.1977 104.575 47.6754C104.575 58.6471 100.695 68.0126 92.9361 75.772C85.1767 83.5087 75.8225 87.3771 64.8734 87.3771C53.9017 87.3771 44.5361 83.5087 36.7768 75.772C29.04 68.0126 25.1717 58.6471 25.1717 47.6754C25.1717 36.7263 29.04 27.3721 36.7768 19.6127C44.5361 11.8533 53.9017 7.97364 64.8734 7.97364V27.8245C59.3988 27.8245 54.7274 29.77 50.859 33.661C46.968 37.5294 45.0225 42.2008 45.0225 47.6754C45.0225 53.1499 46.968 57.8214 50.859 61.6897C54.7274 65.5807 59.3988 67.5262 64.8734 67.5262ZM254.149 86.8713V67.0204H274V86.8713H254.149ZM163.456 61.6897C159.588 65.5807 154.917 67.5262 149.442 67.5262C143.967 67.5262 139.296 65.5807 135.428 61.6897C131.537 57.8214 129.591 53.1499 129.591 47.6754C129.591 42.2008 131.537 37.5294 135.428 33.661C139.296 29.77 143.967 27.8245 149.442 27.8245V7.97364C138.47 7.97364 129.105 11.8533 121.345 19.6127C113.609 27.3721 109.74 36.7263 109.74 47.6754C109.74 58.6471 113.609 68.0126 121.345 75.772C129.105 83.5087 138.47 87.3771 149.442 87.3771C160.391 87.3771 169.745 83.5087 177.505 75.772C185.264 68.0126 189.144 58.6471 189.144 47.6754C189.144 39.1977 186.817 31.6771 182.165 25.1118L166.728 37.8462C168.438 40.7696 169.293 44.046 169.293 47.6754C169.293 53.1499 167.347 57.8214 163.456 61.6897ZM90.2157 20.7253C90.2157 26.6167 85.4398 31.3927 79.5483 31.3927C73.6569 31.3927 68.8809 26.6167 68.8809 20.7253C68.8809 14.8338 73.6569 10.0579 79.5483 10.0579C85.4398 10.0579 90.2157 14.8338 90.2157 20.7253ZM174.741 20.8091C174.741 26.7006 169.965 31.4765 164.073 31.4765C158.182 31.4765 153.406 26.7006 153.406 20.8091C153.406 14.9177 158.182 10.1417 164.073 10.1417C169.965 10.1417 174.741 14.9177 174.741 20.8091Z" fill="#00FFFF"></path> </svg> 