<svg width="258" height="68" viewBox="0 0 258 68" fill="none" xmlns="http://www.w3.org/2000/svg">
<path d="M1.6 15.592V14.592H0.6V15.592H1.6ZM14.992 15.592H15.992V14.592H14.992V15.592ZM15.136 33.016L14.1461 33.1574L14.1521 33.1995L14.1616 33.2409L15.136 33.016ZM16.144 35.248L15.2907 35.7694L15.2974 35.7804L15.3044 35.7913L16.144 35.248ZM18.952 37.048L18.6773 38.0096L18.6861 38.012L18.952 37.048ZM31.048 36.688L31.3255 37.6487L32.048 37.44V36.688H31.048ZM31.048 15.592V14.592H30.048V15.592H31.048ZM44.44 15.592H45.44V14.592H44.44V15.592ZM44.44 67V68H45.44V67H44.44ZM31.048 67H30.048V68H31.048V67ZM31.048 48.28H32.048V46.9992L30.8055 47.3099L31.048 48.28ZM8.8 47.632L8.42267 48.5582L8.43435 48.5627L8.8 47.632ZM5.416 45.472L4.70889 46.1791L4.71796 46.1882L4.72725 46.197L5.416 45.472ZM3.328 42.88L2.46607 43.387H2.46607L3.328 42.88ZM2.176 39.712L1.19981 39.9289L2.176 39.712ZM1.672 36.4L2.67062 36.3474L1.672 36.4ZM1.6 16.592H14.992V14.592H1.6V16.592ZM13.992 15.592V30.208H15.992V15.592H13.992ZM13.992 30.208C13.992 31.4253 14.0401 32.4161 14.1461 33.1574L16.1259 32.8746C16.0399 32.2719 15.992 31.3907 15.992 30.208H13.992ZM14.1616 33.2409C14.3396 34.0122 14.7353 34.8606 15.2907 35.7694L16.9973 34.7266C16.4967 33.9074 16.2204 33.2678 16.1104 32.7911L14.1616 33.2409ZM15.3044 35.7913C16.0113 36.8837 17.201 37.5877 18.6773 38.0095L19.2267 36.0865C18.015 35.7403 17.3327 35.2443 16.9836 34.7047L15.3044 35.7913ZM18.6861 38.012C20.1976 38.429 22.0962 38.624 24.352 38.624V36.624C22.1918 36.624 20.4904 36.435 19.2179 36.084L18.6861 38.012ZM24.352 38.624C26.7476 38.624 29.0731 38.2994 31.3255 37.6487L30.7705 35.7273C28.7029 36.3246 26.5644 36.624 24.352 36.624V38.624ZM32.048 36.688V15.592H30.048V36.688H32.048ZM31.048 16.592H44.44V14.592H31.048V16.592ZM43.44 15.592V67H45.44V15.592H43.44ZM44.44 66H31.048V68H44.44V66ZM32.048 67V48.28H30.048V67H32.048ZM30.8055 47.3099C27.8275 48.0544 24.4549 48.432 20.68 48.432V50.432C24.5851 50.432 28.1245 50.0416 31.2905 49.2501L30.8055 47.3099ZM20.68 48.432C18.1784 48.432 15.9548 48.2667 14.0044 47.9416L13.6756 49.9144C15.7572 50.2613 18.0937 50.432 20.68 50.432V48.432ZM14.0044 47.9416C12.0313 47.6128 10.4241 47.1956 9.16565 46.7012L8.43435 48.5627C9.86389 49.1244 11.6167 49.5712 13.6756 49.9144L14.0044 47.9416ZM9.1773 46.7059C7.9901 46.2222 6.96932 45.5683 6.10475 44.747L4.72725 46.197C5.78269 47.1997 7.0179 47.9858 8.4227 48.5581L9.1773 46.7059ZM6.12311 44.7649C5.25097 43.8927 4.6147 43.0951 4.18993 42.373L2.46607 43.387C3.0013 44.2969 3.75704 45.2272 4.70889 46.1791L6.12311 44.7649ZM4.18993 42.373C3.77952 41.6753 3.42589 40.7267 3.15219 39.4951L1.19981 39.9289C1.50211 41.2893 1.91648 42.4527 2.46607 43.387L4.18993 42.373ZM3.15219 39.4951C2.87132 38.2312 2.71472 37.1855 2.67062 36.3474L0.673382 36.4526C0.725276 37.4385 0.904676 38.6008 1.19981 39.9289L3.15219 39.4951ZM2.67062 36.3474C2.62391 35.4599 2.6 34.3032 2.6 32.872H0.6C0.6 34.3208 0.624094 35.5161 0.673382 36.4526L2.67062 36.3474ZM2.6 32.872V15.592H0.6V32.872H2.6ZM55.5049 15.592V14.592H54.5049V15.592H55.5049ZM67.7449 15.592H68.7449V14.592H67.7449V15.592ZM67.7449 48.064H66.7449V49.064H67.7449V48.064ZM69.7609 48.064V49.064H70.3971L70.6667 48.4878L69.7609 48.064ZM84.9529 15.592V14.592H84.3168L84.0472 15.1682L84.9529 15.592ZM102.161 15.592H103.161V14.592H102.161V15.592ZM102.161 67V68H103.161V67H102.161ZM89.9209 67H88.9209V68H89.9209V67ZM89.9209 34.528H90.9209V33.528H89.9209V34.528ZM87.9049 34.528V33.528H87.2688L86.9992 34.1042L87.9049 34.528ZM72.7129 67V68H73.3491L73.6187 67.4238L72.7129 67ZM55.5049 67H54.5049V68H55.5049V67ZM55.5049 16.592H67.7449V14.592H55.5049V16.592ZM66.7449 15.592V48.064H68.7449V15.592H66.7449ZM67.7449 49.064H69.7609V47.064H67.7449V49.064ZM70.6667 48.4878L85.8587 16.0158L84.0472 15.1682L68.8552 47.6402L70.6667 48.4878ZM84.9529 16.592H102.161V14.592H84.9529V16.592ZM101.161 15.592V67H103.161V15.592H101.161ZM102.161 66H89.9209V68H102.161V66ZM90.9209 67V34.528H88.9209V67H90.9209ZM89.9209 33.528H87.9049V35.528H89.9209V33.528ZM86.9992 34.1042L71.8072 66.5762L73.6187 67.4238L88.8107 34.9518L86.9992 34.1042ZM72.7129 66H55.5049V68H72.7129V66ZM56.5049 67V15.592H54.5049V67H56.5049ZM152.904 15.592H153.904V14.592H152.904V15.592ZM152.904 27.4V28.4H153.904V27.4H152.904ZM137.495 27.4V26.4H136.495V27.4H137.495ZM137.495 67V68H138.495V67H137.495ZM124.104 67H123.104V68H124.104V67ZM124.104 27.4H125.104V26.4H124.104V27.4ZM108.768 27.4H107.768V28.4H108.768V27.4ZM108.768 15.592V14.592H107.768V15.592H108.768ZM151.904 15.592V27.4H153.904V15.592H151.904ZM152.904 26.4H137.495V28.4H152.904V26.4ZM136.495 27.4V67H138.495V27.4H136.495ZM137.495 66H124.104V68H137.495V66ZM125.104 67V27.4H123.104V67H125.104ZM124.104 26.4H108.768V28.4H124.104V26.4ZM109.768 27.4V15.592H107.768V27.4H109.768ZM108.768 16.592H152.904V14.592H108.768V16.592ZM187.231 15.592L188.189 15.3049L187.975 14.592H187.231V15.592ZM202.639 67V68H203.983L203.597 66.7129L202.639 67ZM189.319 67L188.356 67.2706L188.562 68H189.319V67ZM185.575 53.68L186.538 53.4094L186.333 52.68H185.575V53.68ZM168.295 53.68V52.68H167.534L167.331 53.4142L168.295 53.68ZM164.623 67V68H165.385L165.587 67.2658L164.623 67ZM151.591 67L150.633 66.7129L150.248 68H151.591V67ZM166.999 15.592V14.592H166.255L166.041 15.3049L166.999 15.592ZM175.351 28.264V27.264H174.593L174.388 27.9942L175.351 28.264ZM171.175 43.168L170.212 42.8982L169.856 44.168H171.175V43.168ZM182.623 43.168V44.168H183.936L183.587 42.9025L182.623 43.168ZM178.519 28.264L179.483 27.9985L179.281 27.264H178.519V28.264ZM186.273 15.8791L201.681 67.2871L203.597 66.7129L188.189 15.3049L186.273 15.8791ZM202.639 66H189.319V68H202.639V66ZM190.282 66.7294L186.538 53.4094L184.613 53.9506L188.356 67.2706L190.282 66.7294ZM185.575 52.68H168.295V54.68H185.575V52.68ZM167.331 53.4142L163.659 66.7342L165.587 67.2658L169.259 53.9458L167.331 53.4142ZM164.623 66H151.591V68H164.623V66ZM152.549 67.2871L167.957 15.8791L166.041 15.3049L150.633 66.7129L152.549 67.2871ZM166.999 16.592H187.231V14.592H166.999V16.592ZM174.388 27.9942L170.212 42.8982L172.138 43.4378L176.314 28.5338L174.388 27.9942ZM171.175 44.168H182.623V42.168H171.175V44.168ZM183.587 42.9025L179.483 27.9985L177.555 28.5295L181.659 43.4335L183.587 42.9025ZM178.519 27.264H175.351V29.264H178.519V27.264ZM209.419 15.592V14.592H208.419V15.592H209.419ZM221.659 15.592H222.659V14.592H221.659V15.592ZM221.659 48.064H220.659V49.064H221.659V48.064ZM223.675 48.064V49.064H224.311L224.581 48.4878L223.675 48.064ZM238.867 15.592V14.592H238.231L237.961 15.1682L238.867 15.592ZM256.075 15.592H257.075V14.592H256.075V15.592ZM256.075 67V68H257.075V67H256.075ZM243.835 67H242.835V68H243.835V67ZM243.835 34.528H244.835V33.528H243.835V34.528ZM241.819 34.528V33.528H241.183L240.913 34.1042L241.819 34.528ZM226.627 67V68H227.263L227.533 67.4238L226.627 67ZM209.419 67H208.419V68H209.419V67ZM242.755 10.048L243.38 10.8289L243.389 10.8213L242.755 10.048ZM222.739 10.048L222.105 10.8213L222.114 10.8289L222.739 10.048ZM218.491 1.912V0.911997H217.358L217.499 2.03603L218.491 1.912ZM227.995 1.912L228.946 1.60198L228.721 0.911997H227.995V1.912ZM237.499 1.912V0.911997H236.773L236.548 1.60198L237.499 1.912ZM247.003 1.912L247.995 2.03603L248.136 0.911997H247.003V1.912ZM209.419 16.592H221.659V14.592H209.419V16.592ZM220.659 15.592V48.064H222.659V15.592H220.659ZM221.659 49.064H223.675V47.064H221.659V49.064ZM224.581 48.4878L239.773 16.0158L237.961 15.1682L222.769 47.6402L224.581 48.4878ZM238.867 16.592H256.075V14.592H238.867V16.592ZM255.075 15.592V67H257.075V15.592H255.075ZM256.075 66H243.835V68H256.075V66ZM244.835 67V34.528H242.835V67H244.835ZM243.835 33.528H241.819V35.528H243.835V33.528ZM240.913 34.1042L225.721 66.5762L227.533 67.4238L242.725 34.9518L240.913 34.1042ZM226.627 66H209.419V68H226.627V66ZM210.419 67V15.592H208.419V67H210.419ZM242.13 9.26713C239.966 10.999 236.879 11.928 232.747 11.928V13.928C237.159 13.928 240.744 12.937 243.38 10.8289L242.13 9.26713ZM232.747 11.928C228.615 11.928 225.528 10.999 223.364 9.26713L222.114 10.8289C224.75 12.937 228.335 13.928 232.747 13.928V11.928ZM223.373 9.27473C221.196 7.48956 219.888 5.02332 219.483 1.78796L217.499 2.03603C217.958 5.71268 219.482 8.67044 222.105 10.8213L223.373 9.27473ZM218.491 2.912H227.995V0.911997H218.491V2.912ZM227.044 2.22202C227.458 3.48968 228.147 4.51635 229.151 5.2164C230.151 5.91319 231.373 6.224 232.747 6.224V4.224C231.673 4.224 230.879 3.9828 230.295 3.5756C229.715 3.17165 229.252 2.54231 228.946 1.60198L227.044 2.22202ZM232.747 6.224C234.121 6.224 235.343 5.91319 236.343 5.2164C237.347 4.51635 238.036 3.48968 238.45 2.22202L236.548 1.60198C236.242 2.54231 235.779 3.17165 235.199 3.5756C234.615 3.9828 233.821 4.224 232.747 4.224V6.224ZM237.499 2.912H247.003V0.911997H237.499V2.912ZM246.011 1.78796C245.606 5.02332 244.298 7.48956 242.121 9.27473L243.389 10.8213C246.012 8.67044 247.536 5.71268 247.995 2.03603L246.011 1.78796Z" fill="#EBFF00"/>
</svg>
