<svg width="124" height="124" viewBox="0 0 124 124" fill="none" xmlns="http://www.w3.org/2000/svg">
<circle cx="61.9998" cy="62" r="50.4425" transform="rotate(75 61.9998 62)" fill="#EBFF00"/>
<path d="M66.5456 61.4558L53.3027 65.0042L61.7718 76.2001C52.0765 78.7979 46.2656 78.2026 43.6145 68.3088C41.1079 58.9538 45.0537 50.5471 57.5433 47.2006C59.7788 46.6016 61.9229 46.342 63.9626 46.3729L65.5512 39.569L68.0618 45.537L73.0142 40.6928L71.5963 48.1334C72.4341 48.5389 73.2608 48.9998 74.01 49.5603L74.0034 49.5358C74.0034 49.5358 74.1025 49.6142 74.2391 49.7351C74.7657 50.1452 75.2745 50.5863 75.7591 51.0339C77.8142 52.8718 81.1443 55.9692 82.4658 58.0824L79.3566 56.6844C79.5496 57.2102 79.7248 57.7669 79.8757 58.3302C81.2931 63.6199 80.2212 67.6868 76.8605 69.821L81.3948 86.7433C92.5367 81.1855 98.2693 69.7278 94.2074 54.5688C88.8463 34.5608 72.5757 27.0039 53.5011 32.115C34.0863 37.3172 24.0879 51.8077 29.4753 71.9137C34.9086 92.1911 51.2271 96.4278 65.9279 92.4887L74.2625 90.2555L66.5456 61.4558Z" fill="black"/>
</svg>
