<svg width="164" height="124" viewBox="0 0 164 124" fill="none" xmlns="http://www.w3.org/2000/svg">
<path d="M121.994 74.7605C123.098 74.7605 123.993 73.8725 123.993 72.7772C123.993 71.6819 123.098 70.7939 121.994 70.7939C120.89 70.7939 119.995 71.6819 119.995 72.7772C119.995 73.8725 120.89 74.7605 121.994 74.7605Z" fill="black"/>
<path d="M129.758 79.9347V95.5997L144.619 89.5636C144.619 101.032 142.243 107.269 130.54 107.269C119.474 107.269 111.363 100.428 111.363 85.6546C111.363 83.0102 111.71 80.5671 112.348 78.3251L105.308 74.5598L112.637 73.5538L108.756 66.6554L116.548 70.4208C117.243 69.616 117.997 68.8399 118.837 68.1788H118.808C118.808 68.1788 118.924 68.0926 119.097 67.9776C119.706 67.5177 120.343 67.0866 120.98 66.6842C123.616 64.9596 128.02 62.2003 130.743 61.3667L128.28 64.3848C128.918 64.3273 129.584 64.2985 130.25 64.2985C136.507 64.2985 140.679 66.6842 142.04 71.0244H162.058C159.219 57.084 148.269 47.3689 130.337 47.3689C106.67 47.3689 93.5181 63.0913 93.5181 85.6546C93.5181 108.62 106.554 123.94 130.337 123.94C154.323 123.94 163.825 107.183 163.825 89.7936V79.9347H129.758Z" fill="black"/>
<path d="M93.8904 54.583L68.5205 93.5216L83.9048 22.192L38.9485 90.1415L65.4953 10.403L7.40291 65.6167" stroke="#EBFF00" stroke-width="8.70899"/>
</svg>
