<svg width="575" height="109" viewBox="0 0 575 109" fill="none" xmlns="http://www.w3.org/2000/svg">
<mask id="mask0" mask-type="alpha" maskUnits="userSpaceOnUse" x="4" y="17" width="527" height="56">
<path d="M5.544 19.592V18.592H4.544V19.592H5.544ZM5.544 71H4.544V72H5.544V71ZM18.936 71V72H19.936V71H18.936ZM18.936 31.4V30.4H17.936V31.4H18.936ZM37.44 31.4H38.44V30.4H37.44V31.4ZM37.44 71H36.44V72H37.44V71ZM50.832 71V72H51.832V71H50.832ZM50.832 19.592H51.832V18.592H50.832V19.592ZM4.544 19.592V71H6.544V19.592H4.544ZM5.544 72H18.936V70H5.544V72ZM19.936 71V31.4H17.936V71H19.936ZM18.936 32.4H37.44V30.4H18.936V32.4ZM36.44 31.4V71H38.44V31.4H36.44ZM37.44 72H50.832V70H37.44V72ZM51.832 71V19.592H49.832V71H51.832ZM50.832 18.592H5.544V20.592H50.832V18.592ZM61.9346 19.592V18.592H60.9346V19.592H61.9346ZM61.9346 71H60.9346V72H61.9346V71ZM75.3266 71V72H76.3266V71H75.3266ZM75.3266 53.72V52.72H74.3266V53.72H75.3266ZM75.3266 42.272H74.3266V43.272H75.3266V42.272ZM75.3266 31.256V30.256H74.3266V31.256H75.3266ZM60.9346 19.592V71H62.9346V19.592H60.9346ZM61.9346 72H75.3266V70H61.9346V72ZM76.3266 71V53.72H74.3266V71H76.3266ZM75.3266 54.72H86.5586V52.72H75.3266V54.72ZM86.5586 54.72C92.8067 54.72 97.8793 53.0927 101.401 49.9378C104.938 46.7691 106.783 42.1735 106.783 36.512H104.783C104.783 41.7225 103.099 45.7309 100.066 48.4482C97.0179 51.1792 92.4785 52.72 86.5586 52.72V54.72ZM106.783 36.512C106.783 30.9179 104.935 26.3918 101.394 23.2781C97.8717 20.1804 92.8013 18.592 86.5586 18.592V20.592C92.484 20.592 97.0255 22.0996 100.073 24.7799C103.103 27.4442 104.783 31.3781 104.783 36.512H106.783ZM86.5586 18.592H61.9346V20.592H86.5586V18.592ZM76.3266 42.272V31.256H74.3266V42.272H76.3266ZM75.3266 32.256H84.8306V30.256H75.3266V32.256ZM84.8306 32.256C87.3841 32.256 88.9254 32.7011 89.8212 33.4024C90.6579 34.0575 91.1026 35.0773 91.1026 36.728H93.1026C93.1026 34.7067 92.5394 32.9905 91.0541 31.8276C89.6278 30.7109 87.5332 30.256 84.8306 30.256V32.256ZM91.1026 36.728C91.1026 38.3794 90.6571 39.4221 89.8137 40.0955C88.9172 40.8113 87.3771 41.272 84.8306 41.272V43.272C87.5402 43.272 89.6361 42.7967 91.0616 41.6585C92.5401 40.4779 93.1026 38.7486 93.1026 36.728H91.1026ZM84.8306 41.272H75.3266V43.272H84.8306V41.272ZM138.141 17.656C129.584 17.656 122.876 20.5903 118.314 25.577C113.764 30.5512 111.437 37.4707 111.437 45.296H113.437C113.437 37.8573 115.646 31.4568 119.79 26.927C123.922 22.4097 130.066 19.656 138.141 19.656V17.656ZM111.437 45.296C111.437 53.1213 113.764 60.0408 118.314 65.015C122.876 70.0017 129.584 72.936 138.141 72.936V70.936C130.066 70.936 123.922 68.1823 119.79 63.665C115.646 59.1352 113.437 52.7347 113.437 45.296H111.437ZM138.141 72.936C146.698 72.936 153.406 70.0017 157.968 65.015C162.518 60.0408 164.845 53.1213 164.845 45.296H162.845C162.845 52.7347 160.636 59.1352 156.492 63.665C152.36 68.1823 146.216 70.936 138.141 70.936V72.936ZM164.845 45.296C164.845 37.4707 162.518 30.5512 157.968 25.577C153.406 20.5903 146.698 17.656 138.141 17.656V19.656C146.216 19.656 152.36 22.4097 156.492 26.927C160.636 31.4568 162.845 37.8573 162.845 45.296H164.845ZM138.141 59.128C134.435 59.128 131.731 57.7082 129.927 55.3451C128.095 52.946 127.117 49.4771 127.117 45.296H125.117C125.117 49.7549 126.155 53.702 128.337 56.5589C130.547 59.4518 133.855 61.128 138.141 61.128V59.128ZM127.117 45.296C127.117 41.0773 128.095 37.6099 129.926 35.2213C131.728 32.8688 134.431 31.464 138.141 31.464V29.464C133.859 29.464 130.55 31.1192 128.338 34.0047C126.155 36.8541 125.117 40.8027 125.117 45.296H127.117ZM138.141 31.464C141.847 31.464 144.551 32.8838 146.355 35.2469C148.187 37.646 149.165 41.1149 149.165 45.296H151.165C151.165 40.8371 150.127 36.89 147.945 34.0331C145.735 31.1402 142.427 29.464 138.141 29.464V31.464ZM149.165 45.296C149.165 49.4771 148.187 52.946 146.355 55.3451C144.551 57.7082 141.847 59.128 138.141 59.128V61.128C142.427 61.128 145.735 59.4518 147.945 56.5589C150.127 53.702 151.165 49.7549 151.165 45.296H149.165ZM203.925 53.504V52.504H203.064L202.936 53.3557L203.925 53.504ZM203.349 35.504L202.38 35.7514L202.572 36.504H203.349V35.504ZM217.245 35.504V36.504H218.437L218.23 35.3302L217.245 35.504ZM217.677 53.504L218.669 53.6288L218.811 52.504H217.677V53.504ZM202.936 53.3557C202.645 55.2925 201.807 56.7043 200.588 57.6437C199.355 58.593 197.643 59.128 195.501 59.128V61.128C197.967 61.128 200.142 60.511 201.808 59.2283C203.486 57.9357 204.556 56.0355 204.914 53.6523L202.936 53.3557ZM195.501 59.128C192.071 59.128 189.53 57.7286 187.814 55.3645C186.069 52.9615 185.125 49.4836 185.125 45.296H183.125C183.125 49.7484 184.124 53.6865 186.196 56.5395C188.295 59.4314 191.443 61.128 195.501 61.128V59.128ZM185.125 45.296C185.125 41.0708 186.07 37.5944 187.813 35.2018C189.527 32.8488 192.067 31.464 195.501 31.464V29.464C191.447 29.464 188.298 31.1392 186.197 34.0242C184.124 36.8696 183.125 40.8091 183.125 45.296H185.125ZM195.501 31.464C197.389 31.464 198.937 31.8528 200.086 32.5649C201.214 33.2644 202.011 34.3073 202.38 35.7514L204.318 35.2566C203.822 33.3167 202.712 31.8396 201.14 30.8651C199.588 29.9032 197.645 29.464 195.501 29.464V31.464ZM203.349 36.504H217.245V34.504H203.349V36.504ZM218.23 35.3302C216.412 25.0288 208.121 17.656 195.501 17.656V19.656C207.216 19.656 214.622 26.3952 216.26 35.6778L218.23 35.3302ZM195.501 17.656C187.346 17.656 180.798 20.4063 176.296 25.3054C171.805 30.1935 169.445 37.1163 169.445 45.296H171.445C171.445 37.4917 173.693 31.0945 177.769 26.6586C181.835 22.2337 187.816 19.656 195.501 19.656V17.656ZM169.445 45.296C169.445 53.4757 171.805 60.3985 176.296 65.2866C180.798 70.1857 187.346 72.936 195.501 72.936V70.936C187.816 70.936 181.835 68.3583 177.769 63.9334C173.693 59.4975 171.445 53.1003 171.445 45.296H169.445ZM195.501 72.936C202.04 72.936 207.483 70.9825 211.479 67.5561C215.475 64.1293 217.957 59.2856 218.669 53.6288L216.685 53.3792C216.028 58.5944 213.758 62.9667 210.177 66.0379C206.595 69.1095 201.634 70.936 195.501 70.936V72.936ZM217.677 52.504H203.925V54.504H217.677V52.504ZM222.935 71H221.935V72H222.935V71ZM244.463 31.4V30.4H243.463V31.4H244.463ZM258.503 31.4H259.503V30.4H258.503V31.4ZM258.503 71H257.503V72H258.503V71ZM271.895 71V72H272.895V71H271.895ZM271.895 19.592H272.895V18.592H271.895V19.592ZM232.079 19.592V18.592H231.079V19.592H232.079ZM222.935 58.04V57.04H221.935V58.04H222.935ZM222.935 72H225.023V70H222.935V72ZM225.023 72C231.614 72 236.904 71.0749 240.435 66.6957C243.895 62.4043 245.463 55.0239 245.463 42.776H243.463C243.463 55.0081 241.862 61.7397 238.878 65.4403C235.965 69.0531 231.535 70 225.023 70V72ZM245.463 42.776V31.4H243.463V42.776H245.463ZM244.463 32.4H258.503V30.4H244.463V32.4ZM257.503 31.4V71H259.503V31.4H257.503ZM258.503 72H271.895V70H258.503V72ZM272.895 71V19.592H270.895V71H272.895ZM271.895 18.592H232.079V20.592H271.895V18.592ZM231.079 19.592V42.416H233.079V19.592H231.079ZM231.079 42.416C231.079 46.0554 230.962 48.8129 230.711 50.9044C230.459 53.0086 230.08 54.3578 229.606 55.2331C229.158 56.0604 228.623 56.473 227.949 56.7112C227.211 56.9716 226.263 57.04 224.951 57.04V59.04C226.266 59.04 227.523 58.9824 228.615 58.5971C229.769 58.1895 230.688 57.4366 231.365 56.1849C232.016 54.9812 232.434 53.3379 232.697 51.1424C232.961 48.9341 233.079 46.0846 233.079 42.416H231.079ZM224.951 57.04H222.935V59.04H224.951V57.04ZM221.935 58.04V71H223.935V58.04H221.935ZM302.653 40.112L301.766 40.5729L302.046 41.112H302.653V40.112ZM291.997 19.592L292.885 19.1311L292.605 18.592H291.997V19.592ZM278.173 19.592V18.592H276.511L277.29 20.0603L278.173 19.592ZM297.253 55.592L298.156 56.0223L298.372 55.5682L298.137 55.1237L297.253 55.592ZM289.909 71L289.006 70.5697L288.325 72H289.909V71ZM303.085 71V72H303.715L303.987 71.432L303.085 71ZM327.709 19.592L328.611 20.024L329.297 18.592H327.709V19.592ZM314.389 19.592V18.592H313.756L313.485 19.1639L314.389 19.592ZM304.669 40.112V41.112H305.302L305.573 40.5401L304.669 40.112ZM303.541 39.6511L292.885 19.1311L291.11 20.0529L301.766 40.5729L303.541 39.6511ZM291.997 18.592H278.173V20.592H291.997V18.592ZM277.29 20.0603L296.37 56.0603L298.137 55.1237L279.057 19.1237L277.29 20.0603ZM296.35 55.1617L289.006 70.5697L290.812 71.4303L298.156 56.0223L296.35 55.1617ZM289.909 72H303.085V70H289.909V72ZM303.987 71.432L328.611 20.024L326.807 19.16L302.183 70.568L303.987 71.432ZM327.709 18.592H314.389V20.592H327.709V18.592ZM313.485 19.1639L303.765 39.6839L305.573 40.5401L315.293 20.0201L313.485 19.1639ZM304.669 39.112H302.653V41.112H304.669V39.112ZM365.21 71L364.304 71.4234L364.573 72H365.21V71ZM379.61 71V72H381.218L380.507 70.5576L379.61 71ZM366.218 43.856L365.32 43.4163L365.104 43.8577L365.321 44.2984L366.218 43.856ZM378.098 19.592L378.996 20.0317L379.701 18.592H378.098V19.592ZM364.85 19.592V18.592H364.23L363.954 19.1477L364.85 19.592ZM355.994 37.448V38.448H356.614L356.89 37.8923L355.994 37.448ZM353.978 37.448L353.078 37.8836L353.351 38.448H353.978V37.448ZM345.338 19.592L346.238 19.1564L345.965 18.592H345.338V19.592ZM332.018 19.592V18.592H330.438L331.114 20.02L332.018 19.592ZM343.61 44.072L344.505 44.5173L344.721 44.0827L344.514 43.644L343.61 44.072ZM330.218 71L329.322 70.5547L328.604 72H330.218V71ZM344.402 71V72H345.032L345.304 71.4315L344.402 71ZM353.906 51.128V50.128H353.276L353.004 50.6965L353.906 51.128ZM355.922 51.128L356.828 50.7046L356.558 50.128H355.922V51.128ZM365.21 72H379.61V70H365.21V72ZM380.507 70.5576L367.115 43.4135L365.321 44.2984L378.713 71.4424L380.507 70.5576ZM367.116 44.2957L378.996 20.0317L377.2 19.1523L365.32 43.4163L367.116 44.2957ZM378.098 18.592H364.85V20.592H378.098V18.592ZM363.954 19.1477L355.098 37.0037L356.89 37.8923L365.746 20.0363L363.954 19.1477ZM355.994 36.448H353.978V38.448H355.994V36.448ZM354.878 37.0124L346.238 19.1564L344.438 20.0276L353.078 37.8836L354.878 37.0124ZM345.338 18.592H332.018V20.592H345.338V18.592ZM331.114 20.02L342.706 44.5L344.514 43.644L332.922 19.164L331.114 20.02ZM342.714 43.6267L329.322 70.5547L331.113 71.4453L344.505 44.5173L342.714 43.6267ZM330.218 72H344.402V70H330.218V72ZM345.304 71.4315L354.808 51.5595L353.004 50.6965L343.5 70.5685L345.304 71.4315ZM353.906 52.128H355.922V50.128H353.906V52.128ZM355.016 51.5514L364.304 71.4234L366.116 70.5766L356.828 50.7046L355.016 51.5514ZM417.747 19.592L418.705 19.3049L418.491 18.592H417.747V19.592ZM397.515 19.592V18.592H396.771L396.557 19.3049L397.515 19.592ZM382.107 71L381.149 70.7129L380.763 72H382.107V71ZM395.139 71V72H395.9L396.103 71.2658L395.139 71ZM398.811 57.68V56.68H398.049L397.847 57.4142L398.811 57.68ZM416.091 57.68L417.054 57.4094L416.848 56.68H416.091V57.68ZM419.835 71L418.872 71.2706L419.077 72H419.835V71ZM433.155 71V72H434.498L434.113 70.7129L433.155 71ZM405.867 32.264V31.264H405.108L404.904 31.9942L405.867 32.264ZM409.035 32.264L409.999 31.9985L409.797 31.264H409.035V32.264ZM413.139 47.168V48.168H414.451L414.103 46.9025L413.139 47.168ZM401.691 47.168L400.728 46.8982L400.372 48.168H401.691V47.168ZM417.747 18.592H397.515V20.592H417.747V18.592ZM396.557 19.3049L381.149 70.7129L383.065 71.2871L398.473 19.8791L396.557 19.3049ZM382.107 72H395.139V70H382.107V72ZM396.103 71.2658L399.775 57.9458L397.847 57.4142L394.175 70.7342L396.103 71.2658ZM398.811 58.68H416.091V56.68H398.811V58.68ZM415.128 57.9506L418.872 71.2706L420.798 70.7294L417.054 57.4094L415.128 57.9506ZM419.835 72H433.155V70H419.835V72ZM434.113 70.7129L418.705 19.3049L416.789 19.8791L432.197 71.2871L434.113 70.7129ZM405.867 33.264H409.035V31.264H405.867V33.264ZM408.071 32.5295L412.175 47.4335L414.103 46.9025L409.999 31.9985L408.071 32.5295ZM413.139 46.168H401.691V48.168H413.139V46.168ZM402.654 47.4378L406.83 32.5338L404.904 31.9942L400.728 46.8982L402.654 47.4378ZM476.021 19.592H477.021V18.592H476.021V19.592ZM431.885 19.592V18.592H430.885V19.592H431.885ZM431.885 31.4H430.885V32.4H431.885V31.4ZM447.221 31.4H448.221V30.4H447.221V31.4ZM447.221 71H446.221V72H447.221V71ZM460.613 71V72H461.613V71H460.613ZM460.613 31.4V30.4H459.613V31.4H460.613ZM476.021 31.4V32.4H477.021V31.4H476.021ZM476.021 18.592H431.885V20.592H476.021V18.592ZM430.885 19.592V31.4H432.885V19.592H430.885ZM431.885 32.4H447.221V30.4H431.885V32.4ZM446.221 31.4V71H448.221V31.4H446.221ZM447.221 72H460.613V70H447.221V72ZM461.613 71V31.4H459.613V71H461.613ZM460.613 32.4H476.021V30.4H460.613V32.4ZM477.021 31.4V19.592H475.021V31.4H477.021ZM482.614 19.592V18.592H481.614V19.592H482.614ZM482.614 71H481.614V72H482.614V71ZM499.822 71V72H500.458L500.728 71.4238L499.822 71ZM515.014 38.528V37.528H514.378L514.109 38.1042L515.014 38.528ZM517.03 38.528H518.03V37.528H517.03V38.528ZM517.03 71H516.03V72H517.03V71ZM529.27 71V72H530.27V71H529.27ZM529.27 19.592H530.27V18.592H529.27V19.592ZM512.062 19.592V18.592H511.426L511.157 19.1682L512.062 19.592ZM496.87 52.064V53.064H497.506L497.776 52.4878L496.87 52.064ZM494.854 52.064H493.854V53.064H494.854V52.064ZM494.854 19.592H495.854V18.592H494.854V19.592ZM481.614 19.592V71H483.614V19.592H481.614ZM482.614 72H499.822V70H482.614V72ZM500.728 71.4238L515.92 38.9518L514.109 38.1042L498.917 70.5762L500.728 71.4238ZM515.014 39.528H517.03V37.528H515.014V39.528ZM516.03 38.528V71H518.03V38.528H516.03ZM517.03 72H529.27V70H517.03V72ZM530.27 71V19.592H528.27V71H530.27ZM529.27 18.592H512.062V20.592H529.27V18.592ZM511.157 19.1682L495.965 51.6402L497.776 52.4878L512.968 20.0158L511.157 19.1682ZM496.87 51.064H494.854V53.064H496.87V51.064ZM495.854 52.064V19.592H493.854V52.064H495.854ZM494.854 18.592H482.614V20.592H494.854V18.592Z" fill="white"/>
</mask>
<g mask="url(#mask0)">
<rect x="-77.3838" y="-92.8977" width="728.692" height="283.648" fill="white"/>
</g>
</svg>
