<svg width="575" height="109" viewBox="0 0 575 109" fill="none" xmlns="http://www.w3.org/2000/svg">
<path d="M14.936 42.192H13.936V43.192H14.936V42.192ZM41.216 42.192H42.216V41.192H41.216V42.192ZM41.216 54V55H42.216V54H41.216ZM1.544 54H0.544001V55H1.544V54ZM1.544 2.592V1.592H0.544001V2.592H1.544ZM14.936 2.592H15.936V1.592H14.936V2.592ZM14.936 43.192H41.216V41.192H14.936V43.192ZM40.216 42.192V54H42.216V42.192H40.216ZM41.216 53H1.544V55H41.216V53ZM2.544 54V2.592H0.544001V54H2.544ZM1.544 3.592H14.936V1.592H1.544V3.592ZM13.936 2.592V42.192H15.936V2.592H13.936ZM63.4601 2.592H64.4601V1.592H63.4601V2.592ZM63.4601 54V55H64.4601V54H63.4601ZM50.0681 54H49.0681V55H50.0681V54ZM50.0681 2.592V1.592H49.0681V2.592H50.0681ZM62.4601 2.592V54H64.4601V2.592H62.4601ZM63.4601 53H50.0681V55H63.4601V53ZM51.0681 54V2.592H49.0681V54H51.0681ZM50.0681 3.592H63.4601V1.592H50.0681V3.592ZM115.2 17.424V18.424H116.303L116.195 17.3264L115.2 17.424ZM101.52 17.424L100.546 17.6522L100.727 18.424H101.52V17.424ZM89.2799 13.968L89.7797 14.8342L89.792 14.8271L89.804 14.8197L89.2799 13.968ZM88.6319 19.944L88.0553 20.761L88.6319 19.944ZM92.3759 21.24L92.207 22.2257L92.2177 22.2274L92.3759 21.24ZM101.808 22.752L101.967 21.7648L101.966 21.7646L101.808 22.752ZM112.464 27.648L111.77 28.3681L111.777 28.3743L112.464 27.648ZM110.952 50.112L110.296 49.3576L110.952 50.112ZM78.9839 50.4L78.364 51.1847L78.37 51.1894L78.9839 50.4ZM72.3599 37.44V36.44H71.2606L71.3644 37.5344L72.3599 37.44ZM86.0399 37.44L87.0275 37.2829L86.8934 36.44H86.0399V37.44ZM101.016 42.48L101.571 43.3121L101.577 43.3075L101.016 42.48ZM101.592 35.64L102.192 34.84V34.84L101.592 35.64ZM97.1279 34.056L97.2923 33.0696L97.2899 33.0692L97.1279 34.056ZM87.4799 32.472L87.6419 31.4852L87.6418 31.4852L87.4799 32.472ZM79.2719 6.33599L79.9211 7.0967L79.9269 7.09168L79.2719 6.33599ZM108.648 5.904L108.054 6.70888L108.066 6.71705L108.648 5.904ZM115.2 16.424H101.52V18.424H115.2V16.424ZM102.494 17.1958C102.077 15.419 101.116 14.0319 99.6104 13.1141C98.1371 12.2161 96.2236 11.816 93.9599 11.816V13.816C96.0163 13.816 97.5228 14.1839 98.5695 14.8219C99.5837 15.4401 100.243 16.357 100.546 17.6522L102.494 17.1958ZM93.9599 11.816C91.9535 11.816 90.1996 12.2278 88.7558 13.1163L89.804 14.8197C90.8562 14.1722 92.2223 13.816 93.9599 13.816V11.816ZM88.7802 13.1018C87.2103 14.0075 86.4079 15.4491 86.4079 17.28H88.4079C88.4079 16.1349 88.8535 15.3685 89.7797 14.8342L88.7802 13.1018ZM86.4079 17.28C86.4079 18.7306 86.9184 19.9585 88.0553 20.761L89.2086 19.127C88.7135 18.7775 88.4079 18.2294 88.4079 17.28H86.4079ZM88.0553 20.761C89.0502 21.4632 90.47 21.9278 92.207 22.2256L92.5449 20.2544C90.9219 19.9761 89.8457 19.5768 89.2086 19.127L88.0553 20.761ZM92.2177 22.2274L101.65 23.7394L101.966 21.7646L92.5342 20.2526L92.2177 22.2274ZM101.649 23.7392C105.959 24.4344 109.308 25.9956 111.77 28.3681L113.158 26.9279C110.34 24.2124 106.585 22.5096 101.967 21.7648L101.649 23.7392ZM111.777 28.3743C114.225 30.6912 115.496 33.9097 115.496 38.16H117.496C117.496 33.4823 116.079 29.6928 113.151 26.9217L111.777 28.3743ZM115.496 38.16C115.496 42.6126 113.781 46.3248 110.296 49.3576L111.608 50.8664C115.515 47.4672 117.496 43.2114 117.496 38.16H115.496ZM110.296 49.3576C106.844 52.3608 101.809 53.936 95.0399 53.936V55.936C102.095 55.936 107.668 54.2952 111.608 50.8664L110.296 49.3576ZM95.0399 53.936C88.3623 53.936 83.2539 52.4542 79.5979 49.6106L78.37 51.1894C82.49 54.3938 88.0856 55.936 95.0399 55.936V53.936ZM79.6039 49.6154C75.9585 46.7351 73.8614 42.6803 73.3555 37.3456L71.3644 37.5344C71.9145 43.3357 74.2334 47.9209 78.364 51.1846L79.6039 49.6154ZM72.3599 38.44H86.0399V36.44H72.3599V38.44ZM85.0524 37.5971C85.4266 39.9498 86.5277 41.7963 88.3861 43.026C90.2079 44.2313 92.6545 44.776 95.6159 44.776V42.776C92.8654 42.776 90.86 42.2646 89.4897 41.358C88.1562 40.4757 87.3252 39.1542 87.0275 37.2829L85.0524 37.5971ZM95.6159 44.776C98.0281 44.776 100.049 44.3263 101.571 43.312L100.461 41.6479C99.3907 42.3616 97.8118 42.776 95.6159 42.776V44.776ZM101.577 43.3075C103.155 42.2372 104.032 40.7701 104.032 38.952H102.032C102.032 40.0139 101.565 40.8988 100.454 41.6525L101.577 43.3075ZM104.032 38.952C104.032 37.2333 103.464 35.7941 102.192 34.84L100.992 36.44C101.64 36.9259 102.032 37.6947 102.032 38.952H104.032ZM102.192 34.84C101.043 33.9785 99.3695 33.4158 97.2923 33.0696L96.9635 35.0424C98.9183 35.3682 100.221 35.8615 100.992 36.44L102.192 34.84ZM97.2899 33.0692L87.6419 31.4852L87.3179 33.4588L96.9659 35.0428L97.2899 33.0692ZM87.6418 31.4852C83.2424 30.7636 80.0747 29.2426 78.0058 27.0206C75.9491 24.8115 74.8719 21.7948 74.8719 17.856H72.8719C72.8719 22.1732 74.0628 25.7205 76.542 28.3834C79.0092 31.0333 82.6455 32.6924 87.3181 33.4588L87.6418 31.4852ZM74.8719 17.856C74.8719 13.5497 76.5368 9.98459 79.9211 7.09668L78.6228 5.57531C74.8071 8.8314 72.8719 12.9463 72.8719 17.856H74.8719ZM79.9269 7.09168C83.2936 4.17384 87.9784 2.656 94.1039 2.656V0.655996C87.6535 0.655996 82.4503 2.25815 78.617 5.58031L79.9269 7.09168ZM94.1039 2.656C99.7958 2.656 104.422 4.03011 108.054 6.7088L109.241 5.09919C105.194 2.11388 100.124 0.655996 94.1039 0.655996V2.656ZM108.066 6.71705C111.712 9.3278 113.752 12.903 114.205 17.5216L116.195 17.3264C115.688 12.153 113.36 8.0482 109.23 5.09094L108.066 6.71705ZM165.388 2.592H166.388V1.592H165.388V2.592ZM165.388 14.4V15.4H166.388V14.4H165.388ZM149.98 14.4V13.4H148.98V14.4H149.98ZM149.98 54V55H150.98V54H149.98ZM136.588 54H135.588V55H136.588V54ZM136.588 14.4H137.588V13.4H136.588V14.4ZM121.252 14.4H120.252V15.4H121.252V14.4ZM121.252 2.592V1.592H120.252V2.592H121.252ZM164.388 2.592V14.4H166.388V2.592H164.388ZM165.388 13.4H149.98V15.4H165.388V13.4ZM148.98 14.4V54H150.98V14.4H148.98ZM149.98 53H136.588V55H149.98V53ZM137.588 54V14.4H135.588V54H137.588ZM136.588 13.4H121.252V15.4H136.588V13.4ZM122.252 14.4V2.592H120.252V14.4H122.252ZM121.252 3.592H165.388V1.592H121.252V3.592ZM205.245 33.552V34.552H206.245V33.552H205.245ZM185.374 33.552V32.552H184.374V33.552H185.374ZM185.374 42.192H184.374V43.192H185.374V42.192ZM212.085 42.192H213.085V41.192H212.085V42.192ZM212.085 54V55H213.085V54H212.085ZM171.982 54H170.982V55H171.982V54ZM171.982 2.592V1.592H170.982V2.592H171.982ZM211.438 2.592H212.438V1.592H211.438V2.592ZM211.438 14.4V15.4H212.438V14.4H211.438ZM185.374 14.4V13.4H184.374V14.4H185.374ZM185.374 22.032H184.374V23.032H185.374V22.032ZM205.245 22.032H206.245V21.032H205.245V22.032ZM205.245 32.552H185.374V34.552H205.245V32.552ZM184.374 33.552V42.192H186.374V33.552H184.374ZM185.374 43.192H212.085V41.192H185.374V43.192ZM211.085 42.192V54H213.085V42.192H211.085ZM212.085 53H171.982V55H212.085V53ZM172.982 54V2.592H170.982V54H172.982ZM171.982 3.592H211.438V1.592H171.982V3.592ZM210.438 2.592V14.4H212.438V2.592H210.438ZM211.438 13.4H185.374V15.4H211.438V13.4ZM184.374 14.4V22.032H186.374V14.4H184.374ZM185.374 23.032H205.245V21.032H185.374V23.032ZM204.245 22.032V33.552H206.245V22.032H204.245ZM254.623 2.592V1.592H253.623V2.592H254.623ZM266.503 2.592H267.503V1.592H266.503V2.592ZM266.503 54V55H267.503V54H266.503ZM250.447 54L249.566 54.4717L249.848 55H250.447V54ZM234.463 24.12L235.345 23.6483L235.063 23.12H234.463V24.12ZM232.447 24.12V23.12H231.447V24.12H232.447ZM232.447 54V55H233.447V54H232.447ZM220.567 54H219.567V55H220.567V54ZM220.567 2.592V1.592H219.567V2.592H220.567ZM236.623 2.592L237.505 2.12031L237.223 1.592H236.623V2.592ZM252.607 32.472L251.726 32.9437L252.008 33.472H252.607V32.472ZM254.623 32.472V33.472H255.623V32.472H254.623ZM254.623 3.592H266.503V1.592H254.623V3.592ZM265.503 2.592V54H267.503V2.592H265.503ZM266.503 53H250.447V55H266.503V53ZM251.329 53.5283L235.345 23.6483L233.582 24.5917L249.566 54.4717L251.329 53.5283ZM234.463 23.12H232.447V25.12H234.463V23.12ZM231.447 24.12V54H233.447V24.12H231.447ZM232.447 53H220.567V55H232.447V53ZM221.567 54V2.592H219.567V54H221.567ZM220.567 3.592H236.623V1.592H220.567V3.592ZM235.742 3.06369L251.726 32.9437L253.489 32.0003L237.505 2.12031L235.742 3.06369ZM252.607 33.472H254.623V31.472H252.607V33.472ZM255.623 32.472V2.592H253.623V32.472H255.623Z" fill="white"/>
</svg>
