<svg xmlns="http://www.w3.org/2000/svg" xmlns:xlink="http://www.w3.org/1999/xlink">
    <symbol id="menu" viewBox="0 0 30 30">
        <rect width="7.8" height="7.8"/>
        <rect x="11.3999" width="7.2" height="7.8"/>
        <rect x="22.7998" width="7.2" height="7.8"/>
        <rect y="11.4" width="7.8" height="7.2"/>
        <rect x="11.3999" y="11.4" width="7.2" height="7.2"/>
        <rect x="22.7998" y="11.4" width="7.2" height="7.2"/>
        <rect y="22.8" width="7.8" height="7.2"/>
        <rect x="11.3999" y="22.8" width="7.2" height="7.2"/>
        <rect x="22.7998" y="22.8" width="7.2" height="7.2"/>
    </symbol>

    <symbol id="user" viewBox="0 0 19 24">
        <path fill-rule="evenodd" clip-rule="evenodd"
              d="M14.25 9.5C14.25 12.1234 12.1234 14.25 9.5 14.25C6.87665 14.25 4.75 12.1234 4.75 9.5C4.75 6.87665 6.87665 4.75 9.5 4.75C12.1234 4.75 14.25 6.87665 14.25 9.5ZM15.7837 16.6251C17.756 14.8843 19 12.3374 19 9.5C19 4.25329 14.7467 0 9.5 0C4.25329 0 0 4.25329 0 9.5C0 12.3374 1.24395 14.8843 3.21625 16.6251C3.06764 16.7561 2.92297 16.892 2.78249 17.0325C2.19417 17.6208 1.68698 18.2826 1.27276 19C1.06587 19.3583 0.882171 19.7306 0.723144 20.1145C0.245725 21.2671 0 22.5024 0 23.75H4.75C4.75 23.1262 4.87286 22.5086 5.11157 21.9323C5.35028 21.356 5.70016 20.8323 6.14124 20.3912C6.58232 19.9502 7.10596 19.6003 7.68225 19.3616C8.25855 19.1229 8.87622 19 9.5 19C10.1238 19 10.7414 19.1229 11.3177 19.3616C11.894 19.6003 12.4177 19.9502 12.8588 20.3912C13.2998 20.8323 13.6497 21.356 13.8884 21.9323C14.1271 22.5086 14.25 23.1262 14.25 23.75H19C19 22.5024 18.7543 21.2671 18.2769 20.1145C18.1178 19.7306 17.9341 19.3583 17.7272 19C17.313 18.2825 16.8058 17.6208 16.2175 17.0325C16.077 16.892 15.9324 16.7561 15.7837 16.6251Z"
        />
    </symbol>

    <symbol id="search" viewBox="0 0 26 26">
        <rect y="22.408" width="14.717" height="4.90566" transform="rotate(-45 0 22.408)" fill="black"/>
        <circle cx="15.6097" cy="10.2671" r="7.26415" stroke="black" stroke-width="5.09434" fill="none"/>

    </symbol>

    <symbol id="close" viewBox="0 0 30 30">
        <path fill-rule="evenodd" clip-rule="evenodd"
              d="M29.9999 4.99999L24.9999 0L15 9.99995L5.00005 0L6.18992e-05 4.99999L10 14.9999L0 24.9999L4.99999 29.9999L15 19.9999L25 29.9999L30 24.9999L20 14.9999L29.9999 4.99999Z"
        />
    </symbol>

    <symbol id="chevron-right" viewBox="0 0 32 50">
        <path fill-rule="evenodd" clip-rule="evenodd"
              d="M24.7488 31.8198L31.8198 24.7488L24.7487 17.6777L7.07111 0L6.10352e-05 7.07104L17.6777 24.7488L0 42.4264L7.07104 49.4976L24.7488 31.8198Z"
        />
    </symbol>

    <symbol id="chevron-left" viewBox="0 0 32 50">
        <path fill-rule="evenodd" clip-rule="evenodd"
              d="M31.8198 7.07104L24.7487 0L7.07098 17.6777L0 24.7488L7.07104 31.8198L24.7487 49.4976L31.8198 42.4264L14.1421 24.7488L31.8198 7.07104Z"
        />
    </symbol>


    <symbol id="sound" viewBox="0 0 86 62">
        <path d="M20 41H5V21H20H22.0711L23.5355 19.5355L32.0711 11H45V51H32.0711L23.5355 42.4645L22.0711 41H20Z"
              stroke="" fill="none" stroke-width="10"/>
        <rect x="65.6067" y="26" width="20" height="10"/>
        <rect x="67.071" y="40.3934" width="20" height="10" transform="rotate(45 67.071 40.3934)"/>
        <rect x="60" y="14.5355" width="20" height="10" transform="rotate(-45 60 14.5355)"/>
    </symbol>

    <symbol id="upload" viewBox="0 0 50 50">
        <path fill-rule="evenodd" clip-rule="evenodd"
              d="M25.6777 0L25.6777 3.23688e-05L18.6067 7.07107L8.00005 17.6777L15.0711 24.7488L21 18.8199V35H30V18.4644L36.2844 24.7487L43.3554 17.6777L25.6777 0ZM0 25H10V40L40 40V25H50V40V50H40H10H0V40V25Z"
        />
    </symbol>

    <symbol id="download" viewBox="0 0 50 50">
        <path fill-rule="evenodd" clip-rule="evenodd"
              d="M30.3554 0.355408L30.3554 16.5355L36.2843 10.6066L43.3553 17.6777L32.7487 28.2843L25.6777 35.3554L25.6776 35.3554L7.99997 17.6777L15.071 10.6067L21.3554 16.891L21.3554 0.355408L30.3554 0.355408ZM0 25H10V40L40 40V25H50V40V50H40H10H0V40V25Z"
        />
    </symbol>

    <symbol id="share" viewBox="0 0 50 36">
        <path fill-rule="evenodd" clip-rule="evenodd"
              d="M50 17.6777L42.929 24.7487L32.3224 35.3553L25.2513 28.2843L31.5356 21.9999H9V33.0001H0V21.9999V12.9999H31.1802L25.2512 7.07104L32.3224 0L42.929 10.6066L50 17.6777Z"
        />
    </symbol>

    <symbol id="check" viewBox="0 0 52 38">
        <rect width="10" height="30" transform="matrix(0.707107 -0.707107 -0.707107 -0.707107 21.2131 37.697)"/>
        <rect width="10" height="40" transform="matrix(-0.707107 -0.707107 -0.707107 0.707107 51.1113 7.79877)"/>
    </symbol>

    <symbol id="play" viewBox="0 0 96 107">
        <g filter="url(#filter0_d)">
            <path d="M87.5 41.7057C93.5 45.1698 93.5 53.83 87.5 57.2942L17.75 97.5643C11.75 101.028 4.25 96.6983 4.25 89.7701L4.25 9.22973C4.25 2.30153 11.75 -2.02859 17.75 1.43551L87.5 41.7057Z"
                  fill="white"/>
        </g>
        <defs>
            <filter id="filter0_d" x="0.25" y="0.216309" width="95.75" height="106.567" filterUnits="userSpaceOnUse"
                    color-interpolation-filters="sRGB">
                <feFlood flood-opacity="0" result="BackgroundImageFix"/>
                <feColorMatrix in="SourceAlpha" type="matrix" values="0 0 0 0 0 0 0 0 0 0 0 0 0 0 0 0 0 0 127 0"/>
                <feOffset dy="4"/>
                <feGaussianBlur stdDeviation="2"/>
                <feColorMatrix type="matrix" values="0 0 0 0 0 0 0 0 0 0 0 0 0 0 0 0 0 0 0.25 0"/>
                <feBlend mode="normal" in2="BackgroundImageFix" result="effect1_dropShadow"/>
                <feBlend mode="normal" in="SourceGraphic" in2="effect1_dropShadow" result="shape"/>
            </filter>
        </defs>
    </symbol>

    <symbol id="thin-arrow" viewBox="0 0 26 8">
        <path d="M0.646446 3.64644C0.451185 3.84171 0.451185 4.15829 0.646446 4.35355L3.82843 7.53553C4.02369 7.73079 4.34027 7.73079 4.53553 7.53553C4.7308 7.34027 4.7308 7.02369 4.53553 6.82843L1.70711 4L4.53553 1.17157C4.7308 0.976309 4.7308 0.659726 4.53553 0.464464C4.34027 0.269202 4.02369 0.269202 3.82843 0.464464L0.646446 3.64644ZM26 3.5L1 3.5L1 4.5L26 4.5L26 3.5Z"/>
    </symbol>


    <symbol id="connect-play" viewBox="0 0 150 151">
        <circle cx="75" cy="75.1226" r="73" stroke="white" stroke-width="4"/>
        <path d="M100 75.1226L62.5 96.7732L62.5 53.4719L100 75.1226Z" fill="white"/>

    </symbol>

    <!--    SOCIAL-->

    <symbol id="fb" viewBox="0 0 24 24">
        <g clip-path="url(#clip0)">
            <path d="M4.38226 -0.00012207C1.95468 -0.00012207 0 1.95456 0 4.38213V19.6176C0 22.0452 1.95468 23.9999 4.38226 23.9999H12.6398V14.6174H10.1588V11.2394H12.6398V8.35339C12.6398 6.08599 14.1057 4.00413 17.4825 4.00413C18.8497 4.00413 19.8608 4.13539 19.8608 4.13539L19.7813 7.2899C19.7813 7.2899 18.7501 7.28016 17.625 7.28016C16.4073 7.28016 16.212 7.84123 16.212 8.77267V11.2394H19.878L19.7183 14.6174H16.212V23.9999H19.6177C22.0453 23.9999 24 22.0452 24 19.6177V4.38216C24 1.95458 22.0453 -9.80703e-05 19.6177 -9.80703e-05H4.38223L4.38226 -0.00012207Z"
                  fill="black"/>
        </g>
        <defs>
            <clipPath id="clip0">
                <rect width="24" height="24" fill="white" transform="translate(0 -0.00012207)"/>
            </clipPath>
        </defs>
    </symbol>

    <symbol id="inst" viewBox="0 0 24 24">
        <path d="M16.6867 0.333252H7.27166C5.43201 0.335414 3.66834 1.06725 2.36761 2.36819C1.06689 3.66914 0.335349 5.43293 0.333496 7.27259L0.333496 16.6876C0.335658 18.5272 1.0675 20.2909 2.36844 21.5916C3.66938 22.8924 5.43317 23.6239 7.27283 23.6258H16.6878C18.5275 23.6236 20.2912 22.8918 21.5919 21.5908C22.8926 20.2899 23.6241 18.5261 23.626 16.6864V7.27142C23.6238 5.43176 22.892 3.66809 21.5911 2.36737C20.2901 1.06665 18.5263 0.335105 16.6867 0.333252V0.333252ZM21.2833 16.6864C21.2833 17.2901 21.1644 17.8878 20.9334 18.4455C20.7024 19.0032 20.3638 19.5099 19.937 19.9368C19.5102 20.3636 19.0034 20.7022 18.4457 20.9332C17.888 21.1642 17.2903 21.2831 16.6867 21.2831H7.27166C6.05275 21.2828 4.88387 20.7983 4.02208 19.9363C3.16029 19.0743 2.67616 17.9053 2.67616 16.6864V7.27142C2.67647 6.05251 3.1609 4.88363 4.02291 4.02184C4.88492 3.16005 6.05392 2.67592 7.27283 2.67592H16.6878C17.9067 2.67623 19.0756 3.16066 19.9374 4.02266C20.7992 4.88467 21.2833 6.05368 21.2833 7.27259V16.6876V16.6864Z"
              fill="black"/>
        <path d="M11.9794 5.95544C10.3827 5.95791 8.85215 6.59336 7.72325 7.72249C6.59434 8.85161 5.95919 10.3823 5.95703 11.9789C5.95888 13.576 6.59406 15.1072 7.72325 16.2366C8.85244 17.366 10.3835 18.0015 11.9805 18.0036C13.5778 18.0018 15.1091 17.3664 16.2386 16.237C17.368 15.1075 18.0033 13.5762 18.0052 11.9789C18.0027 10.3819 17.367 8.85098 16.2373 7.722C15.1077 6.59303 13.5764 5.95815 11.9794 5.95661V5.95544ZM11.9794 15.6609C11.0031 15.6609 10.0669 15.2731 9.37662 14.5829C8.68633 13.8926 8.29853 12.9563 8.29853 11.9801C8.29853 11.0039 8.68633 10.0677 9.37662 9.37737C10.0669 8.68708 11.0031 8.29928 11.9794 8.29928C12.9556 8.29928 13.8918 8.68708 14.5821 9.37737C15.2724 10.0677 15.6602 11.0039 15.6602 11.9801C15.6602 12.9563 15.2724 13.8926 14.5821 14.5829C13.8918 15.2731 12.9556 15.6609 11.9794 15.6609Z"
              fill="black"/>
        <path d="M18.0154 7.44407C18.8125 7.44407 19.4586 6.79794 19.4586 6.00091C19.4586 5.20387 18.8125 4.55774 18.0154 4.55774C17.2184 4.55774 16.5723 5.20387 16.5723 6.00091C16.5723 6.79794 17.2184 7.44407 18.0154 7.44407Z"
              fill="black"/>
    </symbol>

    <symbol id="telegram" viewBox="0 0 26 22">
        <path d="M25.179 2.39251L21.4822 19.8269C21.203 21.0571 20.4759 21.3634 19.4425 20.7841L13.8093 16.6331L11.0915 19.2476C10.7905 19.5486 10.5394 19.7998 9.9593 19.7998L10.3644 14.0633L20.804 4.62989C21.2582 4.22564 20.7052 4.00076 20.0988 4.40588L7.19255 12.5329L1.6363 10.7934C0.427922 10.4163 0.406048 9.58501 1.8883 9.00488L23.6207 0.63201C24.6269 0.254885 25.5072 0.855135 25.179 2.39251Z"
              fill="black"/>
    </symbol>

    <symbol id="twitter" viewBox="0 0 24 20">
        <path d="M23.3748 2.9534C22.5381 3.31434 21.6275 3.57411 20.6896 3.67528C21.6634 3.09678 22.3926 2.18286 22.7404 1.10497C21.8267 1.64853 20.8257 2.02969 19.7818 2.23153C19.3455 1.76512 18.8179 1.39355 18.2317 1.13999C17.6456 0.886423 17.0135 0.756291 16.3748 0.757702C13.7908 0.757702 11.7127 2.85223 11.7127 5.42254C11.7127 5.78348 11.7564 6.14442 11.8275 6.49169C7.9584 6.28934 4.50762 4.4409 2.21348 1.61083C1.79546 2.32481 1.5764 3.13777 1.5791 3.96512C1.5791 5.58387 2.40215 7.01122 3.65723 7.85067C2.91759 7.82154 2.19527 7.61824 1.54902 7.25731V7.31473C1.54902 9.58153 3.15137 11.46 5.28691 11.8921C4.88594 11.9962 4.47346 12.0495 4.05918 12.0507C3.75566 12.0507 3.46855 12.0206 3.17871 11.9796C3.76933 13.828 5.48926 15.1706 7.5373 15.2143C5.93496 16.4694 3.92793 17.2077 1.74863 17.2077C1.35762 17.2077 0.99668 17.194 0.62207 17.1503C2.68926 18.4764 5.14199 19.2421 7.7834 19.2421C16.3584 19.2421 21.0506 12.1382 21.0506 5.97215C21.0506 5.76981 21.0506 5.56747 21.0369 5.36512C21.9447 4.70067 22.7404 3.87762 23.3748 2.9534Z"
              fill="black"/>
    </symbol>

    <symbol id="youtube" viewBox="0 0 28 28">
        <path d="M27.4119 7.237C27.2493 6.65577 26.9394 6.12636 26.5122 5.70005C26.0849 5.27374 25.5549 4.96497 24.9733 4.80362C22.7902 4.22 14.0139 4.22 14.0139 4.22C14.0139 4.22 5.25429 4.206 3.04841 4.80362C2.46776 4.96567 1.93873 5.27477 1.51246 5.70105C1.08619 6.12732 0.777086 6.65635 0.615036 7.237C0.200461 9.47194 -0.00372401 11.7408 0.0051607 14.0139C0.00111549 16.276 0.205268 18.5337 0.615036 20.7584C0.77761 21.3393 1.0868 21.8688 1.51293 22.2958C1.93905 22.7228 2.4678 23.0332 3.04841 23.197C5.23153 23.7806 14.0139 23.7806 14.0139 23.7806C14.0139 23.7806 22.7683 23.7806 24.9733 23.197C25.5548 23.0339 26.0846 22.7239 26.5117 22.2968C26.9388 21.8697 27.2488 21.3399 27.4119 20.7584C27.8135 18.535 28.0095 16.274 27.9955 14.0139C28.0095 11.7389 27.8179 9.47437 27.4119 7.237ZM11.2104 18.2025V9.80687L18.5158 14.0139L11.2104 18.2025Z"
              fill="black"/>
    </symbol>

    <!--LOGIN-->
    <symbol id="google" viewBox="0 0 24 25">
        <path d="M23.7797 10.0221H12.2442V14.7633H18.8341C18.55 16.2959 17.6879 17.5921 16.3885 18.4606C15.2901 19.1949 13.8885 19.6291 12.2411 19.6291C9.05148 19.6291 6.3536 17.474 5.38938 14.5782C5.14673 13.8438 5.00625 13.0584 5.00625 12.2506C5.00625 11.4429 5.14673 10.6574 5.38938 9.92311C6.35679 7.03046 9.05468 4.87535 12.2442 4.87535C14.0418 4.87535 15.6541 5.49475 16.9248 6.708L20.4369 3.19276C18.3137 1.21325 15.5456 0 12.2442 0C7.45829 0 3.31728 2.74578 1.30265 6.7495C0.472529 8.40335 0 10.2743 0 12.2538C0 14.2333 0.472529 16.1011 1.30265 17.755C3.31728 21.7587 7.45829 24.5045 12.2442 24.5045C15.5519 24.5045 18.3233 23.4061 20.3475 21.5352C22.6622 19.4024 24 16.2607 24 12.5284C24 11.66 23.9234 10.8267 23.7797 10.0221Z"/>
    </symbol>
    <symbol id="fb_login" viewBox="0 0 24 24">
        <path d="M23.04 0H0.96C0.429 0 0 0.429 0 0.96V23.04C0 23.571 0.429 24 0.96 24H23.04C23.571 24 24 23.571 24 23.04V0.96C24 0.429 23.571 0 23.04 0ZM20.268 7.005H18.351C16.848 7.005 16.557 7.719 16.557 8.769V11.082H20.145L19.677 14.703H16.557V24H12.816V14.706H9.687V11.082H12.816V8.412C12.816 5.313 14.709 3.624 17.475 3.624C18.801 3.624 19.938 3.723 20.271 3.768V7.005H20.268Z"/>
    </symbol>
</svg>
