<?xml version="1.0" encoding="UTF-8"?> <svg xmlns="http://www.w3.org/2000/svg" width="391" height="41" viewBox="0 0 391 41" fill="none"> <path d="M14.697 13.7096C14.697 14.2978 15.177 14.7737 15.7702 14.7737C16.3635 14.7737 16.8434 14.2978 16.8434 13.7096C16.8434 13.1214 16.3635 12.6455 15.7702 12.6455C15.177 12.6455 14.697 13.1214 14.697 13.7096Z" fill="black"></path> <path d="M19.9083 25.8667L27.841 22.6538C27.841 28.7693 26.571 32.1034 20.3256 32.1034C14.4261 32.1034 10.0886 28.453 10.0886 20.567C10.0886 18.8822 10.3449 17.3422 10.8159 15.9737L8.18066 14.5609L11.0187 14.1677L9.51321 11.5016L12.4377 12.9174C13.2157 11.9036 14.1578 11.073 15.2369 10.4582C16.641 9.53011 18.9812 8.07291 20.433 7.6325L19.1123 9.24636C19.4552 9.21385 19.8039 9.19611 20.1557 9.19611C23.4975 9.19611 25.7214 10.4671 26.4458 12.7844H37.133C35.6306 5.3329 29.7876 0.145508 20.2124 0.145508C7.57848 0.148464 0.563965 8.53993 0.563965 20.57C0.563965 32.8217 7.52184 40.9914 20.2124 40.9914C33.0162 40.9914 38.081 32.0502 38.081 22.7779V17.5166H19.9083V25.8667Z" fill="black"></path> <path d="M75.7711 27.9357H74.6562L70.6496 11.9331H58.6835L54.6769 27.9357H53.565L50.5034 0.89624H40.7075L45.4952 40.2968H59.5182L64.0823 21.3148H65.1972L69.7583 40.2968H83.7277L88.5153 0.89624H78.8298L75.7711 27.9357Z" fill="black"></path> <path d="M102.818 0.89624L90.9087 40.2968H100.982L103.82 30.0875H117.178L120.073 40.2968H130.369L118.457 0.89624H102.818ZM106.047 22.033L109.275 10.6119H111.723L114.895 22.033H106.047Z" fill="black"></path> <path d="M169.547 13.6445C169.547 5.64322 164.149 0.89624 155.021 0.89624H135.596V40.2968H145.946V26.5022H154.183L159.137 40.2968H169.488L163.755 24.4597C167.487 22.3641 169.547 18.6102 169.547 13.6445ZM153.628 17.9481H145.949V9.83748H153.628C157.468 9.83748 158.97 11.2178 158.97 13.8662C158.973 16.4584 157.471 17.9481 153.628 17.9481Z" fill="black"></path> <path d="M185.952 0.89624L174.042 40.2968H184.116L186.954 30.0875H200.312L203.207 40.2968H213.503L201.591 0.89624H185.952ZM189.18 22.033L192.409 10.6119H194.856L198.028 22.033H189.18Z" fill="black"></path> <path d="M238.619 19.3847H237.504L227.321 0.89624H219.084V40.2968H223.982V6.527H225.094L235.444 25.2341H240.566L250.919 6.527H252.031V40.2968H256.929V0.89624H248.636L238.619 19.3847Z" fill="black"></path> <path d="M271.9 22.1424H290.154V17.6171H271.9V5.42154H294.551V0.89624H266.889V40.2968H295.442V35.7715H271.9V22.1424Z" fill="black"></path> <path d="M317.085 0.89624H302.224V40.2968H317.085C329.271 40.2968 335.451 32.4049 335.451 20.5965C335.448 8.73202 329.271 0.89624 317.085 0.89624ZM317.085 35.7715H307.235V5.42154H317.085C326.767 5.42154 330.386 12.3203 330.386 20.5965C330.386 28.8195 326.767 35.7715 317.085 35.7715Z" fill="black"></path> <path d="M348.723 0.89624H343.715V40.2968H348.723V0.89624Z" fill="black"></path> <path d="M377.067 0.89624H368.607L354.861 40.2968H359.983L364.103 28.2106H381.521L385.638 40.2968H390.87L377.067 0.89624ZM365.602 23.6883L371.669 5.97427H373.896L379.962 23.6883H365.602Z" fill="black"></path> </svg> 