<?xml version="1.0" encoding="UTF-8"?> <svg xmlns="http://www.w3.org/2000/svg" viewBox="0 0 281.02 280.94"> <g id="Layer_2" data-name="Layer 2"> <g id="Layer_1-2" data-name="Layer 1"> <path d="M179.91,168.63h11.36l-.11-.11v11h22.61v-11l-.1.1H225.1v10.92h11.07V157.27l22.61.1-.11-.1v11.2h11.1v11.27H258.88v22.65H247.44V191.32H236.5v11h11V213.5H258.6v11.15H281v22.53h-10.7v22.54H281v11.06H247.61V269.89h-45v-11H180.05v22H146.13c0-3.59,0-7.27,0-11L146,270h11.21V258.73h11.23V247.35H146.3V236.24H134.89V224.79H146V213.85H135v11H123.8v33.48H112.66V225.1H101.24v10.8h-11V213.65h33.35V202.5H135V191l-.11.11,11.35-.12v11.07h10.94v-11H146.14l.12-11.35-.11.11h11.36V168.52l-.1.1h11.35l-.1-.1v45.24h-11v22.07H180V168.52Zm56.36,67.52H214v11.32h11.06v10.82h33.46v-11H236.16V236h11.07V225.1h-11Zm-11.56-11.49V191.37h-33.3v33.29Zm-22.45,22.49V236.32H191.49v10.83Z"></path> <path d="M33.74,157.37V146.15H22.63V135H44.88v-11.3H56.05V112.54H89.86v10.9H101v11.18H90.2v33.8h33.31v11.46H135l-.11-.11v11.36L135,191H112.59v11.07H90.16V191.28h10.77V179.89H78.65V168.82H67.71v11H78.76v11.05H45.07V180H33.74V168.52l-.11.1h22.7V157.11H78.48V146H67.38v-11.2H78.44V123.84h-11v11H56V146.2H44.85v11.07H33.63Z"></path> <path d="M0,78.32V.11H78.42V78.32Zm67.28-67H11.48V67.11h55.8Z"></path> <path d="M202.64,78.3V0h78.3V78.3Zm11.25-11.25h55.79V11.25H213.89Z"></path> <path d="M.19,202.49H78.5v78.3H.19Zm11.26,11.25v55.79H67.24V213.74Z"></path> <path d="M123.76,67.35V56.15h33.49V45H146.47V33.71h10.78V.08H191V10.93H169V33.62h11l-.11-.1V44.7H191V89.76H168.66l.1.11q0-5.69-.11-11.35h11.06V56.34h-11V78.63H157.28V67.52H146.12V89.76H134.9l.11.1V67.25H123.66Z"></path> <path d="M225,112.37V101l-.11.11h11.19V90H281V101H270.14v11.41H258.69V101.31H247.75v11h11v11.22h11.06v11.16H281v11.29H270.16v11.33H258.67l.11.1V146.13H236.17V134.77h11V123.62h-11V112.26H224.92Z"></path> <path d="M112.52,33.51V44.57H90.14V.08h33.51V22.22h11V44.59H123.9v-11H112.41V22.55H101.47v11Z"></path> <path d="M168.66,89.76V101H191v11.15H180.09v11.41h-11.2v11.16h11v33.95l.11-.11H168.66l.1.1V146H157.41l.1.1V89.87h11.25Z"></path> <path d="M191.27,168.63V123.76h11.08V112.37H225l-.11-.11c0,3.79.07,7.57.11,11.36H214v11.15H225q0,5.67,0,11.36H202.71v11.33h11v11.16l.1-.1H191.16Z"></path> <path d="M112.51,146.11v-22.4h11.25V112.27l-.11.1H135V101l-.11.11H146V123.7H134.9v11.17l.11-.11H123.84V146H112.41Z"></path> <path d="M.2,90H22.25v10.94h-11v11.2H.2Z"></path> <path d="M78.52,90V100.8H45.17V90Z"></path> <path d="M134.89,269.79v11H112.7V269.9H135Z"></path> <path d="M100.89,280.94H90.19V258.8h10.7Z"></path> <path d="M101.37,78.35H90.13v-22h11.14V78.47A1.27,1.27,0,0,0,101.37,78.35Z"></path> <path d="M22.15,190.92H.14V180.13h22Z"></path> <path d="M146.26,168.62V146l-.11.1h11.36l-.1-.1v22.6l.1-.1H146.15Z"></path> <path d="M123.76,112.27H101.47V101.12h22.28l-.1-.11v11.36Z"></path> <path d="M146.26,146H135V134.76l-.11.11h11.25v11.25Z"></path> <path d="M11,146.33v10.79H.23V146.33Z"></path> <path d="M112.41,146v11.05h-11V146.11h11.06Z"></path> <path d="M22.51,123.35V112.6H33.43v10.75Z"></path> <path d="M225,101H214v-11h10.94v11.07Z"></path> <path d="M33.74,168.52h-11V157.37h11l-.11-.1v11.35Z"></path> <path d="M123.75,101.12V89.86H135l-.11-.1v11.36L135,101H123.65Z"></path> <path d="M135,179.88V168.62h11.25l-.11-.1v11.36l.11-.11H134.9Z"></path> <path d="M112.24,78.39V89.62H101.37V78.36s-.1.12-.1.11l11.09,0Z"></path> <path d="M10.9,134.66H.14V123.88H10.9Z"></path> <path d="M123.66,67.25V78.39H112.25l.11.1V67.35h11.4Z"></path> <path d="M180,33.62v-11h11V33.52H179.9Z"></path> <path d="M135,269.9v-11h11V270a1.06,1.06,0,0,1,.1-.12l-11.25-.13Z"></path> <path d="M135.13,10.84V.08H146V10.84Z"></path> <path d="M202.7,202.39h10.72v10.92H202.7Z"></path> <path d="M224.92,146h11.36v11.35H224.92Z"></path> <path d="M56,22.58V55.85H22.74V22.58Z"></path> <path d="M225.15,55.8V22.49h33.29V55.8Z"></path> <path d="M22.6,258.32V225H55.89v33.29Z"></path> <circle cx="230.6" cy="129.19" r="8.03"></circle> </g> </g> </svg> 