<?xml version="1.0" encoding="UTF-8"?> <svg xmlns="http://www.w3.org/2000/svg" viewBox="0 0 280.88 280.86"> <g id="Layer_2" data-name="Layer 2"> <g id="Layer_1-2" data-name="Layer 1"> <path d="M157.39,202.35V191.2h-11.2V179.75H134.78l.1.11v-22.3H112.15V168.5H67.28l.11.11v-11.2h11V146.27H67.6V134.86H78.39V123.72h-11V112.25l-.11.11h11V101h-11l.11.11V89.86H89.88l-.1-.11V135h11.45v10.8H135V134.64h11.18V112.49h11.17v22h22.26V89.74H168.52V78.51h11.06V67.58h-11v11H157.2V67.36H146V55.9h11.24V22.26h11.06V11.33h-11v11H145.89V33.7H134.73v11H101l.11.11V33.69H90.07V11.12h11.05L101,11v11h22.44V11.22h11.3V0h44.9V11H191v89.77h11.28V90h33.55V101H213.73v11.16H202.39V123.6H191.33v10.93h11v-11l22.58.13-.1-.11v11.2h-11v11.13h10.77v11.41H202.28l.1.11v-11H191v11l.1-.11H179.9v-11H168.73V168.5H157.52v11.17h11v11.21h11.18V180h56.17V168.61h11.49l-.1-.11v11.36h11.35l-.11-.11v22.61l.11-.11H236.35v11.36h22.28l-.11-.11v11.22H236.28V247h11V236.26h11.05v22.21H247.46v11h-11.3V258.68H225V236.3H202.46V247H179.93V213.7H168.77V202.24H157.29Zm67.2,22.38V191.32H191.38v33.41Zm-78.25-78.51V157h10.79V146.22Z"></path> <path d="M0,78.29V0H78.28V78.29ZM11.34,11.22V67H67.13V11.22Z"></path> <path d="M202.5,78.29V0h78.28V78.29Zm11.35-67.07V67h55.78V11.22Z"></path> <path d="M78.41,202.57v78.29H.13V202.57ZM11.34,213.73v55.79h55.8V213.73Z"></path> <path d="M157.27,236v11.17h11.25v11.44l.11-.11H157.28v11.36l.1-.11H134.94v11.09H90V258.73h11.12V247.26l-.1.11,11.33-.13v11.07h10.94v-11h-11V236.16h11.28V213.74h11.13v11.12h11.46l-.1-.11v11.36h11.35Z"></path> <path d="M11.14,157.36v-11.2H22.39v-33.9l-.1.11H33.51v11.08H55.8v11.31H45v11.17H55.86v11.18h-11V168.6H33.83v10.93h11v-11l22.61.12-.11-.11v11.36l.1-.11H56.17v11.1H0V180H11.14V168.5l-.11.11h11V157.25H11Z"></path> <path d="M134.78,179.75v11.19H112.41v33.65H101.29v-10.9H89.89V191l-.11.11h11.46V179.86h33.64Z"></path> <path d="M213.62,269.74h-22.4v11.08H157.38V269.75l-.1.11h11.35V258.5l-.11.11h45v11.24Z"></path> <path d="M89.88,89.86v-45h11.26l-.11-.11V56.19h11.36V67.36h-11V78.5h11c0,3.79-.09,7.57-.13,11.35l.11-.11H89.78Z"></path> <path d="M258.64,146.11V135.06h22.2V168.5H269.78l.1.11V146H258.53Z"></path> <path d="M247.38,168.61v-11.2H236.3V135h10.87v11.12h11.47l-.11-.11v22.61l.1-.11H247.28Z"></path> <path d="M22.39,112.26H11.19V101.21H.14V90.07H22.29v22.3Z"></path> <path d="M258.52,202.36h11.22v-11.1h11.05V213.5H258.52l.11.11V202.25Z"></path> <path d="M269.79,101.12h11v22.21H258.77V112.47h11.12V101Z"></path> <path d="M157.29,202.24q0,11.31,0,22.62l.11-.11H146l.1.11V202.35h11.26Z"></path> <path d="M258.75,280.8V270h22v10.8Z"></path> <path d="M269.89,101H247.61v-11h22.18v11.07Z"></path> <path d="M89.89,191H67.38V179.75l-.1.11h22.5v11.25Z"></path> <path d="M202.28,157.25v11H191.13v-11l-.1.11h11.35Z"></path> <path d="M67.39,112.25h-11V101.11h11l-.11-.11v11.36Z"></path> <path d="M269.78,168.5v11.25H258.52l.11.11V168.5l-.1.11h11.35Z"></path> <path d="M11.14,168.5H.09V157.36H11.14l-.11-.11v11.36Z"></path> <path d="M44.75,90.12v10.65H33.83V90.12Z"></path> <path d="M224.87,123.62v-11h11v10.93H224.77Z"></path> <path d="M157.27,224.86h11V236h-11l.11.11V224.75Z"></path> <path d="M280.88,235.89H270.1V225h10.78Z"></path> <path d="M101.14,247.26h-11v-11H101v11.07Z"></path> <path d="M270.14,247.38h10.65V258.3H270.14Z"></path> <path d="M101.12,11.12V.08h11V11H101Z"></path> <path d="M213.51,269.85h11.05v11H213.62V269.74Z"></path> <path d="M0,123.73H10.8v10.83H0Z"></path> <path d="M112.26,89.85h11.21V101h11.18v11.13h-11v11.2H101.39V112.44h11V89.74Z"></path> <path d="M134.78,67.25h11.35L146,89.85l.11-.11H134.78Z"></path> <path d="M146,89.85h11.05v11H146.12V89.74Z"></path> <path d="M112.28,78.61V67.25h11.35V78.61Z"></path> <path d="M123.53,67.36v-11h11.35v11Z"></path> <path d="M202.47,213.25v-10.7h10.9v10.7Z"></path> <path d="M22.56,22.38H55.78V55.79H22.56Z"></path> <path d="M258.31,55.89H225V22.6h33.28Z"></path> <path d="M55.91,225v33.28H22.56V225Z"></path> </g> </g> </svg> 