<?xml version="1.0" encoding="UTF-8"?> <svg xmlns="http://www.w3.org/2000/svg" viewBox="0 0 280.81 280.9"> <g id="Layer_2" data-name="Layer 2"> <g id="Layer_1-2" data-name="Layer 1"> <path d="M179.81,247.37V236.21h-22.5V224.78l-.11.1h22.3v-22.6H168.45l.11.1V180h22.5V168.53l-.11.1h33.91v11.25h11.19l-.1-.1v11H247.3v-11l-.1.11h11.22v22.32h22.29v78.62h-67v-33.3h-11.3V236.3H191.19v11H179.71Zm67.4,11.27V236.36h-11.3v11H225v11.17h22.31v11h22.13v-22h-11v11.1Zm-22.62-67.29H191.3v33.28h33.29Zm22.74,33.26h10.92V213.87H247.33Z"></path> <path d="M0,0H78.3V78.28H0ZM11.24,11.15V67.06H67V11.15Z"></path> <path d="M202.41,78.31V0H280.7V78.31Zm67.07-11.14V11.38H213.7V67.17Z"></path> <path d="M78.29,280.9H0V202.58H78.29Zm-67-67.15v55.79h55.8V213.75Z"></path> <path d="M112.19,236v22.29h11.18v-10.7h22.38v10.8H135v22.39H90V225h10.84v11.11H112.3Z"></path> <path d="M112.3,101H101.11v22.5H56l.1.1V112.45H89.52V101.21h-22V90h33.51V78.53l-.11.1H112.3V67.28l-.1.11h11.35l-.1-.11V78.63H134.8l-.1-.1v22.6l.1-.11H123.45l.1.11v-11H112.2v11Z"></path> <path d="M157.2,22.39l11.21-.13-.12-.1V33.38h22.44V78.52h-11l.1.11V67.38H168.44V55.92h11.12V45.05H157.15V56H146l.11.1V45H135V22.39h11.06l-.1-.11v11H157.3v-11Z"></path> <path d="M56,123.52v11.25H11l.1.1v-11.2H33.29V112.52H22.35V101.23H.06V90.09h55.7V101H45v22.65h11Z"></path> <path d="M247.31,146.12v-11.2h22.23V123.76H258.75V90.05h10.79V112.2h11.24V146H270v11.3h10.78v22.27h-11V168.71H258.68V146H247.21Z"></path> <path d="M101.06,78.53H90V56.13h10.81V45H90V33.78h33.33V44.69H112.2v22.7l.1-.11H101V78.63Z"></path> <path d="M134.71,191.14h22.4v11.24h11.45l-.11-.1v11.43H157.2v11.17l.11-.1H146.09v11.1H135v-22.2h10.75V202.52h-11V191Z"></path> <path d="M179.7,101.14H191l-.1-.11v11.21h11.11v11.16H190.94v11.47l.11-.1H179.57v-11H168.41v11H157.2l.11.1v-22.6l-.11.1h22.6V101Z"></path> <path d="M112.3,236.15V213.68H90v-22.3h11V202.2h22.3V236h-11Z"></path> <path d="M134.82,191H112.5V168.72h10.82V157.58H145.8v10.83H134.71v22.73Z"></path> <path d="M101.21,157.51V146.27H67.51V135h55.68V146H112.4v11.44H101.09Z"></path> <path d="M179.71,247.27v11.22H202v11.05H157.5V258.72h10.82V247.37h11.49Z"></path> <path d="M11,134.77v56H0V134.87H11.06Z"></path> <path d="M191.06,168.53H157.31V146l-.11.1h11.45v11.25h22.4l-.1-.1v11.35Z"></path> <path d="M44.81,168.63V157.41H22.45v-11H55.94v22.26l.11-.1H44.7Z"></path> <path d="M157.31,146H135V123.79h10.82v11.09h11.49l-.11-.1v11.35Z"></path> <path d="M224.93,123.37H213.81V90.13h11c0,11.05,0,22.2,0,33.36A1.31,1.31,0,0,0,224.93,123.37Z"></path> <path d="M146.05,22.39V11.17H135V.12H157.2V22.39l.1-.11H146Z"></path> <path d="M190.94,134.88h22.5v11.25l.11-.1H202.12v11.25H191l.1.1v-22.6Z"></path> <path d="M157.31,112.28H134.8V101l-.1.11h11.43v-11H157.2v22.26Z"></path> <path d="M247.21,146q0,16.93,0,33.87l.1-.11H236l.1.1V146l-.1.11,11.36,0Z"></path> <path d="M67.31,168.62V157.5H101.2l-.11-.1v11.12H67.21Z"></path> <path d="M123.55,67.39V56.13h22.51L146,56v22.5H134.7l.1.1V67.28H123.45Z"></path> <path d="M55.94,179.78v11H33.75V168.63H44.81l-.11-.1v11.35H56.05Z"></path> <path d="M123.45,101v22.29H112.3V101l-.1.11h11.35Z"></path> <path d="M112.4,22.14V.09h10.88V22.14Z"></path> <path d="M235.94,123.54q0,11.29,0,22.6l.1-.11H224.7l.11.1q.06-11.37.11-22.75a1,1,0,0,1-.1.11l11.22.16Z"></path> <path d="M179.7,78.52v22.62l.1-.11H168.44V78.53l11.36.1Z"></path> <path d="M67.21,168.52q0,5.67,0,11.36l.1-.11H55.94l.11.1V168.53l-.11.1H67.31Z"></path> <path d="M236,123.65V112.6h11v10.94H235.94Z"></path> <path d="M213.44,146.13h11.37l-.11-.1v11H213.55V146Z"></path> <path d="M179.69,11V22.16H168.3l.11.1V11.15H179.8Z"></path> <path d="M89.89,22V11.32h10.9V22Z"></path> <path d="M179.8,11.15V.1h10.95V11H179.69Z"></path> <path d="M191,101.15V90.1h11V101H190.94Z"></path> <path d="M236.29,90H247v10.91H236.29Z"></path> <path d="M67.19,179.88h11v11H67.29V179.77Z"></path> <path d="M202.42,213.32V202.53H213.2v10.79Z"></path> <path d="M22.4,55.9V22.58H55.79V55.9Z"></path> <path d="M258.24,55.91H225V22.63h33.29Z"></path> <path d="M22.44,258.36V225.12H55.75v33.24Z"></path> <path d="M168.55,67.28V78.63h-11V67.28Z"></path> </g> </g> </svg> 