<?xml version="1.0" encoding="UTF-8"?> <svg xmlns="http://www.w3.org/2000/svg" viewBox="0 0 280.84 280.87"> <g id="Layer_2" data-name="Layer 2"> <g id="Layer_1-2" data-name="Layer 1"> <path d="M157.36,101.1V90H236v11l.11-.1H224.75v11.35l.11-.1H202.13v-11H191v11.22H180v11.16h11.11c0,7.76,0,15.11,0,22.46l-11.35,0V135.05H168.83V146h11.05v33.52H191V146h11.47V123.75h11.16v11.1h11.22l-.11-.1v22.62H258.6l-.11-.11v11.19H225V179.7h10.87v22.65h11.46l-.11-.11v11.46h-11v11.14h11.19v11.26h22.42l-.11-.1V247.2h11.09v11.17h-22.1V247.56H236v22.29l.11-.11h-33.7v11.11H180v-22H168.68v21.95H146v-11H157V258.82h-11v11H123.62v11H112.46V270h-11.3v10.72H90V247.42h10.84V236.29h11.3v10.83h11.29v11.22h11V236.12H123.74V225H146V213.74h11V236H146.24v11h22.22V213.68h11V191.3H157.44V202H146c0-7.36,0-14.81,0-22.25h11.06V168.82h-11v11H112.22c0-7.65,0-15.06,0-22.48l-.1.12h11.23v10.78h11.23v-22H123.82V135H146v22h11.41V123.49l-.11.11H168.3V101H157.25Zm67.17,123.53V191.35H191.24v33.28Zm-10.89,11.66H191.32v11.1h11v10.92h22.19v-11.1H213.64Zm-.29-56.66V157.54H202.56v22.09Z"></path> <path d="M89.86,101.09V44.89H112.1V22.48h-22V0h10.81V11h22.73V22h10.93V11.09h-11V.05h22.44v11h11.42l-.11-.11V33.46h11.11V55.75h-11V44.93H146.24V33.79H123.77V44.61h11.1V67.33l-11.23-.13v-11H101.29V89.52h11.23V67.08h11.22V78.25h11v-11h11V89.69H123.49v22.65l.11-.11H101l.1.11V101H89.75Z"></path> <path d="M67.34,179.72H22.25l.11.1V168.64H0V157.39H22.1V123.81H44.87c0,3.64,0,7.33,0,11H33.8v10.94h11v-11H78.28V123.59H67.5V112.45H78.62V101l-.1.11H89.86l-.11-.1v11.35h11.36l-.1-.11c0,3.78.07,7.57.11,11.35H90.05v10.94h11V123.47h11.13c0,11.52,0,22.77,0,34l.1-.11L101,157.23l.1.11v-11H89.75v11l.1-.11H78.5l.1.11v-11H67.25v11l.1-.11H33.82v11.35H67.35l-.11-.1q0,5.67,0,11.34Z"></path> <path d="M78.29,78.37H0V.08H78.3ZM67,67.12V11.33H11.27V67.11Z"></path> <path d="M202.47,78.35V.06h78.36V78.36Zm67.07-11.21V11.36H213.77V67.14Z"></path> <path d="M.06,202.44H78.34v78.28H.06ZM67,269.65V213.73H11.27v55.92Z"></path> <path d="M33.6,101H22.38v11.19H11.22v33.63H0V90.07H33.49v11Z"></path> <path d="M258.49,112.26v11.16H247.38v11.33H224.75l.11.1v-22.6l-.11.1h11.36V101l-.11.1h11.17v11.27H258.6Z"></path> <path d="M258.6,112.37V90.07h22.23v33.29H270V112.27H258.49Z"></path> <path d="M258.6,157.37V146.15h11.07V135.1h11.14v33.25H270V157.27H258.49Z"></path> <path d="M101.09,202.23H89.85v-45l-.1.11H101.1l-.1-.11q0,22.56,0,45.1Z"></path> <path d="M101,202.33H112v22.24H90V213.7h11.1V202.23Z"></path> <path d="M157.36,123.49H146.31v-22.4h11l-.11-.11V123.6Z"></path> <path d="M269.75,191.11h11V213.5H269.74l.11.11V191Z"></path> <path d="M78.62,101H56.34V90H78.52V101.1Z"></path> <path d="M190.84,78.47H180.09V56.3h10.75Z"></path> <path d="M190.78,44.65H180V22.49h10.75Z"></path> <path d="M22.25,179.72v11.05H.05V179.82H22.36Z"></path> <path d="M78.5,157.23v11.26H67.24l.11.1V157.23l-.1.11H78.6Z"></path> <path d="M67.23,179.83h11v11H67.34V179.72Z"></path> <path d="M258.61,191.11v-11h11.14v11l.1-.11H258.5Z"></path> <path d="M247.35,202.36V191.1h11.26l-.11-.11v11.25H247.24Z"></path> <path d="M123.49,112.34h11v11H123.6V112.23Z"></path> <path d="M33.49,101.08h11v11H33.6V101Z"></path> <path d="M123.71,213.34V202.56h10.85v10.78Z"></path> <path d="M157.49,78.33V67.57h10.83V78.34Z"></path> <path d="M269.74,213.5v11.36l.11-.11h-11V213.61h11Z"></path> <path d="M269.74,224.86h11V236h-11l.11.1V224.75Z"></path> <path d="M157.36,11.11V.07h11V11H157.25Z"></path> <path d="M236,269.85H247v11H236.08V269.74Z"></path> <path d="M280.79,280.87H270V270.08H280.8Z"></path> <path d="M213.48,202.53v10.72H202.56V202.53Z"></path> <path d="M22.5,55.81V22.57H55.81V55.81Z"></path> <path d="M258.4,22.57V55.86H225.11V22.57Z"></path> <path d="M22.47,258.28V225H55.76v33.31Z"></path> </g> </g> </svg> 