<?xml version="1.0" encoding="UTF-8"?> <svg xmlns="http://www.w3.org/2000/svg" viewBox="0 0 280.98 280.96"> <g id="Layer_2" data-name="Layer 2"> <g id="Layer_1-2" data-name="Layer 1"> <path d="M236.2,269.84H213.76V247.43H202.49v-11H179.83v22.28l.11-.1H157.46V281h-44.8V270h22.15V258.77h11.11V247.58h-11V236.09l-.11.1h33.76V213.58h11V191.17h-11V157.25H157.25v-45H146.09l.11.1V101.18H135.09V67.63H146V89.79h11.29v11H168.6V90h11.15v22.25H202.2v11.16H191.09v22.72l.11-.1-11.35.12V135.1H168.92v11h11v11.35H191.2l-.1-.1v11.25h45.11v33.87h11.25l-.11-.1v11.22h-11v11.17h44.56V281H270.09V247.34H258.61l.1.11v-11H247.36v11l.1-.11h-11.2v-11H225.08v22.12h11V270Zm-44.87-45.17h33.33V191.4H191.33Z"></path> <path d="M67.58,146.28V135h44.86V123.54l-.11.11h11.36V112.29l-.11.11H146.2l-.11-.1v11.48H134.76v11.16H123.88v78.64h11.06l-.11,22.62.11-.1H123.76v22.49H101.09l.1.11V236.23h11V225.08H90v-33.9H67.57V180H101.2V168.57l-.11.11h11v-22.5H67.46Zm44.6,55.93V191.35H101.39v10.86Z"></path> <path d="M78.46.06V78.38H.16V.06ZM11.38,11.22V67h55.8V11.22Z"></path> <path d="M0,280.89V202.58h78.3v78.31Zm11.36-67.1V269.6H67.17V213.79Z"></path> <path d="M280.9,78.41H202.6V.1h78.3Zm-67-67.19V67h55.79V11.22Z"></path> <path d="M67.41,157.3H56.2v11.19H45v22.39H22.56v-22.1H33.37V146.23H22.53v-11.3H.06V123.76H11V112.54H33.45v11h11.3v11.17h11.3v11.58H67.58l-.12-.11-.15,11.23Z"></path> <path d="M134.94,44.76H123.77V78.52H112.33l.1.11V67.27H101.08l.11.1V56l-.11.1h11V33.51h-11l.11.1V22.39h22.24V11.22H101.38V0H134.7V11.12h22.74l-.11-.11V22.36l.11-.11H134.83V44.87Z"></path> <path d="M225,123.66h-11V101.21h10.84V90.08h22.54v10.83h22.55v11.3h11.05v33.84h-11l.11.11V123.44H258.56V112.57H247.29V134.8H224.85l.11.1-.12-11.35h11.07V112.61H225Z"></path> <path d="M179.83,258.69h22.3v22.22H179.94V258.59Z"></path> <path d="M269.86,146.05v11.2H281v22.43H270.08V168.56H258.61l.1.11V146.16H270Z"></path> <path d="M0,190.83v-44.5H10.93v44.5Z"></path> <path d="M101.19,101.14V78.53l-.11.1h11.35l-.1-.11V89.71h11.25V112.4l.11-.11H112.33l.1.1V101H101.08Z"></path> <path d="M202.46,146.15V134.9H225l-.11-.1v22.32H213.51V146.05H202.35Z"></path> <path d="M56.18,101.13v-11H90V101l.1-.12-34,.14Z"></path> <path d="M157.33,33.51V55.8H134.94v-11l-.11.11h11.44V33.61h11.17Z"></path> <path d="M180.18,45h10.75V78.38H180.18Z"></path> <path d="M258.61,168.56v33.77H247.35l.11.1q0-16.94-.1-33.87l11.35.11Z"></path> <path d="M89.67,112.17v11.25h-22V112.27H89.79Z"></path> <path d="M101.09,258.58v22.3h-11V258.69h11.06Z"></path> <path d="M101.19,56h-11V33.61h11l-.11-.1V56.12Z"></path> <path d="M22.21,90.11v10.76H0V90.11Z"></path> <path d="M191.09,146.15h11.37l-.11-.1v11.26H191.1l.1.1V146.05Z"></path> <path d="M67.31,157.4h11v11H67.42c0-3.7,0-7.38,0-11.06Z"></path> <path d="M101.2,168.57h-11v-11h10.94v11.06Z"></path> <path d="M101.18,112.28l-11.51-.11.12.1c.08-3.8.17-7.59.26-11.39L90,101l11.24.14-.11-.11v11.36Z"></path> <path d="M101.19,78.53h-11V67.37h11l-.11-.1V78.63Z"></path> <path d="M168.58,67.56V78.28H157.66V67.56Z"></path> <path d="M157.44,11.12V.07h10.95V11H157.33Z"></path> <path d="M270.06,213.34V202.6H281v10.74Z"></path> <path d="M56.08,101v11h-11V101.13H56.18Z"></path> <path d="M258.61,247.34v11H247.46v-11l-.1.11h11.35Z"></path> <path d="M157.33,22.36h11V33.51h-11l.11.1V22.25Z"></path> <path d="M112.44,123.54H101.18V112.28l-.1.11h11.35l-.1-.1v11.36Z"></path> <path d="M236.09,270h11v11H236.2V269.84Z"></path> <path d="M168.7,191.07v22.61H134.83V202.51h22.63V191.08l-.11.1Z"></path> <path d="M157.46,191.08H135.15V168.84H146v10.87h11.32v11.47Z"></path> <path d="M146,146.39v10.75H135.07V146.39Z"></path> <path d="M247.46,168.67H236.1v-11h11.36Z"></path> <path d="M213.39,213.46H202.6V202.67h10.79Z"></path> <path d="M56,22.57v33.3H22.66V22.57Z"></path> <path d="M22.57,225.05H55.85v33.36H22.57Z"></path> <path d="M225.2,22.44h33.23V55.87H225.2Z"></path> </g> </g> </svg> 