<?xml version="1.0" encoding="UTF-8"?> <svg xmlns="http://www.w3.org/2000/svg" viewBox="0 0 280.81 280.92"> <g id="Layer_2" data-name="Layer 2"> <g id="Layer_1-2" data-name="Layer 1"> <path d="M236.1,269.78H213.7V247.27H202.26l.1.11v-11H179.92v22.09H168.63v22.47H146.34v-11H157.1V236.26H134.86V213.54l-.11.1h11.46v11h11.13V213.49h22.19V191H157.25l.1.1V179.66h11V168.5H157.24V157.29H168.6V146l-.1.1,11.36-.1v22.32h33.81V157.28h11.18v11.36H236.1l-.1-.1v33.9h11v11.27H236.28V225h11v22.42l.1-.1L236,247.4V236.34H225.07v10.95h11.05l-.12,22.6Zm-44.78-78.53v33.29H224.6V191.25Z"></path> <path d="M67.35,134.78H56.13v33.69H45v11.31H33.64v11H22.47V168.9H11.16v22H.1V112.4h11l-.1-.11v11.35H22.35l-.1-.1c0,3.78.07,7.56.11,11.35h-11V146h11v11H33.5V146H44.85V112.29l-.1.11,33.71-.13-.12-.11.15,11.48.11-.1H67.25v11.35Z"></path> <path d="M280.79,78.42H202.5V.13h78.29ZM269.53,67.18V11.4H213.76V67.18Z"></path> <path d="M78.29,280.92H0V202.64H78.29Zm-67-67.17v55.79H67.1V213.75Z"></path> <path d="M.07,0H78.35V78.28H.07ZM67.14,11.36H11.35V67.13H67.14Z"></path> <path d="M112.51,213.76V202.53H89.92v-11.4H56.24V180H78.31V168.71H67.59V157.4H89.85l-.1-.11v11.25h11.36v22.28h11.14V168.53H123.7V157.29h22.41v11.46H134.69v11.14H123.82v11.25h33.53l-.1-.1v11.43h-22.5v11.17l.11-.1-22.47.12Z"></path> <path d="M269.74,101.05l.12,11.33H247.55v10.94h22.21v-11h11V146H269.75l.1.11V134.79h-45.1l.11.1V123.71H213.62V101l-.11.11h56.33Z"></path> <path d="M269.75,202.4h11.06v78.48H270v-11.1H247.25l.1.11v-22.6l-.1.1h11.4V213.46h11.2V202.29Z"></path> <path d="M101.11,146.14V134.78H78.5l.1.11V123.54l-.11.1h33.87V112.29l-.11.1h22.6l-.1-.1v11.45H146.1v22.41H123.38V135H112.22v11H101Z"></path> <path d="M168.5,89.9h22.29V101H180v11.14h11v11.46l.11-.1H179.85V134.9H168.5v11.24l.1-.1-11.35.11V123.48h11V112.29H134.75l.1.1V101l-.1.1H168.6V89.79Z"></path> <path d="M269.75,146v11.16h11.06V179.9H269.76V168.84H258.82v10.95h11.05l-.12,22.61.1-.11H258.37V191H247.21V168.54H236l.1.1L236,157.29h22.68V146.14h11.18Z"></path> <path d="M134.86,44.89V22.46h22.38V0h11V33.46H157.53V44.74h10.74V56H146l.1.11V44.79H134.75Z"></path> <path d="M112.36,112.29H101.12V89.79l-.11.11h11.36V56l-.11.11H123.6l-.1-.11v22.6h11.35l-.1-.1v22.6l.1-.1h-22.6v11.35Z"></path> <path d="M101.19,280.92H90.06V258.65h22.11V236.39h11.12v33.37h-22.1Z"></path> <path d="M146,78.65h11.17V67.57H168.5V89.9l.1-.11H146.1V78.54Z"></path> <path d="M11.1,112.4V101.17H0v-11H22.24v22.26l.11-.1H11Z"></path> <path d="M123.49,11.05V33.34h-11V22.52H101.12V11l-.11.11h22.58Z"></path> <path d="M33.61,112.39V90.09H55.84v10.82H44.75V112.4l.1-.11H33.5Z"></path> <path d="M180.08,270h22v10.79h-22Z"></path> <path d="M101.12,89.79H90.06V67.59h11V89.9Z"></path> <path d="M146,56V78.65l.1-.11H134.75l.1.1V56l-.1.1H146.1Z"></path> <path d="M101,224.8v22.26H90.05V224.9h11Z"></path> <path d="M123.59,11.15V.1H145.8v11H123.49Z"></path> <path d="M202.25,134.9h22.61l-.11-.1c0,3.78.07,7.57.1,11.36h-22.6l.1-11.36Z"></path> <path d="M78.5,134.78v11H67.35v-11l-.1.11H78.6Z"></path> <path d="M89.85,157.4V146.14h11.26L101,146c0,3.78.07,7.56.11,11.35l-11.36-.1Z"></path> <path d="M191,123.64h11.26V134.9l.1-.11-11.36.1q.06-5.69.11-11.35Z"></path> <path d="M22.24,112.39H33.61l-.11-.1v11.25H22.25l.1.1V112.29Z"></path> <path d="M78.51,101.15h11v11H78.35l.11.1q.08-5.62.16-11.23Z"></path> <path d="M269.84,101.15v-11h11v10.94H269.74Z"></path> <path d="M213.62,101H202.57v-11h10.94v11.06Z"></path> <path d="M78.62,101H67.57v-11H78.51v11.06Z"></path> <path d="M191,67.56V78.3H180.06V67.56Z"></path> <path d="M190.92,45.13V55.86H180V45.13Z"></path> <path d="M101.1,224.9V213.75h11.4l-.11-.1V224.8H101Z"></path> <path d="M123.6,56.15V44.89h11.26l-.11-.1V56.14l.1-.1H123.5Z"></path> <path d="M112.37,56H101.32V45.09h10.94V56.15Z"></path> <path d="M135,247.51h10.76v10.83H135Z"></path> <path d="M202.26,247.27v11h-11V247.38h11.06Z"></path> <path d="M180,22.51h10.76V33.34H180Z"></path> <path d="M101.12,11H90.07V.09H101V11.15Z"></path> <path d="M247.25,269.78v11H236.1v-11l-.1.11h11.35Z"></path> <path d="M213.38,202.6v10.79H202.6V202.6Z"></path> <circle cx="151.68" cy="151.71" r="8.03"></circle> <circle cx="185.43" cy="140.46" r="8.03"></circle> <path d="M191,146h11.35v11H191Z"></path> <path d="M224.75,146H236.1v11.35H224.75Z"></path> <path d="M22.25,146.14V134.79H33.6v11.35Z"></path> <path d="M258.29,55.92H225V22.64h33.29Z"></path> <path d="M22.57,225H55.85v33.29H22.57Z"></path> <path d="M22.47,55.82V22.54H55.75V55.82Z"></path> <path d="M101,168.64V157.29h11.35v11.35Z"></path> </g> </g> </svg> 