<?xml version="1.0" encoding="UTF-8"?> <svg xmlns="http://www.w3.org/2000/svg" width="34" height="21" viewBox="0 0 34 21" fill="none"> <path d="M10.0826 20L1 10.5L3.6801 7.69672L6.44954 10.5L13.1101 17.2419L10.0826 20Z" fill="#282842"></path> <path d="M1 10.5L0.638595 10.1545L0.308253 10.5L0.638595 10.8455L1 10.5ZM10.0826 20L9.72116 20.3455L10.0585 20.6983L10.4193 20.3696L10.0826 20ZM13.1101 17.2419L13.4468 17.6116L13.8317 17.2609L13.4658 16.8905L13.1101 17.2419ZM0.638595 10.8455L9.72116 20.3455L10.444 19.6545L1.3614 10.1545L0.638595 10.8455ZM1 11L6.44954 11L6.44954 10L1 10L1 11ZM6.44954 11L34 11L34 10L6.44954 10L6.44954 11ZM6.09385 10.8514L12.7544 17.5933L13.4658 16.8905L6.80523 10.1486L6.09385 10.8514ZM12.7734 16.8723L9.74585 19.6304L10.4193 20.3696L13.4468 17.6116L12.7734 16.8723ZM9.72116 0.654475L3.3187 7.3512L4.04151 8.04224L10.444 1.34552L9.72116 0.654475ZM3.3187 7.3512L0.638595 10.1545L1.3614 10.8455L4.04151 8.04224L3.3187 7.3512ZM6.80523 10.1486L4.0358 7.34532L3.32441 8.04812L6.09385 10.8514L6.80523 10.1486Z" fill="#282842"></path> </svg> 