<?xml version="1.0" encoding="UTF-8"?> <svg xmlns="http://www.w3.org/2000/svg" viewBox="0 0 280.85 280.99"> <g id="Layer_2" data-name="Layer 2"> <g id="Layer_1-2" data-name="Layer 1"> <path d="M101,33.62h11.21V44.68h11.16V78.49h11.46V90h22.26v11.16H146.38v11.3h11v22.07h22.21V89.73H168.52V78.51h11.06V67.58h-11v11H157.15V67.51H146V78.6H134.77V33.81H146V55.76h11.32V22.26h11.06V11.33h-11v11H146.32V0h33.34V11h11.28v89.78h11.29V90h33.55V101H213.73v11.16H202.39v11.48H191.33v10.94h11v-11l22.59.13-.11-.11V134.7h-11v11.14h10.77v11.41H202.28l.1.11v-11H191v11l.1-.11H179.94v-11H168.67V157H157.4V146.18H146.26V135.06H134.89v44.78H123.42v11.32H112.56V202h22.23v-22.3l11.34.12-.1-.11v11.36h11.35l-.1-.11v11h11.35V191l-.1.11h11.22V179.94H235.9V168.61h11.48l-.1-.11v11.36h11.35l-.11-.11.12,22.59H236.33v10.95h22.21v-11h11.22v-11h11v44.56H269.94V225.08H236.32v22h10.86V236.29h11.21v22.12h-11v11.21H236.21v-10.9H225v-22.4H202.49V247H179.94V213.77H146.28v10.77H135V213.85H112.27v11l.1-.11H101.18v-11h-11v-22.5h11V179.75l-.11.11h11.45V168.34h10.91V146H112.21V134.75H101l.1.11V123.37h22.25V89.71H112.16V56.26H101V89.75H89.78l.11.1V45h11.26V33.51Zm123.53,191V191.35H191.28v33.29Z"></path> <path d="M78.41.06v78.3H.13V.06ZM67.07,67.13V11.35H11.28V67.13Z"></path> <path d="M202.5,78.29V0h78.29V78.29Zm11.35-67.07V67h55.78V11.22Z"></path> <path d="M0,280.79V202.5H78.28v78.29Zm67.19-67H11.27v55.74H67.19Z"></path> <path d="M123.52,247.25v11.21h-11v11.16h10.79v11.22H90V258.7h10.84V247.42H90.12V236.11h22.26l-.1-.11v11.36h11.35Z"></path> <path d="M213.62,269.74H191.16v11.11H168.75v-11H157.53v-11h56v11Z"></path> <path d="M33.52,101v22.3H11.22V101.24H.08V90H22.15v11.11H33.63Z"></path> <path d="M89.89,157.35V146.14H56.29V135H78.64V123.5l-.11.11H90v11.25h11.17l-.1-.11v22.5H89.78Z"></path> <path d="M101.15,33.51H90.08V11.19h22.07V.05h11.23V22.13H101V33.62Z"></path> <path d="M33.62,179.74H22.43v11.1H0V180H11.15V168.51l-.11.11H33.63l-.11-.11v11.34Z"></path> <path d="M247.38,168.61v-11.2H236.3V135h10.87v11.12h11.46l-.1-.11v22.61l.1-.11H247.28Z"></path> <path d="M258.63,146.11V135.06h22.21V168.5H269.78l.1.11V146H258.53Z"></path> <path d="M67.39,101.1V89.85h22.5l-.11-.1v22.5H78.53l.1.11V101H67.28Z"></path> <path d="M269.79,101.12h11v22.21H258.77V112.47H269.9V101Z"></path> <path d="M146.13,179.86V168.81h22.4v22.3l.1-.11H157.28l.1.11V179.75H146Z"></path> <path d="M89.88,168.5H56.35V157.35H89.89l-.11-.1v11.36Z"></path> <path d="M280.85,281h-22V270.07h22Z"></path> <path d="M269.9,101H247.61v-11h22.18v11.07Z"></path> <path d="M33.76,157.1H22.51v-22H33.66c0,7.29,0,14.7,0,22.11Z"></path> <path d="M33.52,179.85H55.8v11H33.62V179.74Z"></path> <path d="M10.93,135.08v10.76H.14V135.08Z"></path> <path d="M101.14,179.75H89.88V168.5l-.1.11H101v11.25Z"></path> <path d="M269.78,168.5v11.25H258.52l.11.11V168.5l-.1.11h11.35Z"></path> <path d="M202.28,157.25v11H191.13v-11l-.1.11h11.35Z"></path> <path d="M78.33,190.88H67.52V180.09H78.33Z"></path> <path d="M224.88,123.62v-11h11v10.93H224.77Z"></path> <path d="M78.64,123.5H67.39V112.25l-.11.11H78.63l-.1-.11v11.36Z"></path> <path d="M33.63,168.62l.12-11.52a.52.52,0,0,1-.1.11h11v11.3H33.52Z"></path> <path d="M67.39,112.25h-11V101.1h11l-.11-.1v11.36Z"></path> <path d="M112.27,224.85h11.25V236.1l.11-.1H112.28l.1.11q0-5.69,0-11.37Z"></path> <path d="M123.52,236.1h11v11.15h-11l.11.11V236Z"></path> <path d="M33.63,101.12v-11H44.58V101H33.52Z"></path> <path d="M280.8,258.41H270.05V247.49H280.8Z"></path> <path d="M134.91,280.83V270.09h10.92v10.74Z"></path> <path d="M213.52,269.85h11V280.8H213.62V269.74Z"></path> <path d="M11.15,168.51H.1v-11H11v11.07Z"></path> <path d="M112.13,112.14H101.35V101.29h10.78Z"></path> <path d="M202.51,213.3V202.49h10.78V213.3Z"></path> <path d="M55.9,22.55V55.87H22.61V22.55Z"></path> <path d="M258.32,55.88H225V22.6h33.3Z"></path> <path d="M55.82,258.39H22.53V225.1H55.82Z"></path> </g> </g> </svg> 