<?xml version="1.0" encoding="UTF-8"?> <svg xmlns="http://www.w3.org/2000/svg" viewBox="0 0 280.86 280.92"> <g id="Layer_2" data-name="Layer 2"> <g id="Layer_1-2" data-name="Layer 1"> <path d="M134.84,202.4l-22.59-.13.11.11V180h22.3V168.64H146.1l-.1-.11v11h22.6V146l-.1.11,11.36-.1v22.32h33.81V157.28h11.18v11.36H236.1l-.11-.1v33.64h11.07v11.26H236.35V224.7h10.89v22.69l.11-.11L236,247.4V236.34H225.07v10.95h11l-.11,22.6.1-.11H213.69V247.27H202.25l.11.11v-11H179.94v21.95H168.66V247.55H157.51v33.26h-33.9V247.29l-.11.1,11.34-.12v11.07h10.94v-11H134.73l.12-11.35-.1.11h11V213.53h-11l.11.11-.12-11.34,22.48.13v11h22.35v-22H168.35v11.19H157.13V191.37H134.84Zm89.7,22.27V191.38h-33.3v33.29Zm-56.26,11.25V225.13H157.5v10.79Z"></path> <path d="M202.56,0h78.29V78.29H202.56Zm11.26,11.24V67H269.6V11.25Z"></path> <path d="M78.28,280.92H0V202.64H78.28ZM67.13,213.85H11.34v55.79H67.13Z"></path> <path d="M.07,0H78.35V78.28H.07ZM11.31,11.26V67H67.1V11.26Z"></path> <path d="M67.24,101.05v11.16H78.49v11.43l.11-.11h-11v11.36h11l-.1-.11v11.36l.1-.11H67.36v11.36H56v11.25l.1-.11H33.49V157.3H44.55V146.36h-11v11l-11.34-.13.11.11V135H33.3V123.52H11l.11.11V112.29l-.1.11,33.83-.13v11.07H55.78v-11H44.73V101.19h-11V90H55.88v11.14H67.34Z"></path> <path d="M146,22.27h11.22V0h11V33.49H157.51V44.65H168.3V56H134.87v11.3l.1-.12-11.47.15.1.11V56H112.25l.11.11V33.54l-.1.11h11V11.22H90.09V.08h44.56V10.9h11.46V22.38H135.05V44.56H146Z"></path> <path d="M269.75,112.27H280.8V146H269.75l.1.11V134.78h-45.1l.11.11V123.71H213.61V101l-.1.11h56.33l-.1-.1.12,11.33H247.55v10.94h22.2Z"></path> <path d="M247.24,247.39h11.2V225.06h22.42V280.9H270V269.78h-22.7l.1.11V247.28Z"></path> <path d="M123.61,247.29H112.39V269.7H101.23v11.14H90V258.77h10.8v-11.3H90.09V225.09h10.82v10.7h11.3V225h11.16V213.64h11.49l-.11-.11v22.61l.1-.11H123.5v11.36Z"></path> <path d="M269.86,179.79q-.06,11.29-.13,22.59l.11-.11H258.63V191.21H247.47V168.54H236l.11.1L236,157.29h22.67V146.14h11.19l-.1-.11v11.16h11.06V179.9H269.76V168.84H258.82v10.95Z"></path> <path d="M168.5,89.89h22.28V101H180v11.14h11v11.46l.11-.11H179.85v11.36H168.5v11.25l.1-.11H157.25l.11.11V123.75H168.3V112.27H146l.11.11V101l-.11.1h22.6V89.78Z"></path> <path d="M89.75,134.89h33.53v33.64H101l.1.11Q101,163,101,157.3h11.06V146.36h-11v11H78.49c0-3.79.07-7.57.11-11.36l-.1.11H89.85V134.78Z"></path> <path d="M101.22,202.13H90v-10.9H67.36V179.79l-.11.1H78.5V168.53l22.6.11-.1-.11.12,33.72Z"></path> <path d="M146.11,101H135V67.13l-.1.12H146V78.4h11.12V67.59H168.5v22.3l.1-.11H146v11.36Z"></path> <path d="M22.25,157.27V168.5H11.18v22.29H.05v-44.5H10.87v11.09H22.36Z"></path> <path d="M112.24,78.54q0,11.29,0,22.59l.11-.11H101.13V90h-11V67.39h11l-.1-.11V78.64h11.35Z"></path> <path d="M11.11,112.29H.05V90.06H22.11v10.87H11V112.4Z"></path> <path d="M146.1,168.64V157.48H135V146.14h22.32l-.11-.11v22.5H146Z"></path> <path d="M202.25,134.89h22.61l-.11-.11q0,5.68.1,11.36h-22.6l.1-11.36Z"></path> <path d="M202.09,280.92h-22V270.07h22Z"></path> <path d="M56,179.8v11H33.8V179.9H56.09Z"></path> <path d="M123.5,67.28V78.54H112.24l.11.1V67.28l-.1.11H123.6Z"></path> <path d="M67.34,101.15v-11h11v10.94H67.24Z"></path> <path d="M146,112.27v11H135.05V112.38h11.06Z"></path> <path d="M112.09,112.16V123.4H101.35V112.26h10.86Z"></path> <path d="M112.23,101.13h11v11H112.09a1.06,1.06,0,0,1,.12.1q.06-5.62.13-11.25Z"></path> <path d="M180.05,67.51h10.81V78.3H180.05Z"></path> <path d="M269.84,101.15v-11h11v10.94H269.74Z"></path> <path d="M56.09,179.9c0-3.79,0-7.58,0-11.37l-.1.11,11.35-.11-.1,11.36.11-.1H56Z"></path> <path d="M213.61,101h-11v-11h10.94v11.06Z"></path> <path d="M191,123.64h11.26v11.25l.1-.11-11.36.11c0-3.79.07-7.57.11-11.36Z"></path> <path d="M101.1,67.39V56.14h11.26l-.11-.11V67.39l.1-.11H101Z"></path> <path d="M112.25,202.27v11h-11V202.13l-.1.12,11.24.13Z"></path> <path d="M269.73,202.38h11v11H269.84V202.27Z"></path> <path d="M190.83,56H180.09V45.09h10.74Z"></path> <path d="M180.06,22.5h10.79V33.29H180.06Z"></path> <path d="M78.49,123.64H89.75v11.25l.1-.11H78.5l.1.11V123.53Z"></path> <path d="M112.36,33.54h-11V22.59h10.94V33.65Z"></path> <path d="M202.25,247.27v11H191.3V247.38h11.06Z"></path> <path d="M11,123.52v11H.05V123.63H11.11Z"></path> <path d="M247.25,269.78v11H236.1v-11l-.1.11h11.35Z"></path> <path d="M213.39,202.61v10.77H202.61V202.61Z"></path> <path d="M191,146h11.35v11H191Z"></path> <path d="M224.75,146H236.1v11.36H224.75Z"></path> <circle cx="185.42" cy="140.46" r="8.03"></circle> <path d="M225,55.82V22.54h33.29V55.82Z"></path> <path d="M22.46,258.32V225H55.75v33.28Z"></path> <path d="M55.78,55.92H22.5V22.63H55.78Z"></path> <circle cx="72.92" cy="162.96" r="8.03"></circle> </g> </g> </svg> 