<?xml version="1.0" encoding="UTF-8"?> <svg xmlns="http://www.w3.org/2000/svg" width="118" height="123" viewBox="0 0 118 123" fill="none"> <g clip-path="url(#clip0_29_123)"> <path d="M40.1636 0.285454L40.0358 0.463859L41.157 0.563767C41.157 0.528085 41.157 0.49954 41.157 0.463859C41.079 -0.0856301 40.5397 -0.149856 40.1636 0.285454Z" fill="#282842"></path> <path d="M40.0358 0.463823L39.3688 0.399597C39.7378 0.934814 39.8726 0.713591 40.0358 0.463823Z" fill="#282842"></path> <path d="M86.5716 12.781C86.7165 13.4504 87.0403 14.0672 87.5083 14.565C87.5758 14.2182 87.6256 13.868 87.6573 13.516C87.6669 13.3962 87.6835 13.2771 87.707 13.1592L86.5716 12.781ZM111.202 19.2678C111.139 19.0692 111.089 18.8666 111.053 18.6612C110.747 16.3629 110.025 14.1403 108.924 12.103C108.107 10.568 107.119 9.13144 105.979 7.8213C105.632 7.42167 105.774 7.072 105.908 6.67951L105.951 6.5796L104.95 6.48683C105.028 6.63477 105.097 6.78728 105.156 6.94355C105.639 7.96347 106.211 8.93789 106.866 9.85513C109.064 13.5635 109.822 17.9575 108.995 22.1937C108.824 22.9973 108.436 23.738 107.874 24.3345C107.709 24.4729 107.588 24.6565 107.525 24.8631C107.462 25.0696 107.46 25.2901 107.519 25.4977C107.647 25.9402 107.313 26.3113 106.93 26.5896C106.618 26.3541 106.93 26.0686 106.625 25.8331C106.221 26.2256 105.816 26.6395 105.39 27.032C104.681 27.6672 103.971 28.3023 103.262 28.916C103.113 29.0444 102.921 29.3584 102.701 29.1229C102.608 29.0118 102.561 28.8689 102.571 28.724C102.58 28.5791 102.644 28.4434 102.751 28.3451C103.141 27.9026 103.538 27.4673 103.914 27.0178C104.624 26.1543 105.334 25.2837 106.043 24.4202L105.894 24.2489L103.056 26.3469C102.976 26.026 102.976 25.6902 103.056 25.3693C103.176 24.6128 102.942 24.4844 102.183 24.4844C100.352 24.4844 99.0181 25.3978 97.7905 26.6253C97.3576 27.0534 96.8609 27.4102 96.2223 27.9526C96.8258 25.6169 97.1943 23.2262 97.3221 20.8164C97.0745 21.0347 96.9154 21.3369 96.8751 21.6656C95.9503 24.9086 94.5308 27.9876 92.6671 30.7928C92.4966 31.0784 92.2863 31.3379 92.0427 31.5635C87.3167 35.5455 82.5056 39.4134 77.0984 42.4534C76.3888 42.8673 76.3888 42.8745 75.6792 42.2893C75.6792 42.7032 75.8353 43.1171 76.1405 43.1599C77.0771 43.2955 76.5095 43.6594 76.3179 44.1233C75.9418 43.2455 75.4309 43.2527 74.8206 43.688C74.5722 43.8664 74.2671 43.9663 74.0188 44.1376C73.6675 44.3151 73.3744 44.5905 73.1744 44.9308C72.9744 45.2712 72.8758 45.6621 72.8905 46.0572C72.978 46.6849 72.9176 47.3245 72.7142 47.9245C72.5108 48.5244 72.1702 49.0679 71.7196 49.5111C71.5706 49.6539 71.3861 49.9393 71.159 49.6967C70.932 49.4541 71.159 49.2757 71.3223 49.1044C71.4708 48.9902 71.593 48.8451 71.6806 48.6791C71.7683 48.513 71.8192 48.3299 71.83 48.1422C71.8408 47.9545 71.8111 47.7667 71.7431 47.5916C71.6751 47.4165 71.5702 47.2583 71.4358 47.1276C71.4161 47.0875 71.388 47.0521 71.3536 47.0238C71.3192 46.9955 71.2791 46.9749 71.2361 46.9634C71.1931 46.9519 71.1481 46.9498 71.1043 46.9572C71.0604 46.9646 71.0186 46.9814 70.9816 47.0063C70.8506 47.0847 70.7156 47.1562 70.5772 47.2204C70.3572 47.2989 70.0875 47.5772 69.8676 47.2846C69.6476 46.9921 70.0308 46.885 70.1798 46.728C70.3288 46.571 70.5275 46.4283 70.6978 46.2713C70.7649 46.1974 70.8265 46.1187 70.8823 46.0358C70.123 45.7218 70.7404 44.9154 70.3004 44.4587C69.8605 44.002 69.5908 43.9449 69.1367 44.3659C68.9664 44.5229 68.8032 44.6871 68.6187 44.8298C68.2497 45.1295 67.6536 45.2651 67.5188 45.7289C67.384 46.1928 67.9729 46.4426 68.1716 46.8636C68.3703 47.2846 68.4342 47.5772 68.1716 47.8056C67.9091 48.0339 67.6678 47.6985 67.462 47.5487C66.9158 47.0486 66.3348 46.5883 65.7235 46.1714C65.2197 45.8717 65.7235 45.7361 65.9009 45.629C66.8517 45.1283 67.7691 44.5657 68.6471 43.9449C68.9664 43.7165 69.236 43.5024 68.6471 43.2313C68.2497 43.0671 68.4342 42.9101 68.6471 42.7531C69.3567 42.2108 70.1443 41.6756 70.8752 41.1189C71.1803 40.8906 71.3294 40.9691 71.4145 41.3045C71.507 41.6262 71.5828 41.9525 71.6416 42.2821C71.6842 42.6461 71.7835 42.9315 72.188 42.9958C72.2711 43.028 72.3624 43.0322 72.4482 43.0077C72.5339 42.9833 72.6094 42.9315 72.6634 42.8602C72.9047 42.5391 72.6634 42.2821 72.5357 42.0181C72.4211 41.8185 72.2956 41.6256 72.1596 41.4401C71.528 40.548 71.6416 40.1698 72.6421 39.7631C72.9402 39.6489 73.4865 39.7631 73.2595 39.1065C73.2595 39.028 73.4865 38.8496 73.6143 38.7283C77.0485 35.3816 79.7674 31.3652 81.6044 26.925C82.2904 25.6537 83.2624 24.5613 84.4428 23.7351C84.9774 23.2926 85.5025 22.8431 86.0182 22.3863C86.6142 21.8654 87.0542 21.8868 87.5154 22.5148C87.5677 22.6183 87.6482 22.7048 87.7474 22.7641C87.8466 22.8235 87.9606 22.8534 88.076 22.8502C88.4085 22.856 88.7382 22.7888 89.0421 22.6532C89.3461 22.5176 89.6169 22.3169 89.8358 22.0652C89.9972 21.7956 90.0587 21.4773 90.0094 21.1665C89.96 20.8557 89.803 20.5725 89.5662 20.3668C89.3391 20.1313 89.5094 20.01 89.63 19.8601C90.8232 18.3075 91.8085 16.604 92.5607 14.7934L88.3598 13.3662C88.3056 13.9855 88.2108 14.6005 88.076 15.2073C88.5779 15.6813 88.8984 16.3175 88.9814 17.0049C89.0644 17.6922 88.9047 18.3871 88.5302 18.9681C88.0973 19.8387 87.2458 20.2597 86.6355 20.9306C86.2239 21.3801 85.9259 21.9796 85.2163 22.1937C86.4623 19.9998 87.4166 17.6509 88.0547 15.2073L87.5012 14.5579C87.379 15.1218 87.1369 15.6525 86.7916 16.1136C86.6418 16.3511 86.5383 16.6151 86.4865 16.8914C86.4013 17.1555 86.3871 17.4766 86.004 17.498C85.9317 17.5199 85.8625 17.5511 85.7982 17.5908C86.2027 18.3901 85.0886 18.3401 85.0318 18.9752C84.868 19.6228 84.5969 20.238 84.2299 20.795C83.9106 21.4087 83.5203 22.0081 83.2223 22.6147C83.1372 22.7717 83.052 22.9287 82.9598 23.0857C82.8675 23.2427 82.7753 23.4354 82.5624 23.3711C82.3495 23.3069 82.3921 23.0714 82.4205 22.9073C82.5376 22.1459 82.5376 21.3708 82.4205 20.6094C82.3649 20.045 82.2061 19.4958 81.9521 18.9895C80.8309 16.7416 78.7163 17.1555 77.1978 18.1688C76.9707 18.3187 76.694 18.6113 76.8075 18.8825C76.921 19.1536 77.3042 18.961 77.5171 18.9181C78.2267 18.804 78.7447 19.1964 78.9363 20.0599C79.1618 21.2234 79.2073 22.4149 79.0711 23.5924C79.0391 23.7427 79.0201 23.8955 79.0144 24.0491C79.0144 24.3131 78.7589 24.7627 79.2131 24.7627C79.39 24.7466 79.5545 24.6644 79.674 24.5323C79.7936 24.4002 79.8595 24.2277 79.8588 24.0491C79.8588 23.8136 79.6246 23.4425 79.9723 23.3854C80.2159 23.3827 80.4571 23.4337 80.679 23.5348C80.9009 23.6359 81.0981 23.7846 81.2567 23.9706C81.5335 24.2061 81.4412 24.4701 81.1928 24.6842C81.1216 24.7385 81.0685 24.8134 81.0406 24.8988C81.0127 24.9842 81.0114 25.0761 81.0367 25.1623C81.4838 26.6467 80.5329 27.71 79.9156 28.866C79.724 29.2157 79.4117 29.4869 78.986 29.0801C78.8937 28.9874 78.7589 28.9089 78.6596 29.0801C78.5602 29.2514 78.7376 29.3228 78.8582 29.387C79.2131 29.5868 79.6175 29.7438 79.3692 30.3076C79.1918 30.7 78.9718 30.8999 78.5389 30.7C78.3602 30.598 78.1695 30.5188 77.9712 30.4646C77.5597 30.3789 77.1268 30.3861 76.9494 30.857C76.772 31.328 77.063 31.5207 77.4532 31.6563C77.5952 31.7063 77.7158 31.8062 77.8577 31.8704C78.2125 32.0559 78.177 32.3771 78.1061 32.6768C78.0351 32.9765 77.8151 33.0051 77.51 32.9836C77.2095 32.9728 76.921 32.8627 76.6889 32.6706C76.4568 32.4784 76.294 32.2148 76.2256 31.9203C75.822 32.3138 75.5262 32.8054 75.367 33.3476C75.0809 34.129 74.5101 34.7718 73.7704 35.1459C72.8271 35.794 71.9771 36.5696 71.2442 37.4509C72.1667 37.401 72.6634 36.8229 73.2808 36.5446C72.987 37.3152 72.51 38.0017 71.8915 38.5441C71.273 39.0865 70.5318 39.4682 69.7327 39.656C69.9533 39.3388 70.157 39.0101 70.343 38.6712C70.4282 38.4928 70.8113 38.2716 70.343 38.0575C70.1727 37.979 70.3004 37.6293 70.4565 37.4366C70.8765 36.8252 71.2242 36.1666 71.4926 35.4742C71.8899 34.6607 71.5919 34.261 70.783 33.9328C70.8811 34.7031 70.7346 35.4849 70.3643 36.1664C70.2508 36.4233 70.1727 36.88 69.825 36.7873C69.4773 36.6945 69.6476 36.2306 69.6973 35.9452C69.7781 35.369 69.916 34.8025 70.1088 34.2539C70.2008 33.9349 70.2743 33.6109 70.3288 33.2834C69.5341 33.8257 69.385 33.4689 69.3283 32.8481C69.206 32.0029 68.9672 31.1791 68.6187 30.4003C68.3135 29.6153 68.8741 29.1372 69.2289 28.6163C69.4205 28.3308 69.527 28.7162 69.6121 28.866C70.0406 29.7147 70.2596 30.6546 70.2508 31.6063C70.2639 32.1126 70.4727 32.5938 70.8326 32.948C71.2726 33.4118 71.8899 33.6616 72.3157 34.154C72.3697 34.2099 72.4393 34.248 72.5154 34.2633C72.5914 34.2786 72.6702 34.2703 72.7415 34.2396C73.9265 33.7615 75.1612 33.3904 75.5799 31.9132C75.736 31.3423 76.2895 30.9998 76.7436 30.6073C77.2169 30.1411 77.5595 29.5578 77.7371 28.916C77.9287 28.3879 77.7371 27.553 78.8157 27.6886C79.1492 27.7314 79.2343 26.14 78.8157 25.8974C78.4384 25.74 78.1088 25.4858 77.8597 25.1602C77.6107 24.8346 77.451 24.449 77.3965 24.0419C77.3965 23.8279 77.0275 23.6423 76.8217 23.4496C76.4741 23.1445 76.1968 22.7668 76.0093 22.3428C75.8218 21.9188 75.7285 21.4588 75.736 20.9948C75.736 20.2812 75.4734 19.4748 75.6366 18.7825C75.7984 18.1158 75.9146 17.4386 75.9844 16.7559C76.1689 14.9147 76.3486 13.0736 76.5237 11.2324C76.548 11.145 76.5536 11.0533 76.5402 10.9635C76.5267 10.8737 76.4945 10.7878 76.4456 10.7115C76.2469 10.7115 76.2256 10.9184 76.1972 11.0611C75.6792 13.4446 75.0548 15.8067 74.4445 18.1974C74.3168 18.6898 74.0613 19.2607 74.9696 19.382C75.3812 19.4391 75.2606 19.9243 75.2464 20.2455C75.1896 21.3373 75.1115 22.4292 75.0619 23.5281C75.0619 23.8493 74.8845 23.8778 74.6645 23.7779C74.4158 23.6484 74.1784 23.498 73.9549 23.3283C73.7917 23.2141 73.6498 22.9787 73.4298 23.1428C73.2098 23.3069 73.3446 23.5281 73.3872 23.7208C73.6082 24.4955 74.0834 25.1721 74.7355 25.6405C75.3883 26.1757 76.0695 26.6752 76.7436 27.189C77.1126 27.4745 77.1481 27.7242 76.7436 28.0311C76.3392 28.338 75.807 28.8018 75.218 29.2942C75.2889 28.8304 75.3386 28.5235 75.4025 28.1239C74.6148 28.5735 74.6929 29.9079 73.5078 29.7081C73.5504 30.0292 74.0046 30.3789 73.6001 30.6001C73.3774 30.718 73.1262 30.7705 72.8752 30.7516C72.6242 30.7326 72.3836 30.6431 72.1809 30.4931C71.8899 30.3004 72.0461 30.0578 72.2235 29.8366C72.4009 29.6153 73.0679 29.4013 73.0111 28.8874C72.8959 28.1922 72.5326 27.5629 71.9893 27.1177L71.748 26.925C70.5914 26.0686 70.5914 26.0758 71.2726 24.7841C71.7615 23.9776 72.1342 23.1054 72.3796 22.1937C72.5783 21.2731 72.635 20.3525 71.8048 19.6746C71.5068 19.7317 71.6416 19.9315 71.6132 20.0599C71.5848 20.1884 71.5564 20.3168 71.4216 20.3597C71.3454 20.3803 71.2643 20.3712 71.1945 20.3341C71.1247 20.297 71.0715 20.2348 71.0455 20.1598C70.932 19.9315 70.8397 19.6888 70.7404 19.4462C70.2862 18.4043 69.9882 18.2331 68.8174 18.3472C68.8577 18.546 68.9122 18.7416 68.9806 18.9324C69.1934 19.3891 69.0941 20.1955 70.0308 20.01C70.1834 19.9842 70.3401 20.0094 70.4772 20.0815C70.6143 20.1537 70.7241 20.2689 70.7901 20.4096C70.8549 20.5643 70.8746 20.7343 70.847 20.8998C70.8193 21.0654 70.7454 21.2196 70.6339 21.3445C70.3217 21.6085 70.1869 21.1589 69.9811 21.0233C69.6618 20.8021 69.456 20.1527 69.087 20.3597C68.718 20.5666 69.1793 21.0733 69.2644 21.3873C69.3986 21.8868 69.3862 22.4147 69.2289 22.9073C68.9096 23.8279 68.5548 24.7413 68.2355 25.6619C68.1574 25.8902 67.8878 26.1685 68.1361 26.3755C68.3845 26.5824 68.5903 26.2613 68.7677 26.0972C68.8317 26.0171 68.9109 25.9506 69.0006 25.9015C69.0903 25.8524 69.1888 25.8217 69.2904 25.8111C69.392 25.8004 69.4947 25.8102 69.5925 25.8397C69.6904 25.8692 69.7815 25.9179 69.8605 25.983C68.6045 26.0615 68.6754 27.4102 67.7317 27.8456C67.3485 28.024 67.9304 28.5592 67.8239 28.9731C67.7671 28.9731 67.6962 29.023 67.682 28.9731C66.9724 28.3237 66.9724 28.3237 66.5963 29.2371C65.4893 31.7562 64.3752 34.2325 63.3108 36.8015C63.1176 37.6187 62.827 38.4094 62.4451 39.1565C62.3056 38.2663 62.2889 37.3609 62.3954 36.4661C62.438 35.9594 62.4806 35.4456 62.509 34.9318C62.509 34.5393 62.4593 34.104 62.9135 33.8471C63.1405 33.7187 63.0128 33.4689 62.9631 33.2834C62.5587 31.6349 63.027 30.0721 63.4315 28.5021C63.5166 28.1667 63.6585 28.1524 63.985 28.2666C64.6165 28.495 65.6951 28.1025 65.8086 27.553C65.9222 27.0035 66.0854 26.247 65.3332 25.8617C64.95 25.6547 64.9997 25.405 65.241 25.1481C65.5616 24.7146 65.9176 24.3088 66.3054 23.9349C67.1678 23.1273 67.8645 22.1575 68.3561 21.0804C68.5051 20.8092 68.5051 20.638 68.1929 20.5666C67.7317 20.4667 67.5259 20.2312 67.682 19.7459C67.7307 19.6382 67.7373 19.516 67.7005 19.4036C67.6637 19.2912 67.5861 19.1969 67.4833 19.1394C67.2207 18.9824 67.0434 19.1394 66.8801 19.3178C65.8725 20.1955 64.95 21.1589 63.8998 22.0795C64.2546 21.0447 64.6094 20.0028 64.9642 18.9681C65.319 17.9333 65.7873 16.9699 66.0712 15.9281C66.1426 15.7685 66.1807 15.5959 66.1834 15.421C66.1861 15.246 66.1532 15.0724 66.0867 14.9107C66.0203 14.749 65.9217 14.6026 65.797 14.4806C65.6723 14.3586 65.5241 14.2635 65.3616 14.2011C65.0318 14.006 64.7185 13.7841 64.4249 13.5374C64.3185 13.4589 64.2262 13.3733 64.1198 13.3091C63.7437 13.0878 62.5374 13.1663 62.4451 13.4446C62.2961 13.9156 62.7148 14.1583 62.9773 14.458C63.2665 14.7595 63.4504 15.1472 63.5016 15.5629C63.5528 15.9785 63.4684 16.3997 63.2612 16.763C62.1826 19.4748 60.8272 22.0938 60.2524 24.9982C59.6777 27.9026 59.1455 30.7072 58.8332 33.5617C58.7339 34.4466 59.3087 34.9033 59.7131 35.5099C59.9899 35.9238 60.7137 36.2235 60.1815 36.9371C59.6493 37.6507 59.2093 36.8872 58.7623 36.7587C58.6229 36.7073 58.4877 36.6453 58.3578 36.5732C58.45 37.1298 58.2939 37.6151 58.521 38.086C58.5565 38.1717 58.592 38.3144 58.521 38.3786C57.8753 39.2707 58.7268 39.5133 59.1809 39.9201C59.6365 40.2947 59.9803 40.7886 60.1744 41.3473C59.3938 41.6684 58.7552 41.3473 57.9462 41.0333C58.0178 41.3802 58.215 41.688 58.4997 41.8968C58.9982 42.297 59.4254 42.7796 59.7628 43.324C59.8483 43.4043 59.9014 43.5135 59.9119 43.6307C59.9223 43.7479 59.8895 43.8648 59.8196 43.9592C59.6138 44.1732 59.4364 43.9592 59.3087 43.8022C57.9533 42.5819 56.1935 41.9467 54.824 40.7336C54.5671 40.5684 54.2708 40.476 53.9661 40.4659C53.6614 40.4559 53.3596 40.5286 53.0925 40.6765C52.6881 40.8335 52.3829 40.8406 52.2623 40.3625C52.1842 40.1056 51.9572 39.9629 51.7727 39.7845C51.1411 39.1922 50.4528 38.6427 50.3535 37.6793C50.3535 37.401 50.098 37.244 49.8993 37.0798C49.0052 36.3163 48.0969 35.5598 47.217 34.7748C47.137 34.6861 47.0287 34.6283 46.9108 34.6113C46.7929 34.5944 46.6728 34.6194 46.5713 34.6821C46.3374 34.7921 46.0825 34.8496 45.8243 34.8503C45.5661 34.8511 45.3109 34.7951 45.0764 34.6864C44.8419 34.5777 44.6339 34.4188 44.4668 34.2208C44.2997 34.0229 44.1776 33.7906 44.109 33.5403C44.5205 33.8257 44.854 34.0683 45.2088 34.2896C45.9184 34.7534 46.4577 34.6036 47.3873 33.683C47.9124 33.162 47.7066 32.6054 47.3873 32.0631C46.6777 30.8428 44.6837 30.7571 44.1657 32.163C44.1036 32.2998 44.03 32.4311 43.9458 32.5555C43.0259 31.765 42.2251 30.8443 41.5686 29.8223C41.5047 29.7153 41.4338 29.5368 41.4834 29.4655C41.895 28.8161 41.4125 28.4093 41.1073 27.9597C38.6042 24.5634 36.7294 20.7417 35.5724 16.6774C34.8686 14.3541 34.8489 11.8755 35.5157 9.54113C35.5511 9.41982 35.6079 9.30564 35.6931 9.07014C36.6936 10.5616 37.687 11.9246 38.5741 13.3519C41.1049 17.5244 43.4006 21.8368 45.4501 26.2685C46.0888 27.6243 47.0751 28.7733 47.5789 30.1506C48.3311 32.0845 49.6013 33.7187 50.5096 35.5384C50.7265 35.909 51.0474 36.2069 51.4321 36.3948C51.9927 36.7516 52.4255 37.1084 52.2055 37.9505C52.0423 38.5428 52.2055 38.8068 52.9151 38.4571C53.6247 38.1075 54.2705 38.2145 54.9304 37.8577C54.8158 37.7029 54.6637 37.5803 54.4885 37.5016C54.3133 37.4229 54.121 37.3907 53.9299 37.4081C53.4261 37.3653 52.7377 37.3581 52.6242 36.8729C52.5107 36.3876 53.1422 36.0522 53.5609 35.7668C53.8256 35.5582 54.1476 35.4362 54.4834 35.4171C54.7317 35.4171 55.0865 35.467 54.7672 35.8524C54.4479 36.2378 54.7033 36.3591 54.9162 36.566C55.1494 36.7239 55.3637 36.9083 55.5549 37.1155C55.9593 37.6936 56.3993 37.401 56.8038 37.1869C57.0308 37.0656 56.8534 35.9594 56.598 35.7596L56.3638 35.5884C57.0734 35.1816 57.2792 34.418 57.7263 33.8543C57.9108 33.633 57.7263 33.3547 57.5772 33.1406C55.64 30.2861 55.86 27.0677 56.4703 23.9135C56.8476 22.3766 57.5766 20.9496 58.5991 19.7459C58.7197 19.5889 58.9468 19.4319 58.8616 19.2179C58.7822 19.0041 58.6284 18.8266 58.4288 18.7183C58.2443 18.6327 58.1733 18.911 58.0669 19.0466C56.1651 21.5514 55.7819 24.4701 55.8458 27.4959C55.8458 28.3594 55.9522 29.2157 55.9664 30.0792C55.2568 28.8232 54.4905 27.6886 54.6466 26.0758C54.9091 23.4282 54.902 20.7521 54.9943 18.0832C54.9943 17.6479 54.9375 17.2126 54.9162 16.7773C54.9162 16.2064 54.8524 15.7782 54.1002 15.5427C53.8426 15.4283 53.6127 15.2589 53.4266 15.0464C53.2405 14.8338 53.1025 14.5831 53.0222 14.3117C52.9419 14.0402 52.9212 13.7544 52.9615 13.4741C53.0018 13.1938 53.1022 12.9257 53.2558 12.6882C53.2558 12.7382 53.3054 12.7881 53.2983 12.8309C53.0145 14.2082 53.4403 14.9718 54.7743 15.3358C55.1362 15.4428 55.5833 15.6069 55.7607 14.9932C55.7607 14.879 55.9877 14.8077 56.0871 14.7006C56.2929 14.4651 56.747 15.086 56.8534 14.4294C56.9954 13.5446 57.0521 12.7025 56.2148 12.1102C56.0374 11.9817 55.8245 11.8105 55.6613 12.1601C55.4981 12.5098 55.0723 12.5027 54.7246 12.4313C54.3769 12.3599 54.5047 12.0531 54.4124 11.8319C53.4615 9.47691 53.1067 6.89359 51.7159 4.69563C51.2841 3.91916 50.7333 3.21594 50.0838 2.61186C49.9209 4.1189 49.5433 5.59454 48.9627 6.9935C49.1259 7.28609 49.3033 7.65003 49.5161 8.12102C50.5071 10.4239 51.2885 12.8125 51.8507 15.2573C51.9819 15.7674 52.2057 16.2489 52.5107 16.6774C53.1103 17.5485 53.5634 18.5128 53.8518 19.5319C54.2137 20.9591 54.0008 21.1732 52.5674 21.1589C52.4139 21.1481 52.2598 21.1481 52.1062 21.1589C51.8436 21.1946 51.4888 21.0804 51.3966 21.4158C51.3043 21.7512 51.4959 22.0581 51.7301 22.3007C51.9421 22.5318 52.2342 22.6723 52.5462 22.6932C52.7732 22.6932 52.9506 22.8074 52.9506 23.0643C52.9506 23.7779 52.9506 24.4915 52.9506 25.3693C51.7017 23.2284 50.5522 21.3302 49.4026 19.4034C49.509 20.3882 48.8846 21.4015 49.6723 22.2579C49.0157 21.7046 48.4754 21.0253 48.0827 20.2597C47.2312 18.7707 46.3702 17.2863 45.4998 15.8067C44.4921 14.0869 43.4277 12.3956 42.5691 10.583C41.3304 8.07087 40.7168 5.29384 40.7809 2.49054C40.6671 3.11413 40.6172 3.74781 40.6319 4.38164C40.5435 5.30045 40.5793 6.22708 40.7383 7.13622C40.9289 8.90342 41.5371 10.5991 42.5124 12.0816C43.2716 13.2734 43.6406 14.6578 44.478 15.821C47.0396 19.3891 49.5658 22.9572 52.1062 26.5254C52.2694 26.7537 52.461 26.9107 52.2055 27.239C51.652 27.9954 51.7585 28.338 52.6171 28.7804C52.8158 28.8803 53.0713 28.8946 53.0713 29.2157C53.0713 29.9293 53.0713 30.643 53.0713 31.4279C52.5036 31.0069 52.2765 30.3646 51.7017 30.0007C51.6591 30.3789 51.8649 30.6073 51.9359 30.8713C52.0069 31.1354 52.1062 31.4636 52.1984 31.7562C52.5674 32.9408 52.5532 32.9123 51.574 33.6616C51.1695 33.9756 50.9992 33.9328 50.8005 33.4903C50.1761 32.1059 49.4807 30.7571 48.8917 29.3656C46.7629 24.4487 45.0882 19.3749 42.8672 14.5079C42.0309 12.5416 41.0637 10.6343 39.972 8.79897C39.1417 7.46449 38.6947 7.32177 37.2826 7.87839C36.6936 8.11389 35.5015 7.62862 34.948 6.87932C34.6074 6.4226 35.0828 6.1657 35.2673 5.80889C35.3595 5.65903 35.5086 5.48776 35.3595 5.32362C35.2105 5.15949 35.0047 5.32362 34.8841 5.40212C33.9191 6.32269 32.8972 7.17904 32.365 8.46356C31.3493 11.1021 31.2246 14.0034 32.0102 16.7202C33.7558 23.7351 37.687 29.3584 43.1297 33.9613C45.4141 35.8159 47.8388 37.4884 50.3819 38.9638C50.6049 39.0828 50.7992 39.2496 50.9511 39.4525C51.103 39.6553 51.2087 39.8892 51.2608 40.1377C51.3129 40.3861 51.3101 40.643 51.2527 40.8903C51.1952 41.1375 51.0845 41.369 50.9282 41.5685C50.8289 41.7112 50.7154 41.804 50.5522 41.7327C49.7696 41.4891 49.0332 41.1152 48.3737 40.6265C46.77 39.0851 45.2159 37.4795 43.6619 35.8952C41.6608 33.84 39.6314 31.8133 37.6303 29.7509C37.5664 29.6796 37.4955 29.5868 37.311 29.7509C37.7225 30.4646 38.0986 31.1782 38.5528 31.849C38.8579 32.3057 38.936 32.5626 38.2689 32.6268C37.7788 32.7445 37.2635 32.6917 36.8071 32.477C36.4371 32.2945 36.0331 32.1919 35.6212 32.1759C35.2094 32.16 34.7987 32.2309 34.4158 32.3842C33.7062 32.634 33.8339 33.3833 33.7062 33.9613C33.7062 33.9613 33.7062 33.9613 33.6139 34.0113C33.2946 33.7686 33.6139 33.2477 33.252 33.005C33.1882 33.0835 33.0959 33.1478 33.0959 33.1977C33.1598 33.997 32.8121 33.8614 32.3083 33.5974C31.6166 33.2312 30.906 32.9025 30.1794 32.6126C28.7791 31.9617 27.2265 31.7146 25.6947 31.8989C23.3602 32.2343 21.9977 34.2539 22.7073 36.3948C22.7073 36.095 22.7073 35.8952 22.7073 35.6811C22.6887 35.316 22.7524 34.9513 22.8936 34.6143C23.0348 34.2774 23.25 33.9769 23.5229 33.7354C23.7959 33.4938 24.1196 33.3174 24.4699 33.2194C24.8202 33.1213 25.1879 33.1042 25.5457 33.1692C26.9747 33.3028 28.361 33.7303 29.6189 34.4252C31.4638 35.5812 33.323 36.7088 35.1892 37.8434C35.4234 37.9861 35.6434 38.243 36.0337 38.136C35.736 37.5194 35.5761 36.8447 35.5653 36.1593C35.5666 35.9538 35.5117 35.7519 35.4066 35.5757C35.3015 35.3995 35.1502 35.2557 34.9693 35.1602C34.6925 34.9961 34.3448 34.7534 34.6641 34.3681C34.7213 34.2966 34.7937 34.2389 34.876 34.1993C34.9583 34.1597 35.0483 34.1391 35.1396 34.1391C35.2308 34.1391 35.3209 34.1597 35.4031 34.1993C35.4854 34.2389 35.5578 34.2966 35.615 34.3681C35.9218 34.6746 36.1998 35.0091 36.4452 35.3671C36.6723 35.674 36.8 36.0808 37.091 36.3091C37.5026 36.6017 37.6587 35.9809 37.9851 35.8453C39.4682 35.2244 39.5888 35.2744 39.5462 36.9157C39.5462 37.351 39.5462 37.8577 39.9365 38.0147C40.4598 38.3085 40.9582 38.645 41.4267 39.0209C41.5186 38.8461 41.5667 38.6513 41.5667 38.4536C41.5667 38.2558 41.5186 38.061 41.4267 37.8862C41.1712 37.0656 41.6324 36.459 42.0085 35.8096C42.076 35.7137 42.1763 35.6461 42.2901 35.6198C42.404 35.5934 42.5235 35.6102 42.6259 35.6669C42.7392 35.6975 42.8403 35.7626 42.9152 35.8533C42.9902 35.9441 43.0354 36.0559 43.0446 36.1735C43.0446 36.459 42.8388 36.5589 42.5975 36.6088C42.3562 36.6588 42.1079 36.6802 42.1363 37.0013C42.097 37.6395 42.0116 38.2739 41.8808 38.8996C41.8382 39.5062 42.1292 39.6132 42.5904 39.5418C42.8701 39.5019 43.1344 39.3887 43.3568 39.2136C44.0664 38.6284 44.478 38.6355 45.2656 39.2136C45.4501 39.3563 45.6417 39.4847 45.8191 39.6275C46.5287 40.1627 46.2662 41.0547 46.6281 41.7041C46.6281 41.7041 46.5571 41.8326 46.5145 41.8897C45.9965 42.5176 46.0462 42.7032 46.8338 42.903C47.1177 42.9672 47.3235 43.1884 47.6712 43.167C48.1821 43.167 48.246 43.9734 48.842 43.8807C48.7214 44.1875 48.6008 44.4944 48.4872 44.8012C48.4163 44.9654 48.3524 45.1366 48.2885 45.3008C48.2247 45.4649 48.2318 45.5791 48.3595 45.6433C48.4872 45.7075 48.622 45.5648 48.6788 45.4364C48.8491 45.0367 48.9981 44.63 49.1613 44.2232C49.1766 44.16 49.2151 44.105 49.2691 44.0693C49.3231 44.0335 49.3885 44.0197 49.4523 44.0305C49.6084 44.0662 49.6368 44.2018 49.6226 44.3374C49.5374 45.051 49.6226 45.7646 48.913 46.2784L49.5303 46.5996C49.6271 46.6335 49.7088 46.701 49.7608 46.7898C49.8127 46.8787 49.8317 46.9832 49.8142 47.0848C49.7574 47.3631 49.5161 47.3489 49.3175 47.3417C48.8584 47.3284 48.4008 47.2831 47.9479 47.2061C47.7028 47.1668 47.4516 47.1967 47.2223 47.2925C46.993 47.3882 46.7947 47.5461 46.6493 47.7485C47.7776 47.8841 48.8349 47.6415 49.8284 48.1981C49.5888 48.3731 49.2919 48.4496 48.9981 48.4122C47.6929 48.3928 46.3887 48.4955 45.1024 48.719C44.2103 48.8289 43.31 48.5943 42.5833 48.0625C43.4131 47.8671 44.2649 47.7831 45.1166 47.8127C45.3011 47.8127 45.7056 47.7699 45.592 47.62C45.1592 47.0634 45.8333 47.1276 45.9468 46.9064C45.8546 46.6995 45.6914 46.6852 45.5495 46.6495C43.3355 46.1 41.6679 44.6871 40.0216 43.2027C38.9927 42.2679 38.8863 41.019 38.5599 39.8344C38.4037 39.2778 38.1696 39.028 37.6658 39.4277C37.2826 39.7274 37.0981 39.5561 36.8781 39.2492C36.7788 39.1137 36.7504 38.8996 36.4665 38.8639C36.7896 39.6191 37.2304 40.3177 37.7722 40.9334C38.0955 41.2937 38.3436 41.7156 38.5021 42.174C38.6605 42.6324 38.726 43.1181 38.6947 43.6023C38.6379 44.0519 38.5528 44.5657 38.9785 44.787C39.4043 45.0082 39.6881 44.7227 39.9933 44.4516C40.2984 44.1804 40.7029 44.4087 40.9796 44.5301C41.0238 44.5418 41.065 44.5629 41.1004 44.592C41.1358 44.6212 41.1646 44.6576 41.1848 44.6989C41.205 44.7401 41.2161 44.7853 41.2174 44.8313C41.2188 44.8773 41.2103 44.923 41.1925 44.9654C41.0719 45.2794 40.7667 45.2936 40.4829 45.3436C40.3552 45.3436 40.2274 45.3436 40.1068 45.415C39.9862 45.4863 39.6456 45.415 39.5888 45.6504C39.532 45.8859 39.7591 46.0144 39.9152 46.1357C40.4332 46.5639 40.9583 46.9778 41.6608 47.563C40.1849 47.6343 38.9572 48.5977 37.68 47.563C37.538 47.4416 37.3748 47.563 37.4174 47.6771C37.5522 48.1624 37.2542 48.141 36.9633 48.1267C36.5091 48.1267 36.5588 47.8199 36.7362 47.4702C36.5268 47.4782 36.3236 47.5436 36.1485 47.6593C35.9734 47.775 35.8331 47.9366 35.7427 48.1267C35.5369 48.6619 35.1467 48.7404 34.6712 48.8047C31.7477 49.1829 28.817 49.3756 25.8792 49.5183C21.5087 49.7071 17.189 50.5365 13.0567 51.9803C12.8567 52.0233 12.68 52.1404 12.5617 52.3083C12.4435 52.4761 12.3922 52.6825 12.4181 52.8866C12.4695 53.3681 12.4163 53.8551 12.262 54.3138C12.191 54.4851 11.9568 54.6706 12.191 54.8562C12.2982 54.9317 12.4287 54.9661 12.559 54.953C12.6892 54.9399 12.8104 54.8802 12.9006 54.7848C13.1227 54.5458 13.3939 54.3584 13.6954 54.2353C15.2778 53.7215 16.8602 53.2077 18.4355 52.6796C18.8684 52.5369 19.1451 52.544 19.2232 53.1149C19.3575 53.4017 19.5754 53.6406 19.8479 53.7999C20.1203 53.9592 20.4346 54.0314 20.7488 54.007C21.0616 53.9048 21.3249 53.6882 21.4866 53.4001C21.6482 53.112 21.6964 52.7734 21.6216 52.4513C21.3875 51.9018 21.6997 51.8946 22.0403 51.8518C23.8143 51.6092 25.5883 51.2738 27.3623 51.1382C28.0665 50.9928 28.7944 51.0099 29.4911 51.1882C30.0036 51.346 30.5543 51.3233 31.0523 51.1239C31.2297 51.0811 31.4709 50.9098 31.3503 50.76C30.7187 49.9536 31.5845 50.1177 31.847 50.0464C32.9683 49.8068 34.0748 49.5018 35.1609 49.1329C35.9414 48.7904 36.4523 48.7119 37.0981 49.3256C37.1671 49.3675 37.2263 49.4239 37.2716 49.4909C37.317 49.5579 37.3474 49.634 37.3609 49.7139C37.3744 49.7939 37.3706 49.8758 37.3497 49.9541C37.3288 50.0324 37.2914 50.1052 37.24 50.1677C36.9845 50.5744 36.0904 50.5174 35.6718 50.2747C35.2531 50.0321 35.1538 49.2899 34.5293 49.8251C34.1248 50.1677 33.8197 50.6387 33.2733 50.8171C33.1385 50.8599 33.0675 51.0668 33.1811 51.1239C33.6494 51.3737 33.8268 52.123 34.3377 52.1087C35.6434 52.1087 36.942 51.859 38.2689 51.9161C38.127 51.338 37.2542 51.2024 37.5593 50.5816C37.7225 50.2533 38.0986 50.4888 38.3825 50.5816C38.567 50.867 39.0424 50.9741 38.9572 51.4094C38.8366 52.0445 39.2269 52.0445 39.6668 52.123C40.5569 52.1516 41.4325 52.3577 42.2427 52.7296C41.895 53.0079 41.4125 52.9722 41.3131 53.4432C42.115 53.8214 42.5975 52.7724 43.3568 52.9794C43.08 54.3495 42.0014 54.8919 41.1002 54.0641C40.9536 53.9118 40.7683 53.8027 40.5644 53.7486C40.3606 53.6945 40.1459 53.6975 39.9436 53.7572C38.4818 54.0427 36.9633 54.3852 35.5511 53.8643C34.4839 53.5253 33.3487 53.4639 32.2515 53.6858C30.8323 53.8643 30.8749 53.8785 30.8323 52.5298C30.8323 52.3799 30.8749 52.2015 30.7116 52.1087C30.5484 52.016 30.4278 52.173 30.3214 52.2729C30.0162 52.544 29.7395 52.858 29.4131 53.1007C29.018 53.4205 28.7622 53.8824 28.6999 54.3886C28.6377 54.8948 28.7738 55.4055 29.0796 55.8124C29.2853 55.6626 29.335 55.2986 29.7111 55.3343C29.6269 55.6845 29.5911 56.0447 29.6047 56.4047C29.6317 56.5072 29.6223 56.616 29.5783 56.7124C29.5343 56.8087 29.4583 56.8867 29.3634 56.9328C29.1079 57.0613 28.9376 56.89 28.7673 56.7187C28.4335 56.2352 28.1929 55.693 28.0577 55.1202C27.8448 54.6135 27.5326 54.3638 27.0004 54.742C25.6664 55.684 24.2613 56.5546 23.4524 58.0389C23.3389 58.2459 23.1686 58.5456 23.5659 58.5385C24.6161 58.5385 24.1762 58.8596 23.7717 59.2521C23.6582 59.3591 23.4808 59.4662 23.5659 59.7231L27.7668 57.6893C28.079 57.5323 28.3203 57.4109 28.597 57.8249C28.6451 57.9243 28.7134 58.0126 28.7975 58.0839C28.8816 58.1553 28.9796 58.2081 29.0852 58.239C29.1908 58.27 29.3017 58.2783 29.4108 58.2635C29.5198 58.2487 29.6245 58.2111 29.7182 58.1531C29.9037 58.0389 30.0428 57.862 30.1104 57.6541C30.178 57.4462 30.1698 57.2208 30.0872 57.0185C30.0446 56.8543 29.8814 56.7116 30.1652 56.5974C31.3938 55.9962 32.7082 55.5917 34.061 55.3985C33.9642 55.5012 33.8624 55.5988 33.7558 55.6911C31.3858 57.311 29.2357 59.2164 27.0004 61.0147C23.0671 64.3031 19.4596 67.9668 16.2286 71.9546C15.7654 72.6296 15.1566 73.1907 14.4475 73.5959L14.9939 73.8385C14.793 73.9663 14.5988 74.1045 14.412 74.2525C13.9437 74.6664 13.6599 74.6664 13.4825 73.9741C13.1772 73.0279 13.1772 72.0088 13.4825 71.0626C13.9366 69.8494 13.9579 68.465 15.0791 67.4944C15.1652 67.436 15.2334 67.3546 15.2762 67.2594C15.319 67.1642 15.3346 67.0589 15.3214 66.9553C15.3081 66.8517 15.2665 66.7538 15.2012 66.6726C15.1358 66.5914 15.0493 66.53 14.9513 66.4954C14.7385 66.4026 14.8165 66.1885 14.9159 66.0244C15.1784 65.5891 15.4126 65.1324 15.7106 64.7185C17.5627 62.1494 19.9682 60.1227 22.3383 58.1103C23.424 57.1969 23.5092 57.1184 22.9912 55.8624C22.6435 55.0203 22.6293 54.2996 23.3885 53.7215C23.495 53.6359 23.644 53.5288 23.4666 53.2791C23.0976 53.4646 22.7144 53.6502 22.3454 53.8643C21.4843 54.4194 20.4717 54.6889 19.4502 54.635C17.5553 54.4655 15.6464 54.5495 13.7734 54.8847C13.525 54.9347 13.1631 54.8847 13.1844 55.2344C13.2199 55.684 12.8793 55.7553 12.56 55.948C14.0856 56.8329 15.7461 56.8115 17.4279 57.1255C16.4628 58.0247 15.5829 58.7954 14.7527 59.6232C12.6509 61.5944 10.983 63.9864 9.8564 66.6452C8.51379 70.0455 8.43819 73.8192 9.64351 77.2711C10.0048 78.6906 10.8294 79.947 11.9852 80.8392C12.5245 81.2245 12.9574 81.0105 12.8509 80.3611C12.7445 79.7117 13.1135 79.469 13.5605 79.1979C14.0268 78.9512 14.449 78.628 14.8094 78.2416C14.9584 78.0632 14.8946 77.7135 15.2778 77.6921C15.661 77.6707 15.7248 77.9562 15.8951 78.1702C16.4557 78.8839 16.548 79.8687 17.3853 80.3753C17.5698 80.4824 17.4917 80.6108 17.3853 80.7536C16.5054 81.8739 15.59 82.8944 13.9011 82.3164C14.9561 82.9708 16.1157 83.4367 17.3285 83.6937C18.913 83.9882 20.5421 83.9346 22.1042 83.5367C22.7073 83.3868 22.8138 82.8587 23.0124 82.4234C23.2111 81.9881 22.7428 82.0167 22.5441 81.8454C22.1751 81.51 22.0332 81.1318 22.4944 80.7393C22.9557 80.3468 24.013 80.5109 24.1833 81.0176C24.4529 81.8525 24.9639 81.7312 25.5528 81.5243C25.8651 81.4172 26.1773 81.2959 26.4824 81.1603C28.4183 80.2118 30.1292 78.8562 31.4993 77.1854C32.1167 76.4718 32.5069 76.4718 33.1385 77.057C33.323 76.6574 33.6778 76.9285 33.9403 76.8572C34.2029 76.7858 34.728 76.9 34.9551 76.4647C35.1821 76.0294 34.5861 75.9223 34.5506 75.5727C35.3748 75.0201 36.2463 74.5424 37.1548 74.1454C37.5181 73.9633 37.8489 73.7222 38.1341 73.4318C39.6456 72.0759 40.9725 70.5131 42.7536 69.4569C44.7819 68.3359 46.6547 66.9515 48.324 65.3393C48.96 64.5261 49.877 63.9834 50.8928 63.8193C51.1915 63.7519 51.4723 63.6204 51.7159 63.4339C53.0815 62.6081 54.2843 61.5365 55.2639 60.2726C55.5194 59.9443 55.7323 59.559 56.1864 60.0728C56.3922 60.3154 56.6548 60.2155 56.896 60.0728C57.1373 59.93 57.1728 59.7588 57.4069 59.9015C56.9184 60.9897 56.2076 61.9623 55.3207 62.756C53.6501 64.3139 52.1599 66.0567 50.8786 67.9512C50.5734 68.4007 50.3322 68.9003 49.6368 68.6648C49.5606 68.6441 49.4794 68.6533 49.4097 68.6903C49.3399 68.7274 49.2867 68.7897 49.2607 68.8646C49.2607 68.9431 49.2607 69.1001 49.3175 69.1286C50.1832 69.5925 49.36 69.8994 49.3175 70.3133C48.991 70.1134 49.0336 69.8209 48.9343 69.5996C48.8349 69.3784 48.7994 69.2143 48.5085 69.2999C48.026 69.4498 47.9266 69.7994 47.955 70.2562C47.955 70.5131 48.0189 70.6701 48.2956 70.613C49.2181 70.4417 49.0052 70.9056 48.7356 71.3908C47.8429 73.0369 47.2312 74.8219 46.9261 76.6716C46.8338 77.1212 46.8196 77.5779 47.2525 77.8491C47.6854 78.1203 48.1466 78.5627 48.7285 78.156C49.4381 78.156 49.1542 77.1854 49.7716 76.9999C49.7716 77.2925 49.7716 77.5208 49.7716 77.7135C49.7761 77.9722 49.8022 78.23 49.8497 78.4842C49.8569 78.6468 49.9072 78.8044 49.9953 78.9408C50.0834 79.0772 50.2061 79.1875 50.3508 79.2603C50.4955 79.333 50.6569 79.3656 50.8183 79.3546C50.9797 79.3436 51.1352 79.2895 51.2689 79.1979C51.9785 78.8696 52.4255 79.1979 52.39 79.9115C52.3794 80.1173 52.3436 80.321 52.2836 80.5181C51.7017 82.7517 51.1624 84.9996 50.7367 87.2689C50.6941 87.4973 50.7863 87.797 50.4173 87.9826C49.8355 87.1476 49.282 86.2913 48.6646 85.4777C48.4734 85.2554 48.3551 84.9791 48.3258 84.6866C48.2966 84.3941 48.3579 84.0997 48.5014 83.8435C48.9272 82.8801 49.2749 81.8811 49.7077 80.7607C49.5 80.8824 49.2575 80.9302 49.0194 80.8966C48.7813 80.8629 48.5613 80.7497 48.395 80.5751C47.9763 80.1184 47.6854 80.3111 47.3944 80.775C46.997 81.3958 47.1815 82.1023 46.9758 82.7374C46.6919 83.6437 46.3513 84.5358 46.0958 85.4492C45.1716 88.8474 44.5915 92.331 44.3644 95.8467C43.9615 101.056 44.3129 106.296 45.4075 111.404C45.7843 112.777 46.0243 114.185 46.1242 115.607C45.734 115.486 45.6346 115.179 45.4146 114.95C45.1947 114.722 45.223 114.372 44.847 114.237C45.4725 116.812 46.6333 119.225 48.253 121.316C48.693 120.502 48.764 120.495 49.2607 121.123C49.7006 121.757 50.2233 122.328 50.8147 122.822C50.9992 122.95 51.276 123.236 51.4179 122.822C51.6679 122.256 51.81 121.649 51.8365 121.03C51.8365 120.552 51.8365 120.417 52.2765 120.538C52.7164 120.659 52.8158 120.417 52.7874 120.103C52.7874 119.675 52.4397 119.931 52.2623 119.96C51.8235 120.05 51.3672 119.991 50.966 119.79C50.5649 119.59 50.2418 119.26 50.0483 118.854C49.0909 117.275 48.3261 115.586 47.7705 113.823C46.7542 110.267 46.1681 106.601 46.0249 102.904C45.6988 97.3804 46.2522 91.8395 47.6641 86.4911C47.7063 86.0829 47.8751 85.6984 48.1466 85.3921C48.7994 86.5125 49.4168 87.6043 50.0767 88.6676C50.3156 89.0312 50.4023 89.4748 50.318 89.9022C49.9044 92.6744 49.6674 95.4704 49.6084 98.273C49.5209 101.742 49.6322 105.214 49.9419 108.67C50.0909 110.355 50.2257 112.046 50.538 113.716C50.5947 114.044 50.6444 114.237 51.056 114.051C51.1736 113.981 51.3065 113.941 51.4431 113.933C51.5798 113.926 51.7161 113.953 51.8404 114.01C51.9646 114.068 52.0731 114.155 52.1565 114.264C52.2399 114.373 52.2957 114.501 52.3191 114.636C52.3283 114.265 52.3117 113.893 52.2694 113.523C51.9501 110.455 51.6237 107.393 51.4675 104.31C51.2474 99.7393 51.347 95.1584 51.7656 90.6015C52.2586 85.5582 53.2087 80.5707 54.604 75.7011C54.734 75.2136 55.0058 74.7762 55.3846 74.4451C55.5893 76.8829 55.9233 79.3079 56.3851 81.7098C57.045 84.9497 57.4708 88.2466 58.6629 91.358C58.8199 91.7105 58.9182 92.0866 58.9539 92.4712C59.03 93.7012 59.2686 94.9155 59.6635 96.0822C59.7557 96.4104 60.0254 96.91 59.7202 97.067C59.4151 97.224 59.2519 96.6531 59.0106 96.4318C59.0106 96.4318 58.9326 96.4318 58.9042 96.4318C58.7197 96.8315 59.1384 97.224 58.8545 97.695C56.1155 95.7182 54.3485 92.8495 52.0565 90.416C51.939 90.658 51.892 90.9284 51.9209 91.1962C51.9498 91.4639 52.0534 91.7179 52.2197 91.9289C53.05 93.0636 53.8163 94.241 54.7601 95.2972C55.7039 96.3533 56.4348 97.695 57.5985 98.6298C57.9817 98.9509 58.3436 99.0937 58.7339 98.6869C59.0106 98.4014 59.11 98.5584 59.1809 98.8368L59.33 99.3577C59.5641 100.136 60.1602 99.7288 60.5363 99.6432C61.033 99.5218 60.664 99.1222 60.5363 98.9295C60.3272 98.6483 60.2143 98.3066 60.2143 97.9554C60.2143 97.6043 60.3272 97.2626 60.5363 96.9813C60.6964 96.7682 60.8021 96.5188 60.8442 96.2551C60.8862 95.9913 60.8633 95.7212 60.7775 95.4685C60.664 94.9903 60.586 94.5122 60.4724 94.0412C59.9007 92.0993 59.427 90.1296 59.0532 88.1395C59.0532 87.9183 58.8829 87.7257 59.1597 87.533C59.6067 87.2261 59.8693 86.748 60.4156 86.4839C60.6853 86.3484 60.7279 85.9416 60.5789 85.5776C60.5227 85.4197 60.4349 85.2751 60.3209 85.1526C60.207 85.0302 60.0693 84.9325 59.9164 84.8656C59.7634 84.7988 59.5985 84.7641 59.4317 84.7638C59.265 84.7636 59.0999 84.7977 58.9468 84.864C58.3578 85.0852 58.2726 84.864 58.152 84.3788C57.3916 81.1314 56.8135 77.8435 56.4206 74.5308C56.2858 73.496 55.9948 72.4755 56.4844 71.3623C57.3484 69.441 58.5181 67.6742 59.9473 66.1314C60.4937 65.5248 60.4724 64.9539 59.9473 64.5186C59.819 64.4113 59.6702 64.3317 59.51 64.2845C59.3499 64.2373 59.1818 64.2237 59.0162 64.2444C58.8506 64.2652 58.691 64.3198 58.5473 64.405C58.4035 64.4902 58.2786 64.6042 58.1804 64.7399C57.9746 64.9896 57.8114 65.2679 57.5985 65.5819C57.5205 64.2617 59.5428 60.7079 60.7066 60.1084C60.5789 60.6223 60.1531 60.9505 59.9402 61.4786C60.5971 61.331 61.2237 61.0702 61.7923 60.7079C62.1329 60.5009 62.3529 60.3154 62.7219 60.7864C62.902 60.9744 63.127 61.1131 63.3753 61.1892C63.6237 61.2654 63.8872 61.2766 64.1411 61.2217C64.3043 61.2217 64.5243 61.2217 64.6094 61.029C64.6946 60.8363 64.4746 60.715 64.3752 60.5794C64.0701 60.1584 63.5308 59.9657 63.247 59.4519C63.6207 59.3747 63.9715 59.2114 64.2719 58.9749C64.5723 58.7384 64.8141 58.4352 64.9784 58.0889C65.0745 57.9252 65.1349 57.7428 65.1556 57.5538C65.1763 57.3648 65.1568 57.1735 65.0984 56.9927C65.0401 56.8118 64.9441 56.6455 64.817 56.5048C64.6899 56.3641 64.5345 56.2521 64.361 56.1764C64.4888 55.9766 64.6307 56.0979 64.7442 56.0551C65.0139 55.9552 65.5177 55.841 65.5177 55.7197C65.5177 55.2201 64.9926 55.7197 64.7655 55.2986C66.0073 55.2986 67.1143 54.7848 68.3135 54.8348C68.3317 54.8938 68.3376 54.956 68.3308 55.0174C68.324 55.0788 68.3046 55.1382 68.274 55.1917C68.2434 55.2453 68.2021 55.292 68.1527 55.3288C68.1034 55.3656 68.047 55.3918 67.9871 55.4057C67.4407 55.5056 67.3343 55.8838 67.2775 56.3262C67.2775 56.5403 67.0433 56.783 67.2775 56.9471C67.5117 57.1112 67.6749 56.9471 67.8665 56.8757C68.0581 56.8044 68.0226 56.5475 67.9729 56.3548C67.831 55.8124 68.0865 55.5841 68.5903 55.4199C69.0941 55.2558 69.4276 55.3272 69.6192 55.841C69.7249 56.0734 69.8173 56.3116 69.896 56.5546C69.9882 56.8757 70.194 57.1112 70.4991 56.9899C71.3364 56.6545 71.6487 57.2468 72.0177 57.7678C72.7273 58.7811 72.7273 58.7597 71.4855 58.9809C70.641 59.1236 69.6973 59.2021 69.307 60.1299C69.228 60.3268 69.0914 60.4951 68.9153 60.6123C68.7392 60.7295 68.5318 60.7902 68.3206 60.7864C68.9167 60.7293 69.2289 61.6499 69.9314 61.1075C69.8676 61.3858 69.4418 61.3573 69.6263 61.6285C69.8108 61.8996 69.9598 61.6713 70.0734 61.5428C70.4991 61.0718 70.7404 61.2931 70.9675 61.7426C71.3719 62.5348 71.7764 63.3412 72.2235 64.1119C72.4931 64.5757 72.7486 65.1894 73.4085 65.1323C73.8201 65.0895 73.891 65.2251 73.9478 65.5463C74.04 66.0529 74.1678 66.5525 74.2671 67.052C74.6955 68.7489 75.2288 70.4172 75.8637 72.0474C76.0056 72.4613 76.2043 72.554 76.5733 72.3114C76.8592 72.0384 77.2365 71.883 77.6306 71.8761C77.3894 72.2829 76.992 72.29 76.6798 72.4398C76.3675 72.5897 76.1972 72.7467 76.3533 73.1535C77.4036 75.6868 78.2054 78.2987 79.135 80.8677C79.206 81.0604 79.2911 81.3744 79.4046 81.3887C80.4549 81.5457 80.4478 82.4805 80.7316 83.1727C81.0722 84.0005 81.3206 84.864 81.6115 85.7132C81.6395 85.1206 81.599 84.5267 81.4909 83.9434C81.0014 82.6166 80.6541 81.2411 80.4549 79.8401C80.294 78.5086 79.8063 77.2383 79.0356 76.1435C78.326 75.0945 77.7229 74.0027 76.9565 73.0107C76.7436 72.7253 76.8288 72.5612 77.1268 72.5612C78.1203 72.5612 78.2196 71.9332 78.1912 71.1767C78.1912 71.0911 78.1912 70.9626 78.4609 71.0269C78.0848 71.8761 78.7447 72.3043 79.1705 72.8466C79.4642 73.1698 79.7191 73.5267 79.9297 73.9099C80.9162 75.7892 82.2228 77.4799 83.79 78.9053C84.993 80.0929 86.2913 81.1789 87.6715 82.1523C87.8347 82.2593 88.147 82.609 88.225 82.3378C88.3598 81.8668 88.5302 82.1166 88.7076 82.2022C89.5094 82.5947 90.3042 82.9943 91.0918 83.4154C91.255 83.501 91.5885 83.6152 91.4679 83.8293C91.0918 84.5429 91.695 84.4715 92.0001 84.6214C92.7578 84.9949 93.5988 85.1646 94.4411 85.1138C95.9313 85.0496 97.2796 83.6865 96.4067 81.9453C95.7742 80.6756 95.0056 79.4791 94.1147 78.3772C90.8369 74.3879 87.1156 70.7893 83.0236 67.6514C82.314 67.0948 81.5476 66.5739 80.8168 66.0387C83.2862 68.3365 85.6846 70.6772 87.9483 73.1749C90.2858 75.6184 92.3489 78.3131 94.1005 81.2103C94.2283 81.4315 94.2992 81.8097 94.4695 81.8668C95.0869 82.0595 95.6617 82.1665 95.4772 83.0728C95.4772 83.2156 96.1868 83.5295 95.7184 83.8721C95.2501 84.2146 95.1933 83.5724 94.9308 83.394C94.8865 83.3831 94.8402 83.3831 94.7959 83.394C94.5902 83.6509 94.8882 84.1076 94.576 84.2289C94.1814 84.3389 93.76 84.2929 93.398 84.1004C93.0432 83.9649 93.029 83.6794 93.0858 83.3868C93.1851 82.9301 92.9439 82.7588 92.582 82.5947C91.0757 81.8998 89.6239 81.0911 88.2392 80.1755C85.4859 78.3344 83.1017 76.0294 80.5897 73.8885C80.4604 73.7664 80.3671 73.6109 80.32 73.4389C79.1789 70.3046 77.8006 67.2628 76.1972 64.3402C75.9537 63.8864 75.8108 63.3849 75.7786 62.8702C75.7786 62.6775 75.8211 62.3992 75.9914 62.4705C76.623 62.7274 77.1339 62.2921 77.7016 62.2636C78.1785 62.2194 78.6594 62.263 79.1208 62.392C80.0504 62.706 81.2496 62.599 81.7534 63.7194C81.8315 63.8692 81.9734 63.8407 82.0869 63.8336C82.6981 63.7899 83.2762 63.5382 83.7261 63.1199C84.4854 62.4634 84.5918 61.5357 84.7409 60.6294C84.7409 60.4438 84.7976 60.2084 84.5067 60.1227C84.308 60.2654 84.2938 60.5081 84.2229 60.7222C84.1676 60.9984 84.0541 61.2594 83.89 61.4877C83.7258 61.7161 83.5149 61.9063 83.2714 62.0456C83.028 62.185 82.7576 62.2702 82.4786 62.2955C82.1996 62.3207 81.9184 62.2855 81.6541 62.1922C81.5051 62.1922 81.2851 62.0995 81.207 62.1922C80.5684 62.8345 79.9794 62.1922 79.3904 62.1066C78.9038 61.9699 78.4291 61.7933 77.9712 61.5785C77.6052 61.4505 77.2105 61.4302 76.8335 61.52C76.4564 61.6097 76.1126 61.8058 75.8424 62.0852C75.7519 62.01 75.6903 61.9054 75.6683 61.7895C75.6463 61.6735 75.6652 61.5535 75.7218 61.4501C76.1263 60.9862 76.5804 60.5794 77.0204 60.1513C77.0369 60.1307 77.0592 60.1158 77.0844 60.1085C77.1096 60.1012 77.1365 60.1019 77.1613 60.1105C77.1861 60.1191 77.2076 60.1351 77.2231 60.1565C77.2385 60.1778 77.247 60.2034 77.2475 60.2298C77.3397 60.6865 77.7513 60.5937 78.0422 60.6793C78.8063 60.8794 79.5277 61.218 80.171 61.6784C80.3626 61.8211 80.5684 62.285 80.8168 61.9924C80.9785 61.8405 81.0851 61.6387 81.1199 61.4189C81.1546 61.1992 81.1153 60.974 81.0084 60.7793C80.8724 60.5928 80.7012 60.4351 80.5045 60.3154C79.0939 59.472 77.5021 58.9825 75.8637 58.8881C75.4593 58.8453 75.4025 59.0095 75.4663 59.3806C75.6246 59.8389 75.6613 60.3308 75.5728 60.8078C75.3871 60.519 75.2772 60.1875 75.2535 59.8444C74.9401 58.0753 73.9746 56.4902 72.5499 55.4057C71.6132 54.6921 71.3719 54.8348 71.1307 55.9623C71.0881 56.1407 71.0597 56.3477 70.8255 56.3405C70.5914 56.3334 70.5914 56.155 70.5701 55.998C70.5105 55.7081 70.542 55.4068 70.6603 55.1358C70.7785 54.8647 70.9776 54.6373 71.23 54.4851C71.9275 54.0497 72.7043 53.7586 73.5149 53.6288C75.0758 53.3772 76.577 52.8376 77.9429 52.0374C78.5533 51.662 79.2091 51.367 79.8943 51.1596C80.944 50.9374 81.9507 50.5445 82.8746 49.9964C87.4456 47.4763 91.8798 44.713 96.1584 41.7184C100.003 39.1567 103.554 36.1746 106.746 32.8266C109.109 30.2291 110.748 27.2533 111.046 23.728C111.249 21.7907 111.762 19.8991 112.564 18.126C112.848 17.569 113.015 16.9593 113.054 16.3348C112.238 17.2839 111.997 18.4186 111.202 19.2678ZM63.325 24.3916C63.3503 24.279 63.4153 24.1794 63.5079 24.1112C63.6005 24.043 63.7145 24.0108 63.8288 24.0205H64.8649L65.0706 24.2846L64.2049 24.8983C64.0346 25.0267 63.8927 25.2694 63.6302 25.0339C63.3676 24.7984 63.247 24.6913 63.325 24.3916ZM45.812 31.2495C45.9292 31.2394 46.0457 31.2754 46.137 31.35C46.2284 31.4245 46.2874 31.5318 46.3016 31.6492C46.3016 32.0131 46.0036 31.8989 45.8049 31.9417C45.6062 31.9846 45.2798 31.9418 45.3011 31.6135C45.3224 31.2852 45.5778 31.2638 45.812 31.2495ZM53.7738 28.1667L55.3917 30.4003C54.164 30.1506 54.2989 28.9231 53.5751 28.3094L53.7738 28.1667ZM53.128 32.3271C53.9937 32.163 54.8666 31.9275 55.8316 32.634C54.8878 32.634 54.1002 32.5055 53.3622 32.9123C53.3179 32.9396 53.2679 32.9561 53.2161 32.9606C53.1643 32.965 53.1122 32.9572 53.0639 32.9378C53.0157 32.9184 52.9726 32.8879 52.9382 32.8488C52.9037 32.8097 52.8788 32.763 52.8655 32.7125C52.8087 32.4912 52.9293 32.3699 53.128 32.3271ZM48.8704 77.7849C48.8053 77.9031 48.7267 78.0133 48.6362 78.1132C48.2743 78.1132 48.2247 77.8705 48.3666 77.5637C48.4375 77.4067 48.5582 77.214 48.7498 77.2711C48.9414 77.3282 48.9627 77.5993 48.8917 77.7849H48.8704ZM50.7792 78.7197C50.396 78.6769 50.247 78.3772 50.2186 78.0061C50.2186 77.7777 50.2186 77.478 50.538 77.528C50.8573 77.5779 50.9353 77.9918 51.0063 78.3701C51.0489 78.4985 51.0347 78.7411 50.8005 78.7197H50.7792ZM55.562 70.4631C55.4555 70.7057 55.3136 70.7628 55.0865 70.6487C54.6253 70.4274 54.5401 70.7272 54.4337 71.0911C54.2563 71.6905 54.4763 72.2971 54.3485 72.8894C54.3485 73.0107 54.3485 73.1535 54.1498 73.2462C54.0647 72.6254 53.9157 72.6254 53.4402 73.0393C52.2104 73.996 51.0485 75.0381 49.9632 76.1578C50.0675 75.1708 50.3287 74.2071 50.7367 73.3033C50.8289 73.0393 50.9779 72.7967 51.056 72.5255C51.2689 71.8119 51.6024 71.348 52.4752 71.7476C52.5291 71.7848 52.5904 71.8096 52.6549 71.8203C52.7193 71.831 52.7853 71.8274 52.8482 71.8097C52.9111 71.792 52.9694 71.7607 53.019 71.7179C53.0685 71.6751 53.1082 71.6219 53.1351 71.5621C53.2416 71.2838 52.9222 71.1696 52.7448 71.1054C51.9927 70.8199 52.0352 70.3918 52.3617 69.7638C53.0713 68.4792 53.6602 67.1519 54.4479 65.9173C54.6679 65.5819 54.902 65.2537 55.1575 64.8755C55.3633 65.325 54.9801 65.5891 54.9943 65.9673C55.1504 65.7389 55.271 65.5677 55.4129 65.375C55.5336 66.0886 55.4129 66.2884 54.8524 66.4668C54.5734 66.6757 54.3647 66.9655 54.2543 67.2972C54.1439 67.6289 54.1372 67.9866 54.235 68.3222C54.2847 68.4079 54.3982 68.4721 54.4195 68.5649C54.5472 69.3427 54.7601 69.9208 55.6826 69.2785C55.7252 69.2428 55.931 69.3213 55.931 69.357C55.9185 69.7509 55.7982 70.1336 55.5833 70.4631H55.562ZM68.2639 39.2849C68.498 39.185 68.4909 39.5347 68.3987 39.656C68.2263 39.8431 68.0362 40.0128 67.831 40.1627C67.4052 40.5266 66.8943 40.7693 67.0079 41.5542C67.0788 42.0324 66.4189 42.3392 66.1634 42.7888C65.908 43.2384 65.6454 43.5952 66.4331 43.9449C66.0417 43.9874 65.6669 44.1271 65.3424 44.3513C65.0179 44.5755 64.7538 44.8772 64.5739 45.2294C64.5521 45.2769 64.5198 45.3187 64.4794 45.3517C64.439 45.3847 64.3917 45.4079 64.341 45.4196C64.2903 45.4313 64.2376 45.4312 64.1869 45.4193C64.1363 45.4073 64.0891 45.3839 64.0488 45.3507C63.8288 45.1866 64.0488 45.0296 64.134 44.894C64.6733 43.9734 65.2268 43.0529 65.7732 42.1251C65.5177 41.9753 65.4467 42.275 65.1274 42.2322L66.7311 39.7274C67.1214 39.1993 67.7671 39.4919 68.2639 39.2849ZM64.5739 40.7764C65.1203 40.1341 65.688 39.5062 66.1989 38.8353C66.619 38.3453 67.2117 38.0383 67.8523 37.979C67.5826 38.6926 66.944 39.0923 66.7595 39.7559C66.006 40.423 65.3534 41.1971 64.8223 42.0538C64.6165 42.3107 64.4391 42.589 64.2333 42.8816C63.7721 41.7112 63.7792 41.6756 64.5739 40.7764ZM67.5614 31.4993C67.7998 32.6118 67.9352 33.7442 67.9658 34.8819C67.9658 35.0817 67.8026 35.1887 67.6749 35.3101C66.5538 36.2438 65.4831 37.2371 64.4675 38.2859C64.3866 38.3678 64.2853 38.4262 64.1741 38.4551C64.063 38.484 63.9462 38.4822 63.8359 38.45C64.922 36.061 66.1543 33.742 67.5259 31.5064L67.5614 31.4993ZM61.3736 44.7156C61.4428 44.683 61.5212 44.6759 61.5951 44.6954C61.6691 44.715 61.7338 44.76 61.7781 44.8226C61.9201 45.0218 62.0871 45.2016 62.2748 45.3579C62.1185 44.2188 62.2858 43.0585 62.7573 42.011C62.8141 41.8326 62.8212 41.5257 63.0909 41.5899C63.3605 41.6542 63.2754 41.9325 63.2541 42.1251C63.2518 42.6382 63.185 43.1489 63.0554 43.6452C62.8212 44.266 63.0554 44.3945 63.5947 44.1518C63.6394 44.1141 63.6959 44.0934 63.7543 44.0934C63.8127 44.0934 63.8693 44.1141 63.914 44.1518C63.9209 44.466 63.8613 44.7781 63.7389 45.0672C63.6165 45.3564 63.4343 45.616 63.2044 45.8289C62.8425 46.2285 62.2535 46.4212 62.1329 47.0634C62.1329 47.249 61.842 47.3203 61.7568 47.0634C61.5368 46.4069 61.3594 45.7432 61.182 45.0724C61.1711 45.0363 61.1675 44.9984 61.1712 44.9609C61.1749 44.9234 61.1861 44.887 61.2039 44.8538C61.2217 44.8207 61.2459 44.7914 61.275 44.7676C61.3041 44.7439 61.3376 44.7262 61.3736 44.7156ZM61.0827 46.3355C61.402 46.5782 61.4659 46.9992 61.3239 47.62C61.0614 46.9778 60.6143 46.9064 60.1815 46.6424C60.5434 46.5996 60.7846 46.1143 61.0827 46.3355ZM59.11 45.0439C58.7268 45.9359 59.8196 45.6005 59.9402 46.1714C59.0744 46.3344 58.1793 46.1986 57.3998 45.786C58.0811 45.5077 58.4359 44.9582 59.11 45.0439ZM59.6067 48.1339C59.188 48.2266 58.8971 48.1339 58.7126 47.8484C58.6558 47.7556 58.7126 47.6129 58.7978 47.6058C59.1738 47.5844 59.3867 47.8127 59.6067 48.1339ZM54.8807 42.275C55.051 42.1251 55.271 42.0324 55.4271 42.2108C55.8955 42.7246 56.5554 42.9886 57.0237 43.4953C57.2153 43.7023 57.5772 43.9163 57.4282 44.2517C57.2792 44.5871 56.9315 44.3374 56.5767 44.3302C56.3567 44.3659 56.0303 44.5515 55.7748 44.1804C55.4129 43.6594 55.0227 43.167 54.675 42.6318C54.5898 42.482 54.7814 42.3749 54.8949 42.275H54.8807ZM52.2978 43.7522C52.2978 43.638 52.3546 43.4596 52.4326 43.4239C52.6739 43.324 52.6739 43.6023 52.7945 43.7023C53.0854 43.952 53.6744 43.531 53.8092 44.2018C53.4266 44.3118 53.021 44.3118 52.6384 44.2018C52.5875 44.194 52.5387 44.1761 52.4948 44.1493C52.4508 44.1224 52.4126 44.087 52.3822 44.0453C52.3519 44.0035 52.3301 43.9561 52.318 43.9058C52.306 43.8555 52.3039 43.8033 52.312 43.7522H52.2978ZM52.163 46.7423C52.3399 46.7243 52.5182 46.7243 52.6952 46.7423C53.1351 46.7423 53.497 46.6352 53.6247 46.1286C53.7241 45.7575 53.9795 45.6148 54.3343 45.8645C54.6892 46.1143 55.3633 45.679 55.2285 46.5782C55.2285 46.8422 55.9381 47.2133 56.4703 47.2918C56.7115 47.3489 57.0521 47.3489 57.1231 47.6058C57.194 47.8627 56.8251 47.9626 56.6618 48.141C56.2683 48.5501 55.7524 48.8183 55.193 48.9046C54.9801 48.9403 54.6679 48.9831 54.8524 48.562C55.2852 47.5487 55.1717 47.3988 54.0505 47.4702H53.7312C53.0854 47.4702 52.6526 47.4702 52.2197 47.4702C51.9146 47.4702 51.6237 47.3203 51.6379 46.9921C51.652 46.6638 51.9643 46.7994 52.1772 46.7423H52.163ZM50.2045 58.0104C50.2299 58.014 50.2539 58.0248 50.2734 58.0417C50.2929 58.0585 50.3073 58.0806 50.3147 58.1053C50.3222 58.1301 50.3225 58.1565 50.3155 58.1814C50.3085 58.2063 50.2946 58.2287 50.2754 58.2459C49.8709 58.5884 49.4452 58.9024 49.1117 59.1736C48.8491 59.2236 48.764 59.1236 48.7285 58.9952C48.6811 58.8887 48.676 58.768 48.7142 58.6579C48.7525 58.5477 48.8312 58.4565 48.9343 58.4029C49.3387 58.2173 49.7148 57.9034 50.2045 58.0104ZM45.7694 56.2192C46.8852 55.7852 48.0337 55.4415 49.2039 55.1916C49.2534 55.1754 49.3058 55.1704 49.3575 55.1769C49.4091 55.1834 49.4587 55.2013 49.5027 55.2292C49.5467 55.2571 49.5841 55.2944 49.6122 55.3385C49.6402 55.3826 49.6583 55.4323 49.6652 55.4842C49.6652 55.7125 49.5303 55.8053 49.3529 55.8624C48.2488 56.146 47.1691 56.5182 46.1242 56.9756C46.0754 57.0087 46.0199 57.0304 45.9617 57.0393C45.9035 57.0481 45.8441 57.0438 45.7877 57.0268C45.7314 57.0097 45.6795 56.9803 45.6358 56.9406C45.5922 56.9009 45.5578 56.8519 45.5353 56.7972C45.511 56.7441 45.4979 56.6865 45.4966 56.628C45.4954 56.5695 45.5061 56.5114 45.528 56.4573C45.5499 56.4031 45.5827 56.354 45.6242 56.3131C45.6657 56.2722 45.7152 56.2402 45.7694 56.2192ZM40.3977 50.8314C39.7698 50.5794 39.0876 50.4958 38.4179 50.5887V50.5459C38.2334 50.1891 37.5309 50.1035 37.7793 49.5397C38.0277 48.9759 38.6024 49.1044 39.0637 49.033C39.5249 48.9617 40.3339 49.1543 39.6243 48.2266C39.7591 48.2266 39.8371 48.1624 39.8513 48.1767C40.2083 48.5329 40.6346 48.8112 41.1035 48.9942C41.5723 49.1772 42.0737 49.2608 42.5762 49.24C42.9084 49.2733 43.2311 49.3702 43.5271 49.5254C43.8677 49.6753 44.4709 49.7681 44.4638 50.0678C44.4567 50.3675 43.889 50.6458 43.5129 50.8385C43.0273 51.0757 42.4943 51.1984 41.9545 51.1971C41.4147 51.1959 40.8822 51.0708 40.3977 50.8314ZM40.1778 57.6893C41.2989 57.3681 42.4272 57.0756 43.5555 56.783C43.7329 56.7401 43.9245 56.7402 43.9245 57.0256C43.8955 57.2003 43.8212 57.3642 43.7091 57.5008C43.5969 57.6374 43.4509 57.7418 43.2858 57.8034C42.3562 58.1531 41.4267 58.4743 40.49 58.7954C40.4313 58.824 40.3664 58.8374 40.3012 58.8344C40.236 58.8313 40.1726 58.8118 40.1169 58.7777C40.0611 58.7437 40.0147 58.6961 39.982 58.6393C39.9492 58.5825 39.9311 58.5184 39.9294 58.4528C39.8726 58.1603 39.7378 57.8034 40.1778 57.6893ZM35.317 58.0532C35.6008 58.0889 35.686 58.3173 35.6931 58.5527C35.7002 58.7882 34.8628 59.2664 34.3306 59.2664C34.1319 59.2307 33.8765 59.2307 33.9049 58.8881C34.2643 58.4527 34.7638 58.1574 35.317 58.0532ZM34.2313 61.6713C33.3372 60.9577 33.3301 60.9577 34.281 60.244C34.6925 59.9372 35.097 59.616 35.5299 59.352C35.9627 59.088 36.4098 58.8667 36.055 58.1246C35.7711 57.5251 36.4665 57.2825 36.8781 57.1469C37.2897 57.0113 37.2613 57.5109 37.311 57.7606C37.3819 58.1389 37.4813 58.3601 37.907 58.1531C37.907 58.1531 37.9567 58.1531 37.9709 58.1531C38.4676 58.2816 39.2056 57.8819 39.4256 58.6241C39.6456 59.3663 38.8721 59.3734 38.4676 59.5732C37.4626 59.9954 36.4921 60.4965 35.5653 61.0718C36.9007 60.6831 38.2092 60.2063 39.4823 59.6446C39.7662 59.4947 40.0713 59.245 40.2771 59.6446C40.4829 60.0442 40.0571 60.137 39.8159 60.2797C39.1023 60.6279 38.4167 61.0311 37.7651 61.4857C36.2111 62.7703 34.3448 62.9558 32.4715 63.1699C32.4076 63.1699 32.3437 63.1271 32.2089 63.0771C32.795 62.4919 33.4798 62.0159 34.2313 61.6713ZM45.4146 65.5463C44.9685 65.9037 44.4938 66.2235 43.9954 66.5025C43.2149 67.002 43.2078 66.9949 43.1652 66.0743C42.782 66.1956 42.6259 66.5382 42.4556 66.8308C42.3558 66.982 42.2195 67.1052 42.0593 67.1888C41.8992 67.2724 41.7206 67.3138 41.5402 67.3089C40.9441 67.3089 41.4905 66.7523 41.1783 66.5953C41.1783 67.8941 40.4048 68.6933 39.2482 69.2785C38.0915 69.8637 37.0626 70.5059 35.9769 71.1268C35.7498 71.2552 35.4731 71.3837 35.6363 71.7048C35.7995 72.0259 36.0904 71.7976 36.2962 71.7048C37.7154 71.0483 38.9643 70.092 40.4971 69.5639L39.8442 70.092C39.6668 70.2348 39.3759 70.3561 39.3333 70.5345C38.9076 72.1615 37.311 72.3471 36.2111 73.1178C35.3383 73.7172 34.21 73.8314 33.3727 74.545C33.5427 73.8861 33.8774 73.2819 34.3448 72.7895C34.4938 72.6397 34.579 72.5326 34.4442 72.3328C34.3093 72.133 34.139 72.24 34.0042 72.3328C33.5075 72.761 32.805 72.5469 32.2515 73.0464C32.2319 72.8908 32.2684 72.7333 32.3543 72.6024C32.4402 72.4715 32.5699 72.3759 32.7198 72.3328C32.9611 72.2186 33.1314 72.0402 32.9824 71.8047C32.8334 71.5692 32.5779 71.7619 32.4076 71.8761C30.8961 72.8823 29.3989 73.917 27.8732 74.909C26.7308 75.6226 25.5457 76.3362 24.2543 77.1498C24.633 77.2847 25.0464 77.2847 25.4251 77.1498C25.567 77.0855 26.2128 77.2782 25.787 76.7002C25.8553 76.6015 25.9392 76.5147 26.0354 76.4433C27.0856 75.7582 28.1381 75.0755 29.1931 74.3952C29.32 74.3076 29.4555 74.2335 29.5976 74.174C29.6765 74.127 29.7703 74.1119 29.8598 74.1318C29.9494 74.1516 30.0281 74.205 30.0801 74.281C30.2078 74.4879 30.0233 74.6164 29.8885 74.7234C29.2642 75.1786 28.6801 75.6872 28.1429 76.2435L33.1456 73.5031C31.7264 75.6012 29.4486 76.322 27.4049 77.4923C27.8732 77.5708 28.3132 77.2568 28.8241 77.4923C28.1349 78.0678 27.3243 78.4778 26.454 78.6912C24.0706 79.343 21.5452 79.2383 19.2232 78.3915C18.0121 78.0964 16.8536 77.615 15.7887 76.9642C15.2272 76.4972 14.694 75.9968 14.1921 75.4656C13.8515 75.1516 14.1495 75.0018 14.412 74.9803C14.6689 74.9716 14.9201 74.9025 15.1456 74.7785C15.3711 74.6546 15.5646 74.4793 15.7106 74.2667C15.7866 74.1784 15.8841 74.1115 15.9936 74.0727C16.1032 74.0339 16.2208 74.0245 16.3351 74.0455C16.7396 74.0455 17.2008 74.0883 17.2292 73.5816C17.2576 73.075 16.6473 73.4675 16.3847 73.0821C18.3645 72.0259 20.1244 70.5987 22.2532 69.514C22.0261 70.4988 21.8416 71.3837 21.6145 72.2614C21.4797 72.761 20.9546 72.5255 20.6353 72.6968C20.316 72.868 19.7767 72.5754 19.9257 73.1606C20.0747 73.8742 20.7843 74.388 21.2597 74.2168C22.3596 73.8314 22.9486 72.7895 23.8711 72.1901C23.5421 72.1397 23.2057 72.1794 22.8973 72.305C22.5889 72.4306 22.3198 72.6374 22.1183 72.9037C22.7641 71.1411 23.9917 69.7923 25.1058 68.3722C25.5528 67.8084 26.0637 67.3018 26.525 66.7594C26.6456 66.6167 26.9366 66.4526 26.7166 66.2599C25.8083 65.4963 26.5463 64.6828 26.7166 63.9406C26.8741 63.5501 27.1792 63.2384 27.565 63.0738C27.9508 62.9093 28.3858 62.9053 28.7744 63.0628C28.8614 63.1293 28.9337 63.2133 28.9866 63.3093C29.0396 63.4054 29.0721 63.5115 29.0821 63.6209C29.0922 63.7303 29.0794 63.8406 29.0448 63.9448C29.0101 64.0489 28.9543 64.1447 28.8809 64.2261C28.6183 64.6328 28.3061 65.011 28.0152 65.4035C27.8307 65.6533 27.5823 65.9387 27.859 66.2242C28.1358 66.5096 28.3629 66.1386 28.5686 65.9887C28.9961 65.678 29.393 65.3267 29.7537 64.9397C30.7258 63.7836 31.9676 63.7622 33.4436 63.9906C32.7512 64.6171 31.9836 65.1541 31.1587 65.5891C29.5553 66.6733 27.8973 67.6737 26.1915 68.5863C25.7048 68.8748 25.2936 69.2761 24.9922 69.7566C24.6232 70.2633 25.2335 70.5131 25.347 70.8984C25.4606 71.2838 25.7373 71.1339 25.9786 71.0269C26.2199 70.9198 26.3973 70.8271 26.6101 70.7414C27.0288 70.563 27.0643 70.3347 26.745 70.0278C26.5321 69.7994 26.2057 69.4926 26.4966 69.1715C26.563 69.099 26.6437 69.0412 26.7335 69.0017C26.8232 68.9621 26.9202 68.9417 27.0182 68.9417C27.1162 68.9417 27.2131 68.9621 27.3029 69.0017C27.3926 69.0412 27.4733 69.099 27.5397 69.1715C28.2138 69.778 28.7957 69.5639 29.4556 69.1715C31.7973 67.6729 34.1532 66.2028 36.5091 64.7185C37.942 63.7682 39.5121 63.046 41.1641 62.5776C41.2835 62.5302 41.414 62.5184 41.5398 62.5438C41.6657 62.5691 41.7816 62.6304 41.8737 62.7203C42.3716 63.0916 42.8434 63.4969 43.2858 63.9335C43.6443 64.1182 44.0535 64.1785 44.4496 64.1047C44.8753 63.648 45.2585 63.8407 45.5069 64.2403C45.6563 64.4303 45.7298 64.6696 45.7127 64.9113C45.6956 65.1529 45.5893 65.3794 45.4146 65.5463ZM44.0593 62.0281C43.9599 62.5062 44.3857 62.9772 43.9599 63.1984C43.5342 63.4197 43.2503 62.9843 42.9239 62.7417C42.5975 62.4991 42.0937 62.4705 42.2853 61.9282C42.3364 61.6611 42.4784 61.4203 42.6869 61.2471C42.8954 61.0739 43.1573 60.9791 43.4277 60.9791C43.7599 60.9781 44.083 60.8706 44.3502 60.6722C44.8682 60.2298 45.2514 60.401 45.6914 60.765C45.9397 60.9719 46.33 61.2859 46.401 60.6151C46.401 60.3725 46.479 60.1727 46.7487 60.3368C47.0183 60.5009 47.3589 60.7436 47.068 60.9719C46.5571 61.3787 46.3584 62.0067 45.741 62.3992C44.9747 62.8987 44.6199 62.4134 44.0451 62.0281H44.0593ZM50.6018 63.5481C50.907 63.07 51.0702 62.706 51.5101 62.706C51.574 62.706 51.7088 62.863 51.6875 62.9058C51.5101 63.334 51.0915 63.2983 50.5876 63.5481H50.6018ZM56.8889 66.8665C56.8545 66.3234 57.0271 65.7876 57.3715 65.3678C57.5985 65.9816 57.1373 66.2741 56.8747 66.8665H56.8889ZM62.6296 59.1094C62.6296 59.1094 62.5303 59.1736 62.509 59.1593C62.2535 59.0237 61.9413 58.9452 61.8632 58.6098C61.8207 58.4172 61.771 58.2245 61.7 57.939C61.8363 57.9804 61.962 58.051 62.0685 58.1458C62.1751 58.2407 62.26 58.3576 62.3174 58.4885C62.4025 58.6955 62.7431 58.7954 62.6154 59.1094H62.6296ZM63.4386 56.7045C63.2328 56.6545 62.9276 56.626 63.0412 56.2977C63.105 56.1122 63.1547 55.7696 63.4599 55.8767C63.5976 55.9267 63.7208 56.0102 63.8187 56.1198C63.9165 56.2294 63.9858 56.3616 64.0204 56.5047C63.8643 56.8401 63.6302 56.7616 63.4244 56.7045H63.4386ZM68.6187 53.85C67.8967 54.0896 67.1561 54.2686 66.4047 54.3852C65.7874 54.3852 65.1487 54.1497 64.4888 54.1497C64.1205 54.1154 63.7509 54.1978 63.4315 54.3852L64.6946 54.5136C64.212 55.5127 64.063 55.5627 63.4315 54.899C62.7795 56.1241 61.8237 57.159 60.6569 57.9034C60.0028 58.3123 59.4631 58.8821 59.0887 59.559C58.9397 59.873 58.5139 59.7588 58.2443 59.9443C58.1804 59.9871 58.0952 59.8515 58.0882 59.7374C58.07 59.5851 58.0958 59.4308 58.1625 59.2929C58.2292 59.1549 58.334 59.0392 58.4642 58.9595C58.9397 58.617 59.5783 58.4243 59.5996 57.6393C59.5996 57.3824 60.0041 57.2111 60.3092 57.2111C61.551 57.2111 62.0619 56.1907 62.7715 55.4842C63.0412 55.2059 62.8638 54.8776 62.4096 54.9347C61.9555 54.9918 61.5652 55.106 61.0401 55.213L61.92 55.9266C60.7015 56.84 59.352 57.5619 57.9178 58.0675C57.6575 58.1724 57.4174 58.3221 57.2082 58.5099C57.0852 58.6219 56.9318 58.6946 56.7675 58.7188C56.6032 58.7429 56.4356 58.7174 56.2858 58.6455C55.8955 58.46 56.3496 58.1674 56.2858 57.9319C56.2509 57.9172 56.2132 57.9109 56.1755 57.9136C56.1378 57.9162 56.1013 57.9277 56.0689 57.9472C56.0364 57.9666 56.009 57.9934 55.9887 58.0255C55.9685 58.0575 55.956 58.0939 55.9522 58.1317C55.7986 58.6505 55.5139 59.1204 55.1259 59.4956C54.7379 59.8708 54.2598 60.1385 53.7383 60.2726C53.3764 60.3439 53.3693 60.0728 53.2983 59.8801C53.2274 59.6874 53.2983 59.4376 53.5609 59.4519C54.4834 59.509 54.824 58.6812 55.42 58.253C55.5183 58.1874 55.5873 58.0859 55.6124 57.97C55.6376 57.8542 55.617 57.733 55.5549 57.6322C55.4129 57.4324 55.1717 57.568 54.9872 57.6322C54.4793 57.878 54.0027 58.1847 53.568 58.5456C52.8016 59.0523 52.0565 59.5804 51.2689 60.1299C51.3824 60.1299 51.425 60.2012 51.4605 60.1941C51.7727 60.1941 52.0636 59.5875 52.3758 60.1156C52.6881 60.6437 52.3049 60.9006 51.9927 61.1717C51.6738 61.4298 51.3397 61.6681 50.9921 61.8854C50.6799 62.0995 50.3677 62.2779 50.0625 61.8854C50.0418 61.8527 50.0147 61.8246 49.9828 61.8028C49.9509 61.7811 49.9149 61.766 49.8771 61.7587C49.8392 61.7513 49.8003 61.7518 49.7626 61.7601C49.725 61.7684 49.6894 61.7843 49.6581 61.8069C49.6028 61.8421 49.5636 61.8979 49.549 61.962C49.5344 62.0261 49.5455 62.0935 49.58 62.1494C49.8568 62.5562 49.58 62.7203 49.3175 62.9629C48.9487 63.3212 48.5472 63.6438 48.1182 63.9263C47.7776 64.1761 47.4583 64.2974 47.1106 63.9263C47.061 63.8756 47.002 63.8354 46.9368 63.8079C46.8716 63.7804 46.8016 63.7662 46.7309 63.7662C46.6603 63.7662 46.5903 63.7804 46.5251 63.8079C46.4599 63.8354 46.4008 63.8756 46.3513 63.9263C46.1739 64.0548 46.0107 63.9263 45.8972 63.7765C45.7836 63.6266 45.9397 63.5124 46.0178 63.3911C46.8977 61.9639 48.1963 60.9648 49.3104 59.7802C49.8352 59.3743 50.4042 59.0295 51.0063 58.7526C52.3541 57.8536 53.8924 57.2841 55.4981 57.0898C55.6255 57.0747 55.7513 57.0484 55.8742 57.0113C55.9097 57.0113 55.9381 56.9471 56.0019 56.8757C55.6116 56.6902 55.1362 56.8757 54.6537 56.5261C56.1874 56.3549 57.7303 56.281 59.2732 56.3048C59.0833 56.1342 58.8542 56.0135 58.6065 55.9537C58.3588 55.894 58.1003 55.8969 57.854 55.9623C57.1444 56.1336 56.3922 55.9052 55.6826 56.1336C55.6318 56.1466 55.5779 56.1389 55.5327 56.1122C55.4875 56.0854 55.4547 56.0418 55.4413 55.9908C55.4183 55.916 55.4245 55.8352 55.4588 55.7649C55.4931 55.6945 55.5529 55.6401 55.6258 55.6126C56.3827 55.3129 57.1491 55.0275 57.9249 54.7563C58.1165 54.6849 58.2301 54.8205 58.3365 54.9989C58.443 55.1773 58.6345 55.0489 58.7197 54.9561C58.7488 54.9296 58.7691 54.8948 58.7778 54.8563C58.7866 54.8179 58.7834 54.7776 58.7687 54.7411C58.754 54.7045 58.7285 54.6733 58.6956 54.6518C58.6627 54.6303 58.6241 54.6194 58.5849 54.6207C58.223 54.585 58.2017 54.2996 58.074 54.0498C57.9462 53.8 57.7546 53.2149 57.1373 53.5788C56.6689 53.85 56.5128 53.4932 56.527 53.0721C56.4419 53.0721 56.3638 53.0721 56.3567 53.0721C55.7323 54.3638 54.4976 54.0926 53.4261 54.2353C53.05 54.2853 52.6668 54.3067 52.2836 54.3281C51.9004 54.3495 51.6237 54.2211 51.7301 53.7429C51.7301 53.6716 51.8011 53.5645 51.7727 53.5288C51.0631 52.5512 51.9501 52.7367 52.4326 52.5583C53.4293 52.1755 54.5089 52.0647 55.562 52.2372C55.9877 52.3085 56.0871 52.0231 56.2148 51.7448C55.4484 51.4379 55.342 51.0811 55.8529 50.5887C56.0445 50.4032 56.3212 50.3318 56.4348 50.5887C56.4966 50.772 56.626 50.9245 56.7963 51.0148C56.9666 51.1051 57.1648 51.1263 57.3502 51.074C57.4126 51.0715 57.4749 51.0815 57.5334 51.1036C57.5919 51.1257 57.6454 51.1593 57.6908 51.2024C57.8398 51.3737 57.854 51.8019 58.1946 51.5521C58.3525 51.4691 58.4821 51.3404 58.5668 51.1828C58.6516 51.0251 58.6875 50.8456 58.67 50.6672C58.632 50.5609 58.628 50.4452 58.6586 50.3365C58.6891 50.2277 58.7526 50.1313 58.8403 50.0606C59.6902 49.3793 60.6989 48.9273 61.771 48.7476C62.0336 48.6833 62.0761 48.9403 61.92 49.0972C61.3878 49.6396 61.2104 50.4745 60.3092 50.7457C59.3918 51.0712 58.6311 51.7342 58.1804 52.6011C58.6842 52.701 59.0532 52.2015 59.3867 52.3442C60.0041 52.6154 60.2453 52.2586 60.6569 51.9375C61.473 51.3095 63.7224 51.7305 64.4178 52.5369C64.9055 52.7086 65.4306 52.7431 65.9364 52.6368C65.9634 52.6197 65.9865 52.5971 66.0042 52.5704C66.022 52.5437 66.0339 52.5135 66.0393 52.4819C66.0446 52.4502 66.0433 52.4178 66.0353 52.3867C66.0274 52.3556 66.013 52.3265 65.9931 52.3014C65.908 52.173 65.8015 52.0231 65.6312 52.1516C65.4609 52.28 65.2055 52.2372 65.0848 52.0017C64.5455 50.9955 63.5592 50.7743 62.5799 50.5744C61.6007 50.3746 61.6929 50.4174 62.0477 49.5254L62.4238 50.0464C62.4877 50.0035 62.5516 49.975 62.5516 49.9536C62.4522 49.4326 62.5516 49.24 63.1405 49.4541C63.6588 49.6815 64.2364 49.734 64.7868 49.6039C64.3994 49.5391 64.0528 49.3238 63.8218 49.0045C64.2739 48.9489 64.7326 49.0179 65.1487 49.2043C65.6029 49.3613 65.6454 49.0972 65.6099 48.8047C65.5865 48.5284 65.4587 48.2716 65.2528 48.0871C65.0469 47.9026 64.7786 47.8044 64.503 47.8127C63.7117 47.6581 62.8946 47.7047 62.1258 47.9483C63.0625 47.356 63.545 46.0858 64.9642 46.307C65.9222 46.4568 66.2202 47.2347 66.6956 47.9055C66.4047 48.0411 66.1989 47.72 65.9293 47.9626C66.0316 48.2794 66.1647 48.5854 66.3266 48.876C66.6232 49.4199 66.7306 50.0478 66.6318 50.6601C66.5893 50.8359 66.5893 51.0194 66.6318 51.1953C66.7098 51.3737 66.7027 51.7305 67.0008 51.6806C67.2988 51.6306 67.1711 51.3523 67.2137 51.1525C67.3485 50.5316 66.9156 49.9036 67.1711 49.2828C67.5117 49.2828 67.4833 49.6325 67.6891 49.7395C67.7901 49.6219 67.9044 49.5166 68.0297 49.4255C68.2497 49.2899 68.3845 48.8475 68.6896 49.0616C68.9948 49.2757 68.8316 49.6539 68.7606 49.9821C68.6045 50.6958 67.8807 51.0169 67.6039 51.6592C67.5046 51.8804 67.3059 52.0945 67.6749 52.1801C68.2781 52.3157 68.3845 52.9365 68.8174 53.2577C69.1083 53.4503 69.0728 53.7501 68.6045 53.8643L68.6187 53.85ZM52.5745 56.9542C53.0004 56.6016 53.5041 56.3569 54.0434 56.2406C54.1499 56.2406 54.2563 56.2406 54.2705 56.3548C54.2745 56.3892 54.2701 56.424 54.2577 56.4563C54.2454 56.4887 54.2254 56.5175 54.1995 56.5403C53.7028 56.783 53.2699 57.2682 52.5745 56.9542ZM77.8506 68.9146C77.9712 69.1929 77.9429 69.4212 77.659 69.5568C77.3752 69.6924 77.1978 69.5069 77.0984 69.2428C76.7739 68.4549 76.5682 67.6227 76.4882 66.7737C77.0609 67.4036 77.5218 68.1277 77.8506 68.9146ZM73.3233 63.5124C73.4014 63.7337 73.7278 64.0048 73.3233 64.2261C72.9189 64.4473 72.8124 64.0548 72.6705 63.8193C72.2093 63.0486 71.7764 62.2707 71.3223 61.5C71.0881 61.0932 71.2016 60.9434 71.6487 60.9648C72.0957 60.9862 72.5073 60.9648 73.0679 60.9648C72.4931 61.9853 73.0892 62.7132 73.3233 63.5124ZM71.8403 53.1792C71.6132 52.751 70.9036 52.8509 70.641 53.2862C70.6029 53.3812 70.572 53.479 70.5488 53.5788C70.4494 53.8785 70.3217 54.1711 69.9456 54.1782C69.8686 54.1761 69.7948 54.1472 69.7365 54.0964C69.6783 54.0457 69.6394 53.9763 69.6263 53.8999C69.5057 53.5003 69.7611 53.3433 70.0663 53.2291C70.2224 53.172 70.3501 53.0793 70.2933 52.8937C70.2663 52.7948 70.2141 52.7046 70.1419 52.6321C70.0698 52.5595 69.9801 52.507 69.8818 52.4798C69.5979 52.387 69.0728 52.5226 69.1083 52.1159C69.1438 51.7091 69.6973 51.7305 70.045 51.6021C70.563 51.4094 71.1236 51.8661 71.6274 51.2524C71.6842 51.809 71.2726 51.9018 71.1945 52.1872C71.4358 52.2657 71.5422 52.0302 71.7196 51.9589C71.897 51.8875 72.1951 51.8162 72.2802 52.1944C72.4318 52.6709 72.7118 53.0958 73.0892 53.4218C72.5854 53.6288 72.1667 53.7857 71.8403 53.1578V53.1792ZM76.0411 45.9502C75.6296 45.9073 75.5231 45.4792 75.4876 45.1509C75.4734 45.0731 75.4784 44.993 75.502 44.9175C75.5256 44.8421 75.5672 44.7736 75.6232 44.718C75.6792 44.6624 75.7478 44.6215 75.8231 44.5986C75.8984 44.5758 75.9781 44.5719 76.0553 44.5871C76.5166 44.6371 76.5804 44.9939 76.5875 45.3935C76.6006 45.468 76.5954 45.5446 76.5723 45.6166C76.5492 45.6886 76.509 45.7538 76.4551 45.8065C76.4013 45.8593 76.3354 45.898 76.2632 45.9193C76.1911 45.9406 76.1148 45.9439 76.0411 45.9288V45.9502ZM88.0263 37.3296C89.6961 35.7221 91.2294 33.9772 92.6104 32.113C92.9935 31.6135 93.5612 31.7776 94.0296 31.5421C94.2283 31.4422 94.3347 31.7419 94.356 32.0417C94.2618 32.2872 94.1503 32.5257 94.0225 32.7553C92.5678 34.8962 90.9002 36.8301 88.5018 37.9576C88.2676 38.0646 87.9908 38.3644 87.7922 38.029C87.5935 37.6936 87.8347 37.4937 88.0263 37.3082V37.3296ZM82.0728 41.3473C84.1904 40.8711 86.1987 39.9944 87.9908 38.764C88.2463 38.5999 88.5869 38.1931 88.8353 38.5285C89.0836 38.8639 88.665 39.1779 88.4095 39.3848C87.4722 40.1809 86.4706 40.897 85.415 41.5257C84.7649 41.9655 84.0922 42.3705 83.3997 42.7389C83.0733 42.8816 82.7398 43.0029 82.463 43.1171C82.2927 43.1171 82.1934 43.0743 82.094 43.0457C81.576 42.9458 80.98 42.7531 80.9942 42.1751C81.0083 41.5971 81.6044 41.3901 82.0728 41.3259V41.3473ZM88.8424 42.0181C87.0061 43.1745 85.0927 44.2022 83.1159 45.0938C84.7196 43.4739 86.9193 42.9958 88.8424 41.9967V42.0181ZM94.3773 39.342C92.9581 40.4481 91.6453 41.7255 90.1764 42.796C88.3598 44.1233 86.8413 45.8146 85.0744 47.199C83.7625 48.2778 82.1775 48.9673 80.4974 49.19C80.3129 49.19 80.0291 49.347 79.9723 49.0758C79.9301 48.9407 79.9369 48.7948 79.9915 48.6642C80.046 48.5335 80.1448 48.4266 80.2704 48.3622C80.6553 48.2209 81.0487 48.1041 81.4483 48.0125C82.4989 47.7255 83.486 47.2412 84.3577 46.5853L82.1366 47.0634C82.7365 46.6507 83.4009 46.3419 84.1022 46.15C85.3408 45.6639 86.5431 45.0891 87.6999 44.4301C87.863 44.3387 88.0053 44.2141 88.1177 44.0641C88.2301 43.9142 88.3102 43.7424 88.3527 43.5595C88.7001 42.7189 89.3238 42.0236 90.1197 41.5899C91.4395 40.6337 92.8587 39.813 94.2354 38.9353C94.3844 38.8354 94.5405 38.7283 94.7179 38.8853C94.7605 39.1422 94.5405 39.2492 94.3773 39.342ZM97.2867 36.8443C97.1305 36.9086 97.017 36.9585 96.9035 36.7944C96.7899 36.6303 96.9035 36.5232 96.9957 36.409C97.3577 36.0732 97.8088 35.8501 98.2943 35.7668C98.0105 36.2592 97.7834 36.6588 97.3008 36.8443H97.2867Z" fill="#282842"></path> <path d="M92.1066 105.795C91.844 105.081 91.3969 105.202 90.8647 105.523C90.4461 105.773 90.1551 105.359 89.921 105.074C89.772 104.91 89.5165 104.717 89.6655 104.489C89.8145 104.26 90.219 104.367 90.5099 104.396C90.6873 104.396 90.9073 104.481 90.9996 104.296C91.0918 104.11 90.9357 103.903 90.8293 103.739C88.8929 100.446 87.2974 96.9622 86.0678 93.3418C85.8975 92.8494 85.7059 92.6282 85.3015 93.0992C85.0673 93.3418 84.9183 93.2205 84.7338 93.0492C84.6158 92.9352 84.4725 92.8512 84.3158 92.804C84.1591 92.7569 83.9934 92.748 83.8326 92.7781C84.3506 92.9565 84.897 93.0921 84.5848 93.877C84.5209 94.0269 84.6557 94.2695 84.7267 94.4551C85.3015 96.075 85.933 97.6735 86.6426 99.2435C87.3522 100.813 88.2108 102.498 89.0907 104.089C88.4082 103.564 87.8078 102.938 87.3096 102.234C84.3257 98.352 81.6087 94.2701 79.1776 90.0163C77.3956 87.0491 75.7822 83.9828 74.3452 80.832C74.1323 80.361 73.6356 79.7402 73.9407 79.3477C74.2458 78.9552 74.8632 79.3905 75.4805 79.4761C75.147 79.205 74.8277 78.9338 75.4805 78.948C75.658 78.948 75.8283 78.8767 76.0057 78.8695C76.9352 78.8695 77.1197 78.5484 76.7153 77.7206C76.5875 77.4709 76.4527 77.2282 76.3179 77.007C74.6929 74.0954 72.7699 71.298 71.0952 68.4435C70.6674 67.7693 70.4522 66.9807 70.4778 66.1813C70.4778 65.5248 70.4778 64.8683 70.4778 64.2117C70.3338 64.4613 70.2556 64.7438 70.2508 65.0324C70.1296 67.3975 70.3205 69.7683 70.8185 72.083C71.8376 76.6472 73.3116 81.0965 75.218 85.3635C75.7371 86.2274 76.0301 87.2094 76.0695 88.218C76.0695 88.375 76.0695 88.689 76.3605 88.6961C76.921 88.6961 77.0701 89.1885 77.2616 89.5382C78.6809 91.9217 79.9794 94.3694 81.4696 96.6744C82.2289 97.8591 82.9882 99.0508 83.719 100.243C83.7971 100.378 84.1519 100.671 83.8042 100.785C83.2294 100.978 83.6339 101.27 83.7261 101.406C85.3006 103.781 87.1411 105.968 89.2114 107.921C89.6442 108.307 90.1055 108.699 90.7654 108.328C90.8625 108.286 90.9701 108.274 91.0739 108.295C91.1777 108.315 91.273 108.366 91.3473 108.442C92.0569 109.156 92.1775 108.628 92.3052 108.042C92.3407 107.74 92.4024 107.442 92.4897 107.15C92.7949 106.572 92.2485 106.244 92.1066 105.795ZM72.7344 77.114C72.1241 75.2372 71.5493 73.3604 71.1236 71.405C71.125 71.2377 71.1392 71.0707 71.1662 70.9055C71.7906 71.9474 72.3157 72.8038 72.8337 73.6672C73.5859 74.9446 74.3381 76.2149 75.0903 77.4994C75.2393 77.7492 75.5018 78.0417 75.289 78.3343C75.0761 78.6269 74.6787 78.4985 74.3665 78.4414C73.9922 78.4141 73.6352 78.2723 73.3435 78.0351C73.0517 77.7978 72.8392 77.4764 72.7344 77.114Z" fill="#282842"></path> <path d="M85.2447 91.729C85.2447 91.729 85.3156 91.6506 85.3653 91.6434C85.9472 91.5007 85.8337 91.0654 85.7627 90.6658C85.3045 87.9843 84.6812 85.334 83.8964 82.7303C83.7367 81.9994 83.4738 81.2953 83.1159 80.6393C82.9101 81.0675 83.2862 82.3592 82.1863 81.2388C82.0586 81.1032 81.9805 81.2887 81.9308 81.4101C81.8676 81.6331 81.8878 81.8717 81.9876 82.0809C82.4346 83.5081 82.8817 84.9354 83.3004 86.3626C83.3926 86.6623 83.6055 87.0762 83.1655 87.2404C82.4559 87.4687 82.2714 88.1467 81.8811 88.6676C81.6399 88.9745 81.8811 89.5953 82.1082 89.4811C82.6617 89.2171 82.6404 89.6239 82.7256 89.9236C82.9261 90.4532 83.0014 91.0224 82.9456 91.5863C82.8975 91.7604 82.917 91.9464 82.9999 92.1066C83.0829 92.2669 83.2232 92.3895 83.3926 92.4498C83.5629 92.5212 83.79 92.5711 83.8326 92.8209C84.4002 92.564 85.3085 92.8138 85.2447 91.729Z" fill="#282842"></path> <path d="M41.2209 39.6203C40.9435 39.5938 40.6768 39.4993 40.4442 39.345C40.2117 39.1907 40.0203 38.9814 39.8868 38.7354C39.7094 38.4071 39.5249 38.4571 39.2908 38.6926C39.1362 38.8173 39.0199 38.9836 38.9553 39.172C38.8907 39.3604 38.8804 39.5634 38.9257 39.7575C38.971 39.9516 39.0699 40.1288 39.2111 40.2687C39.3523 40.4085 39.53 40.5054 39.7236 40.548C40.3489 40.7043 40.9437 40.9648 41.4834 41.3187C42.6347 42.4932 43.9791 43.4589 45.4572 44.1732C45.6985 44.2945 45.9256 44.4943 46.2733 44.3802C46.2297 44.2381 46.1989 44.0924 46.181 43.9448C46.2236 42.7174 45.2869 41.5185 46.0817 40.2625C46.2165 40.0485 46.0249 39.9343 45.8404 39.8843C45.2364 39.6633 44.595 39.5639 43.9529 39.5917C44.6625 39.7844 44.847 40.3625 44.9889 40.9619C45.0598 41.2545 45.0244 41.4971 44.6838 41.3187C43.6455 40.8179 42.5196 40.527 41.3699 40.4624C41.2677 40.4524 41.1698 40.4163 41.0854 40.3576C41.0009 40.2989 40.9328 40.2195 40.8874 40.127C40.71 39.7844 41.1925 39.8701 41.2209 39.6203Z" fill="#282842"></path> <path d="M116.425 16.8201C116.269 17.0841 116.858 17.4695 116.212 17.6122C115.374 17.7977 115.041 17.6978 114.793 17.0127C113.033 18.0332 112.742 19.8672 113.962 20.5809C114.097 20.4025 113.962 20.2312 113.962 20.0599C113.962 19.8886 113.906 19.7816 114.09 19.7673C114.189 19.7656 114.285 19.8013 114.36 19.8672C114.727 20.2391 115.212 20.4693 115.731 20.5176C116.25 20.5659 116.769 20.4291 117.198 20.1313C117.541 19.943 117.802 19.6345 117.933 19.2647C118.064 18.8949 118.055 18.4896 117.908 18.126C117.838 17.7744 117.655 17.4558 117.387 17.2197C117.119 16.9835 116.78 16.843 116.425 16.8201Z" fill="#282842"></path> <path d="M3.21451 54.6492C3.02291 54.6492 2.95905 54.7277 2.94486 54.9204C2.88809 55.5484 2.44104 55.5626 1.98689 55.4627C1.53275 55.3628 1.41921 54.9489 1.71015 54.4993C1.46315 54.5284 1.22433 54.6064 1.00752 54.7289C0.790708 54.8514 0.60021 55.0159 0.447053 55.213C0.230147 55.4354 0.0839598 55.7177 0.0270959 56.024C-0.029768 56.3302 0.00526323 56.6466 0.127731 56.9328C0.19723 57.2249 0.376377 57.4786 0.627678 57.6409C0.878978 57.8032 1.18295 57.8614 1.47598 57.8034C1.65338 57.8034 1.7882 57.939 1.93722 58.0246C2.64682 58.4314 3.23579 57.939 3.85315 57.6892C4.47051 57.4394 4.04474 57.154 4.01636 56.8614C4.00718 56.6858 4.06277 56.513 4.17247 56.3762C4.4776 55.8338 3.81057 54.6777 3.21451 54.6492Z" fill="#282842"></path> <path d="M82.4418 73.3247C82.4418 74.1311 83.5984 75.694 84.2016 75.6654C84.693 75.5846 85.1473 75.3524 85.5019 75.0009C85.8565 74.6494 86.0939 74.1959 86.1814 73.703C86.1777 73.4596 86.1262 73.2194 86.03 72.9961C85.9338 72.7728 85.7946 72.5708 85.6206 72.4018C85.4465 72.2327 85.241 72.0998 85.0157 72.0109C84.7905 71.9219 84.55 71.8785 84.308 71.8832C83.8746 71.8478 83.4435 71.9758 83.0986 72.2422C82.7537 72.5086 82.5196 72.8944 82.4418 73.3247Z" fill="#282842"></path> <path d="M69.2147 65.3321C68.3703 64.1047 67.4053 62.9843 66.497 61.8211C65.986 61.1646 65.986 61.1646 65.0778 61.1075L69.9669 68.9002C70.1585 67.6584 69.8909 66.389 69.2147 65.3321Z" fill="#282842"></path> <path d="M47.1674 72.3684C47.1674 72.0116 47.0751 71.6548 46.9971 71.0911C44.8683 73.1606 42.2853 74.074 39.6172 75.2301C39.7849 75.2419 39.9533 75.2419 40.121 75.2301C42.1505 74.8233 44.1445 74.2595 46.1455 73.7386C46.3044 73.7215 46.4581 73.6717 46.597 73.5923C46.7359 73.5129 46.857 73.4056 46.9529 73.2771C47.0487 73.1486 47.1172 73.0015 47.1541 72.8452C47.1911 72.6889 47.1956 72.5266 47.1674 72.3684Z" fill="#282842"></path> <path d="M38.0489 93.3133C37.623 93.3063 37.2094 93.4575 36.8874 93.7379C36.5653 94.0184 36.3574 94.4084 36.3033 94.8333C36.2253 95.6468 36.651 96.1036 37.6374 96.2605C38.1838 96.3533 39.5178 95.654 39.6314 95.2115C39.6756 94.9786 39.6677 94.7387 39.6084 94.5092C39.549 94.2797 39.4396 94.0664 39.2882 93.8847C39.1367 93.703 38.9469 93.5574 38.7326 93.4586C38.5182 93.3598 38.2847 93.3101 38.0489 93.3133ZM38.0489 94.4194C37.8006 94.4194 37.5806 94.3552 37.5522 94.0769C37.5483 93.9739 37.5849 93.8736 37.6539 93.7975C37.7229 93.7214 37.8189 93.6756 37.9212 93.6701C37.9768 93.6588 38.0341 93.659 38.0896 93.6707C38.1451 93.6823 38.1976 93.7052 38.2441 93.7379C38.2905 93.7706 38.3299 93.8124 38.3598 93.8609C38.3897 93.9093 38.4094 93.9634 38.4179 94.0198C38.4235 94.0736 38.4171 94.1281 38.3991 94.1791C38.3811 94.2301 38.352 94.2765 38.3139 94.3148C38.2758 94.353 38.2297 94.3823 38.179 94.4004C38.1282 94.4185 38.0741 94.425 38.0206 94.4194H38.0489Z" fill="#282842"></path> <path d="M94.9095 53.3789C95.1011 52.6653 94.7037 52.0302 93.8238 51.6876C93.8735 52.1015 93.8238 52.4441 93.2845 52.3513C92.7452 52.2585 92.9013 51.9802 93.1284 51.6377C92.2201 51.8018 91.6737 52.4013 91.7092 53.0649C91.9918 53.6596 92.4438 54.1564 93.0078 54.4922C93.3939 54.4902 93.7727 54.3863 94.1064 54.1909C94.4401 53.9956 94.717 53.7156 94.9095 53.3789Z" fill="#282842"></path> <path d="M64.6307 72.7253C65.1629 73.496 65.6313 74.4023 66.9298 74.0383C64.9303 71.8018 63.3162 69.2452 62.1542 66.4739C62.5054 68.7175 63.3516 70.8535 64.6307 72.7253Z" fill="#282842"></path> <path d="M62.7077 66.0244C62.7857 65.4749 63.2683 65.6533 63.5592 65.4963C63.7725 65.3993 63.9442 65.2286 64.0431 65.0152C64.1421 64.8018 64.1617 64.5598 64.0985 64.3331C64.0169 64.0069 63.8282 63.7181 63.5628 63.5134C63.2974 63.3087 62.9711 63.2002 62.6367 63.2056C62.2923 63.2022 61.9585 63.3248 61.6974 63.5506C61.4363 63.7765 61.2657 64.0901 61.2175 64.433C61.3612 65.0923 61.743 65.6747 62.289 66.0672C62.4299 66.091 62.5745 66.0762 62.7077 66.0244Z" fill="#282842"></path> <path d="M29.6047 46.992C29.6108 47.1337 29.6455 47.2727 29.7065 47.4005C29.7676 47.5283 29.8538 47.6424 29.9599 47.7357C30.066 47.8291 30.1899 47.8999 30.3239 47.9438C30.458 47.9877 30.5996 48.0038 30.74 47.9911C30.8394 47.9911 30.96 48.1053 31.0381 48.1981C31.4071 48.6548 31.8115 48.4478 32.0741 48.1481C32.3888 47.7847 32.6299 47.3629 32.7837 46.9064C32.9256 46.4425 32.5921 46.0857 32.2231 45.8217C32.0599 45.7075 31.8967 45.6861 31.8257 45.9501C31.7122 46.364 31.3929 46.3284 31.1161 46.2641C30.8394 46.1999 30.6478 45.9359 30.7329 45.5077C29.8388 45.9858 29.5479 46.3854 29.6047 46.992Z" fill="#282842"></path> <path d="M103.02 72.2971C102.566 72.4755 102.105 72.7823 102.176 73.2676C102.311 73.8352 102.593 74.3569 102.992 74.7805C103.024 74.7973 103.059 74.8062 103.095 74.8062C103.131 74.8062 103.166 74.7973 103.198 74.7805C103.524 74.4023 103.964 74.5878 104.347 74.5664C104.957 74.5664 105.057 74.1454 105.163 73.7386C105.156 73.485 105.088 73.2368 104.966 73.0148C104.844 72.7927 104.671 72.6033 104.461 72.4622C104.252 72.3212 104.011 72.2326 103.761 72.2038C103.51 72.1751 103.256 72.2071 103.02 72.2971Z" fill="#282842"></path> <path d="M114.452 41.1403C114.06 41.0753 113.659 41.1622 113.328 41.3833C112.997 41.6045 112.763 41.9436 112.671 42.3321C112.628 42.7816 113.082 42.7745 113.231 43.0457C113.508 43.6166 114.048 43.167 114.487 43.2526C115.091 43.324 115.516 43.1028 115.58 42.432C115.594 42.1119 115.485 41.7987 115.274 41.558C115.064 41.3173 114.769 41.1676 114.452 41.1403Z" fill="#282842"></path> <path d="M69.378 72.0188C69.3583 71.6955 69.218 71.3917 68.9851 71.1681C68.7522 70.9444 68.444 70.8175 68.122 70.8127C67.8036 70.8219 67.4984 70.9423 67.2588 71.1533C67.0192 71.3643 66.8602 71.6527 66.8092 71.9688C66.8092 72.4826 67.5188 73.3961 67.9304 73.3961C68.2557 73.2842 68.5534 73.1034 68.8032 72.8658C69.0529 72.6281 69.2489 72.3393 69.378 72.0188Z" fill="#282842"></path> <path d="M91.1983 56.1264C90.4886 56.1264 89.8216 56.6759 89.8429 57.2397C90.0888 57.7592 90.4717 58.201 90.9499 58.5171C91.5956 58.5171 92.4826 57.8463 92.4968 57.3681C92.4875 57.0306 92.3457 56.7104 92.1024 56.4778C91.859 56.2451 91.534 56.1188 91.1983 56.1264Z" fill="#282842"></path> <path d="M82.5269 69.4212C82.2904 69.4213 82.0602 69.4975 81.8699 69.6388C81.6796 69.7801 81.5393 69.9789 81.4696 70.2062C81.3206 70.6486 81.6115 70.9198 82.0018 71.0839C82.0728 71.0839 82.3282 71.1695 82.1366 71.3051C81.6612 71.6477 82.1366 71.6762 82.2715 71.6691C82.8235 71.572 83.3387 71.3253 83.7616 70.9555C83.8326 70.8984 83.8326 70.7128 83.8326 70.5915C83.8284 70.4267 83.7906 70.2646 83.7217 70.115C83.6527 69.9655 83.554 69.8318 83.4317 69.7221C83.3093 69.6124 83.1659 69.5291 83.0103 69.4774C82.8547 69.4256 82.6902 69.4065 82.5269 69.4212Z" fill="#282842"></path> <path d="M65.9932 59.2806C65.8654 58.9309 65.9932 58.3458 65.5532 58.1888C65.2623 58.0746 65.1913 58.6598 64.9429 58.8596C64.9078 58.8958 64.8747 58.9339 64.8436 58.9738C64.6662 59.145 64.3185 59.3377 64.6023 59.5661C64.8862 59.7944 65.1771 60.2369 65.6171 60.1084C65.9151 60.0228 65.9932 59.6588 65.9932 59.2806Z" fill="#282842"></path> <path d="M71.4855 77.8776L71.7764 77.635C70.7546 76.6573 69.5057 75.9437 68.4129 75.0516C69.1083 76.3576 70.3927 77.007 71.4855 77.8776Z" fill="#282842"></path> <path d="M31.3574 77.9347L33.1385 77.0712C31.996 76.9356 31.7477 77.0712 31.3574 77.9347Z" fill="#282842"></path> <path d="M56.5625 38.243C56.3709 38.5641 56.2077 38.8496 55.9948 39.1993C55.7181 38.8995 55.4413 38.7354 55.3633 38.3215C55.7678 38.4642 56.0587 38.1645 56.5625 38.243Z" fill="#282842"></path> <path d="M74.5084 22.893C74.1394 22.8288 73.6853 22.9929 73.5079 22.4862C73.4653 22.3721 73.5079 22.1722 73.6427 22.1794C74.0543 22.1937 74.2317 22.5862 74.5084 22.893Z" fill="#282842"></path> <path d="M19.1096 73.8243C18.8304 73.7951 18.5494 73.8599 18.3106 74.0083C18.0718 74.1568 17.8886 74.3807 17.7898 74.6449C17.7472 75.0231 18.3291 75.9009 18.62 75.9009C18.9109 75.9009 19.9044 75.066 19.9257 74.7377C19.6986 74.438 19.6205 73.8956 19.1096 73.8243Z" fill="#282842"></path> <path d="M64.6804 50.0606C64.801 50.1249 64.8861 50.2319 64.8081 50.3818C64.6023 50.7671 64.95 50.9241 65.1274 51.1453C65.4467 51.5307 65.6525 51.2024 65.837 51.0026C66.0215 50.8028 65.837 50.6387 65.6667 50.5102C65.2945 50.2717 64.9853 49.946 64.7655 49.5611C64.7442 49.7252 64.1056 49.7609 64.6804 50.0606Z" fill="#282842"></path> <path d="M61.1536 53.0222C60.9124 53.0792 60.7208 53.1934 60.735 53.4717C60.7359 53.5114 60.747 53.5501 60.7673 53.5841C60.7876 53.6182 60.8163 53.6463 60.8507 53.6657C60.885 53.6852 60.9239 53.6953 60.9633 53.695C61.0027 53.6948 61.0414 53.6842 61.0756 53.6644C61.2956 53.5716 61.6717 53.6644 61.6575 53.3005C61.6504 53.1007 61.3665 53.065 61.1536 53.0222Z" fill="#282842"></path> </g> <defs> <clipPath id="clip0_29_123"> <rect width="118" height="123" fill="white"></rect> </clipPath> </defs> </svg> 