<?xml version="1.0" encoding="UTF-8"?> <svg xmlns="http://www.w3.org/2000/svg" width="34" height="56" viewBox="0 0 34 56" fill="none"> <path d="M32 39.5L16.5 54.5L11.9262 50.0738L16.5 45.5L27.5 34.5L32 39.5Z" fill="#282842"></path> <path d="M16.5 54.5L15.8046 55.2186L16.5 55.8916L17.1954 55.2186L16.5 54.5ZM32 39.5L32.6954 40.2186L33.3885 39.5479L32.7433 38.831L32 39.5ZM27.5 34.5L28.2433 33.831L27.5382 33.0476L26.7929 33.7929L27.5 34.5ZM17.1954 55.2186L32.6954 40.2186L31.3046 38.7814L15.8046 53.7814L17.1954 55.2186ZM17.5 54.5V45.5H15.5V54.5H17.5ZM17.5 45.5V0H15.5V45.5H17.5ZM17.2071 46.2071L28.2071 35.2071L26.7929 33.7929L15.7929 44.7929L17.2071 46.2071ZM26.7567 35.169L31.2567 40.169L32.7433 38.831L28.2433 33.831L26.7567 35.169ZM0.304579 40.2186L11.2308 50.7924L12.6217 49.3552L1.69542 38.7814L0.304579 40.2186ZM11.2308 50.7924L15.8046 55.2186L17.1954 53.7814L12.6217 49.3552L11.2308 50.7924ZM15.7929 44.7929L11.2191 49.3667L12.6333 50.7809L17.2071 46.2071L15.7929 44.7929Z" fill="#282842"></path> </svg> 