<?xml version="1.0" encoding="UTF-8"?> <svg xmlns="http://www.w3.org/2000/svg" viewBox="0 0 280.92 280.91"> <g id="Layer_2" data-name="Layer 2"> <g id="Layer_1-2" data-name="Layer 1"> <path d="M168.54,224.88h11V202.44H157.39V191l-.11.1h11.36V179.77l-.11.1h22.61V168.52l-.11.1h33.91v11.25h11.2l-.11-.1v11h11.36v-11l-.11.11h11.23V202.2H280.8v11.31H247.52v11.17h33.33v56.2H213.72V247.36H202.41v-11H191.24v11.06H179.92l.12.1V236.25H168.65V224.77Zm78.75,33.75V236.34H236v11H225.1v11.16h22.3v11h22.13v-22h-11v11.1Zm-22.65-34V191.29h-33.3v33.37Z"></path> <path d="M78.41,0V78.29H.08V0ZM11.26,11.21v55.9H67.09V11.21Z"></path> <path d="M280.92.09V78.37H202.64V.09ZM213.8,11.25V67.07h55.75V11.25Z"></path> <path d="M78.31,280.91H0V202.62H78.31ZM11.15,269.59H67.07V213.86H11.15Z"></path> <path d="M112.38,146H101l.11.11V134.77H78.53l.11.1V123.52l-.11.11h22.3V101.2H67.63V90.06h55.74v10.82H112.59v22.48H123.4v-11h22.73l-.1-.11v11.45H134.78v22.4l.1-.11H123.53l.11.11v-11H112.28v11Z"></path> <path d="M112.38,44.76H90.08V33.69H100.8V22.38H90V11.21h11V0h11.17V22.1h11.17V11.18h22.56V.12h11.34V22.37l.11-.1H134.78v22.6l.1-.11H123.53l.11.11v-11H112.28v11Z"></path> <path d="M247.4,146.11V134.9h22.23V123.75H258.84V90h10.78v22.15h11.24V146H270.11v11.29h10.78v22.28h-11V168.69H258.76V146H247.29Z"></path> <path d="M134.66,236.28h22.55v11.21H180l-.12-.1c0,3.6,0,7.19,0,11.05H202v11.32H168.53l.11.11v-11H157.28v11l.1-.11H146.19v11.09H135.14V258.72h10.7V247.45H134.76V236.16Z"></path> <path d="M168.64,67.37V56.18h11V45H157.53V55.81H134.88V44.76l-.1.11h11.41V33.41h11.2V22.27l-.11.1h11.35l-.11-.1V33.45h22.33V78.51H179.78l.11.11V67.27H168.53Z"></path> <path d="M22.38,157.26H11.15v33.62H.11V112.55H11v10.9H33.36v11.17H22.27v22.74Z"></path> <path d="M112.28,247.27v11.21h11.1v11.15H101.2v11.22H90.14V225.1h22.14v11l.11-.1h-11v11.35h11Z"></path> <path d="M89.79,168.63H101V191h11v22.38H89.92V191.19H67.55V180H89.9V168.52Z"></path> <path d="M179.66,101.28l11.47-.15L191,101v11.21h11.11v11.15H191v11.48l.11-.1H179.66v-11H168.5v11H157.28l.11.1v-22.6l-.11.11h22.48V101.16Z"></path> <path d="M146.13,112.38v-11.2H135.05V67.52h10.84V89.68h11.39v22.7l.11-.11H146Z"></path> <path d="M0,100.8V90H55.77V100.8Z"></path> <path d="M123.65,236.11V202.59h22.19v10.83H134.67c0,7.78,0,15.32,0,22.85l.1-.11L123.54,236Z"></path> <path d="M89.9,168.52H67.62V157.45h11V146l-.11.1h22.61L101,146v11.18H89.79v11.44Z"></path> <path d="M191,134.87h22.5v11.25l.11-.1H202.2v11.25H191l.11.1v-22.6Z"></path> <path d="M123.53,44.76V78.3H112.38V44.76l-.1.11h11.36Z"></path> <path d="M157.39,191h-22.3V168.78H145.9v11.1h11.48l-.1-.11v11.35Z"></path> <path d="M225,123.36H213.89V90.12h11v33.36A1.06,1.06,0,0,1,225,123.36Z"></path> <path d="M247.29,146q0,16.94,0,33.88l.11-.11H236l.11.1V146l-.11.11,11.37,0Z"></path> <path d="M55.88,190.89H45.11V157.57H55.88Z"></path> <path d="M236,123.53q0,11.29,0,22.6l.11-.11H224.78l.11.1.12-22.76a1.06,1.06,0,0,0-.1.12l11.22.15Z"></path> <path d="M78.64,146H56.35V134.87H78.64l-.11-.1v11.35Z"></path> <path d="M89.91,78.25V56.36h10.92V78.25Z"></path> <path d="M179.78,78.51q-.06,11.38-.12,22.76a1,1,0,0,0,.1-.11H168.64V78.52l-.11.1h11.36Z"></path> <path d="M168.64,168.62V157.27l-.11.1h22.61l-.11-.1v11.35l.11-.1H168.53Z"></path> <path d="M22.27,157.36h11v11H22.38V157.26Z"></path> <path d="M213.53,146.12h11.36l-.11-.1v11H213.64V146Z"></path> <path d="M191.13,101.13v-11h11V101H191Z"></path> <path d="M112.61,168.72h10.76v10.79H112.61Z"></path> <path d="M168.64,157.27H157.39V146l-.11.1h11.25v11.25Z"></path> <path d="M157.38,179.88V168.62h11.26l-.11-.1v11.35l.11-.1H157.28Z"></path> <path d="M78.65,123.52h-11v-11H78.54v11.06Z"></path> <path d="M22.61,180H33.37v10.79H22.61Z"></path> <path d="M146,146v11H134.88V146l-.1.11h11.36Z"></path> <path d="M168.64,78.52h-11V67.37h11l-.11-.1V78.62Z"></path> <path d="M123.53,146v11H112.38V146l-.1.11h11.36Z"></path> <path d="M247.17,90V100.8H236.32V90Z"></path> <path d="M168.65,224.77h-11v-11h10.93v11.06Z"></path> <path d="M236.13,123.63v-11h11v10.94H236Z"></path> <path d="M123.54,236v11.27H112.28l.11.1V236l-.11.1h11.37Z"></path> <path d="M168.63,22.38V11.13h11.25l-.11-.1V22.28H168.52Z"></path> <path d="M179.88,11.13V.09h11V11H179.77Z"></path> <path d="M157.39,146H146l.11.1V134.87h11.25l-.11-.1v11.35Z"></path> <path d="M168.53,269.76v11H157.38v-11l-.1.11h11.36Z"></path> <path d="M213.44,202.63v10.7h-10.9v-10.7Z"></path> <path d="M55.91,22.53V55.79H22.58V22.53Z"></path> <path d="M225,55.8V22.52h33.29V55.8Z"></path> <path d="M22.57,224.89H55.78V258.3H22.57Z"></path> </g> </g> </svg> 