<?xml version="1.0" encoding="UTF-8"?> <svg xmlns="http://www.w3.org/2000/svg" viewBox="0 0 280.86 280.89"> <g id="Layer_2" data-name="Layer 2"> <g id="Layer_1-2" data-name="Layer 1"> <path d="M247.3,179.88h11.22v22.3h22.29v11.29H247.57v11.15h33.27v56.22h-67.1V247.5H202.45V236.28H191.29v11H179.8l.11.11V235.94H168.55V224.77h11v-22.5H157.3l.11.1L157.3,191h11.25V179.76h22.5V168.51H225v11.36h11.2l-.11-.1v11h11.36v-11Zm0,78.75V236.34H236v11H225.12v11.16h22.3v11h22.13v-22h-11v11.1Zm-22.59-67.26H191.31v33.21h33.41Z"></path> <path d="M101.15,213.51H90V191.19H67.41V179.77l-.11.1H78.66V168.52l-.11.1H89.91V157.27l-.11.1h11V123.52h-11l.11.1V112.41h11V101.26H67.61V90h55.8v10.88H112.59v22.46h10.85v-11h22.71l-.1-.11v11.45H134.9v22.41H123.56V135.07H112.63v11h11v11.47H112.24v11.14H101.37V180h11.14v11.14h11v11.2l.11-.1H101.05v11.35Z"></path> <path d="M0,78.31V0H78.31v78.3Zm67.17-67H11.41V67.11H67.19Z"></path> <path d="M202.52,78.3V0H280.8V78.3Zm11.35-67.07V67h55.78V11.23Z"></path> <path d="M0,280.89V202.56H78.39v78.33Zm11.37-67.16v55.79H67.15V213.73Z"></path> <path d="M134.9,236H123.69v11.18h-22.3v11.3h22v11.16H101.18v11.22h-11v-56h11l-.1-.11v11h11.36v-11l-.11.1h11.36v-22.6l-.11.1h33.86l-.11-.1q.06,5.67.1,11.36H134.8v22.49Z"></path> <path d="M0,134.55V90H55.9v10.86H45v22.52H33.81v11.14Zm11.28-22.49h22v-10.8h-22Z"></path> <path d="M134.9,44.76H123.55l.11.11v-11H112.3v11l.1-.11H90.1V33.69h10.72V22.38H90V11.21h11V0h11.17V22.1H123.4V11.18H146V.12H157.3V22.37l.11-.1H134.8v22.6Z"></path> <path d="M56.28,168.36H33.9v11.36H44.65v11.05H22.45V157.53H11.29v33.28H.06V146.37H33.5v10.8H56.18v11.31A1.06,1.06,0,0,1,56.28,168.36Z"></path> <path d="M247.56,146.24V135h22V123.72H258.91V90.09H269.8v22.13h11V146H270.05v11.16h10.81v22.46H270v-11H258.74V146.14h-11.3Z"></path> <path d="M157.4,269.76H146.19v11.11H135.14V258.66H145.9V247.49h-11V236l-.1.11h22.69v11.25h22.42l-.11-.11v11.17h22.31v11.33H168.55l.11.11v-11H157.3v11Z"></path> <path d="M168.4,22.14V33.37h22.44V78.51h-11l.11.11V67.27H168.55l.11.1V56.18h11V45H157.55V55.81H134.9V44.76l-.1.11h11.41V33.41h11.2V22.27l-.11.1c3.73,0,7.47-.09,11.22-.12Z"></path> <path d="M157.3,112.38h22.48V101.16l-.1.12,11.47-.15L191,101v11.21h11.11v11.15h-11.1v11.48l.11-.1H179.68v-11H168.51v11.1H157.3q0-11.31.11-22.6Z"></path> <path d="M78.66,157.37V146.15H45.06V135H78.67V123.52l-.11.11H89.91l-.11-.1v33.85l.11-.1H78.55Z"></path> <path d="M146.15,112.38v-11.2H135.07V67.52h10.84V89.68H157.3v22.7l.11-.11H146.05Z"></path> <path d="M191.05,134.87h22.5v11.25l.11-.1H202.22v11.36H191.05l.11-22.61Z"></path> <path d="M123.55,44.76V78.3H112.4V44.76l-.1.11h11.36Z"></path> <path d="M225,123.36H213.91V90.12h11c0,11,0,22.2,0,33.36Z"></path> <path d="M236.05,146.13l11.51.11-.12-.1q-.06,16.88-.14,33.74l.11-.11H236.05l.11.1V146Z"></path> <path d="M236,123.53q0,11.29,0,22.6l.11-.11H224.8l.11.1q.06-11.37.12-22.76l-.11.12,11.23.15Z"></path> <path d="M100.84,78.4H90.05v-22h10.79Z"></path> <path d="M179.8,78.51q-.06,11.38-.12,22.76a1,1,0,0,0,.1-.11H168.66V78.52l-.11.1h11.36Z"></path> <path d="M67.41,179.77H56.27c0-3.86,0-7.63,0-11.41a1.06,1.06,0,0,0-.1.12l11.22.15-.1-.11v11.35Z"></path> <path d="M67.4,168.63V157.37H78.66l-.11-.1v11.35l.11-.1H67.3Z"></path> <path d="M78.67,123.52h-11v-11H78.56v11.06Z"></path> <path d="M191.15,101.13v-11h11V101H191Z"></path> <path d="M168.66,78.52h-11V67.37h11l-.11-.1V78.62Z"></path> <path d="M213.55,146.12h11.36l-.11-.1v11H213.66V146Z"></path> <path d="M247.12,101H236.4V90.08h10.72Z"></path> <path d="M101.15,224.88V213.51l-.1.11H112.3v11.25l.11-.1H101.05Z"></path> <path d="M236.15,123.63v-11h11v10.94H236Z"></path> <path d="M179.79,11V22.15H168.4l.12.1c0-3.58,0-7.16,0-11.12H179.9Z"></path> <path d="M179.9,11.13V.09h11V11H179.79Z"></path> <path d="M168.55,269.76v11H157.4v-11l-.1.11h11.36Z"></path> <path d="M157.41,179.77v11.35H135.1V168.78h10.82v11Z"></path> <ellipse cx="179.85" cy="162.94" rx="15.98" ry="8.03"></ellipse> <path d="M168.66,179.87H157.3V168.52h11.36Z"></path> <path d="M157.3,146h11.36v11.35H157.3Z"></path> <path d="M134.8,146h11.36v11H134.8Z"></path> <path d="M157.41,134.77v11.35H146.05V134.77Z"></path> <path d="M202.67,202.4h10.65v10.92H202.67Z"></path> <path d="M157.3,213.52h11.36v11.35H157.3Z"></path> <path d="M22.52,55.8V22.52H55.81V55.8Z"></path> <path d="M225.06,22.49h33.28V55.83H225.06Z"></path> <path d="M55.83,258.41H22.56V225.12H55.83Z"></path> </g> </g> </svg> 