<?xml version="1.0" encoding="UTF-8"?> <svg xmlns="http://www.w3.org/2000/svg" viewBox="0 0 280.91 280.89"> <g id="Layer_2" data-name="Layer 2"> <g id="Layer_1-2" data-name="Layer 1"> <path d="M247.38,247.25H236.19v-11H225v22.12h11v11.46l.1-.11H213.69v-22.4H202.42v-11H179.77V258.6l.1-.11H168.54l.1.1V247.42H157.39V224.75l-.11.11h11.47V213.44H179.6V190.92H168.38V168.41H157.27V112.2H134.88V101l-.1.11H146V90h11.15V100.8h11.28V90.11H179.7v22.14h22.44v11.14H191V146.1l.11-.1-11.34.12V135.05H168.85v11H179.9v11.35h11.23l-.1-.11V168.5h45.1v33.86h11.25l-.11-.11v11.22h-11v11h22.2V213.7h11.16V202.56h11.23v78.3H270V247.25H258.53l.1.11v-11H247.28v11Zm-56-56V224.5h33.28V191.22Z"></path> <path d="M0,78.29V0H78.28V78.29ZM67.07,67.14V11.35H11.28V67.14Z"></path> <path d="M280.91.07V78.36H202.63V.07ZM269.56,67.14V11.35H213.78V67.14Z"></path> <path d="M78.32,280.89H0V202.6H78.32Zm-67-67.17V269.5H67.13V213.72Z"></path> <path d="M45,168.35H33.76v-10.8H11.22v33.2H.08V146.21H22v-11.3H.05V90.11H22.21v10.78H33.27v11.3H22.55v11.17H33.48V145.9H44.91c0,7.7,0,15.13,0,22.56Z"></path> <path d="M224.87,123.62H213.82V101.18h10.84V90.05H247.2v10.83h22.54v11.3h11.05V146h-11l.1.11V123.4h-11.4V112.53H247.21v22.22H224.78l.11.1-.12-11.34h11.06V112.58h-11Z"></path> <path d="M123.65,269.76v11.05H90V258.73h11.12v-34l-.11.11h22.29v11H112.64v11.26h33.2v11.27H135v11.44H123.54V258.8H112.6v11Z"></path> <path d="M78.64,134.85v-11.2H45.05V112.51H78.31v-11.4h-22v-11H89.75v10.77H100.9v-11h11.48l-.1-.11q.06,11.31.11,22.6H101.14V123.6H89.88v11.26l-11.35-.11Z"></path> <path d="M101.15,224.76H90V191.19H67.39V179.75l-.11.11H90V168.5h11.19v33.73h33.6l-.12-.1c0,3.82.11,7.65.16,11.48l.1-.11H101v11.37Z"></path> <path d="M44.89,179.84c0-3.83.07-7.66.11-11.49a.52.52,0,0,1-.1.11H56V146.11H67.38l-.1-.11v11.48h11.1v11.16H67.28v11.22l.11-.11H44.79Z"></path> <path d="M179.77,258.6h22.29v22.2H179.87V258.49Z"></path> <path d="M157.27,33.5V56.13h-11.1l.12.11V45H135.1V22.36h11l-.1-.11V33.61h11.35Z"></path> <path d="M112.38,89.86V67.36h11.25l-.1-.11V78.61h11.35l-.11-.11q0,11.31,0,22.61l.1-.11H123.45V89.75H112.28Z"></path> <path d="M269.78,146v11.2h11.08v22.42H270V168.5H258.53l.1.11v-22.5h11.25Z"></path> <path d="M168.54,258.49v22.3H146.31V269.91h10.86V258.6h11.47Z"></path> <path d="M157.39,224.75H146.22v11.07H134.88V213.5l-.1.11h22.5v11.25Z"></path> <path d="M89.92,55.79V33.86h11V44.65H112V55.79Z"></path> <path d="M180.1,45h10.77V78.37H180.1Z"></path> <path d="M202.39,146.1V134.85h22.5l-.11-.1v22.32H213.44V146H202.28Z"></path> <path d="M258.53,168.5v33.75H247.27l.11.11q0-16.94-.1-33.86l11.35.11Z"></path> <path d="M123.63,67.36V56.22h22.65l-.11-.11V78.5h-11.4l.11.11V67.25H123.53Z"></path> <path d="M146.26,10.85,123.54,11l.1.1V.07h22.52c0,3.56,0,7.23,0,10.9Z"></path> <path d="M123.54,11V22H101.33V11.09h22.31Z"></path> <path d="M101,67.6V78.32H90V67.6Z"></path> <path d="M191,146.1h11.37l-.11-.1v11.25H191l.1.11V146Z"></path> <path d="M44.79,179.74v11h-11V179.84H44.89Z"></path> <path d="M157.54,67.48H168.3V78.31H157.54Z"></path> <path d="M157.28,22.36h11V33.5h-11l.11.11V22.25Z"></path> <path d="M67.38,146.11V134.85H78.64l-.11-.1V146H67.28Z"></path> <path d="M146.13,22.36l.12-11.51a1.06,1.06,0,0,1-.1.12c3.75,0,7.49.1,11.22.15l-.1-.11V22.36l.1-.11H146Z"></path> <path d="M258.53,247.25v11H247.38v-11l-.1.11h11.35Z"></path> <path d="M157.37,11.12V.08h11V11H157.27Z"></path> <path d="M236,269.85h11V280.8H236.12V269.74Z"></path> <path d="M134.87,191H112.58V179.93h10.83V157.55h22.46v10.82h-11.1V191.1Z"></path> <path d="M89.78,134.75H101V123.5h11.35v22.41H101.13v11.45H89.78Z"></path> <path d="M145.89,145.91H123.82v-11h10.86V123.79h11.21Z"></path> <path d="M134.77,191.1H157v11h-22.4l.11.1c0-3.75.09-7.49.13-11.24Z"></path> <path d="M101,168.61V157.25h11v11.36Z"></path> <path d="M112.28,123.61V112.25h11v11.36Z"></path> <path d="M247.38,168.61H236v-11h11.35Z"></path> <path d="M202.5,213.35V202.57h10.85v10.78Z"></path> <path d="M55.82,55.89H22.53V22.6H55.82Z"></path> <path d="M258.32,55.89H225V22.6h33.29Z"></path> <path d="M22.53,225H55.82v33.35H22.53Z"></path> </g> </g> </svg> 