<?xml version="1.0" encoding="UTF-8"?> <svg xmlns="http://www.w3.org/2000/svg" viewBox="0 0 280.88 280.89"> <g id="Layer_2" data-name="Layer 2"> <g id="Layer_1-2" data-name="Layer 1"> <path d="M202.4,247.37v-11H180v22.08h-11.3v22.47H146.37v-11h10.76V236.26H134.89V213.53l-.11.11h11.46v11h11.13V213.49h22.2V191H157.28l.11.11q-.06-11.31-.11-22.61h11.36V146l-.11.11,11.36-.11v22.33H213.7V157.28h11.18v11.36h11.26l-.11-.11v33.91h11V213.7H236.31V225h11v22.42l.11-.11L236,247.4V236.33H225.11v11h11l-.12,22.6.1-.11h-22.4V247.27H202.29Zm-11.05-56.12v33.28h33.28V191.25Z"></path> <path d="M.09,0h78.3V78.29H.09Zm67,67.17V11.38H11.28V67.17Z"></path> <path d="M202.6,0h78.28V78.28H202.6Zm11.14,67.14h55.87V11.34H213.74Z"></path> <path d="M0,280.82V202.53H78.28v78.29Zm67.07-11.16V213.88H11.28v55.78Z"></path> <path d="M213.54,101.15h56.34l-.11-.11q.06,5.67.13,11.34H247.58v10.94h22.21v-11h11V146H269.78l.11.11V134.78H224.78l.11.1V123.7H213.65V101Z"></path> <path d="M67.28,112.39H89.65V101.21h11.5V89.79l-.11.11H112.4V56l-.11.11h11.34l-.1-.11V78.64h11.36l-.11-.11v22.61l.11-.11h-22.5v11.35H101.13v11.26H89.88v22.5L67.28,146l.11.11V134.66h11V123.5h-11V112.28Z"></path> <path d="M269.78,202.39h11.06v78.48H270V269.78H247.28l.11.11V247.28l-.11.11h11.4V213.46h11.21V202.28Z"></path> <path d="M168.53,89.89h22.29V101H180v11.13h11v11.46l.11-.1H179.88v11.36H168.53v11.25l.11-.11h-11V123.45h10.7V112.39H134.78l.11-11.36-.11.11h33.86V89.78Z"></path> <path d="M269.9,179.79l-.12,22.6.11-.11H258.4V191H247.25V168.53H236l.11.11L236,157.28H258.7V146.14h11.19l-.11-.11v11.16h11.06V179.9h-11V168.83H258.86v11Z"></path> <path d="M134.89,44.88V22.46h22.39V0h11V33.46H157.56V44.74h10.75V56H146l.11.11V44.78H134.78Z"></path> <path d="M33.63,168.53H11.17v22.35H.12v-56H22.38l-.1-.11v22.61H33.64l-.11-.11v11.36Z"></path> <path d="M134.89,213.53H101.14V202.28l-.11.11h22.7V191.14h33.66l-.11-.11v11.44h-22.5v11.17Z"></path> <path d="M112.29,247.4h11v33.48H90.13v-22h10.81v10.7H112.4V247.29Z"></path> <path d="M22.38,134.89v-22.5H33.63l-.1-.11v11.46H44.78v33.65l.11-.11H33.53l.11.11V134.78H22.28Z"></path> <path d="M67.38,179.78H56l.11.11V168.53H44.78l.11.11V157.28l-.11.11H56.22V146.14H67.39l-.11-.11v11.48h11.1v11.16H67.28v11.22Z"></path> <path d="M.11,90h22v10.93h-11V123.4H.11Z"></path> <path d="M56,179.78v11.06H22.54V180H33.63V168.53l-.1.11H44.89l-.11-.11v11.36H56.14Z"></path> <path d="M146,78.64H157.2V67.57h11.33V89.89l.11-.11h-22.5V78.53Z"></path> <path d="M33.63,112.39V90.1H56v11l.11-.1H44.7v11.25H33.53Z"></path> <path d="M112.4,247.29H90.09V225.05H100.9v11.1h11.48l-.11-.11c0,3.79,0,7.57,0,11.36Z"></path> <path d="M101,11.15h22.59l-.11-.11V33.33h-11V22.52H101.15V11Z"></path> <path d="M202.17,270.1v10.79h-22V270.1Z"></path> <path d="M123.63,11.15V.1h22.2V11H123.52Z"></path> <path d="M146,56V78.64l.11-.11H134.78l.11.11V56l-.11.11h11.36Z"></path> <path d="M202.28,134.89h22.61l-.11-.1q.06,5.68.1,11.36h-22.6l.11-11.36Z"></path> <path d="M101.15,89.79H90.1V67.58H101V89.9Z"></path> <path d="M89.88,191H67.38V179.78l-.1.11h22.5v11.25Z"></path> <path d="M56,101.13l11.35,0-.11-.11q0,5.68,0,11.35l.11-.11H56.14V101Z"></path> <path d="M269.88,101.15v-11h10.95V101H269.77Z"></path> <path d="M213.65,101h-11v-11h10.93v11.07Z"></path> <path d="M67.38,101.15v-11h11V101H67.27Z"></path> <path d="M180.07,67.4h10.71V78.32H180.07Z"></path> <path d="M101.14,202.28H89.88V191l-.1.11H101v11.25Z"></path> <path d="M180,45h10.81V55.86H180Z"></path> <path d="M123.63,56.14V44.88h11.26l-.11-.1V56.14l.11-.11H123.53Z"></path> <path d="M112.4,56h-11v-11h10.93V56.15Z"></path> <path d="M180,22.51h10.77V33.34H180Z"></path> <path d="M112.38,236.15v-11h11V236H112.27Z"></path> <path d="M134.91,258.27V247.62h10.92v10.65Z"></path> <path d="M202.29,247.27v11h-11V247.38H202.4Z"></path> <path d="M191,123.63h11.25v11.26l.11-.11-11.36.1q0-5.67.11-11.35Z"></path> <path d="M247.28,269.78v11H236.13v-11l-.1.11h11.36Z"></path> <path d="M101.15,11h-11V.08H101V11.15Z"></path> <path d="M101,123.53h11.25V112.28h22.61v11.2h11v22.41h-22.1v-10.8H112.39v33.55H101.24v-11.2H89.78V146H101Z"></path> <path d="M112.28,168.53h11.18v-11h33.93v11.08H135v11H112.28Z"></path> <path d="M202.61,202.49h10.76v10.78H202.61Z"></path> <path d="M224.78,146h11.36v11.36H224.78Z"></path> <path d="M191,146h11.36v11H191Z"></path> <circle cx="185.46" cy="140.46" r="8.03"></circle> <path d="M22.58,22.52H55.91V55.81H22.58Z"></path> <path d="M258.3,55.93H225.05V22.52H258.3Z"></path> <path d="M22.6,225H55.88v33.29H22.6Z"></path> </g> </g> </svg> 