<?xml version="1.0" encoding="UTF-8"?> <svg xmlns="http://www.w3.org/2000/svg" viewBox="0 0 280.87 280.97"> <g id="Layer_2" data-name="Layer 2"> <g id="Layer_1-2" data-name="Layer 1"> <path d="M258.52,157.32v11.2h11.09v11.27H258.73v22.66H247.29c0-3.68,0-7.36,0-11.06H236.35v11h11v11.21h11.06v11.16h22.38v22.54h-10.7v22.55h10.74v11.06H247.46V270h-45V259H179.89v22H146c0-3.6,0-7.28,0-11l-.11.12h11.21V258.81h11.23V247.43H146.15V236.31H134.74V224.86h11.07V213.92h-11v11H123.61V202.34l-.11.1h11.25V191.08H146.1v11.07H157v-11H146l0-11.36h11.43V168.68h11.17l-.1-.11v45.25h-11V235.9h22.35V168.57l-.11.12h11.36l-.11-.12v11.05h22.61V168.57l-.1.11H225V179.6H236V157.32l22.61.11Zm-22.4,78.9H213.86v11.32h11.06v10.83h33.46v-11H236V236.11h11.07V225.17h-11ZM191.33,191.3v33.3h33.29V191.3Zm-.1,55.91h10.86V236.42H191.23Z"></path> <path d="M78.39,0V78.34H0V0ZM11.19,67.07H67V11.27H11.19Z"></path> <path d="M280.81,78.43H202.52V.11h78.29ZM213.74,67.07h55.79V11.26H213.74Z"></path> <path d="M0,202.56h78.3v78.31H0ZM11.2,269.65H67V213.84H11.2Z"></path> <path d="M123.76,67.51V56.27h33.29V45h-10.7V33.66h10.82V.11h33.64V10.92H168.86V33.64h11l-.11-.11V44.72h11.1V89.79H168.51l.1.11c0-3.78-.07-7.57-.11-11.35h11.06V56.36h-11v22.3H157.13V67.54H146V89.79H134.75l.11.11V67.41H123.64Z"></path> <path d="M224.88,112.41V101.06l-.11.1H236V90.06h44.89V101H270v11.42H258.54V101.35H247.6v11h11v11.22H269.7v11.16h11.14V146H270v11.33H258.52l.11.11V146.18H236V134.81h11V123.67H236V112.3H224.77Z"></path> <path d="M112.36,33.53V44.59H90V.09H123.5V22.23h11V44.61H123.75v-11H112.26V22.57H101.32v11Z"></path> <path d="M101.11,213.69V202.47H89.91V191.3H56.28V180H89.62V157.43H101.1l-.1-.11v22.5h11.35v11.27h11.26c0,3.78-.07,7.57-.11,11.35l.11-.1H112.44v11.24H101Z"></path> <path d="M168.51,89.79V101h22.34v11.15H179.94v11.42h-11.2v11.15h11v34l.11-.12H168.51l.1.11V146H157.56V89.9h11.05Z"></path> <path d="M191.12,168.69V123.8h11.07V112.41h22.69l-.11-.11c0,3.79.07,7.57.11,11.36h-11v11.15h11c0,3.79,0,7.58,0,11.37H202.56v11.33h11v11.17l.1-.11H191Z"></path> <path d="M112.36,146.17V123.76h11.25V112.3l-.11.11h11.36V101.05l-.11.1h11.07v22.59H134.74v11.17l.11-.11H123.42v11.27H112.25Z"></path> <path d="M67.33,112.29H56.17V101H44.74l.11.11v-11H78.33v10.83H67.23V112.4Z"></path> <path d="M101.22,145.91H67.49V135.16h33.63V146A1.06,1.06,0,0,1,101.22,145.91Z"></path> <path d="M33.36,180.08v10.79H0V180.08Z"></path> <path d="M44.74,101l0,22.62.11-.1H33.48l.11.11V112.3H22.23l.11.11V101.06l-.11.1,22.61,0Z"></path> <path d="M22.33,123.55H0V112.41h22.3l-.11-.11v11.36Z"></path> <path d="M100.89,258.94v22H90.1v-22Z"></path> <path d="M67.23,112.4H89.51v11H67.33V112.29Z"></path> <path d="M101,213.58v22.29H90V213.69h11.07Z"></path> <path d="M101.09,78.53h-11V56.33H101V78.64Z"></path> <path d="M123.61,112.3H101.32V101.16H123.6l-.1-.11v11.36Z"></path> <path d="M134.74,269.88v11H112.55V270h22.3Z"></path> <path d="M22.35,101.06H.06v-11H22.24v11.06Z"></path> <path d="M56,157.43H78.26v10.95H56.1v-11Z"></path> <path d="M44.58,157.2v11.25h-22V157.3H44.7Z"></path> <path d="M10.83,157.21H0V146.35H10.83Z"></path> <path d="M56.1,157.33l-11.52-.13.12.1c0-3.57,0-7.15,0-11H56v11.08Z"></path> <path d="M101.1,157.43c0-3.84.08-7.67.12-11.52a1.06,1.06,0,0,0-.1.12l11.24.14-.11-.1v11.25H101Z"></path> <path d="M224.89,101.06h-11v-11h10.94v11.06Z"></path> <path d="M123.6,101.16V89.9h11.26l-.11-.11v11.36l.11-.1H123.5Z"></path> <path d="M101,78.64l11.36,0-.1-.11v11H101.09V78.53Z"></path> <path d="M44.72,123.65H55.77v11H44.83V123.55Z"></path> <path d="M112.34,78.66V67.51h11.42l-.12-.1c0,3.58,0,7.16,0,11.14H112.24Z"></path> <path d="M33.48,123.55v11H22.33v-11l-.1.11H33.59Z"></path> <path d="M179.86,33.64v-11h11V33.53H179.75Z"></path> <path d="M112.55,247.58h10.81v10.8H112.55Z"></path> <path d="M134.85,270V259h11c0,3.63,0,7.4,0,11.17L146,270l-11.25-.13Z"></path> <path d="M145.91.12v10.7H135V.12Z"></path> <path d="M134.74,134.91h11v11H134.85V134.8Z"></path> <path d="M146.11,179.93H134.75v-11h11.36Z"></path> <circle cx="129.18" cy="185.51" r="8.03"></circle> <path d="M123.6,179.93H112.25v-11H123.6Z"></path> <path d="M202.51,202.55h10.81v10.87H202.51Z"></path> <path d="M224.77,146.07h11.36v11.36H224.77Z"></path> <path d="M22.48,22.49H55.77V55.85H22.48Z"></path> <path d="M258.37,55.91H225.1V22.56h33.27Z"></path> <path d="M55.87,225.16v33.3H22.58v-33.3Z"></path> <circle cx="230.45" cy="129.24" r="8.03"></circle> </g> </g> </svg> 