<svg width="24" height="20" viewBox="0 0 24 20" fill="none" xmlns="http://www.w3.org/2000/svg">
<path d="M23.3748 2.95353C22.5381 3.31446 21.6275 3.57423 20.6896 3.6754C21.6634 3.09691 22.3926 2.18298 22.7404 1.10509C21.8267 1.64865 20.8257 2.02981 19.7818 2.23165C19.3455 1.76524 18.8179 1.39367 18.2317 1.14011C17.6456 0.886545 17.0135 0.756413 16.3748 0.757824C13.7908 0.757824 11.7127 2.85236 11.7127 5.42267C11.7127 5.7836 11.7564 6.14454 11.8275 6.49181C7.9584 6.28946 4.50762 4.44103 2.21348 1.61095C1.79546 2.32494 1.5764 3.13789 1.5791 3.96524C1.5791 5.58399 2.40215 7.01134 3.65723 7.85079C2.91759 7.82166 2.19527 7.61836 1.54902 7.25743V7.31485C1.54902 9.58165 3.15137 11.4602 5.28691 11.8922C4.88594 11.9964 4.47346 12.0496 4.05918 12.0508C3.75566 12.0508 3.46855 12.0207 3.17871 11.9797C3.76933 13.8281 5.48926 15.1707 7.5373 15.2145C5.93496 16.4695 3.92793 17.2078 1.74863 17.2078C1.35762 17.2078 0.99668 17.1942 0.62207 17.1504C2.68926 18.4766 5.14199 19.2422 7.7834 19.2422C16.3584 19.2422 21.0506 12.1383 21.0506 5.97228C21.0506 5.76993 21.0506 5.56759 21.0369 5.36524C21.9447 4.70079 22.7404 3.87775 23.3748 2.95353Z" fill="black"/>
</svg>
