<svg width="28" height="20" viewBox="0 0 28 20" fill="none" xmlns="http://www.w3.org/2000/svg">
<path d="M27.4119 3.23712C27.2493 2.65589 26.9394 2.12649 26.5122 1.70017C26.0849 1.27386 25.5549 0.965087 24.9733 0.803746C22.7902 0.220121 14.0139 0.220121 14.0139 0.220121C14.0139 0.220121 5.25429 0.206121 3.04841 0.803746C2.46776 0.965796 1.93873 1.2749 1.51246 1.70117C1.08619 2.12744 0.777086 2.65647 0.615036 3.23712C0.200461 5.47206 -0.00372401 7.74095 0.0051607 10.014C0.00111549 12.2761 0.205268 14.5338 0.615036 16.7585C0.77761 17.3395 1.0868 17.8689 1.51293 18.2959C1.93905 18.723 2.4678 19.0333 3.04841 19.1971C5.23153 19.7807 14.0139 19.7807 14.0139 19.7807C14.0139 19.7807 22.7683 19.7807 24.9733 19.1971C25.5548 19.034 26.0846 18.724 26.5117 18.2969C26.9388 17.8698 27.2488 17.34 27.4119 16.7585C27.8135 14.5351 28.0095 12.2741 27.9955 10.014C28.0095 7.739 27.8179 5.4745 27.4119 3.23712ZM11.2104 14.2026V5.807L18.5158 10.014L11.2104 14.2026Z" fill="black"/>
</svg>
