<svg width="24" height="24" viewBox="0 0 24 24" fill="none" xmlns="http://www.w3.org/2000/svg">
<path d="M16.6862 0.333374H7.27117C5.43152 0.335536 3.66785 1.06737 2.36713 2.36832C1.0664 3.66926 0.33486 5.43305 0.333008 7.27271L0.333008 16.6877C0.33517 18.5274 1.06701 20.291 2.36795 21.5918C3.66889 22.8925 5.43269 23.624 7.27234 23.6259H16.6873C18.527 23.6237 20.2907 22.8919 21.5914 21.5909C22.8921 20.29 23.6237 18.5262 23.6255 16.6865V7.27154C23.6233 5.43189 22.8915 3.66822 21.5906 2.36749C20.2896 1.06677 18.5258 0.335227 16.6862 0.333374V0.333374ZM21.2828 16.6865C21.2828 17.2902 21.1639 17.8879 20.9329 18.4456C20.7019 19.0033 20.3633 19.51 19.9365 19.9369C19.5097 20.3637 19.0029 20.7023 18.4452 20.9333C17.8875 21.1643 17.2898 21.2832 16.6862 21.2832H7.27117C6.05226 21.2829 4.88338 20.7985 4.02159 19.9365C3.1598 19.0745 2.67567 17.9055 2.67567 16.6865V7.27154C2.67598 6.05263 3.16041 4.88375 4.02242 4.02196C4.88443 3.16017 6.05343 2.67604 7.27234 2.67604H16.6873C17.9062 2.67635 19.0751 3.16078 19.9369 4.02279C20.7987 4.88479 21.2828 6.0538 21.2828 7.27271V16.6877V16.6865Z" fill="black"/>
<path d="M11.9784 5.95557C10.3817 5.95804 8.85118 6.59348 7.72227 7.72261C6.59336 8.85173 5.95821 10.3824 5.95605 11.9791C5.95791 13.5761 6.59308 15.1073 7.72227 16.2367C8.85146 17.3661 10.3825 18.0016 11.9796 18.0037C13.5768 18.0019 15.1082 17.3665 16.2376 16.2371C17.367 15.1077 18.0024 13.5763 18.0042 11.9791C18.0018 10.382 17.366 8.8511 16.2364 7.72213C15.1067 6.59315 13.5755 5.95828 11.9784 5.95673V5.95557ZM11.9784 15.6611C11.0022 15.6611 10.0659 15.2733 9.37565 14.583C8.68536 13.8927 8.29756 12.9565 8.29756 11.9802C8.29756 11.004 8.68536 10.0678 9.37565 9.37749C10.0659 8.6872 11.0022 8.2994 11.9784 8.2994C12.9546 8.2994 13.8908 8.6872 14.5811 9.37749C15.2714 10.0678 15.6592 11.004 15.6592 11.9802C15.6592 12.9565 15.2714 13.8927 14.5811 14.583C13.8908 15.2733 12.9546 15.6611 11.9784 15.6611Z" fill="black"/>
<path d="M18.0154 7.44419C18.8125 7.44419 19.4586 6.79807 19.4586 6.00103C19.4586 5.20399 18.8125 4.55786 18.0154 4.55786C17.2184 4.55786 16.5723 5.20399 16.5723 6.00103C16.5723 6.79807 17.2184 7.44419 18.0154 7.44419Z" fill="black"/>
</svg>
