<?xml version="1.0" encoding="UTF-8"?> <svg xmlns="http://www.w3.org/2000/svg" width="1178" height="124" viewBox="0 0 1178 124" fill="none"> <path d="M43.3621 41.7425C43.3621 43.5159 44.8092 44.9508 46.5978 44.9508C48.3865 44.9508 49.8336 43.5159 49.8336 41.7425C49.8336 39.969 48.3865 38.5342 46.5978 38.5342C44.8092 38.5342 43.3621 39.969 43.3621 41.7425Z" fill="black"></path> <path d="M59.0746 78.3974L82.9923 68.7101C82.9923 87.1489 79.1633 97.2016 60.3329 97.2016C42.5452 97.2016 29.4672 86.1953 29.4672 62.4183C29.4672 57.3385 30.2402 52.6954 31.6604 48.5691L23.7148 44.3092L32.2716 43.1239L27.7325 35.0854L36.55 39.3542C38.8959 36.2974 41.7362 33.7931 44.99 31.9395C49.2234 29.1411 56.2792 24.7475 60.6565 23.4196L56.6747 28.2856C57.7083 28.1875 58.76 28.1341 59.8206 28.1341C69.8964 28.1341 76.6017 31.9662 78.7858 38.9531H111.009C106.479 16.4862 88.8616 0.845703 59.9914 0.845703C21.8991 0.854615 0.749756 26.1556 0.749756 62.4272C0.749756 99.3672 21.7284 124 59.9914 124C98.5959 124 113.867 97.0412 113.867 69.0844V53.2212H59.0746V78.3974Z" fill="black"></path> <path d="M227.506 84.6363H224.144L212.064 36.387H175.985L163.905 84.6363H160.552L151.322 3.10986H121.786L136.221 121.906H178.502L192.263 64.6735H195.625L209.377 121.906H251.496L265.931 3.10986H236.728L227.506 84.6363Z" fill="black"></path> <path d="M309.055 3.10986L273.147 121.906H303.518L312.075 91.1242H352.351L361.079 121.906H392.125L356.207 3.10986H309.055ZM318.789 66.8391L328.524 32.4034H335.903L345.466 66.8391H318.789Z" fill="black"></path> <path d="M510.25 41.5471C510.25 17.4224 493.972 3.10986 466.45 3.10986H407.882V121.906H439.09V80.314H463.924L478.863 121.906H510.07L492.785 74.1558C504.039 67.8373 510.25 56.5191 510.25 41.5471ZM462.252 54.5228H439.099V30.0685H462.252C473.829 30.0685 478.359 34.2304 478.359 42.2154C478.368 50.0312 473.838 54.5228 462.252 54.5228Z" fill="black"></path> <path d="M559.711 3.10986L523.802 121.906H554.174L562.731 91.1242H603.007L611.735 121.906H642.78L606.863 3.10986H559.711ZM569.445 66.8391L579.179 32.4034H586.559L596.122 66.8391H569.445Z" fill="black"></path> <path d="M718.507 58.854H715.146L684.442 3.10986H659.607V121.906H674.375V20.0871H677.728L708.935 76.4908H724.377L755.593 20.0871H758.946V121.906H773.713V3.10986H748.708L718.507 58.854Z" fill="black"></path> <path d="M818.853 67.1689H873.888V53.5247H818.853V16.754H887.145V3.10986H803.743V121.906H889.833V108.262H818.853V67.1689Z" fill="black"></path> <path d="M955.087 3.10986H910.281V121.906H955.087C991.831 121.906 1010.46 98.1111 1010.46 62.5079C1010.45 26.7354 991.831 3.10986 955.087 3.10986ZM955.087 108.262H925.39V16.754H955.087C984.281 16.754 995.192 37.5545 995.192 62.5079C995.192 87.3009 984.281 108.262 955.087 108.262Z" fill="black"></path> <path d="M1050.48 3.10986H1035.38V121.906H1050.48V3.10986Z" fill="black"></path> <path d="M1135.94 3.10986H1110.43L1068.99 121.906H1084.43L1096.85 85.4651H1149.37L1161.78 121.906H1177.56L1135.94 3.10986ZM1101.37 71.8298L1119.66 18.4206H1126.38L1144.67 71.8298H1101.37Z" fill="black"></path> </svg> 