<?xml version="1.0" encoding="UTF-8"?> <svg xmlns="http://www.w3.org/2000/svg" width="168" height="29" viewBox="0 0 168 29" fill="none"> <path d="M13.782 1H18.684V20H13.782V17.872C12.5913 19.6453 10.704 20.532 8.12 20.532C6.04267 20.532 4.32 19.8353 2.952 18.442C1.60933 17.0487 0.938 15.1233 0.938 12.666V1H5.84V12.058C5.84 13.3247 6.182 14.3 6.866 14.984C7.55 15.6427 8.462 15.972 9.602 15.972C10.8687 15.972 11.882 15.5793 12.642 14.794C13.402 14.0087 13.782 12.8307 13.782 11.26V1ZM37.6136 1H42.5156V20H37.6136V17.758C36.1443 19.6073 34.0796 20.532 31.4196 20.532C28.8863 20.532 26.7076 19.5693 24.8836 17.644C23.085 15.6933 22.1856 13.312 22.1856 10.5C22.1856 7.688 23.085 5.31933 24.8836 3.394C26.7076 1.44333 28.8863 0.468 31.4196 0.468C34.0796 0.468 36.1443 1.39267 37.6136 3.242V1ZM28.5696 14.376C29.5576 15.364 30.8116 15.858 32.3316 15.858C33.8516 15.858 35.1056 15.364 36.0936 14.376C37.107 13.3627 37.6136 12.0707 37.6136 10.5C37.6136 8.92933 37.107 7.65 36.0936 6.662C35.1056 5.64867 33.8516 5.142 32.3316 5.142C30.8116 5.142 29.5576 5.64867 28.5696 6.662C27.5816 7.65 27.0876 8.92933 27.0876 10.5C27.0876 12.0707 27.5816 13.3627 28.5696 14.376Z" fill="#F2F2F2"></path> <path d="M51.1028 12.514C51.7614 14.8953 53.5474 16.086 56.4608 16.086C58.3354 16.086 59.7541 15.4527 60.7168 14.186L64.6688 16.466C62.7941 19.1767 60.0328 20.532 56.3848 20.532C53.2434 20.532 50.7228 19.582 48.8228 17.682C46.9228 15.782 45.9727 13.388 45.9727 10.5C45.9727 7.63733 46.9101 5.256 48.7848 3.356C50.6594 1.43067 53.0661 0.468 56.0048 0.468C58.7914 0.468 61.0841 1.43067 62.8828 3.356C64.7068 5.28133 65.6188 7.66267 65.6188 10.5C65.6188 11.1333 65.5554 11.8047 65.4288 12.514H51.1028ZM51.0268 8.714H60.7168C60.4381 7.422 59.8554 6.45933 58.9688 5.826C58.1074 5.19267 57.1194 4.876 56.0048 4.876C54.6874 4.876 53.5981 5.218 52.7368 5.902C51.8754 6.56067 51.3054 7.498 51.0268 8.714ZM79.6048 0.468C81.6822 0.468 83.3922 1.16467 84.7348 2.558C86.1028 3.95133 86.7868 5.87667 86.7868 8.334V20H81.8848V8.942C81.8848 7.67533 81.5428 6.71267 80.8588 6.054C80.1748 5.37 79.2628 5.028 78.1228 5.028C76.8562 5.028 75.8428 5.42067 75.0828 6.206C74.3228 6.99133 73.9428 8.16933 73.9428 9.74V20H69.0408V1H73.9428V3.128C75.1335 1.35467 77.0208 0.468 79.6048 0.468ZM95.1145 12.514C95.7731 14.8953 97.5591 16.086 100.472 16.086C102.347 16.086 103.766 15.4527 104.728 14.186L108.68 16.466C106.806 19.1767 104.044 20.532 100.396 20.532C97.2551 20.532 94.7345 19.582 92.8345 17.682C90.9345 15.782 89.9845 13.388 89.9845 10.5C89.9845 7.63733 90.9218 5.256 92.7965 3.356C94.6711 1.43067 97.0778 0.468 100.016 0.468C102.803 0.468 105.096 1.43067 106.894 3.356C108.718 5.28133 109.63 7.66267 109.63 10.5C109.63 11.1333 109.567 11.8047 109.44 12.514H95.1145ZM95.0385 8.714H104.728C104.45 7.422 103.867 6.45933 102.98 5.826C102.119 5.19267 101.131 4.876 100.016 4.876C98.6991 4.876 97.6098 5.218 96.7485 5.902C95.8871 6.56067 95.3171 7.498 95.0385 8.714ZM117.955 4.268C118.411 3.052 119.158 2.14 120.197 1.532C121.261 0.923998 122.439 0.619998 123.731 0.619998V6.092C122.236 5.91467 120.893 6.21867 119.703 7.004C118.537 7.78933 117.955 9.094 117.955 10.918V20H113.053V1H117.955V4.268ZM140.446 1H145.234V19.088C145.234 22.0267 144.259 24.2687 142.308 25.814C140.383 27.3593 138.052 28.132 135.316 28.132C133.264 28.132 131.453 27.7393 129.882 26.954C128.337 26.1687 127.146 25.016 126.31 23.496L130.49 21.102C131.453 22.8753 133.112 23.762 135.468 23.762C137.014 23.762 138.23 23.3567 139.116 22.546C140.003 21.7353 140.446 20.5827 140.446 19.088V17.036C139.002 18.9613 136.976 19.924 134.366 19.924C131.681 19.924 129.426 18.9867 127.602 17.112C125.804 15.212 124.904 12.9067 124.904 10.196C124.904 7.51067 125.816 5.218 127.64 3.318C129.464 1.418 131.706 0.468 134.366 0.468C136.976 0.468 139.002 1.43067 140.446 3.356V1ZM131.288 13.958C132.302 14.9207 133.581 15.402 135.126 15.402C136.672 15.402 137.938 14.9207 138.926 13.958C139.94 12.97 140.446 11.716 140.446 10.196C140.446 8.70133 139.94 7.47267 138.926 6.51C137.938 5.522 136.672 5.028 135.126 5.028C133.581 5.028 132.302 5.522 131.288 6.51C130.3 7.47267 129.806 8.70133 129.806 10.196C129.806 11.716 130.3 12.97 131.288 13.958ZM162.068 1H167.312L160.396 20C159.408 22.736 158.09 24.712 156.444 25.928C154.822 27.1693 152.796 27.7267 150.364 27.6V23.04C151.681 23.0653 152.72 22.7867 153.48 22.204C154.265 21.6213 154.886 20.684 155.342 19.392L147.552 1H152.91L157.85 13.768L162.068 1Z" fill="#223F63"></path> </svg> 