<svg width="896" height="95" viewBox="0 0 896 95" fill="none" xmlns="http://www.w3.org/2000/svg">
<path d="M179.286 5.03906L172.436 65.8062H169.946L160.979 29.842H134.202L125.235 65.8062H122.745L115.895 5.03906H93.9756L104.686 93.5855H136.07L146.283 50.9244H148.774L158.986 93.5855H190.246L200.956 5.03906H179.286Z" fill="black"/>
<path d="M268.514 5.03906H233.518L206.866 93.5855H229.408L235.76 70.6428H265.649L272.126 93.5855H295.166L268.514 5.03906ZM247.965 26.8656H253.444L260.543 52.5366H240.741L247.965 26.8656Z" fill="black"/>
<path d="M350.358 5.03906H306.893V93.5855H330.058V62.5818H348.49L359.574 93.5855H382.738L369.911 57.9933C378.255 53.2807 382.863 44.8477 382.863 33.6864C382.863 15.7043 370.782 5.03906 350.358 5.03906ZM347.244 43.3596H330.058V25.1294H347.244C355.838 25.1294 359.2 28.2298 359.2 34.1825C359.2 40.0112 355.838 43.3596 347.244 43.3596Z" fill="black"/>
<path d="M452.893 5.03906H417.897L391.245 93.5855H413.787L420.139 70.6428H450.028L456.505 93.5855H479.545L452.893 5.03906ZM432.344 26.8656H437.823L444.922 52.5366H425.12L432.344 26.8656Z" fill="black"/>
<path d="M506.445 93.5855H517.422V17.6885H519.917L543.118 59.7295H554.594L577.795 17.6885H580.29V93.5855H591.267V5.03906H572.681L550.228 46.5839H547.733L524.906 5.03906H506.445V93.5855Z" fill="black"/>
<path d="M625.233 83.4163V52.7847H666.147V42.6155H625.233V15.2083H676.002V5.03906H614.007V93.5855H677.997V83.4163H625.233Z" fill="black"/>
<path d="M728.684 5.03906H695.379V93.5855H728.684C756.001 93.5855 769.847 75.8514 769.847 49.3123C769.847 22.6491 756.001 5.03906 728.684 5.03906ZM728.684 83.4163H706.605V15.2083H728.684C750.388 15.2083 758.496 30.7101 758.496 49.3123C758.496 67.7904 750.388 83.4163 728.684 83.4163Z" fill="black"/>
<path d="M788.828 5.03906V93.5855H800.054V5.03906H788.828Z" fill="black"/>
<path d="M883.651 93.5855H895.376L864.441 5.03906H845.481L814.671 93.5855H826.147L835.378 66.4263H874.421L883.651 93.5855ZM852.342 16.4484H857.331L870.928 56.2571H838.745L852.342 16.4484Z" fill="black"/>
<path d="M35.6914 34.1809C36.9294 34.1809 37.9331 33.1772 37.9331 31.9392C37.9331 30.7011 36.9294 29.6975 35.6914 29.6975C34.4533 29.6975 33.4497 30.7011 33.4497 31.9392C33.4497 33.1772 34.4533 34.1809 35.6914 34.1809Z" fill="black"/>
<path d="M45.4317 40.5979V59.8592L63.6741 52.4375C63.6741 66.5388 60.7581 74.208 46.3918 74.208C32.8078 74.208 22.8509 65.7967 22.8509 47.631C22.8509 44.3795 23.2776 41.3755 24.06 38.6188L15.4188 33.989L24.4156 32.7521L19.6505 24.27L29.2162 28.8998C30.0696 27.9102 30.9942 26.956 32.0255 26.1431H31.9899C31.9899 26.1431 32.1321 26.0371 32.3455 25.8957C33.0923 25.3303 33.8746 24.8001 34.6569 24.3054C37.8929 22.1849 43.2981 18.792 46.6407 17.7671L43.6181 21.478C44.4004 21.4073 45.2183 21.372 46.0362 21.372C53.7172 21.372 58.8379 24.3054 60.5092 29.642H85.0813C81.5964 12.5012 68.1547 0.555664 46.1429 0.555664C17.0901 0.555664 0.945801 19.8876 0.945801 47.631C0.945801 75.8691 16.9479 94.7063 46.1429 94.7063C75.5868 94.7063 87.2505 74.102 87.2505 52.7202V40.5979H45.4317Z" fill="black"/>
</svg>
