<svg width="88" height="95" viewBox="0 0 88 95" fill="none" xmlns="http://www.w3.org/2000/svg">
    <path d="M45.4317 40.5979V59.8592L63.6741 52.4375C63.6741 66.5388 60.7581 74.208 46.3918 74.208C32.8078 74.208 22.8509 65.7967 22.8509 47.631C22.8509 44.3795 23.2776 41.3755 24.06 38.6188L15.4188 33.989L24.4156 32.7521L19.6505 24.27L29.2162 28.8998C30.0696 27.9102 30.9942 26.956 32.0255 26.1431H31.9899C31.9899 26.1431 32.1321 26.0371 32.3455 25.8957C33.0923 25.3303 33.8746 24.8001 34.6569 24.3054C37.8929 22.1849 43.2981 18.792 46.6407 17.7671L43.6181 21.478C44.4004 21.4073 45.2183 21.372 46.0362 21.372C53.7172 21.372 58.8379 24.3054 60.5092 29.642H85.0813C81.5964 12.5012 68.1547 0.555664 46.1429 0.555664C17.0901 0.555664 0.945801 19.8876 0.945801 47.631C0.945801 75.8691 16.9479 94.7063 46.1429 94.7063C75.5868 94.7063 87.2505 74.102 87.2505 52.7202V40.5979H45.4317Z" fill="black"/>
</svg>
