<svg width="33" height="37" viewBox="0 0 33 37" fill="none" xmlns="http://www.w3.org/2000/svg">
<path d="M29.2925 3.40757C24.7849 -1.10005 17.4444 -1.10005 12.9416 3.40757L0.452339 15.8873C0.370992 15.9686 0.327925 16.0787 0.327925 16.1935C0.327925 16.3083 0.370992 16.4184 0.452339 16.4998L2.21806 18.2655C2.29877 18.3458 2.40803 18.391 2.52192 18.391C2.63581 18.391 2.74507 18.3458 2.82578 18.2655L15.315 5.78579C16.8654 4.2354 18.9278 3.38364 21.1194 3.38364C23.311 3.38364 25.3734 4.2354 26.919 5.78579C28.4694 7.33618 29.3212 9.39858 29.3212 11.5854C29.3212 13.777 28.4694 15.8346 26.919 17.385L14.1905 30.1087L12.1281 32.1711C10.1997 34.0996 7.06542 34.0996 5.13701 32.1711C4.2039 31.238 3.69189 29.9987 3.69189 28.678C3.69189 27.3573 4.2039 26.1179 5.13701 25.1848L17.765 12.5616C18.0856 12.2458 18.5067 12.0687 18.9565 12.0687H18.9613C19.4111 12.0687 19.8274 12.2458 20.1433 12.5616C20.4639 12.8822 20.6361 13.3033 20.6361 13.7531C20.6361 14.1981 20.4591 14.6192 20.1433 14.935L9.82168 25.247C9.74033 25.3284 9.69726 25.4384 9.69726 25.5533C9.69726 25.6681 9.74033 25.7782 9.82168 25.8595L11.5874 27.6252C11.6681 27.7056 11.7774 27.7507 11.8913 27.7507C12.0051 27.7507 12.1144 27.7056 12.1951 27.6252L22.5119 17.3084C23.4642 16.3562 23.9857 15.0929 23.9857 13.7483C23.9857 12.4037 23.4594 11.1356 22.5119 10.1881C20.5452 8.22144 17.3487 8.22622 15.382 10.1881L14.157 11.4179L2.75878 22.8114C1.98517 23.5805 1.37194 24.4955 0.954663 25.5033C0.537381 26.5112 0.324351 27.5919 0.327925 28.6828C0.327925 30.8983 1.19404 32.9798 2.75878 34.5446C4.38095 36.162 6.50556 36.9707 8.63017 36.9707C10.7548 36.9707 12.8794 36.162 14.4968 34.5446L29.2925 19.7584C31.4697 17.5764 32.6756 14.6718 32.6756 11.5854C32.6804 8.49419 31.4745 5.5896 29.2925 3.40757Z" fill="white"/>
</svg>
