<?xml version="1.0" encoding="UTF-8"?> <svg xmlns="http://www.w3.org/2000/svg" width="879" height="957" viewBox="0 0 879 957" fill="none"> <path d="M355.991 342.408C369.77 342.408 380.94 331.325 380.94 317.654C380.94 303.982 369.77 292.899 355.991 292.899C342.212 292.899 331.042 303.982 331.042 317.654C331.042 331.325 342.212 342.408 355.991 342.408Z" fill="black"></path> <path d="M452.894 406.992V602.518L638.384 527.178C638.384 670.324 608.735 748.176 462.657 748.176C324.534 748.176 223.292 662.79 223.292 478.386C223.292 445.38 227.631 414.885 235.585 386.902L147.722 339.904L239.201 327.347L190.75 241.244L288.014 288.242C296.692 278.197 306.093 268.51 316.579 260.258H316.217C316.217 260.258 317.664 259.182 319.833 257.747C327.426 252.007 335.381 246.625 343.336 241.603C376.24 220.077 431.2 185.636 465.188 175.232L434.454 212.902C442.408 212.184 450.725 211.825 459.041 211.825C537.142 211.825 589.209 241.603 606.204 295.776H856.054C820.62 121.776 683.943 0.51416 460.126 0.51416C164.716 0.51416 0.559326 196.757 0.559326 478.386C0.559326 765.038 163.27 956.258 460.126 956.258C759.513 956.258 878.111 747.1 878.111 530.048V406.992H452.894Z" fill="black"></path> </svg> 